<svg width="32" height="160" viewBox="0 0 32 160" fill="none" xmlns="http://www.w3.org/2000/svg">
<path d="M21.09 112.6C20.9525 112.572 20.8096 112.599 20.6906 112.673C20.5716 112.747 20.4856 112.864 20.45 113C20.2649 113.828 19.8418 114.583 19.2328 115.174C18.6238 115.764 17.8554 116.164 17.0223 116.323C16.1892 116.483 15.3277 116.395 14.5437 116.071C13.7598 115.747 13.0876 115.201 12.61 114.5L13.1 114.16C13.1746 114.108 13.2342 114.037 13.2728 113.954C13.3115 113.872 13.3277 113.781 13.32 113.69C13.3055 113.6 13.2686 113.516 13.2126 113.444C13.1567 113.372 13.0836 113.316 13 113.28L11.2 112.58C11.1255 112.555 11.0461 112.547 10.968 112.557C10.8899 112.568 10.8153 112.596 10.75 112.64C10.6824 112.682 10.6267 112.742 10.5882 112.811C10.5497 112.881 10.5297 112.96 10.53 113.04V115.04C10.5308 115.13 10.5553 115.218 10.6009 115.295C10.6466 115.372 10.7118 115.436 10.79 115.48C10.8606 115.519 10.9396 115.539 11.02 115.54C11.1162 115.542 11.2106 115.514 11.29 115.46L11.78 115.13C12.3735 116 13.209 116.678 14.1833 117.078C15.1577 117.479 16.228 117.586 17.2621 117.384C18.2963 117.183 19.2488 116.684 20.002 115.947C20.7551 115.211 21.276 114.269 21.5 113.24C21.5346 113.105 21.5167 112.962 21.45 112.84C21.364 112.718 21.2357 112.632 21.09 112.6V112.6ZM10.9 111.4C11.0378 111.43 11.1819 111.405 11.3015 111.33C11.4211 111.256 11.5067 111.137 11.54 111C11.7234 110.17 12.1462 109.411 12.756 108.819C13.3658 108.226 14.136 107.825 14.9712 107.666C15.8064 107.506 16.6701 107.595 17.4555 107.921C18.2408 108.247 18.9134 108.796 19.39 109.5L18.89 109.84C18.8187 109.895 18.7621 109.966 18.7254 110.048C18.6887 110.13 18.6731 110.22 18.68 110.31C18.6908 110.4 18.7251 110.485 18.7796 110.557C18.8341 110.629 18.9067 110.685 18.99 110.72L20.8 111.42C20.8747 111.445 20.954 111.452 21.0319 111.442C21.1099 111.431 21.1844 111.403 21.25 111.36C21.3146 111.315 21.3673 111.255 21.4039 111.186C21.4404 111.116 21.4597 111.039 21.46 110.96V108.96C21.4593 108.871 21.4359 108.785 21.3922 108.708C21.3484 108.631 21.2857 108.566 21.21 108.52C21.1328 108.474 21.0448 108.45 20.955 108.45C20.8653 108.45 20.7772 108.474 20.7 108.52L20.23 108.86C19.6368 107.986 18.8001 107.306 17.8237 106.904C16.8472 106.502 15.7742 106.395 14.7377 106.598C13.7013 106.8 12.7471 107.302 11.9938 108.042C11.2404 108.782 10.721 109.727 10.5 110.76C10.4666 110.895 10.4877 111.038 10.5588 111.158C10.6299 111.278 10.7453 111.365 10.88 111.4H10.9Z" fill="#00003D"/>
<path d="M16 127C24.2843 127 31 120.284 31 112C31 103.716 24.2843 97 16 97C7.71573 97 1 103.716 1 112C1 120.284 7.71573 127 16 127Z" stroke="#00003D" stroke-miterlimit="10"/>
<path d="M16 159C24.2843 159 31 152.284 31 144C31 135.716 24.2843 129 16 129C7.71573 129 1 135.716 1 144C1 152.284 7.71573 159 16 159Z" stroke="#00003D" stroke-miterlimit="10"/>
<path d="M16 137C14.6155 137 13.2622 137.411 12.111 138.18C10.9599 138.949 10.0627 140.042 9.53285 141.321C9.00303 142.6 8.86441 144.008 9.13451 145.366C9.4046 146.724 10.0713 147.971 11.0503 148.95C12.0292 149.929 13.2765 150.595 14.6344 150.865C15.9922 151.136 17.3997 150.997 18.6788 150.467C19.9579 149.937 21.0511 149.04 21.8203 147.889C22.5895 146.738 23 145.384 23 144C23 142.143 22.2625 140.363 20.9497 139.05C19.637 137.737 17.8565 137 16 137V137ZM16 150.14C14.7817 150.138 13.5913 149.775 12.5794 149.096C11.5675 148.418 10.7795 147.454 10.3151 146.328C9.85069 145.202 9.73071 143.963 9.97033 142.768C10.21 141.574 10.7984 140.477 11.6613 139.617C12.5242 138.757 13.6228 138.172 14.8181 137.936C16.0134 137.701 17.2517 137.825 18.3766 138.293C19.5014 138.761 20.4622 139.552 21.1374 140.566C21.8126 141.58 22.172 142.772 22.17 143.99C22.1647 145.623 21.5123 147.187 20.3558 148.34C19.1993 149.493 17.6329 150.14 16 150.14V150.14ZM16.6 143.99L19.27 141.32C19.3418 141.237 19.3813 141.13 19.3813 141.02C19.3813 140.91 19.3418 140.803 19.27 140.72C19.2325 140.677 19.1863 140.643 19.1346 140.62C19.0829 140.597 19.0268 140.585 18.97 140.585C18.9133 140.585 18.8572 140.597 18.8054 140.62C18.7537 140.643 18.7075 140.677 18.67 140.72L16 143.41L13.33 140.72C13.2504 140.64 13.1425 140.596 13.03 140.596C12.9175 140.596 12.8096 140.64 12.73 140.72C12.6504 140.8 12.6057 140.907 12.6057 141.02C12.6057 141.133 12.6504 141.24 12.73 141.32L15.4 143.99L12.73 146.68C12.6874 146.718 12.6534 146.764 12.63 146.815C12.6067 146.867 12.5946 146.923 12.5946 146.98C12.5946 147.037 12.6067 147.093 12.63 147.145C12.6534 147.196 12.6874 147.242 12.73 147.28C12.7684 147.321 12.8148 147.354 12.8664 147.376C12.918 147.399 12.9737 147.411 13.03 147.411C13.0863 147.411 13.142 147.399 13.1936 147.376C13.2452 147.354 13.2916 147.321 13.33 147.28L16 144.59L18.67 147.25C18.7084 147.291 18.7548 147.324 18.8064 147.346C18.858 147.369 18.9137 147.381 18.97 147.381C19.0263 147.381 19.082 147.369 19.1336 147.346C19.1852 147.324 19.2316 147.291 19.27 147.25C19.3126 147.212 19.3467 147.166 19.37 147.115C19.3934 147.063 19.4054 147.007 19.4054 146.95C19.4054 146.893 19.3934 146.837 19.37 146.785C19.3467 146.734 19.3126 146.688 19.27 146.65L16.6 143.99Z" fill="#00003D"/>
<path d="M16 95C24.2843 95 31 88.2843 31 80C31 71.7157 24.2843 65 16 65C7.71573 65 1 71.7157 1 80C1 88.2843 7.71573 95 16 95Z" stroke="#00003D" stroke-miterlimit="10"/>
<path d="M14.5 84C14.4344 84.0008 14.3694 83.9879 14.3091 83.962C14.2488 83.9362 14.1946 83.898 14.15 83.85L11.15 80.85C11.0572 80.7572 11.005 80.6313 11.005 80.5C11.005 80.3687 11.0572 80.2428 11.15 80.15C11.2428 80.0572 11.3687 80.005 11.5 80.005C11.6313 80.005 11.7572 80.0572 11.85 80.15L14.5 82.76L20.15 76.17C20.2375 76.0692 20.3615 76.0073 20.4946 75.9979C20.6278 75.9886 20.7592 76.0325 20.86 76.12C20.9608 76.2075 21.0226 76.3315 21.032 76.4646C21.0414 76.5978 20.9975 76.7292 20.91 76.83L14.91 83.83C14.8166 83.9313 14.6875 83.9923 14.55 84H14.5Z" fill="#00003D"/>
<path d="M16 63C24.2843 63 31 56.2843 31 48C31 39.7157 24.2843 33 16 33C7.71573 33 1 39.7157 1 48C1 56.2843 7.71573 63 16 63Z" stroke="#00003D" stroke-miterlimit="10"/>
<path d="M20.82 52.22L18.66 50.05C19.301 49.292 19.655 48.3327 19.66 47.34C19.66 46.4915 19.4084 45.6621 18.937 44.9566C18.4656 44.2511 17.7956 43.7012 17.0117 43.3765C16.2278 43.0518 15.3653 42.9669 14.5331 43.1324C13.7009 43.298 12.9365 43.7065 12.3365 44.3065C11.7366 44.9065 11.328 45.6709 11.1624 46.5031C10.9969 47.3352 11.0819 48.1978 11.4066 48.9817C11.7313 49.7656 12.2811 50.4356 12.9866 50.907C13.6921 51.3784 14.5215 51.63 15.37 51.63C16.3627 51.625 17.322 51.271 18.08 50.63L20.25 52.79C20.2876 52.8321 20.3339 52.8655 20.3857 52.8879C20.4375 52.9104 20.4936 52.9213 20.55 52.92C20.6078 52.9202 20.665 52.9089 20.7182 52.8865C20.7715 52.8642 20.8197 52.8314 20.86 52.79C20.9382 52.7097 20.982 52.6021 20.982 52.49C20.982 52.3779 20.9382 52.2703 20.86 52.19L20.82 52.22ZM11.91 47.34C11.91 46.6616 12.1112 45.9984 12.4881 45.4344C12.865 44.8703 13.4007 44.4307 14.0274 44.1711C14.6542 43.9115 15.3438 43.8435 16.0092 43.9759C16.6745 44.1082 17.2857 44.4349 17.7654 44.9146C18.2451 45.3943 18.5718 46.0055 18.7041 46.6708C18.8365 47.3362 18.7685 48.0258 18.5089 48.6526C18.2493 49.2793 17.8097 49.815 17.2456 50.1919C16.6816 50.5688 16.0184 50.77 15.34 50.77C14.4311 50.7674 13.5602 50.4051 12.9176 49.7625C12.2749 49.1198 11.9127 48.2489 11.91 47.34V47.34Z" fill="#00003D"/>
<path d="M16 31C24.2843 31 31 24.2843 31 16C31 7.71573 24.2843 1 16 1C7.71573 1 1 7.71573 1 16C1 24.2843 7.71573 31 16 31Z" stroke="#00003D" stroke-miterlimit="10"/>
<path d="M13.1 16.5C13.0619 16.5381 13.0317 16.5833 13.0111 16.633C12.9905 16.6828 12.9799 16.7361 12.9799 16.79C12.9799 16.8439 12.9905 16.8972 13.0111 16.947C13.0317 16.9967 13.0619 17.0419 13.1 17.08L15.7 19.57C15.7402 19.609 15.7878 19.6396 15.84 19.66V19.66C15.8876 19.6798 15.9385 19.69 15.99 19.69C16.0415 19.69 16.0925 19.6798 16.14 19.66V19.66C16.1922 19.6396 16.2398 19.609 16.28 19.57L18.88 17.08C18.9181 17.0419 18.9483 16.9967 18.969 16.947C18.9896 16.8972 19.0002 16.8439 19.0002 16.79C19.0002 16.7361 18.9896 16.6828 18.969 16.633C18.9483 16.5833 18.9181 16.5381 18.88 16.5C18.7997 16.4218 18.6921 16.3781 18.58 16.3781C18.468 16.3781 18.3603 16.4218 18.28 16.5L16.5 18.5V9.5C16.5 9.36739 16.4474 9.24021 16.3536 9.14645C16.2598 9.05268 16.1326 9 16 9C15.8674 9 15.7402 9.05268 15.6465 9.14645C15.5527 9.24021 15.5 9.36739 15.5 9.5V18.5L13.7 16.5C13.6197 16.4218 13.5121 16.3781 13.4 16.3781C13.288 16.3781 13.1803 16.4218 13.1 16.5V16.5Z" fill="#00003D"/>
<path d="M22.17 12.85H18.5C18.4415 12.8407 18.3817 12.8443 18.3247 12.8604C18.2676 12.8765 18.2148 12.9048 18.1698 12.9433C18.1247 12.9818 18.0886 13.0296 18.0638 13.0834C18.039 13.1372 18.0262 13.1957 18.0262 13.255C18.0262 13.3142 18.039 13.3727 18.0638 13.4266C18.0886 13.4804 18.1247 13.5281 18.1698 13.5666C18.2148 13.6051 18.2676 13.6334 18.3247 13.6495C18.3817 13.6656 18.4415 13.6692 18.5 13.66H22.16C22.4168 13.6596 22.6638 13.7581 22.85 13.935C23.0362 14.1118 23.1472 14.3535 23.16 14.61V20.73C23.1472 20.9864 23.0362 21.2281 22.85 21.405C22.6638 21.5818 22.4168 21.6803 22.16 21.68H9.83C9.57322 21.6803 9.32616 21.5818 9.14 21.405C8.95384 21.2281 8.84284 20.9864 8.83 20.73V14.61C8.84284 14.3535 8.95384 14.1118 9.14 13.935C9.32616 13.7581 9.57322 13.6596 9.83 13.66H13.21C13.2685 13.6692 13.3283 13.6656 13.3853 13.6495C13.4424 13.6334 13.4952 13.6051 13.5402 13.5666C13.5853 13.5281 13.6214 13.4804 13.6462 13.4266C13.671 13.3727 13.6838 13.3142 13.6838 13.255C13.6838 13.1957 13.671 13.1372 13.6462 13.0834C13.6214 13.0296 13.5853 12.9818 13.5402 12.9433C13.4952 12.9048 13.4424 12.8765 13.3853 12.8604C13.3283 12.8443 13.2685 12.8407 13.21 12.85H9.83C9.35429 12.8419 8.89474 13.0225 8.55182 13.3524C8.2089 13.6822 8.0105 14.1343 8 14.61V20.73C8.00391 20.9664 8.05434 21.1997 8.14843 21.4166C8.24252 21.6334 8.37841 21.8297 8.54835 21.9941C8.71829 22.1584 8.91894 22.2877 9.13885 22.3745C9.35876 22.4613 9.59361 22.5039 9.83 22.5H22.17C22.4064 22.5039 22.6412 22.4613 22.8612 22.3745C23.0811 22.2877 23.2817 22.1584 23.4517 21.9941C23.6216 21.8297 23.7575 21.6334 23.8516 21.4166C23.9457 21.1997 23.9961 20.9664 24 20.73V14.61C23.9895 14.1343 23.7911 13.6822 23.4482 13.3524C23.1053 13.0225 22.6457 12.8419 22.17 12.85V12.85Z" fill="#00003D"/>
</svg>
