<svg width="216" height="216" viewBox="0 0 216 216" fill="none" xmlns="http://www.w3.org/2000/svg">
<path d="M5.43764 0.105225H7.25019V12.7587H5.43764V0.105225Z" fill="#4C5E6E"/>
<path d="M7.9229e-08 7.33577L0 5.52813L12.6878 5.52813V7.33577L7.9229e-08 7.33577Z" fill="#4C5E6E"/>
<path d="M30.8136 0.105225H32.6262V12.7587H30.8136V0.105225Z" fill="#4C5E6E"/>
<path d="M25.376 7.33577L25.376 5.52813L38.0638 5.52813V7.33577L25.376 7.33577Z" fill="#4C5E6E"/>
<path d="M56.1896 0.105225H58.0021V12.7587H56.1896V0.105225Z" fill="#4C5E6E"/>
<path d="M50.752 7.33577L50.752 5.52813L63.4398 5.52813V7.33577L50.752 7.33577Z" fill="#4C5E6E"/>
<path d="M81.5646 0.105225H83.3771V12.7587H81.5646V0.105225Z" fill="#4C5E6E"/>
<path d="M76.127 7.33577L76.127 5.52813L88.8148 5.52813V7.33577L76.127 7.33577Z" fill="#4C5E6E"/>
<path d="M106.94 0.105225H108.753V12.7587H106.94V0.105225Z" fill="#4C5E6E"/>
<path d="M101.502 7.33577L101.502 5.52813L114.19 5.52813V7.33577L101.502 7.33577Z" fill="#4C5E6E"/>
<path d="M132.316 0.105225H134.129V12.7587H132.316V0.105225Z" fill="#4C5E6E"/>
<path d="M126.878 7.33577L126.878 5.52813L139.566 5.52813V7.33577L126.878 7.33577Z" fill="#4C5E6E"/>
<path d="M157.692 0.105225H159.504V12.7587H157.692V0.105225Z" fill="#4C5E6E"/>
<path d="M152.254 7.33577L152.254 5.52813L164.942 5.52813V7.33577L152.254 7.33577Z" fill="#4C5E6E"/>
<path d="M183.068 0.105225H184.88V12.7587H183.068V0.105225Z" fill="#4C5E6E"/>
<path d="M177.63 7.33577L177.63 5.52813L190.318 5.52813V7.33577L177.63 7.33577Z" fill="#4C5E6E"/>
<path d="M208.443 0.105225H210.256V12.7587H208.443V0.105225Z" fill="#4C5E6E"/>
<path d="M203.005 7.33577L203.005 5.52813L215.693 5.52813V7.33577L203.005 7.33577Z" fill="#4C5E6E"/>
<path d="M5.43764 25.4121H7.25019V38.0656H5.43764V25.4121Z" fill="#4C5E6E"/>
<path d="M7.9229e-08 32.6427L0 30.835L12.6878 30.835V32.6427L7.9229e-08 32.6427Z" fill="#4C5E6E"/>
<path d="M30.8136 25.4121H32.6262V38.0656H30.8136V25.4121Z" fill="#4C5E6E"/>
<path d="M25.376 32.6427L25.376 30.835L38.0638 30.835V32.6427L25.376 32.6427Z" fill="#4C5E6E"/>
<path d="M56.1896 25.4121H58.0021V38.0656H56.1896V25.4121Z" fill="#4C5E6E"/>
<path d="M50.752 32.6427L50.752 30.835L63.4398 30.835V32.6427L50.752 32.6427Z" fill="#4C5E6E"/>
<path d="M81.5646 25.4121H83.3771V38.0656H81.5646V25.4121Z" fill="#4C5E6E"/>
<path d="M76.127 32.6427L76.127 30.835L88.8148 30.835V32.6427L76.127 32.6427Z" fill="#4C5E6E"/>
<path d="M106.94 25.4121H108.753V38.0656H106.94V25.4121Z" fill="#4C5E6E"/>
<path d="M101.502 32.6427L101.502 30.835L114.19 30.835V32.6427L101.502 32.6427Z" fill="#4C5E6E"/>
<path d="M132.316 25.4121H134.129V38.0656H132.316V25.4121Z" fill="#4C5E6E"/>
<path d="M126.878 32.6427L126.878 30.835L139.566 30.835V32.6427L126.878 32.6427Z" fill="#4C5E6E"/>
<path d="M157.692 25.4121H159.504V38.0656H157.692V25.4121Z" fill="#4C5E6E"/>
<path d="M152.254 32.6427L152.254 30.835L164.942 30.835V32.6427L152.254 32.6427Z" fill="#4C5E6E"/>
<path d="M183.068 25.4121H184.88V38.0656H183.068V25.4121Z" fill="#4C5E6E"/>
<path d="M177.63 32.6427L177.63 30.835L190.318 30.835V32.6427L177.63 32.6427Z" fill="#4C5E6E"/>
<path d="M208.443 25.4121H210.256V38.0656H208.443V25.4121Z" fill="#4C5E6E"/>
<path d="M203.005 32.6427L203.005 30.835L215.693 30.835V32.6427L203.005 32.6427Z" fill="#4C5E6E"/>
<path d="M5.43764 50.719H7.25019V63.3724H5.43764V50.719Z" fill="#4C5E6E"/>
<path d="M7.9229e-08 57.9495L0 56.1419L12.6878 56.1419V57.9495L7.9229e-08 57.9495Z" fill="#4C5E6E"/>
<path d="M30.8136 50.719H32.6262V63.3724H30.8136V50.719Z" fill="#4C5E6E"/>
<path d="M25.376 57.9495L25.376 56.1419L38.0638 56.1419V57.9495L25.376 57.9495Z" fill="#4C5E6E"/>
<path d="M56.1896 50.719H58.0021V63.3724H56.1896V50.719Z" fill="#4C5E6E"/>
<path d="M50.752 57.9495L50.752 56.1419L63.4398 56.1419V57.9495L50.752 57.9495Z" fill="#4C5E6E"/>
<path d="M81.5646 50.719H83.3771V63.3724H81.5646V50.719Z" fill="#4C5E6E"/>
<path d="M76.127 57.9495L76.127 56.1419L88.8148 56.1419V57.9495L76.127 57.9495Z" fill="#4C5E6E"/>
<path d="M106.94 50.719H108.753V63.3724H106.94V50.719Z" fill="#4C5E6E"/>
<path d="M101.502 57.9495L101.502 56.1419L114.19 56.1419V57.9495L101.502 57.9495Z" fill="#4C5E6E"/>
<path d="M132.316 50.719H134.129V63.3724H132.316V50.719Z" fill="#4C5E6E"/>
<path d="M126.878 57.9495L126.878 56.1419L139.566 56.1419V57.9495L126.878 57.9495Z" fill="#4C5E6E"/>
<path d="M157.692 50.719H159.504V63.3724H157.692V50.719Z" fill="#4C5E6E"/>
<path d="M152.254 57.9495L152.254 56.1419L164.942 56.1419V57.9495L152.254 57.9495Z" fill="#4C5E6E"/>
<path d="M183.068 50.719H184.88V63.3724H183.068V50.719Z" fill="#4C5E6E"/>
<path d="M177.63 57.9495L177.63 56.1419L190.318 56.1419V57.9495L177.63 57.9495Z" fill="#4C5E6E"/>
<path d="M208.443 50.719H210.256V63.3724H208.443V50.719Z" fill="#4C5E6E"/>
<path d="M203.005 57.9495L203.005 56.1419L215.693 56.1419V57.9495L203.005 57.9495Z" fill="#4C5E6E"/>
<path d="M5.43764 76.0259H7.25019V88.6793H5.43764V76.0259Z" fill="#4C5E6E"/>
<path d="M7.9229e-08 83.2564L0 81.4488L12.6878 81.4488V83.2564L7.9229e-08 83.2564Z" fill="#4C5E6E"/>
<path d="M30.8136 76.0259H32.6262V88.6793H30.8136V76.0259Z" fill="#4C5E6E"/>
<path d="M25.376 83.2564L25.376 81.4488L38.0638 81.4488V83.2564L25.376 83.2564Z" fill="#4C5E6E"/>
<path d="M56.1896 76.0259H58.0021V88.6793H56.1896V76.0259Z" fill="#4C5E6E"/>
<path d="M50.752 83.2564L50.752 81.4488L63.4398 81.4488V83.2564L50.752 83.2564Z" fill="#4C5E6E"/>
<path d="M81.5646 76.0259H83.3771V88.6793H81.5646V76.0259Z" fill="#4C5E6E"/>
<path d="M76.127 83.2564L76.127 81.4488L88.8148 81.4488V83.2564L76.127 83.2564Z" fill="#4C5E6E"/>
<path d="M106.94 76.0259H108.753V88.6793H106.94V76.0259Z" fill="#4C5E6E"/>
<path d="M101.502 83.2564L101.502 81.4488L114.19 81.4488V83.2564L101.502 83.2564Z" fill="#4C5E6E"/>
<path d="M132.316 76.0259H134.129V88.6793H132.316V76.0259Z" fill="#4C5E6E"/>
<path d="M126.878 83.2564L126.878 81.4488L139.566 81.4488V83.2564L126.878 83.2564Z" fill="#4C5E6E"/>
<path d="M157.692 76.0259H159.504V88.6793H157.692V76.0259Z" fill="#4C5E6E"/>
<path d="M152.254 83.2564L152.254 81.4488L164.942 81.4488V83.2564L152.254 83.2564Z" fill="#4C5E6E"/>
<path d="M183.068 76.0259H184.88V88.6793H183.068V76.0259Z" fill="#4C5E6E"/>
<path d="M177.63 83.2564L177.63 81.4488L190.318 81.4488V83.2564L177.63 83.2564Z" fill="#4C5E6E"/>
<path d="M208.443 76.0259H210.256V88.6793H208.443V76.0259Z" fill="#4C5E6E"/>
<path d="M203.005 83.2564L203.005 81.4488L215.693 81.4488V83.2564L203.005 83.2564Z" fill="#4C5E6E"/>
<path d="M5.43764 101.333H7.25019V113.986H5.43764V101.333Z" fill="#4C5E6E"/>
<path d="M7.9229e-08 108.563L0 106.756L12.6878 106.756V108.563L7.9229e-08 108.563Z" fill="#4C5E6E"/>
<path d="M30.8136 101.333H32.6262V113.986H30.8136V101.333Z" fill="#4C5E6E"/>
<path d="M25.376 108.563L25.376 106.756L38.0638 106.756V108.563L25.376 108.563Z" fill="#4C5E6E"/>
<path d="M56.1896 101.333H58.0021V113.986H56.1896V101.333Z" fill="#4C5E6E"/>
<path d="M50.752 108.563L50.752 106.756L63.4398 106.756V108.563L50.752 108.563Z" fill="#4C5E6E"/>
<path d="M81.5646 101.333H83.3771V113.986H81.5646V101.333Z" fill="#4C5E6E"/>
<path d="M76.127 108.563L76.127 106.756L88.8148 106.756V108.563L76.127 108.563Z" fill="#4C5E6E"/>
<path d="M106.94 101.333H108.753V113.986H106.94V101.333Z" fill="#4C5E6E"/>
<path d="M101.502 108.563L101.502 106.756L114.19 106.756V108.563L101.502 108.563Z" fill="#4C5E6E"/>
<path d="M132.316 101.333H134.129V113.986H132.316V101.333Z" fill="#4C5E6E"/>
<path d="M126.878 108.563L126.878 106.756L139.566 106.756V108.563L126.878 108.563Z" fill="#4C5E6E"/>
<path d="M157.692 101.333H159.504V113.986H157.692V101.333Z" fill="#4C5E6E"/>
<path d="M152.254 108.563L152.254 106.756L164.942 106.756V108.563L152.254 108.563Z" fill="#4C5E6E"/>
<path d="M183.068 101.333H184.88V113.986H183.068V101.333Z" fill="#4C5E6E"/>
<path d="M177.63 108.563L177.63 106.756L190.318 106.756V108.563L177.63 108.563Z" fill="#4C5E6E"/>
<path d="M208.443 101.333H210.256V113.986H208.443V101.333Z" fill="#4C5E6E"/>
<path d="M203.005 108.563L203.005 106.756L215.693 106.756V108.563L203.005 108.563Z" fill="#4C5E6E"/>
<path d="M5.43764 126.64H7.25019V139.293H5.43764V126.64Z" fill="#4C5E6E"/>
<path d="M7.9229e-08 133.87L0 132.063L12.6878 132.063V133.87L7.9229e-08 133.87Z" fill="#4C5E6E"/>
<path d="M30.8136 126.64H32.6262V139.293H30.8136V126.64Z" fill="#4C5E6E"/>
<path d="M25.376 133.87L25.376 132.063L38.0638 132.063V133.87L25.376 133.87Z" fill="#4C5E6E"/>
<path d="M56.1896 126.64H58.0021V139.293H56.1896V126.64Z" fill="#4C5E6E"/>
<path d="M50.752 133.87L50.752 132.063L63.4398 132.063V133.87L50.752 133.87Z" fill="#4C5E6E"/>
<path d="M81.5646 126.64H83.3771V139.293H81.5646V126.64Z" fill="#4C5E6E"/>
<path d="M76.127 133.87L76.127 132.063L88.8148 132.063V133.87L76.127 133.87Z" fill="#4C5E6E"/>
<path d="M106.94 126.64H108.753V139.293H106.94V126.64Z" fill="#4C5E6E"/>
<path d="M101.502 133.87L101.502 132.063L114.19 132.063V133.87L101.502 133.87Z" fill="#4C5E6E"/>
<path d="M132.316 126.64H134.129V139.293H132.316V126.64Z" fill="#4C5E6E"/>
<path d="M126.878 133.87L126.878 132.063L139.566 132.063V133.87L126.878 133.87Z" fill="#4C5E6E"/>
<path d="M157.692 126.64H159.504V139.293H157.692V126.64Z" fill="#4C5E6E"/>
<path d="M152.254 133.87L152.254 132.063L164.942 132.063V133.87L152.254 133.87Z" fill="#4C5E6E"/>
<path d="M183.068 126.64H184.88V139.293H183.068V126.64Z" fill="#4C5E6E"/>
<path d="M177.63 133.87L177.63 132.063L190.318 132.063V133.87L177.63 133.87Z" fill="#4C5E6E"/>
<path d="M208.443 126.64H210.256V139.293H208.443V126.64Z" fill="#4C5E6E"/>
<path d="M203.005 133.87L203.005 132.063L215.693 132.063V133.87L203.005 133.87Z" fill="#4C5E6E"/>
<path d="M5.43764 151.947H7.25019V164.6H5.43764V151.947Z" fill="#4C5E6E"/>
<path d="M7.9229e-08 159.177L0 157.37L12.6878 157.37V159.177L7.9229e-08 159.177Z" fill="#4C5E6E"/>
<path d="M30.8136 151.947H32.6262V164.6H30.8136V151.947Z" fill="#4C5E6E"/>
<path d="M25.376 159.177L25.376 157.37L38.0638 157.37V159.177L25.376 159.177Z" fill="#4C5E6E"/>
<path d="M56.1896 151.947H58.0021V164.6H56.1896V151.947Z" fill="#4C5E6E"/>
<path d="M50.752 159.177L50.752 157.37L63.4398 157.37V159.177L50.752 159.177Z" fill="#4C5E6E"/>
<path d="M81.5646 151.947H83.3771V164.6H81.5646V151.947Z" fill="#4C5E6E"/>
<path d="M76.127 159.177L76.127 157.37L88.8148 157.37V159.177L76.127 159.177Z" fill="#4C5E6E"/>
<path d="M106.94 151.947H108.753V164.6H106.94V151.947Z" fill="#4C5E6E"/>
<path d="M101.502 159.177L101.502 157.37L114.19 157.37V159.177L101.502 159.177Z" fill="#4C5E6E"/>
<path d="M132.316 151.947H134.129V164.6H132.316V151.947Z" fill="#4C5E6E"/>
<path d="M126.878 159.177L126.878 157.37L139.566 157.37V159.177L126.878 159.177Z" fill="#4C5E6E"/>
<path d="M157.692 151.947H159.504V164.6H157.692V151.947Z" fill="#4C5E6E"/>
<path d="M152.254 159.177L152.254 157.37L164.942 157.37V159.177L152.254 159.177Z" fill="#4C5E6E"/>
<path d="M183.068 151.947H184.88V164.6H183.068V151.947Z" fill="#4C5E6E"/>
<path d="M177.63 159.177L177.63 157.37L190.318 157.37V159.177L177.63 159.177Z" fill="#4C5E6E"/>
<path d="M208.443 151.947H210.256V164.6H208.443V151.947Z" fill="#4C5E6E"/>
<path d="M203.005 159.177L203.005 157.37L215.693 157.37V159.177L203.005 159.177Z" fill="#4C5E6E"/>
<path d="M5.43764 177.253H7.25019V189.907H5.43764V177.253Z" fill="#4C5E6E"/>
<path d="M7.9229e-08 184.484L0 182.676L12.6878 182.676V184.484L7.9229e-08 184.484Z" fill="#4C5E6E"/>
<path d="M30.8136 177.253H32.6262V189.907H30.8136V177.253Z" fill="#4C5E6E"/>
<path d="M25.376 184.484L25.376 182.676L38.0638 182.676V184.484L25.376 184.484Z" fill="#4C5E6E"/>
<path d="M56.1896 177.253H58.0021V189.907H56.1896V177.253Z" fill="#4C5E6E"/>
<path d="M50.752 184.484L50.752 182.676L63.4398 182.676V184.484L50.752 184.484Z" fill="#4C5E6E"/>
<path d="M81.5646 177.253H83.3771V189.907H81.5646V177.253Z" fill="#4C5E6E"/>
<path d="M76.127 184.484L76.127 182.676L88.8148 182.676V184.484L76.127 184.484Z" fill="#4C5E6E"/>
<path d="M106.94 177.253H108.753V189.907H106.94V177.253Z" fill="#4C5E6E"/>
<path d="M101.502 184.484L101.502 182.676L114.19 182.676V184.484L101.502 184.484Z" fill="#4C5E6E"/>
<path d="M132.316 177.253H134.129V189.907H132.316V177.253Z" fill="#4C5E6E"/>
<path d="M126.878 184.484L126.878 182.676L139.566 182.676V184.484L126.878 184.484Z" fill="#4C5E6E"/>
<path d="M157.692 177.253H159.504V189.907H157.692V177.253Z" fill="#4C5E6E"/>
<path d="M152.254 184.484L152.254 182.676L164.942 182.676V184.484L152.254 184.484Z" fill="#4C5E6E"/>
<path d="M183.068 177.253H184.88V189.907H183.068V177.253Z" fill="#4C5E6E"/>
<path d="M177.63 184.484L177.63 182.676L190.318 182.676V184.484L177.63 184.484Z" fill="#4C5E6E"/>
<path d="M208.443 177.253H210.256V189.907H208.443V177.253Z" fill="#4C5E6E"/>
<path d="M203.005 184.484L203.005 182.676L215.693 182.676V184.484L203.005 184.484Z" fill="#4C5E6E"/>
<path d="M5.43764 202.561H7.25019V215.214H5.43764V202.561Z" fill="#4C5E6E"/>
<path d="M7.9229e-08 209.791L0 207.983L12.6878 207.983V209.791L7.9229e-08 209.791Z" fill="#4C5E6E"/>
<path d="M30.8136 202.561H32.6262V215.214H30.8136V202.561Z" fill="#4C5E6E"/>
<path d="M25.376 209.791L25.376 207.983L38.0638 207.983V209.791L25.376 209.791Z" fill="#4C5E6E"/>
<path d="M56.1896 202.561H58.0021V215.214H56.1896V202.561Z" fill="#4C5E6E"/>
<path d="M50.752 209.791L50.752 207.983L63.4398 207.983V209.791L50.752 209.791Z" fill="#4C5E6E"/>
<path d="M81.5646 202.561H83.3771V215.214H81.5646V202.561Z" fill="#4C5E6E"/>
<path d="M76.127 209.791L76.127 207.983L88.8148 207.983V209.791L76.127 209.791Z" fill="#4C5E6E"/>
<path d="M106.94 202.561H108.753V215.214H106.94V202.561Z" fill="#4C5E6E"/>
<path d="M101.502 209.791L101.502 207.983L114.19 207.983V209.791L101.502 209.791Z" fill="#4C5E6E"/>
<path d="M132.316 202.561H134.129V215.214H132.316V202.561Z" fill="#4C5E6E"/>
<path d="M126.878 209.791L126.878 207.983L139.566 207.983V209.791L126.878 209.791Z" fill="#4C5E6E"/>
<path d="M157.692 202.561H159.504V215.214H157.692V202.561Z" fill="#4C5E6E"/>
<path d="M152.254 209.791L152.254 207.983L164.942 207.983V209.791L152.254 209.791Z" fill="#4C5E6E"/>
<path d="M183.068 202.561H184.88V215.214H183.068V202.561Z" fill="#4C5E6E"/>
<path d="M177.63 209.791L177.63 207.983L190.318 207.983V209.791L177.63 209.791Z" fill="#4C5E6E"/>
<path d="M208.443 202.561H210.256V215.214H208.443V202.561Z" fill="#4C5E6E"/>
<path d="M203.005 209.791L203.005 207.983L215.693 207.983V209.791L203.005 209.791Z" fill="#4C5E6E"/>
</svg>
