<svg width="75" height="65" viewBox="0 0 75 65" fill="none" xmlns="http://www.w3.org/2000/svg">
<path d="M14.505 6.97996L34.025 2.61209C34.1722 2.57907 34.3288 2.57907 34.4769 2.61209L36.0286 2.9593L34.7731 7.78736L36.804 8.30098L38.1677 3.05579C38.2808 2.62085 38.2126 2.17013 37.9752 1.78688C37.7379 1.4035 37.3626 1.13771 36.9183 1.03821L34.9391 0.595519C34.4875 0.495294 34.011 0.495293 33.5611 0.595806L14.0409 4.96367C13.0474 5.18609 12.3644 6.07548 12.4174 7.08162L13.6139 28.4745C13.8655 33.3428 15.5242 36.6729 17.6664 40.5204L19.5041 39.525C17.4259 35.7926 15.9371 32.8075 15.7073 28.3648L14.505 6.97996Z" fill="#333442"/>
<path d="M50.567 4.83821L53.4276 5.53865C54.3796 5.75706 55.0437 6.64647 54.9923 7.6499L53.8268 29.1325C53.2736 29.0735 52.7117 29.0432 52.1428 29.0432C52.0251 29.0432 51.9077 29.0445 51.7906 29.0471L52.9574 7.53947L50.4377 6.93208L42.4619 14.5804L49.4392 15.8523C49.8721 15.9312 50.2335 16.241 50.3826 16.6608C50.5321 17.0805 50.4484 17.5532 50.1648 17.8942L50.1416 17.9211L35.1097 34.7846C34.7689 35.1747 34.203 35.2724 33.7535 35.0146C33.2962 34.7527 33.0868 34.1963 33.2556 33.6914L33.2654 33.6634L37.5463 21.9812L32.3549 20.4203C31.7016 20.2234 31.3226 19.5451 31.4917 18.8757L32.9433 13.1313L34.9174 13.6449L33.6514 18.6535L38.8946 20.23C39.228 20.3303 39.5116 20.5678 39.6722 20.8817C39.8327 21.1957 39.8604 21.5678 39.7486 21.9026L39.7387 21.9313L36.89 29.7054L47.6552 17.6283L40.5034 16.3245C40.0551 16.2426 39.6926 15.9181 39.5565 15.4774C39.4205 15.0369 39.5361 14.5604 39.8576 14.2339L39.8783 14.2135L49.1393 5.33245L49.2716 5.20107C49.6152 4.8596 50.0995 4.72448 50.567 4.83821Z" fill="#333442"/>
<path d="M37.8017 51.0992C37.2082 51.4386 36.5966 51.7664 35.9671 52.0823L35.3927 52.3714C34.6816 52.7274 33.8621 52.7368 33.1441 52.3962L32.1234 51.9119C28.3172 50.1075 25.0228 47.5345 22.3315 44.2649L20.7676 45.5904C23.6517 49.094 27.1822 51.8514 31.2605 53.7849L32.2811 54.269C32.9064 54.5655 33.5747 54.7138 34.2429 54.7138C34.9445 54.7138 35.6459 54.5505 36.2965 54.2244L36.8715 53.9352C37.5185 53.6105 38.1486 53.273 38.7615 52.923C38.4033 52.3392 38.0823 51.7302 37.8017 51.0992Z" fill="#333442"/>
<path d="M52.9677 64.8522C64.6752 64.8522 74.1659 55.3615 74.1659 43.654C74.1659 31.9466 64.6752 22.4558 52.9677 22.4558C41.2603 22.4558 31.7695 31.9466 31.7695 43.654C31.7695 55.3615 41.2603 64.8522 52.9677 64.8522Z" fill="#00FFCF" fill-opacity="0.2"/>
<path d="M52.9671 56.6083C60.1216 56.6083 65.9215 50.8084 65.9215 43.6539C65.9215 36.4993 60.1216 30.6995 52.9671 30.6995C45.8126 30.6995 40.0127 36.4993 40.0127 43.6539C40.0127 50.8084 45.8126 56.6083 52.9671 56.6083Z" fill="#00FFCF" fill-opacity="0.2"/>
<path d="M52.9675 50.131C56.5447 50.131 59.4447 47.231 59.4447 43.6537C59.4447 40.0765 56.5447 37.1765 52.9675 37.1765C49.3902 37.1765 46.4902 40.0765 46.4902 43.6537C46.4902 47.231 49.3902 50.131 52.9675 50.131Z" fill="#00FFCF"/>
</svg>
