<svg width="18" height="48" viewBox="0 0 18 48" fill="none" xmlns="http://www.w3.org/2000/svg">
<path fill-rule="evenodd" clip-rule="evenodd" d="M9.00016 17.4345C9.38232 17.4345 9.69247 17.7439 9.69247 18.1268V22.2806C9.69247 22.6634 9.38232 22.9729 9.00016 22.9729C8.61801 22.9729 8.30786 22.6634 8.30786 22.2806V18.1268C8.30786 17.7439 8.61801 17.4345 9.00016 17.4345ZM9.69247 44.8494L11.9771 42.5648C12.1155 42.4264 12.254 42.3571 12.4617 42.3571C12.6694 42.3571 12.8078 42.4264 12.9463 42.5648C13.2232 42.8424 13.2232 43.2571 12.9463 43.5347L9.48478 46.9963C9.34632 47.1347 9.17324 47.2033 9.00016 47.2033C8.82709 47.2033 8.65401 47.1347 8.51555 46.9963L5.05403 43.5347C4.77711 43.2571 4.77711 42.8424 5.05403 42.5648C5.19249 42.4264 5.33095 42.3571 5.53864 42.3571C5.74633 42.3571 5.88479 42.4264 6.02326 42.5648L8.30786 44.8494V35.4341C8.30786 35.0194 8.58478 34.7418 9.00016 34.7418C9.41555 34.7418 9.69247 35.0194 9.69247 35.4341V44.8494ZM6.46889 38.4666C6.82197 38.5974 7.00681 38.9914 6.88566 39.3437C6.76174 39.7003 6.36574 39.8948 6.00505 39.7723C5.21928 39.4947 3.3826 38.7269 1.90314 36.8355C0.10523 34.535 0.00138461 32.0662 0 31.2805V18.1267C0.00138461 17.4434 0.0837689 14.4969 2.38914 12.0067C4.99013 9.19873 8.42188 9.12881 8.99996 9.12673C9.57318 9.12673 13.025 9.18558 15.6288 12.0067C17.9293 14.499 18.0006 17.4468 17.9999 18.1267V31.2805C18.0034 32.0552 17.912 34.373 16.2719 36.6119C14.7399 38.7034 12.7453 39.5099 11.9963 39.7716C11.6376 39.8955 11.2403 39.7037 11.1149 39.3451C10.9903 38.9858 11.1835 38.5884 11.5421 38.4631C12.2053 38.2243 13.7769 37.5562 15.032 35.921C16.5108 33.9957 16.6105 31.9541 16.6153 31.2805V18.1267C16.6153 17.5735 16.5565 15.0106 14.5308 12.8763C12.332 10.5598 9.48872 10.5113 8.99996 10.5113C8.52711 10.5127 5.49136 10.575 3.27391 13.0902C1.27592 15.3561 1.35692 18.0097 1.38461 18.5504V31.2805C1.39153 31.9575 1.49884 33.9368 2.91806 35.8351C4.1919 37.5396 5.81328 38.2284 6.46889 38.4666ZM7.61549 2.22854C7.61549 1.46424 8.23579 0.843933 9.00009 0.843933C9.7644 0.843933 10.3847 1.46424 10.3847 2.22854C10.3847 2.99423 9.7644 3.61315 9.00009 3.61315C8.23579 3.61315 7.61549 2.99423 7.61549 2.22854ZM7.61549 6.38237C7.61549 5.61668 8.23579 4.99776 9.00009 4.99776C9.7644 4.99776 10.3847 5.61668 10.3847 6.38237C10.3847 7.14667 9.7644 7.76698 9.00009 7.76698C8.23579 7.76698 7.61549 7.14667 7.61549 6.38237Z" fill="#00FFCF"/>
</svg>
