<svg width="73" height="57" viewBox="0 0 73 57" fill="none" xmlns="http://www.w3.org/2000/svg">
<path d="M32.5536 43.9713C42.1336 43.9713 49.8996 36.2052 49.8996 26.6253C49.8996 17.0454 42.1336 9.2793 32.5536 9.2793C22.9737 9.2793 15.2076 17.0454 15.2076 26.6253C15.2076 36.2052 22.9737 43.9713 32.5536 43.9713Z" stroke="#00003E" stroke-width="2"/>
<path d="M56.6151 56.4138C56.9745 56.8332 57.6058 56.8817 58.0252 56.5223C58.4445 56.1629 58.493 55.5316 58.1336 55.1123L56.6151 56.4138ZM58.1336 55.1123L45.1835 40.0037L43.665 41.3053L56.6151 56.4138L58.1336 55.1123Z" fill="#00003E"/>
<path d="M51.0737 42.9338C62.7811 42.9338 72.2719 33.443 72.2719 21.7356C72.2719 10.0281 62.7811 0.537354 51.0737 0.537354C39.3662 0.537354 29.8755 10.0281 29.8755 21.7356C29.8755 33.443 39.3662 42.9338 51.0737 42.9338Z" fill="#00FFCF" fill-opacity="0.2"/>
<path d="M51.0731 34.6898C58.2276 34.6898 64.0275 28.8899 64.0275 21.7354C64.0275 14.5809 58.2276 8.78101 51.0731 8.78101C43.9185 8.78101 38.1187 14.5809 38.1187 21.7354C38.1187 28.8899 43.9185 34.6898 51.0731 34.6898Z" fill="#00FFCF" fill-opacity="0.2"/>
<path d="M51.0734 28.2126C54.6507 28.2126 57.5506 25.3127 57.5506 21.7354C57.5506 18.1581 54.6507 15.2582 51.0734 15.2582C47.4961 15.2582 44.5962 18.1581 44.5962 21.7354C44.5962 25.3127 47.4961 28.2126 51.0734 28.2126Z" fill="#00FFCF"/>
</svg>
