<svg width="75" height="63" viewBox="0 0 75 63" fill="none" xmlns="http://www.w3.org/2000/svg">
<path d="M34.8142 17.7517C31.9031 17.7517 29.5742 15.5417 29.5742 12.7791C29.5742 10.0165 31.9031 7.8064 34.8142 7.8064C37.7253 7.8064 40.0542 10.0165 40.0542 12.7791C40.0542 15.5417 37.7253 17.7517 34.8142 17.7517ZM34.8142 9.46395C32.8929 9.46395 31.3209 10.9558 31.3209 12.7791C31.3209 14.6024 32.8929 16.0942 34.8142 16.0942C36.7355 16.0942 38.3075 14.6024 38.3075 12.7791C38.3075 10.9558 36.7355 9.46395 34.8142 9.46395Z" fill="#00003E"/>
<path d="M34.8142 62.1743C31.9031 62.1743 29.5742 59.9643 29.5742 57.2017C29.5742 54.4391 31.9031 52.229 34.8142 52.229C37.7253 52.229 40.0542 54.4391 40.0542 57.2017C40.0542 59.9643 37.7253 62.1743 34.8142 62.1743ZM34.8142 53.8866C32.8929 53.8866 31.3209 55.3784 31.3209 57.2017C31.3209 59.025 32.8929 60.5168 34.8142 60.5168C36.7355 60.5168 38.3075 59.025 38.3075 57.2017C38.3075 55.3784 36.7355 53.8866 34.8142 53.8866Z" fill="#00003E"/>
<path d="M13.6792 42.8361C10.3606 34.7693 12.4566 25.708 18.8609 19.6855C18.8609 19.6855 18.861 19.6855 18.9192 19.6855L20.2583 21.6746C20.7241 22.3376 21.772 22.3376 22.1796 21.6193L25.3818 15.7626C25.7893 15.0444 25.2071 14.2156 24.3338 14.2156L17.3472 14.4918C16.4739 14.5471 16.0081 15.4311 16.4739 16.0941L17.8712 18.1937C17.8712 18.1937 17.8712 18.1937 17.8712 18.249C10.7681 24.7134 8.43926 34.6588 12.049 43.4438C14.4361 49.2453 19.1521 53.776 24.916 56.207C25.3818 56.3728 25.9058 56.207 26.0805 55.765C26.2551 55.323 26.0222 54.881 25.6147 54.7152C20.2583 52.3946 15.8916 48.1955 13.6792 42.8361Z" fill="#00003E"/>
<path d="M51.7567 51.7319C58.8598 45.2675 61.2469 35.3222 57.5789 26.5371C55.1918 20.7357 50.4758 16.2051 44.7119 13.774C44.2461 13.6082 43.7221 13.774 43.5474 14.216C43.3728 14.658 43.6057 15.1 44.0132 15.2658C49.3696 17.5864 53.7363 21.7302 55.9487 27.1449C59.2674 35.2117 57.1714 44.3282 50.767 50.2954L49.4279 48.2511C48.9621 47.588 47.9141 47.6433 47.5648 48.3063L44.3043 54.2183C43.8968 54.9365 44.479 55.7653 45.2941 55.71L52.3389 55.4338C53.1541 55.3785 53.678 54.5498 53.2123 53.8315L51.7567 51.7319Z" fill="#00003E"/>
<path d="M53.5028 42.4608C65.2103 42.4608 74.701 32.97 74.701 21.2626C74.701 9.55515 65.2103 0.0643921 53.5028 0.0643921C41.7954 0.0643921 32.3046 9.55515 32.3046 21.2626C32.3046 32.97 41.7954 42.4608 53.5028 42.4608Z" fill="#00FFCF" fill-opacity="0.2"/>
<path d="M53.5028 34.2172C60.6573 34.2172 66.4572 28.4173 66.4572 21.2628C66.4572 14.1083 60.6573 8.30841 53.5028 8.30841C46.3483 8.30841 40.5484 14.1083 40.5484 21.2628C40.5484 28.4173 46.3483 34.2172 53.5028 34.2172Z" fill="#00FFCF" fill-opacity="0.2"/>
<path d="M53.5026 27.7398C57.0799 27.7398 59.9798 24.8399 59.9798 21.2626C59.9798 17.6854 57.0799 14.7854 53.5026 14.7854C49.9253 14.7854 47.0254 17.6854 47.0254 21.2626C47.0254 24.8399 49.9253 27.7398 53.5026 27.7398Z" fill="#00FFCF"/>
</svg>
