<svg xmlns="http://www.w3.org/2000/svg" width="47" height="48" viewBox="0 0 47 48">
  <defs>
    <style>
      .cls-1 {
        fill: #111115;
        fill-rule: evenodd;
      }
    </style>
  </defs>
  <path class="cls-1" d="M724,1021.08a8.8,8.8,0,0,0-8.011-8.72V1011H685.011v1.36a8.746,8.746,0,0,0,0,17.43v1.9a15.454,15.454,0,0,0,14.688,15.36v10.37h-5.875a0.793,0.793,0,0,0-.8.79,0.8,0.8,0,0,0,.8.8h13.352a0.8,0.8,0,0,0,.8-0.8,0.793,0.793,0,0,0-.8-0.79H701.3v-10.37a15.454,15.454,0,0,0,14.688-15.36v-1.9A8.786,8.786,0,0,0,724,1021.08Zm-45.4,0a7.2,7.2,0,0,1,6.409-7.12v14.23A7.185,7.185,0,0,1,678.6,1021.08Zm15.222-4.51h-3.2v3.18a0.8,0.8,0,0,1-1.6,0v-4.78h4.807A0.8,0.8,0,1,1,693.824,1016.57Zm6.676,26.52a0.793,0.793,0,0,1-.8-0.79,0.8,0.8,0,0,1,.8-0.8,9.857,9.857,0,0,0,9.881-9.81,0.8,0.8,0,0,1,1.6,0A11.452,11.452,0,0,1,700.5,1043.09Zm15.489-14.9v-14.23A7.154,7.154,0,0,1,715.989,1028.19Z" transform="translate(-677 -1011)"/>
</svg>
