<svg width="75" height="64" viewBox="0 0 75 64" fill="none" xmlns="http://www.w3.org/2000/svg">
<path d="M57.6152 47.2069L52.2539 45.573C52.1044 45.5273 51.9443 45.5273 51.7948 45.573L46.4346 47.2069C46.1002 47.3085 45.872 47.6183 45.872 47.9702C45.872 51.186 45.9571 54.0132 47.0019 56.0527C48.0593 58.1198 49.7697 58.7613 51.2793 59.3274C51.4341 59.3854 51.5883 59.4438 51.7404 59.5023C51.8318 59.5379 51.9285 59.556 52.0251 59.556C52.1218 59.556 52.2179 59.5384 52.3098 59.5023C52.4614 59.4438 52.6146 59.3864 52.7689 59.3285C54.279 58.7624 55.9915 58.1209 57.0489 56.0532C58.0943 54.0132 58.1793 51.186 58.1793 47.9702C58.1783 47.6189 57.9495 47.309 57.6152 47.2069ZM55.6391 55.3229C54.8621 56.8415 53.5765 57.3241 52.2148 57.8349C52.1514 57.8588 52.088 57.8822 52.0246 57.9061C51.9607 57.8822 51.8968 57.8577 51.8329 57.8338C50.4722 57.323 49.1871 56.8415 48.4106 55.3223C47.6542 53.8458 47.4757 51.7808 47.4582 48.5613L52.0251 47.1692L56.5926 48.5613C56.5746 51.7808 56.3961 53.8452 55.6391 55.3229ZM61.6533 46.6419C62.3442 44.3733 62.695 42.0086 62.695 39.613C62.695 26.398 52.0103 15.6462 38.878 15.6462C25.7457 15.6462 15.061 26.398 15.061 39.613C15.061 52.8279 25.7457 63.5797 38.878 63.5797C41.8434 63.5797 44.7321 63.0343 47.4709 61.9665C48.8601 62.608 50.3993 62.9753 52.0257 62.9753C58.0737 62.9753 62.9945 58.0246 62.9945 51.9386C62.9939 50.0373 62.5138 48.2285 61.6533 46.6419ZM38.878 61.9851C26.6193 61.9851 16.6457 51.9487 16.6457 39.613C16.6457 27.2772 26.6193 17.2408 38.878 17.2408C51.1367 17.2408 61.1103 27.2772 61.1103 39.613C61.1103 41.4058 60.8969 43.1779 60.4823 44.9017C59.3424 43.5165 57.8619 42.4003 56.1182 41.695C55.0222 41.2511 53.8686 41.0029 52.6854 40.9322C52.6923 40.7595 52.6991 40.5873 52.7034 40.4103H58.4529C58.8903 40.4103 59.2452 40.0531 59.2452 39.613C59.2452 39.1728 58.8903 38.8157 58.4529 38.8157H52.6954C52.6157 35.6717 52.0817 32.6138 51.1425 29.7796H55.0417C55.4791 29.7796 55.8341 29.4225 55.8341 28.9823C55.8341 28.5422 55.4791 28.185 55.0417 28.185H50.5646C49.4184 25.3042 47.8417 22.6991 45.8842 20.5384C45.5889 20.2132 45.0871 20.1914 44.7649 20.4864C44.4416 20.7835 44.4184 21.2874 44.7131 21.6127C46.4092 23.4842 47.7989 25.7177 48.8501 28.1845H39.6703V19.8506C39.6703 19.4105 39.3154 19.0534 38.878 19.0534C38.4406 19.0534 38.0857 19.4105 38.0857 19.8506V28.185H28.9059C29.9571 25.7177 31.3473 23.4842 33.0434 21.6132C33.3387 21.2879 33.3154 20.7835 32.9916 20.4869C32.6678 20.1903 32.1676 20.2132 31.8724 20.539C29.9143 22.6991 28.3376 25.3047 27.1914 28.1856H22.0065C21.5691 28.1856 21.2141 28.5428 21.2141 28.9829C21.2141 29.423 21.5691 29.7802 22.0065 29.7802H26.614C25.6749 32.6148 25.1403 35.6722 25.0606 38.8162H19.0348C18.5974 38.8162 18.2424 39.1734 18.2424 39.6135C18.2424 40.0536 18.5974 40.4108 19.0348 40.4108H25.0579C25.1335 43.5473 25.6643 46.6084 26.6029 49.4468H22.0059C21.5686 49.4468 21.2136 49.804 21.2136 50.2441C21.2136 50.6842 21.5686 51.0414 22.0059 51.0414H27.1755C28.2636 53.7836 29.7442 56.2754 31.5681 58.3654C31.7245 58.545 31.9437 58.637 32.1639 58.637C32.3493 58.637 32.5358 58.5716 32.6858 58.4387C33.0149 58.1485 33.0476 57.6446 32.7587 57.314C31.1852 55.51 29.8879 53.3807 28.8943 51.0414H38.0852V59.2796C38.0852 59.7197 38.4401 60.0769 38.8775 60.0769C39.3148 60.0769 39.6698 59.7197 39.6698 59.2796V51.0409H41.097C41.0727 51.3401 41.0563 51.6404 41.0563 51.9386C41.0563 55.6391 42.8818 58.9123 45.6676 60.9156C43.4829 61.6215 41.2064 61.9851 38.878 61.9851ZM51.1187 40.4103C51.114 40.592 51.1066 40.768 51.0992 40.945C46.359 41.3473 42.4064 44.8039 41.3426 49.4463H39.6703V40.4103H51.1187ZM39.6703 38.8157V29.7796H49.4744C50.4653 32.5904 51.0263 35.6562 51.1108 38.8157H39.6703ZM26.6447 38.8157C26.7287 35.6562 27.2901 32.5904 28.2816 29.7796H38.0862V38.8157H26.6447ZM38.0857 40.4103V49.4463H28.2721C27.2822 46.6313 26.7218 43.5633 26.6431 40.4103H38.0857ZM52.0251 61.3807C46.8508 61.3807 42.641 57.145 42.641 51.9386C42.641 51.5479 42.6653 51.1525 42.7133 50.7639C43.2938 46.0503 47.2971 42.4954 52.0251 42.4954C53.2374 42.4954 54.4148 42.724 55.5261 43.1737C59.1 44.6205 61.4093 48.06 61.4093 51.9381C61.4093 57.145 57.1995 61.3807 52.0251 61.3807Z" fill="#00003E"/>
<path d="M26.6777 42.7465C38.3851 42.7465 47.8759 33.2557 47.8759 21.5483C47.8759 9.84086 38.3851 0.350098 26.6777 0.350098C14.9703 0.350098 5.47949 9.84086 5.47949 21.5483C5.47949 33.2557 14.9703 42.7465 26.6777 42.7465Z" fill="#00FFCF" fill-opacity="0.2"/>
<path d="M26.6775 34.5026C33.8321 34.5026 39.6319 28.7027 39.6319 21.5482C39.6319 14.3937 33.8321 8.59381 26.6775 8.59381C19.523 8.59381 13.7231 14.3937 13.7231 21.5482C13.7231 28.7027 19.523 34.5026 26.6775 34.5026Z" fill="#00FFCF" fill-opacity="0.2"/>
<path d="M26.6779 28.0255C30.2552 28.0255 33.1551 25.1256 33.1551 21.5483C33.1551 17.9711 30.2552 15.0711 26.6779 15.0711C23.1006 15.0711 20.2007 17.9711 20.2007 21.5483C20.2007 25.1256 23.1006 28.0255 26.6779 28.0255Z" fill="#00FFCF"/>
</svg>
