<svg width="140" height="44" viewBox="0 0 140 44" fill="none" xmlns="http://www.w3.org/2000/svg">
<path d="M138.408 1.84753C136.678 0.139808 129.221 0.727411 123.949 1.84753C118.991 2.89682 112.169 5.17641 111.534 7.27762C110.899 9.37882 115.886 15.8556 120.041 19.9688C124.196 24.082 130.773 29.0085 132.905 28.3815C135.037 27.7545 137.348 21.0155 138.406 16.1231C139.538 10.9108 140.142 3.55525 138.408 1.84753Z" fill="#EDC951"/>
<path d="M78.4353 43.6305C75.3766 43.627 72.444 42.4274 70.2799 40.2944C68.1158 38.1615 66.8967 35.2691 66.8896 32.2509V31.2462C66.8932 28.2257 68.1107 25.33 70.2752 23.1942C72.4397 21.0584 75.3743 19.857 78.4353 19.8535H79.4562C82.5172 19.857 85.4518 21.0584 87.6163 23.1942C89.7808 25.33 90.9983 28.2257 91.0018 31.2462V32.2509C90.9948 35.2691 89.7757 38.1615 87.6116 40.2944C85.4475 42.4274 82.5149 43.627 79.4562 43.6305H78.4353ZM78.4353 24.7196C76.6818 24.7217 75.0006 25.41 73.7607 26.6335C72.5207 27.857 71.8232 29.5159 71.8211 31.2462V32.2247C71.8232 33.955 72.5207 35.6139 73.7607 36.8374C75.0006 38.0609 76.6818 38.7492 78.4353 38.7513H79.4269C81.1805 38.7492 82.8616 38.0609 84.1016 36.8374C85.3415 35.6139 86.039 33.955 86.0412 32.2247V31.2462C86.039 29.5159 85.3415 27.857 84.1016 26.6335C82.8616 25.41 81.1805 24.7217 79.4269 24.7196H78.4353Z" fill="#333442"/>
<path d="M50.8857 43.1134V39.5615L41.8869 30.876L50.2663 23.552V20.3647H46.8608L34.8579 30.7737L47.4935 43.1134H50.8857Z" fill="#333442"/>
<path d="M34.786 11.8237H29.8413V43.1162H34.786V11.8237Z" fill="#333442"/>
<path d="M61.4105 11.8237H56.4658V43.1162H61.4105V11.8237Z" fill="#333442"/>
<path d="M0.5 20.3618H5.44473V31.2666C5.44473 32.1815 5.62736 33.0875 5.9822 33.9329C6.33704 34.7782 6.85714 35.5462 7.5128 36.1932C8.16847 36.8402 8.94685 37.3534 9.80351 37.7035C10.6602 38.0537 11.5783 38.2339 12.5056 38.2339H18.0618V20.3618H23.0065V43.1105H12.5189C10.9407 43.1108 9.37783 42.8044 7.91965 42.2087C6.46147 41.6129 5.1365 40.7396 4.02041 39.6386C2.90432 38.5375 2.01897 37.2303 1.41493 35.7916C0.810897 34.3528 0.5 32.8108 0.5 31.2535L0.5 20.3618Z" fill="#333442"/>
<path d="M119.392 43.1105H114.447V32.2083C114.446 30.36 113.702 28.5876 112.377 27.2806C111.053 25.9736 109.256 25.2391 107.383 25.2384H101.521V43.1105H96.5767V20.3618H107.37C110.557 20.3625 113.613 21.6123 115.867 23.8363C118.12 26.0604 119.386 29.0765 119.386 32.2214L119.392 43.1105Z" fill="#333442"/>
</svg>
