<svg xmlns="http://www.w3.org/2000/svg" width="419" height="106" viewBox="0 0 419 106">
  <defs>
    <style>
      .cls-1 {
        fill: #21aba9;
        fill-rule: evenodd;
        opacity: 0.35;
      }
    </style>
  </defs>
  <path id="Rectangle_4_copy_7" data-name="Rectangle 4 copy 7" class="cls-1" d="M1376.43,1036.6H1174.72c0.29,0,.57.02,0.85,0.04a10.6,10.6,0,0,0,0,21.12c-0.28.02-.56,0.04-0.85,0.04h38.05a10.6,10.6,0,0,1,0,21.2h-197a10.608,10.608,0,0,1-3.95-.77A53.017,53.017,0,0,1,1020.85,973c0.22,0,.45.006,0.67,0.008,0.06,0,.11-0.008.17-0.008h274.74a10.6,10.6,0,0,1,0,21.2h-26.21c0.28,0,.56.02,0.84,0.043a10.595,10.595,0,0,0,0,21.117c-0.28.02-.56,0.04-0.84,0.04h106.21A10.6,10.6,0,0,1,1376.43,1036.6Z" transform="translate(-968 -973)"/>
</svg>
