<svg xmlns="http://www.w3.org/2000/svg" width="464" height="115" viewBox="0 0 464 115">
  <defs>
    <style>
      .cls-1 {
        fill: #621b2f;
        fill-rule: evenodd;
        opacity: 0.35;
      }
    </style>
  </defs>
  <path id="Rectangle_4_copy_7" data-name="Rectangle 4 copy 7" class="cls-1" d="M1301.51,868h-90.96c0.31,0,.62.022,0.92,0.046a11.49,11.49,0,0,0,0,22.907c-0.3.025-.61,0.047-0.92,0.047h41.35a11.5,11.5,0,0,1,0,23H900.912a11.423,11.423,0,0,1-4.291-.838A57.509,57.509,0,0,1,906.425,799c0.246,0,.49.006,0.735,0.009,0.062,0,.122-0.009.184-0.009H1188.5a11.5,11.5,0,0,1,0,23h-28.48c0.31,0,.61.022,0.92,0.046a11.49,11.49,0,0,0,0,22.907c-0.31.024-.61,0.047-0.92,0.047h141.49A11.5,11.5,0,0,1,1301.51,868Z" transform="translate(-849 -799)"/>
</svg>
