<svg width="140" height="140" viewBox="0 0 140 140" fill="none" xmlns="http://www.w3.org/2000/svg">
<path d="M5.43764 0H7.25019V12.6535H5.43764V0Z" fill="#EBEBEB"/>
<path d="M7.9229e-08 7.23054L0 5.42291L12.6878 5.42291V7.23054L7.9229e-08 7.23054Z" fill="#EBEBEB"/>
<path d="M30.8134 0H32.6259V12.6535H30.8134V0Z" fill="#EBEBEB"/>
<path d="M25.3757 7.23054L25.3757 5.42291L38.0636 5.42291V7.23054L25.3757 7.23054Z" fill="#EBEBEB"/>
<path d="M56.1895 0H58.002V12.6535H56.1895V0Z" fill="#EBEBEB"/>
<path d="M50.7518 7.23054L50.7518 5.42291L63.4397 5.42291V7.23054L50.7518 7.23054Z" fill="#EBEBEB"/>
<path d="M81.5646 0H83.3771V12.6535H81.5646V0Z" fill="#EBEBEB"/>
<path d="M76.127 7.23054L76.127 5.42291L88.8148 5.42291V7.23054L76.127 7.23054Z" fill="#EBEBEB"/>
<path d="M106.94 0H108.753V12.6535H106.94V0Z" fill="#EBEBEB"/>
<path d="M101.502 7.23054L101.502 5.42291L114.19 5.42291V7.23054L101.502 7.23054Z" fill="#EBEBEB"/>
<path d="M132.316 0H134.129V12.6535H132.316V0Z" fill="#EBEBEB"/>
<path d="M126.879 7.23054L126.879 5.42291L139.566 5.42291V7.23054L126.879 7.23054Z" fill="#EBEBEB"/>
<path d="M5.43764 25.3069H7.25019V37.9603H5.43764V25.3069Z" fill="#EBEBEB"/>
<path d="M7.9229e-08 32.5374L0 30.7298L12.6878 30.7298V32.5374L7.9229e-08 32.5374Z" fill="#EBEBEB"/>
<path d="M30.8134 25.3069H32.6259V37.9603H30.8134V25.3069Z" fill="#EBEBEB"/>
<path d="M25.3757 32.5374L25.3757 30.7298L38.0636 30.7298V32.5374L25.3757 32.5374Z" fill="#EBEBEB"/>
<path d="M56.1895 25.3069H58.002V37.9603H56.1895V25.3069Z" fill="#EBEBEB"/>
<path d="M50.7518 32.5374L50.7518 30.7298L63.4397 30.7298V32.5374L50.7518 32.5374Z" fill="#EBEBEB"/>
<path d="M81.5646 25.3069H83.3771V37.9603H81.5646V25.3069Z" fill="#EBEBEB"/>
<path d="M76.127 32.5374L76.127 30.7298L88.8148 30.7298V32.5374L76.127 32.5374Z" fill="#EBEBEB"/>
<path d="M106.94 25.3069H108.753V37.9603H106.94V25.3069Z" fill="#EBEBEB"/>
<path d="M101.502 32.5374L101.502 30.7298L114.19 30.7298V32.5374L101.502 32.5374Z" fill="#EBEBEB"/>
<path d="M132.316 25.3069H134.129V37.9603H132.316V25.3069Z" fill="#EBEBEB"/>
<path d="M126.879 32.5374L126.879 30.7298L139.566 30.7298V32.5374L126.879 32.5374Z" fill="#EBEBEB"/>
<path d="M5.43764 50.6138H7.25019V63.2672H5.43764V50.6138Z" fill="#EBEBEB"/>
<path d="M7.9229e-08 57.8443L0 56.0367L12.6878 56.0367V57.8443L7.9229e-08 57.8443Z" fill="#EBEBEB"/>
<path d="M30.8134 50.6138H32.6259V63.2672H30.8134V50.6138Z" fill="#EBEBEB"/>
<path d="M25.3757 57.8443L25.3757 56.0367L38.0636 56.0367V57.8443L25.3757 57.8443Z" fill="#EBEBEB"/>
<path d="M56.1895 50.6138H58.002V63.2672H56.1895V50.6138Z" fill="#EBEBEB"/>
<path d="M50.7518 57.8443L50.7518 56.0367L63.4397 56.0367V57.8443L50.7518 57.8443Z" fill="#EBEBEB"/>
<path d="M81.5646 50.6138H83.3771V63.2672H81.5646V50.6138Z" fill="#EBEBEB"/>
<path d="M76.127 57.8443L76.127 56.0367L88.8148 56.0367V57.8443L76.127 57.8443Z" fill="#EBEBEB"/>
<path d="M106.94 50.6138H108.753V63.2672H106.94V50.6138Z" fill="#EBEBEB"/>
<path d="M101.502 57.8443L101.502 56.0367L114.19 56.0367V57.8443L101.502 57.8443Z" fill="#EBEBEB"/>
<path d="M132.316 50.6138H134.129V63.2672H132.316V50.6138Z" fill="#EBEBEB"/>
<path d="M126.879 57.8443L126.879 56.0367L139.566 56.0367V57.8443L126.879 57.8443Z" fill="#EBEBEB"/>
<path d="M5.43764 75.9207H7.25019V88.5741H5.43764V75.9207Z" fill="#EBEBEB"/>
<path d="M7.9229e-08 83.1512L0 81.3436L12.6878 81.3436V83.1512L7.9229e-08 83.1512Z" fill="#EBEBEB"/>
<path d="M30.8134 75.9207H32.6259V88.5741H30.8134V75.9207Z" fill="#EBEBEB"/>
<path d="M25.3757 83.1512L25.3757 81.3436L38.0636 81.3436V83.1512L25.3757 83.1512Z" fill="#EBEBEB"/>
<path d="M56.1895 75.9207H58.002V88.5741H56.1895V75.9207Z" fill="#EBEBEB"/>
<path d="M50.7518 83.1512L50.7518 81.3436L63.4397 81.3436V83.1512L50.7518 83.1512Z" fill="#EBEBEB"/>
<path d="M81.5646 75.9207H83.3771V88.5741H81.5646V75.9207Z" fill="#EBEBEB"/>
<path d="M76.127 83.1512L76.127 81.3436L88.8148 81.3436V83.1512L76.127 83.1512Z" fill="#EBEBEB"/>
<path d="M106.94 75.9207H108.753V88.5741H106.94V75.9207Z" fill="#EBEBEB"/>
<path d="M101.502 83.1512L101.502 81.3436L114.19 81.3436V83.1512L101.502 83.1512Z" fill="#EBEBEB"/>
<path d="M132.316 75.9207H134.129V88.5741H132.316V75.9207Z" fill="#EBEBEB"/>
<path d="M126.879 83.1512L126.879 81.3436L139.566 81.3436V83.1512L126.879 83.1512Z" fill="#EBEBEB"/>
<path d="M5.43764 101.228H7.25019V113.881H5.43764V101.228Z" fill="#EBEBEB"/>
<path d="M7.9229e-08 108.458L0 106.65L12.6878 106.65V108.458L7.9229e-08 108.458Z" fill="#EBEBEB"/>
<path d="M30.8134 101.228H32.6259V113.881H30.8134V101.228Z" fill="#EBEBEB"/>
<path d="M25.3757 108.458L25.3757 106.65L38.0636 106.65V108.458L25.3757 108.458Z" fill="#EBEBEB"/>
<path d="M56.1895 101.228H58.002V113.881H56.1895V101.228Z" fill="#EBEBEB"/>
<path d="M50.7518 108.458L50.7518 106.65L63.4397 106.65V108.458L50.7518 108.458Z" fill="#EBEBEB"/>
<path d="M81.5646 101.228H83.3771V113.881H81.5646V101.228Z" fill="#EBEBEB"/>
<path d="M76.127 108.458L76.127 106.65L88.8148 106.65V108.458L76.127 108.458Z" fill="#EBEBEB"/>
<path d="M106.94 101.228H108.753V113.881H106.94V101.228Z" fill="#EBEBEB"/>
<path d="M101.502 108.458L101.502 106.65L114.19 106.65V108.458L101.502 108.458Z" fill="#EBEBEB"/>
<path d="M132.316 101.228H134.129V113.881H132.316V101.228Z" fill="#EBEBEB"/>
<path d="M126.879 108.458L126.879 106.65L139.566 106.65V108.458L126.879 108.458Z" fill="#EBEBEB"/>
<path d="M5.43764 126.534H7.25019V139.188H5.43764V126.534Z" fill="#EBEBEB"/>
<path d="M7.9229e-08 133.765L0 131.957L12.6878 131.957V133.765L7.9229e-08 133.765Z" fill="#EBEBEB"/>
<path d="M30.8134 126.534H32.6259V139.188H30.8134V126.534Z" fill="#EBEBEB"/>
<path d="M25.3757 133.765L25.3757 131.957L38.0636 131.957V133.765L25.3757 133.765Z" fill="#EBEBEB"/>
<path d="M56.1895 126.534H58.002V139.188H56.1895V126.534Z" fill="#EBEBEB"/>
<path d="M50.7518 133.765L50.7518 131.957L63.4397 131.957V133.765L50.7518 133.765Z" fill="#EBEBEB"/>
<path d="M81.5646 126.534H83.3771V139.188H81.5646V126.534Z" fill="#EBEBEB"/>
<path d="M76.127 133.765L76.127 131.957L88.8148 131.957V133.765L76.127 133.765Z" fill="#EBEBEB"/>
<path d="M106.94 126.534H108.753V139.188H106.94V126.534Z" fill="#EBEBEB"/>
<path d="M101.502 133.765L101.502 131.957L114.19 131.957V133.765L101.502 133.765Z" fill="#EBEBEB"/>
<path d="M132.316 126.534H134.129V139.188H132.316V126.534Z" fill="#EBEBEB"/>
<path d="M126.879 133.765L126.879 131.957L139.566 131.957V133.765L126.879 133.765Z" fill="#EBEBEB"/>
</svg>
