<svg xmlns="http://www.w3.org/2000/svg" viewBox="537.716 899.716 306.28 306.28">
  <defs>
    <style>
      .cls-1 {
        fill: #5a5a5a;
        stroke: #5a5a5a;
        stroke-width: 2px;
      }
    </style>
  </defs>
  <g id="noun_323230_cc" transform="translate(533.716 895.716)">
    <path id="Path_5" data-name="Path 5" class="cls-1" d="M157.14,55C71.942,55,5,88.471,5,131.07v50.713a8.37,8.37,0,0,0,8.452,8.452H300.828a8.37,8.37,0,0,0,8.452-8.452V131.07C309.28,88.471,242.339,55,157.14,55ZM292.376,173.331H21.9V131.07C21.9,102.332,76.337,71.9,157.14,71.9s135.236,30.428,135.236,59.166Z" transform="translate(0 119.045)"/>
    <path id="Path_6" data-name="Path 6" class="cls-1" d="M179.64,81.07a76.07,76.07,0,1,0-76.07,76.07A76.185,76.185,0,0,0,179.64,81.07ZM44.4,81.07a59.166,59.166,0,1,1,59.166,59.166A59.449,59.449,0,0,1,44.4,81.07Z" transform="translate(53.57 0)"/>
  </g>
</svg>