<svg width="1920" height="538" viewBox="0 0 1920 538" fill="none" xmlns="http://www.w3.org/2000/svg">
<path opacity="0.02" d="M2678.13 1313.77C2678.13 1313.77 2735.97 1046.85 2538.79 887.481C2256.45 659.274 2003.07 831.797 1765.42 653.427C1556.25 496.441 1558.04 318.786 1266.07 82.8013C858.35 -246.748 293.835 356.311 -56.5093 174.75" stroke="#3A9998" stroke-miterlimit="10"/>
<path opacity="0.03" d="M2663.93 1279.41C2663.93 1279.41 2716.11 1016.8 2520.13 863.816C2239.49 644.763 1994.01 818.071 1758.01 647.134C1550.3 496.691 1549.07 322.498 1258.85 95.9921C853.596 -220.341 310.384 380.162 -36.1304 207.954" stroke="#3A9998" stroke-miterlimit="10"/>
<path opacity="0.05" d="M2649.47 1245.78C2649.47 1245.78 2696.18 987.463 2501.46 840.751C2222.63 630.662 1984.92 804.671 1750.66 641.032C1544.49 497.006 1540.33 326.284 1251.99 109.037C849.367 -194.32 327 403.431 -15.6147 240.388" stroke="#3A9998" stroke-miterlimit="10"/>
<path opacity="0.07" d="M2634.78 1212.89C2634.78 1212.89 2676.18 958.851 2482.79 818.296C2205.88 617.032 1975.79 791.61 1743.37 635.114C1538.8 497.376 1531.83 330.071 1245.45 121.933C845.569 -168.689 343.656 426.111 5.00155 271.996" stroke="#3A9998" stroke-miterlimit="10"/>
<path opacity="0.08" d="M2619.77 1180.88C2619.77 1180.88 2655.97 931.194 2463.99 796.662C2189.12 604.021 1966.56 778.98 1736.05 629.477C1533.17 497.921 1523.44 334.027 1239.16 134.808C842.185 -143.379 360.464 448.015 25.8607 302.644" stroke="#3A9998" stroke-miterlimit="10"/>
<path opacity="0.1" d="M2604.55 1149.66C2604.55 1149.66 2635.73 904.303 2445.22 775.663C2172.44 591.461 1957.34 766.699 1728.8 624.034C1527.65 498.481 1515.3 338.004 1233.2 147.514C839.271 -118.494 377.277 469.304 46.7858 332.441" stroke="#3A9998" stroke-miterlimit="10"/>
<path opacity="0.12" d="M2589.13 1119.23C2589.13 1119.23 2615.47 878.182 2426.51 755.3C2155.93 579.346 1948.1 754.77 1721.61 618.782C1522.27 499.097 1507.4 342.006 1227.58 160.039C836.848 -94.0681 394.1 489.978 67.7764 361.404" stroke="#3A9998" stroke-miterlimit="10"/>
<path opacity="0.13" d="M2573.52 1089.61C2573.52 1089.61 2595.19 852.836 2407.84 735.581C2139.57 567.676 1938.84 743.195 1714.48 613.725C1517.01 499.777 1499.72 346.022 1222.28 172.384C834.876 -70.083 410.897 510.026 88.7823 389.515" stroke="#3A9998" stroke-miterlimit="10"/>
<path opacity="0.15" d="M2557.7 1060.92C2557.7 1060.92 2574.82 828.491 2389.14 716.718C2123.25 556.651 1929.56 732.08 1707.38 608.958C1511.84 500.597 1492.22 350.189 1217.26 184.674C833.298 -46.4732 427.791 529.269 109.96 416.572" stroke="#3A9998" stroke-miterlimit="10"/>
<path opacity="0.17" d="M2541.72 1033.06C2541.72 1033.06 2554.48 804.936 2370.53 698.506C2107.11 546.107 1920.28 721.32 1700.34 604.386C1506.77 501.468 1484.94 354.366 1212.53 196.759C832.165 -23.3334 444.619 547.857 131.123 442.763" stroke="#3A9998" stroke-miterlimit="10"/>
<path opacity="0.18" d="M2525.63 1006.03C2525.63 1006.03 2534.2 782.171 2352.02 680.943C2091.17 535.992 1911.03 710.921 1693.4 600.004C1501.87 502.383 1477.93 358.533 1208.16 208.634C831.457 -0.688898 461.407 565.82 152.246 468.094" stroke="#3A9998" stroke-miterlimit="10"/>
<path opacity="0.2" d="M2509.14 979.839C2509.14 979.839 2513.69 760.312 2333.37 664.161C2075.19 526.478 1901.66 700.937 1686.45 595.883C1497.04 503.424 1471.08 362.854 1204.09 220.469C831.26 21.6504 478.361 583.052 173.661 492.464" stroke="#3A9998" stroke-miterlimit="10"/>
<path opacity="0.22" d="M2492.6 954.504C2492.6 954.504 2493.26 739.248 2314.89 648.03C2059.46 517.41 1892.36 691.318 1679.6 591.956C1492.35 504.509 1464.5 367.161 1200.34 232.079C831.487 43.4549 495.225 599.644 195.001 515.959" stroke="#3A9998" stroke-miterlimit="10"/>
<path opacity="0.23" d="M2475.97 930.013C2475.97 930.013 2472.94 718.979 2296.54 632.543C2043.92 508.771 1883.08 682.064 1672.83 588.219C1487.79 505.624 1458.14 371.443 1196.87 243.444C832.079 64.7087 511.926 615.601 216.199 538.568" stroke="#3A9998" stroke-miterlimit="10"/>
<path opacity="0.25" d="M2459.27 906.493C2459.27 906.493 2452.7 699.721 2278.29 617.917C2028.54 500.757 1873.84 673.265 1666.12 584.763C1483.31 506.87 1451.95 375.855 1193.67 254.714C833.03 85.5574 528.618 630.732 237.407 560.137" stroke="#3A9998" stroke-miterlimit="10"/>
<path opacity="0.27" d="M2442.35 883.724C2442.35 883.724 2432.42 681.139 2260.08 603.851C2013.31 493.159 1864.59 664.782 1659.51 581.466C1479.01 508.136 1446.06 380.232 1190.85 265.763C834.491 105.916 545.329 645.313 258.707 580.931" stroke="#3A9998" stroke-miterlimit="10"/>
<path opacity="0.28" d="M2425.45 861.8C2425.45 861.8 2412.33 663.366 2242.1 590.415C1998.34 485.956 1855.42 656.658 1652.99 578.345C1474.83 509.426 1440.39 384.573 1188.31 276.543C836.302 125.694 561.849 659.274 279.804 600.869" stroke="#3A9998" stroke-miterlimit="10"/>
<path opacity="0.3" d="M2408.54 840.846C2408.54 840.846 2392.36 646.574 2224.27 577.825C1983.56 479.378 1846.31 648.99 1646.56 575.504C1470.75 510.827 1434.9 389.015 1185.98 287.207C838.381 145.043 578.257 672.43 300.789 619.737" stroke="#3A9998" stroke-miterlimit="10"/>
<path opacity="0.32" d="M2391.49 820.637C2391.49 820.637 2372.44 630.457 2206.54 565.775C1968.97 473.146 1837.22 641.627 1640.21 572.808C1466.81 512.242 1429.67 393.412 1183.98 297.622C840.915 163.86 594.599 685.045 321.75 637.865" stroke="#3A9998" stroke-miterlimit="10"/>
<path opacity="0.33" d="M2374.53 801.264C2374.53 801.264 2352.78 615.091 2189.09 554.32C1954.68 467.283 1828.25 634.604 1633.99 570.282C1463.03 513.668 1424.68 397.744 1182.28 307.751C843.788 182.083 610.75 697.065 342.493 655.167" stroke="#3A9998" stroke-miterlimit="10"/>
<path opacity="0.35" d="M2357.42 782.761C2357.42 782.761 2333.1 600.615 2171.67 543.621C1940.52 462.006 1819.27 627.991 1627.82 567.996C1459.32 515.194 1419.88 402.166 1180.82 317.765C846.995 199.916 626.875 708.365 363.256 671.514" stroke="#3A9998" stroke-miterlimit="10"/>
<path opacity="0.37" d="M2340.47 765.074C2340.47 765.074 2313.75 586.859 2154.58 533.476C1926.66 457.059 1810.44 621.693 1621.8 565.85C1455.77 516.704 1415.32 406.498 1179.62 327.469C850.495 217.118 642.732 719.074 383.705 687.051" stroke="#3A9998" stroke-miterlimit="10"/>
<path opacity="0.38" d="M2323.42 748.242C2323.42 748.242 2294.42 573.978 2137.57 524.102C1912.95 452.687 1801.62 615.806 1615.84 563.974C1452.33 518.34 1410.94 410.945 1178.67 337.084C854.304 233.95 658.558 729.109 404.14 701.677" stroke="#3A9998" stroke-miterlimit="10"/>
<path opacity="0.4" d="M2306.57 732.205C2306.57 732.205 2275.47 561.788 2120.94 515.259C1899.64 448.625 1792.99 610.254 1610.05 562.223C1449.05 519.951 1406.82 415.276 1177.96 346.372C858.391 250.152 674.076 738.578 424.236 715.528" stroke="#3A9998" stroke-miterlimit="10"/>
<path opacity="0.42" d="M2289.68 717.009C2289.68 717.009 2256.59 550.438 2104.39 507.125C1886.44 445.099 1784.36 605.071 1604.3 560.698C1445.82 521.646 1402.84 419.683 1177.45 355.526C862.715 265.944 689.478 747.361 444.215 728.458" stroke="#3A9998" stroke-miterlimit="10"/>
<path opacity="0.43" d="M2272.81 702.513C2272.81 702.513 2237.91 539.704 2088.07 499.457C1873.5 441.823 1775.82 600.164 1598.67 559.282C1442.76 523.312 1399.11 423.975 1177.23 364.375C867.409 281.15 704.738 755.665 464.053 740.718" stroke="#3A9998" stroke-miterlimit="10"/>
<path opacity="0.45" d="M2256.17 688.907C2256.17 688.907 2219.56 529.84 2072.09 492.524C1860.91 439.087 1767.46 595.658 1593.18 558.117C1439.81 525.078 1395.56 428.342 1177.16 373.084C872.204 295.921 719.7 763.278 483.525 752.048" stroke="#3A9998" stroke-miterlimit="10"/>
<path opacity="0.47" d="M2239.6 675.976C2239.6 675.976 2201.45 520.536 2056.34 486.016C1848.56 436.59 1759.19 591.406 1587.82 557.046C1436.99 526.803 1392.23 432.589 1177.35 381.472C877.297 310.097 734.474 770.436 502.796 762.743" stroke="#3A9998" stroke-miterlimit="10"/>
<path opacity="0.48" d="M2223.09 663.826C2223.09 663.826 2183.5 512.012 2040.78 480.164C1836.44 434.565 1751 587.504 1582.53 556.196C1434.27 528.619 1389.07 436.891 1177.73 389.731C882.629 323.863 749.097 776.959 521.896 772.582" stroke="#3A9998" stroke-miterlimit="10"/>
<path opacity="0.5" d="M2206.91 652.406C2206.91 652.406 2166.03 504.089 2025.67 474.772C1824.69 432.794 1743.02 583.887 1577.43 555.42C1431.7 530.365 1386.13 441.037 1178.29 397.624C888.051 337.008 763.325 783.031 540.509 781.786" stroke="#3A9998" stroke-miterlimit="10"/>
<path opacity="0.52" d="M2190.84 641.732C2190.84 641.732 2148.77 496.906 2010.77 469.995C1813.18 431.478 1735.14 580.606 1572.43 554.85C1429.22 532.191 1383.37 445.234 1179.03 405.382C893.686 349.739 777.381 788.494 558.915 790.154" stroke="#3A9998" stroke-miterlimit="10"/>
<path opacity="0.53" d="M2174.9 631.683C2174.9 631.683 2131.79 490.208 1996.17 465.583C1801.94 430.318 1727.4 577.545 1567.56 554.365C1426.87 533.966 1380.78 449.291 1179.95 412.805C899.507 361.879 791.174 793.561 577.033 797.968" stroke="#3A9998" stroke-miterlimit="10"/>
<path opacity="0.55" d="M2159.1 622.359C2159.1 622.359 2115.06 484.231 1981.81 461.791C1791 429.618 1719.76 574.839 1562.78 554.09C1424.62 535.827 1378.38 453.403 1181.05 420.128C905.511 373.669 804.77 798.103 594.933 805.066" stroke="#3A9998" stroke-miterlimit="10"/>
<path opacity="0.57" d="M2143.48 613.625C2143.48 613.625 2098.62 478.708 1967.74 458.28C1780.32 429.022 1712.26 572.283 1558.14 553.82C1422.5 537.573 1376.16 457.304 1182.33 427.051C911.682 384.809 818.098 802.209 612.5 811.573" stroke="#3A9998" stroke-miterlimit="10"/>
<path opacity="0.58" d="M2128.27 605.627C2128.27 605.627 2082.69 473.891 1954.12 455.378C1770.01 428.867 1704.99 570.082 1553.66 553.77C1420.47 539.414 1374.1 461.266 1183.7 433.849C917.838 395.568 831.042 805.811 629.571 817.351" stroke="#3A9998" stroke-miterlimit="10"/>
<path opacity="0.6" d="M2113.28 598.169C2113.28 598.169 2067.09 469.479 1940.8 452.767C1759.99 428.837 1697.85 568.066 1549.31 553.77C1418.56 541.184 1372.19 465.062 1185.21 440.312C924.114 405.752 843.692 809.077 646.292 822.658" stroke="#3A9998" stroke-miterlimit="10"/>
<path opacity="0.62" d="M2098.48 591.371C2098.48 591.371 2051.78 465.708 1927.8 450.681C1750.26 429.172 1690.88 566.34 1545.08 553.925C1416.75 542.995 1370.45 468.889 1186.86 446.62C930.498 415.557 856.104 811.838 662.726 827.28" stroke="#3A9998" stroke-miterlimit="10"/>
<path opacity="0.63" d="M2083.91 585.213C2083.91 585.213 2036.78 462.546 1915.07 449.101C1740.8 429.853 1684.03 564.895 1540.96 554.23C1415.01 544.846 1368.86 472.696 1188.63 452.772C936.967 424.975 868.249 814.099 678.826 831.232" stroke="#3A9998" stroke-miterlimit="10"/>
<path opacity="0.65" d="M2069.58 579.546C2069.58 579.546 2022.13 459.73 1902.66 447.76C1731.62 430.623 1677.33 563.604 1536.97 554.575C1413.42 546.627 1367.42 476.322 1190.53 458.6C943.522 433.849 880.105 816.1 694.576 834.788" stroke="#3A9998" stroke-miterlimit="10"/>
<path opacity="0.67" d="M2055.49 574.474C2055.49 574.474 2007.81 457.484 1890.6 446.89C1722.75 431.713 1670.83 562.574 1533.12 555.06C1411.92 548.443 1366.14 479.964 1192.55 464.272C950.153 442.363 891.703 817.641 710.014 837.719" stroke="#3A9998" stroke-miterlimit="10"/>
<path opacity="0.68" d="M2041.67 569.857C2041.67 569.857 1993.85 455.543 1878.81 446.22C1714.11 432.864 1664.42 561.688 1529.35 555.566C1410.48 550.183 1364.96 483.435 1194.62 469.629C956.784 450.341 902.952 818.951 725 840.285" stroke="#3A9998" stroke-miterlimit="10"/>
<path opacity="0.7" d="M2028.12 565.785C2028.12 565.785 1980.22 454.123 1867.38 445.974C1705.8 434.3 1658.22 561.023 1525.75 556.196C1409.16 551.939 1363.94 486.892 1196.84 474.822C963.506 457.964 913.973 819.822 739.704 842.286" stroke="#3A9998" stroke-miterlimit="10"/>
<path opacity="0.72" d="M2014.84 562.283C2014.84 562.283 1966.95 453.237 1856.26 446.164C1697.75 436.04 1652.16 560.628 1522.25 556.966C1407.93 553.745 1363.04 490.358 1199.12 479.889C970.223 465.267 924.686 820.307 754.013 843.742" stroke="#3A9998" stroke-miterlimit="10"/>
<path opacity="0.73" d="M2001.85 559.152C2001.85 559.152 1954.05 452.577 1845.47 446.495C1689.99 437.786 1646.27 560.323 1518.88 557.731C1406.76 555.455 1362.27 493.639 1201.48 484.631C976.956 472.055 935.09 820.602 767.963 844.897" stroke="#3A9998" stroke-miterlimit="10"/>
<path opacity="0.75" d="M1989.15 556.526C1989.15 556.526 1941.5 452.392 1835 447.21C1682.5 439.792 1640.54 560.258 1515.62 558.612C1405.68 557.186 1361.61 496.906 1203.9 489.233C983.678 478.518 945.206 820.517 781.529 845.538" stroke="#3A9998" stroke-miterlimit="10"/>
<path opacity="0.77" d="M1976.75 554.385C1976.75 554.385 1929.32 452.657 1824.86 448.29C1675.29 442.043 1634.98 560.338 1512.49 559.597C1404.68 558.937 1361.06 500.162 1206.38 493.699C990.405 484.696 955.024 820.072 794.715 845.688" stroke="#3A9998" stroke-miterlimit="10"/>
<path opacity="0.78" d="M1964.66 552.569C1964.66 552.569 1917.49 453.102 1815.05 449.471C1668.37 444.279 1629.58 560.553 1509.47 560.578C1403.76 560.603 1360.62 503.233 1208.92 497.861C997.077 490.358 964.533 819.497 807.517 845.618" stroke="#3A9998" stroke-miterlimit="10"/>
<path opacity="0.8" d="M1952.87 551.194C1952.87 551.194 1906.04 453.958 1805.56 450.986C1661.69 446.73 1624.35 560.938 1506.58 561.653C1402.93 562.278 1360.28 506.29 1211.49 501.888C1003.73 495.745 973.764 818.591 819.934 845.097" stroke="#3A9998" stroke-miterlimit="10"/>
<path opacity="0.82" d="M1941.14 550.238C1941.14 550.238 1894.71 455.198 1796.21 452.812C1655.17 449.396 1619.18 561.503 1503.75 562.819C1402.15 563.974 1360.06 509.331 1214.19 505.795C1010.51 500.862 982.853 817.381 832.226 844.157" stroke="#3A9998" stroke-miterlimit="10"/>
<path opacity="0.83" d="M1929.72 549.558C1929.72 549.558 1883.76 456.569 1787.19 454.693C1648.91 452.012 1614.21 562.128 1501.03 563.959C1401.45 565.575 1359.91 512.182 1216.92 509.406C1017.23 505.534 991.649 816.075 844.142 843.047" stroke="#3A9998" stroke-miterlimit="10"/>
<path opacity="0.85" d="M1918.62 549.278C1918.62 549.278 1873.16 458.31 1778.51 456.879C1642.96 454.833 1609.37 562.924 1498.45 565.205C1400.83 567.205 1359.89 515.039 1219.7 512.918C1023.95 509.961 1000.18 814.505 855.685 841.556" stroke="#3A9998" stroke-miterlimit="10"/>
<path opacity="0.87" d="M1907.83 549.338C1907.83 549.338 1862.92 460.361 1770.09 459.3C1637.17 457.799 1604.67 563.844 1495.95 566.48C1400.26 568.801 1359.92 517.835 1222.46 516.274C1030.51 514.093 1008.39 812.619 866.822 839.67" stroke="#3A9998" stroke-miterlimit="10"/>
<path opacity="0.88" d="M1897.36 549.628C1897.36 549.628 1853.04 462.501 1762.02 461.766C1631.69 460.706 1600.16 564.809 1493.55 567.761C1399.73 570.342 1360.02 520.476 1225.23 519.385C1037.02 517.885 1016.29 810.723 877.576 837.704" stroke="#3A9998" stroke-miterlimit="10"/>
<path opacity="0.9" d="M1887.2 550.253C1887.2 550.253 1843.51 464.952 1754.25 464.467C1626.44 463.777 1595.8 565.945 1491.28 569.101C1399.28 571.877 1360.2 523.082 1228.03 522.382C1043.46 521.381 1023.92 808.572 887.97 835.393" stroke="#3A9998" stroke-miterlimit="10"/>
<path opacity="0.92" d="M1877.11 551.194C1877.11 551.194 1834.09 467.688 1746.61 467.403C1621.33 466.993 1591.52 567.19 1489.07 570.507C1398.9 573.423 1360.48 525.698 1230.92 525.278C1050 524.687 1031.48 806.191 898.263 832.767" stroke="#3A9998" stroke-miterlimit="10"/>
<path opacity="0.93" d="M1867.33 552.279C1867.33 552.279 1825.02 470.425 1739.24 470.285C1616.43 470.085 1587.36 568.426 1486.93 571.827C1398.53 574.829 1360.79 528.074 1233.78 527.864C1056.41 527.579 1038.71 803.765 908.162 830.046" stroke="#3A9998" stroke-miterlimit="10"/>
<path opacity="0.95" d="M1857.87 553.695C1857.87 553.695 1816.29 473.471 1732.19 473.426C1611.76 473.361 1583.38 569.827 1484.91 573.283C1398.24 576.324 1361.19 530.51 1236.65 530.445C1062.74 530.35 1045.69 801.209 917.716 827.12" stroke="#3A9998" stroke-miterlimit="10"/>
<path opacity="0.97" d="M1848.71 555.361C1848.71 555.361 1807.89 476.747 1725.42 476.747C1607.33 476.747 1579.54 571.322 1482.98 574.789C1398.01 577.79 1361.63 532.926 1239.51 532.926C1068.97 532.926 1052.39 798.443 926.922 823.914" stroke="#3A9998" stroke-miterlimit="10"/>
<path opacity="0.98" d="M1839.74 557.281C1839.74 557.281 1799.72 480.249 1718.86 480.249C1603.06 480.249 1575.81 572.918 1481.13 576.289C1397.79 579.26 1362.14 535.272 1242.39 535.272C1075.17 535.272 1058.91 795.437 935.874 820.392" stroke="#3A9998" stroke-miterlimit="10"/>
</svg>
