<svg width="389" height="624" viewBox="0 0 389 624" fill="none" xmlns="http://www.w3.org/2000/svg">
<path d="M459.174 -312.843C280.994 -314.552 64.137 -171.198 75.3318 64.6191C79.859 160.011 250.84 225.121 247.171 375.169C242.669 559.278 411.081 578.435 517.4 527.781C834.948 376.504 664.303 306.453 745.668 73.0993C827.033 -160.254 637.354 -311.136 459.174 -312.843Z" stroke="#97ABCC" stroke-opacity="0.3" stroke-miterlimit="10"/>
<path d="M462.759 -304.114C288.118 -307.365 74.133 -168.744 82.7919 62.5846C86.2943 156.159 253.256 221.523 248.185 368.617C241.96 549.095 406.86 569.385 511.576 520.665C824.335 375.155 657.751 304.948 739.8 76.8627C821.848 -151.222 637.402 -300.856 462.759 -304.114Z" stroke="#97ABCC" stroke-opacity="0.3" stroke-miterlimit="10"/>
<path d="M466.022 -295.597C294.862 -300.288 83.8031 -166.17 90.1068 60.7569C92.6547 152.552 255.702 218.085 249.341 362.29C241.537 539.227 402.986 560.537 506.091 513.656C814.039 373.645 651.41 303.362 733.992 80.3966C816.575 -142.569 637.179 -290.906 466.022 -295.597Z" stroke="#97ABCC" stroke-opacity="0.3" stroke-miterlimit="10"/>
<path d="M468.977 -287.18C301.248 -293.185 93.1511 -163.408 97.2756 59.1581C98.9432 149.19 258.17 214.786 250.631 356.134C241.379 529.564 399.44 551.784 500.93 506.664C804.039 371.895 645.276 301.654 728.242 83.6935C811.207 -134.267 636.707 -281.176 468.977 -287.18Z" stroke="#97ABCC" stroke-opacity="0.3" stroke-miterlimit="10"/>
<path d="M471.636 -278.984C307.279 -286.193 102.178 -160.555 104.296 57.7526C105.151 146.06 260.657 211.642 252.044 350.206C241.476 520.218 396.216 543.254 496.089 499.8C794.375 370.015 639.352 299.878 722.56 86.7727C805.768 -126.333 635.996 -271.776 471.636 -278.984Z" stroke="#97ABCC" stroke-opacity="0.3" stroke-miterlimit="10"/>
<path d="M474.014 -270.902C312.97 -279.202 110.896 -157.539 111.163 56.549C111.273 143.149 263.161 208.626 253.575 344.444C241.813 511.082 393.298 534.829 491.554 492.966C785.005 367.936 633.633 297.997 716.942 89.6504C800.252 -118.696 635.06 -262.6 474.014 -270.902Z" stroke="#97ABCC" stroke-opacity="0.3" stroke-miterlimit="10"/>
<path d="M476.12 -262.932C318.328 -272.219 119.291 -154.367 117.877 55.5497C117.305 140.463 265.674 205.745 255.211 338.843C242.373 502.146 390.676 526.509 487.305 486.165C775.945 365.661 628.109 296.008 711.42 92.3155C794.731 -111.377 633.924 -253.65 476.12 -262.932Z" stroke="#97ABCC" stroke-opacity="0.3" stroke-miterlimit="10"/>
<path d="M477.967 -255.2C323.361 -265.374 127.385 -151.141 124.433 54.7158C123.231 137.988 268.191 203.012 256.943 333.469C243.142 493.533 388.334 518.43 483.36 479.516C767.183 363.291 622.79 293.981 705.973 94.7831C789.155 -104.415 632.572 -245.025 477.967 -255.2Z" stroke="#97ABCC" stroke-opacity="0.3" stroke-miterlimit="10"/>
<path d="M479.566 -247.588C328.086 -258.552 135.175 -147.787 130.836 54.0601C129.082 135.708 270.712 200.399 258.769 328.252C244.116 485.125 386.265 510.466 479.689 472.914C758.725 360.761 617.671 291.867 700.607 97.063C783.543 -97.7411 631.048 -236.624 479.566 -247.588Z" stroke="#97ABCC" stroke-opacity="0.3" stroke-miterlimit="10"/>
<path d="M480.926 -240.104C332.493 -251.759 142.665 -144.314 137.078 53.5755C134.819 133.622 273.228 197.903 260.677 323.195C245.276 476.926 384.455 502.627 476.286 466.365C750.554 358.069 612.743 289.674 695.331 99.1629C777.919 -91.3481 629.35 -228.436 480.926 -240.104Z" stroke="#97ABCC" stroke-opacity="0.3" stroke-miterlimit="10"/>
<path d="M482.06 -232.744C336.632 -245.013 149.861 -140.733 143.161 53.2541C140.451 131.722 275.74 195.524 262.661 318.296C246.611 468.93 382.894 494.915 473.144 459.877C742.69 355.236 608.009 287.41 690.151 101.088C772.293 -85.2336 627.489 -220.482 482.06 -232.744Z" stroke="#97ABCC" stroke-opacity="0.3" stroke-miterlimit="10"/>
<path d="M482.981 -225.637C340.469 -238.424 156.773 -137.138 149.084 53.0655C145.974 130.003 278.241 193.28 264.711 313.613C248.108 461.253 381.563 487.447 470.244 453.56C735.104 352.354 603.455 285.126 685.059 102.836C766.662 -79.4539 625.485 -212.846 482.981 -225.637Z" stroke="#97ABCC" stroke-opacity="0.3" stroke-miterlimit="10"/>
<path d="M483.7 -218.66C344.052 -231.893 163.402 -133.458 154.853 53.0221C151.393 128.454 280.733 191.145 266.827 309.085C249.762 453.785 380.467 480.117 467.593 447.319C727.803 349.353 599.09 282.794 680.07 104.431C761.05 -73.9324 623.332 -205.422 483.7 -218.66Z" stroke="#97ABCC" stroke-opacity="0.3" stroke-miterlimit="10"/>
<path d="M484.196 -211.815C347.4 -225.413 169.867 -129.694 160.571 53.1203C156.809 127.072 283.263 189.121 269.051 304.698C251.617 446.509 379.587 472.911 465.136 441.137C720.645 346.239 594.827 280.401 675.066 105.866C755.306 -68.669 620.995 -198.216 484.196 -211.815Z" stroke="#97ABCC" stroke-opacity="0.3" stroke-miterlimit="10"/>
<path d="M484.513 -205.107C350.494 -218.992 176.062 -125.862 166.131 53.3529C162.116 125.846 285.776 187.196 271.332 300.465C253.61 439.438 378.916 465.844 462.909 435.037C713.765 343.024 590.741 277.961 670.167 107.16C749.594 -63.6412 618.527 -191.227 484.513 -205.107Z" stroke="#97ABCC" stroke-opacity="0.3" stroke-miterlimit="10"/>
<path d="M484.65 -198.535C353.341 -212.64 181.988 -121.968 171.536 53.7124C167.312 124.773 288.272 185.38 273.656 296.378C255.725 432.572 378.444 458.919 460.897 429.022C707.153 339.72 586.835 275.475 665.367 108.302C743.9 -58.8716 615.949 -184.427 484.65 -198.535Z" stroke="#97ABCC" stroke-opacity="0.3" stroke-miterlimit="10"/>
<path d="M484.623 -192.099C355.951 -206.364 187.654 -118.02 176.776 54.1775C172.376 123.833 290.738 183.645 276.015 292.421C257.946 425.886 378.153 452.118 459.085 423.074C700.81 336.332 583.089 272.96 660.689 109.309C738.289 -54.3421 613.291 -177.842 484.623 -192.099Z" stroke="#97ABCC" stroke-opacity="0.3" stroke-miterlimit="10"/>
<path d="M484.437 -185.802C358.338 -200.146 193.064 -114.025 181.858 54.7515C177.328 123.034 293.184 182.015 278.411 288.607C260.274 419.402 378.04 445.46 457.462 417.222C694.715 332.873 579.501 270.408 656.084 110.197C732.668 -50.0128 610.537 -171.456 484.437 -185.802Z" stroke="#97ABCC" stroke-opacity="0.3" stroke-miterlimit="10"/>
<path d="M484.104 -179.641C360.502 -194.02 198.224 -109.994 186.786 55.4422C182.159 122.364 295.594 180.462 280.82 284.93C262.694 413.105 378.089 438.942 456.059 411.451C688.899 329.347 576.1 267.815 651.62 110.956C727.14 -45.9028 607.704 -165.269 484.104 -179.641Z" stroke="#97ABCC" stroke-opacity="0.3" stroke-miterlimit="10"/>
<path d="M483.611 -173.62C362.501 -187.961 203.259 -105.927 191.674 56.2265C186.986 121.82 298.036 179.008 283.322 281.385C265.265 406.998 378.311 432.563 454.785 405.773C683.188 325.762 572.77 265.219 647.141 111.595C721.511 -42.0285 604.72 -159.276 483.611 -173.62Z" stroke="#97ABCC" stroke-opacity="0.3" stroke-miterlimit="10"/>
<path d="M482.987 -167.734C364.295 -181.992 208.064 -101.83 196.409 57.1015C191.697 121.393 300.447 177.633 285.838 277.968C267.914 401.078 378.678 426.322 453.688 400.185C677.721 322.125 569.596 262.596 642.772 112.125C715.949 -38.3471 601.678 -153.476 482.987 -167.734Z" stroke="#97ABCC" stroke-opacity="0.3" stroke-miterlimit="10"/>
<path d="M482.241 -161.983C365.888 -176.104 212.618 -97.7282 200.99 58.058C196.285 121.075 302.825 176.341 288.369 274.678C270.63 395.334 379.186 420.218 452.758 394.689C672.495 318.448 566.572 259.957 638.513 112.547C710.453 -34.8632 598.583 -147.859 482.241 -161.983Z" stroke="#97ABCC" stroke-opacity="0.3" stroke-miterlimit="10"/>
<path d="M481.378 -156.371C367.324 -170.315 216.954 -93.6088 205.405 59.0943C200.738 120.864 305.154 175.128 290.892 271.51C273.395 389.773 379.814 414.26 451.971 389.289C667.497 314.74 563.699 257.312 634.357 112.872C705.015 -31.5676 595.434 -142.425 481.378 -156.371Z" stroke="#97ABCC" stroke-opacity="0.3" stroke-miterlimit="10"/>
<path d="M480.393 -150.902C368.602 -164.612 221.177 -89.49 209.809 60.1999C205.205 120.746 307.521 173.98 293.499 268.455C276.294 384.373 380.586 408.415 451.329 383.986C662.605 310.992 560.888 254.663 630.218 113.099C699.547 -28.4652 592.184 -137.18 480.393 -150.902Z" stroke="#97ABCC" stroke-opacity="0.3" stroke-miterlimit="10"/>
<path d="M479.308 -145.548C369.723 -158.99 225.215 -85.3428 214.058 61.3875C209.543 120.74 309.845 172.924 296.098 265.534C279.234 379.165 381.47 402.733 450.816 378.776C657.93 307.221 558.217 252.002 626.181 113.234C694.146 -25.5345 588.896 -132.106 479.308 -145.548Z" stroke="#97ABCC" stroke-opacity="0.3" stroke-miterlimit="10"/>
<path d="M478.131 -140.334C370.68 -153.468 229.028 -81.2135 218.157 62.6268C213.758 120.813 312.124 171.928 298.69 262.717C282.208 374.114 382.458 397.178 450.439 373.665C653.474 303.437 555.682 249.347 622.255 113.285C688.829 -22.7776 585.584 -127.201 478.131 -140.334Z" stroke="#97ABCC" stroke-opacity="0.3" stroke-miterlimit="10"/>
<path d="M476.871 -135.252C371.484 -148.04 232.638 -77.0957 222.112 63.9239C217.852 120.968 314.364 170.999 301.272 260.012C285.211 369.228 383.547 391.766 450.188 368.649C649.232 299.64 553.28 246.695 618.441 113.259C683.602 -20.1772 582.258 -122.467 476.871 -135.252Z" stroke="#97ABCC" stroke-opacity="0.3" stroke-miterlimit="10"/>
<path d="M475.513 -130.303C372.185 -142.708 236.173 -72.9867 226.041 65.2749C221.943 121.204 316.619 170.132 303.906 257.413C288.308 364.506 384.737 386.478 450.032 363.734C645.061 295.836 550.93 244.048 614.636 113.154C678.342 -17.7387 578.841 -117.891 475.513 -130.303Z" stroke="#97ABCC" stroke-opacity="0.3" stroke-miterlimit="10"/>
<path d="M474.083 -125.481C372.749 -137.474 239.514 -68.894 229.83 66.673C225.913 121.512 318.829 169.327 306.522 254.919C291.42 359.938 386.007 381.313 449.99 358.918C641.092 292.03 548.705 241.412 610.923 112.976C673.141 -15.4602 575.421 -113.487 474.083 -125.481Z" stroke="#97ABCC" stroke-opacity="0.3" stroke-miterlimit="10"/>
<path d="M472.587 -120.786C373.182 -132.34 242.679 -64.8298 233.478 68.1139C229.761 121.889 320.996 168.581 309.115 252.518C294.542 355.515 387.353 376.282 450.054 354.193C637.32 288.221 546.599 238.779 607.326 112.726C668.054 -13.328 571.995 -109.232 472.587 -120.786Z" stroke="#97ABCC" stroke-opacity="0.3" stroke-miterlimit="10"/>
<path d="M471.017 -116.21C373.533 -127.295 245.767 -60.7737 237.112 69.6033C233.61 122.341 323.177 167.897 311.76 250.25C297.75 351.281 388.793 371.412 450.199 349.599C633.617 284.45 544.538 236.196 603.736 112.445C662.935 -11.3057 568.501 -105.133 471.017 -116.21Z" stroke="#97ABCC" stroke-opacity="0.3" stroke-miterlimit="10"/>
<path d="M469.382 -111.657C373.755 -122.236 248.678 -56.6793 240.604 71.1333C237.336 122.834 325.309 167.231 314.373 247.969C300.953 347.034 390.296 366.518 450.431 344.963C630.078 280.586 542.581 233.543 600.239 112.081C657.897 -9.38081 565.012 -101.07 469.382 -111.657Z" stroke="#97ABCC" stroke-opacity="0.3" stroke-miterlimit="10"/>
<path d="M467.682 -107.219C373.909 -117.285 251.54 -52.6169 244.084 72.7019C241.065 123.391 327.458 166.622 317.024 245.801C304.226 342.949 391.869 361.746 450.749 340.42C626.612 276.735 540.679 230.906 596.761 111.655C652.842 -7.59569 561.461 -97.1439 467.682 -107.219Z" stroke="#97ABCC" stroke-opacity="0.3" stroke-miterlimit="10"/>
<path d="M465.938 -102.9C373.953 -112.424 254.234 -48.5757 247.428 74.2973C244.672 123.998 329.552 166.063 319.642 243.723C307.484 339.005 393.491 357.111 451.136 335.991C623.308 272.909 538.867 228.299 593.374 111.19C647.88 -5.91848 557.927 -93.379 465.938 -102.9Z" stroke="#97ABCC" stroke-opacity="0.3" stroke-miterlimit="10"/>
<path d="M464.165 -98.7032C373.906 -107.668 256.78 -44.5824 250.65 75.9114C248.173 124.653 331.606 165.549 322.234 241.727C310.736 335.194 395.168 352.597 451.611 331.657C620.189 269.112 537.172 225.717 590.109 110.683C643.045 -4.35065 554.422 -89.74 464.165 -98.7032Z" stroke="#97ABCC" stroke-opacity="0.3" stroke-miterlimit="10"/>
<path d="M462.33 -94.5083C373.798 -102.89 259.275 -40.5447 253.858 77.5693C251.668 125.346 333.668 165.058 324.852 239.755C314.038 331.406 396.906 348.085 452.128 327.314C617.093 265.268 535.493 223.108 586.825 110.136C638.157 -2.83524 550.862 -86.1244 462.33 -94.5083Z" stroke="#97ABCC" stroke-opacity="0.3" stroke-miterlimit="10"/>
<path d="M460.468 -90.4318C373.601 -98.2208 261.622 -36.5571 256.941 79.237C255.048 126.078 335.677 164.602 327.432 237.859C317.317 327.743 398.67 343.689 452.726 323.067C614.175 261.455 533.926 220.53 583.664 109.552C633.402 -1.4261 547.336 -82.6405 460.468 -90.4318Z" stroke="#97ABCC" stroke-opacity="0.3" stroke-miterlimit="10"/>
<path d="M458.567 -86.4632C373.365 -93.6407 263.943 -32.6078 260.019 80.9277C258.433 126.853 337.697 164.196 330.037 236.052C320.642 324.223 400.481 339.423 453.353 318.917C611.271 257.674 532.371 217.974 580.485 108.927C628.599 -0.120135 543.771 -79.2813 458.567 -86.4632Z" stroke="#97ABCC" stroke-opacity="0.3" stroke-miterlimit="10"/>
<path d="M456.648 -82.608C373.047 -89.1687 266.121 -28.7171 262.98 82.6235C261.709 127.66 339.667 163.819 332.601 234.316C323.929 320.808 402.323 335.269 454.049 314.876C608.531 253.945 530.906 215.466 577.42 108.281C623.934 1.09661 540.246 -76.0489 456.648 -82.608Z" stroke="#97ABCC" stroke-opacity="0.3" stroke-miterlimit="10"/>
<path d="M454.69 -78.7495C372.697 -84.6764 268.277 -24.7779 265.936 84.3416C264.987 128.486 341.648 163.461 335.181 232.601C327.252 317.414 404.194 331.116 454.765 310.82C605.798 250.18 529.45 212.934 574.336 107.61C619.222 2.28579 536.683 -72.8227 454.69 -78.7495Z" stroke="#97ABCC" stroke-opacity="0.3" stroke-miterlimit="10"/>
<path d="M452.725 -75.0024C372.277 -80.288 270.305 -20.9176 268.772 86.0664C268.153 129.341 343.576 163.134 337.724 230.935C330.545 314.121 406.094 327.058 455.539 306.834C603.22 246.429 528.088 210.41 571.367 106.884C614.646 3.35822 533.171 -69.714 452.725 -75.0024Z" stroke="#97ABCC" stroke-opacity="0.3" stroke-miterlimit="10"/>
<path d="M450.734 -71.3601C371.838 -75.999 272.319 -17.1084 271.613 87.7872C271.327 130.218 345.507 162.841 340.278 229.339C333.858 310.943 408.01 323.109 456.33 302.954C600.644 242.737 526.728 207.932 568.383 106.148C610.038 4.36338 529.63 -66.7211 450.734 -71.3601Z" stroke="#97ABCC" stroke-opacity="0.3" stroke-miterlimit="10"/>
<path d="M448.74 -67.7095C371.336 -71.6928 274.21 -13.2708 274.336 89.5208C274.389 131.106 347.393 162.544 342.783 227.757C337.131 307.771 409.942 319.173 457.166 299.07C598.214 239.035 525.455 205.449 565.504 105.403C605.553 5.35686 526.145 -63.7262 448.74 -67.7095Z" stroke="#97ABCC" stroke-opacity="0.3" stroke-miterlimit="10"/>
<path d="M446.728 -64.1655C370.819 -67.4871 276.091 -9.4994 277.069 91.2632C277.464 132.023 349.286 162.299 345.306 226.248C340.426 304.718 411.894 315.356 458.019 295.29C595.785 235.384 524.188 203.015 562.617 104.653C601.046 6.29015 522.638 -60.8394 446.728 -64.1655Z" stroke="#97ABCC" stroke-opacity="0.3" stroke-miterlimit="10"/>
<path d="M444.719 -60.7215C370.247 -63.387 277.854 -5.78823 279.684 92.9927C280.424 132.948 351.118 162.059 347.77 224.793C343.662 301.764 413.839 311.626 458.901 291.599C593.485 231.786 522.989 200.603 559.827 103.876C596.665 7.14919 519.191 -58.0582 444.719 -60.7215Z" stroke="#97ABCC" stroke-opacity="0.3" stroke-miterlimit="10"/>
<path d="M442.7 -57.2773C369.674 -59.2774 279.632 -2.07425 282.303 94.7187C283.39 133.871 352.955 161.82 350.239 223.327C346.911 298.793 415.794 307.88 459.784 287.884C591.173 228.163 521.787 198.19 557.022 103.088C592.257 7.98508 515.724 -55.267 442.7 -57.2773Z" stroke="#97ABCC" stroke-opacity="0.3" stroke-miterlimit="10"/>
<path d="M440.697 -53.9153C369.046 -55.2453 281.28 1.59621 284.832 96.4544C286.267 134.825 354.756 161.624 352.674 221.939C350.122 295.942 417.758 304.261 460.718 284.281C589.009 224.604 520.681 195.827 554.339 102.299C587.997 8.77141 512.336 -52.5801 440.697 -53.9153Z" stroke="#97ABCC" stroke-opacity="0.3" stroke-miterlimit="10"/>
<path d="M438.69 -50.5453C368.447 -51.216 282.952 5.26783 287.364 98.1753C289.147 135.759 356.553 161.41 355.104 220.526C353.325 293.061 419.712 300.609 461.643 280.648C586.831 221.041 519.557 193.435 551.639 101.504C583.721 9.57179 508.933 -49.8769 438.69 -50.5453Z" stroke="#97ABCC" stroke-opacity="0.3" stroke-miterlimit="10"/>
<path d="M436.697 -47.2761C367.796 -47.27 284.513 8.88133 289.783 99.8909C291.914 136.705 358.291 161.223 357.472 219.177C356.465 290.284 421.667 297.066 462.576 277.118C584.758 217.535 518.494 191.11 549.023 100.704C579.553 10.2981 505.608 -47.273 436.697 -47.2761Z" stroke="#97ABCC" stroke-opacity="0.3" stroke-miterlimit="10"/>
<path d="M434.705 -44.1041C367.146 -43.4496 286.085 12.3951 292.218 101.578C294.701 137.655 360.037 161.054 359.849 217.88C359.616 287.601 423.612 293.627 463.511 273.68C582.677 214.099 517.427 188.827 546.402 99.9019C575.377 10.977 502.263 -44.7558 434.705 -44.1041Z" stroke="#97ABCC" stroke-opacity="0.3" stroke-miterlimit="10"/>
<path d="M432.739 -40.9129C366.471 -39.6013 287.561 15.9344 294.551 103.272C297.376 138.601 361.727 160.882 362.161 216.574C362.691 284.903 425.538 290.17 464.458 270.225C580.71 210.651 516.426 186.532 543.88 99.0986C571.334 11.6651 499.005 -42.2267 432.739 -40.9129Z" stroke="#97ABCC" stroke-opacity="0.3" stroke-miterlimit="10"/>
<path d="M430.779 -37.8181C365.809 -35.8557 289.058 19.3902 296.895 104.937C300.066 139.541 363.421 160.726 364.474 215.311C365.773 282.291 427.457 286.821 465.399 266.866C578.723 207.277 515.411 184.291 541.347 98.2986C567.283 12.3057 495.745 -39.7843 430.779 -37.8181Z" stroke="#97ABCC" stroke-opacity="0.3" stroke-miterlimit="10"/>
<path d="M428.833 -34.706C365.172 -32.098 290.579 22.8465 299.26 106.591C302.771 140.466 365.12 160.56 366.79 214.039C368.837 279.657 429.358 283.442 466.319 263.492C576.707 203.91 514.381 182.052 538.803 97.5133C563.225 12.9744 492.493 -37.311 428.833 -34.706Z" stroke="#97ABCC" stroke-opacity="0.3" stroke-miterlimit="10"/>
<path d="M426.913 -31.6857C364.492 -28.4469 292.006 26.231 301.521 108.224C305.371 141.392 366.764 160.413 369.041 212.816C371.834 277.118 431.245 280.166 467.249 260.212C574.805 200.609 513.415 179.86 536.353 96.7265C559.29 13.5933 489.32 -34.9324 426.913 -31.6857Z" stroke="#97ABCC" stroke-opacity="0.3" stroke-miterlimit="10"/>
<path d="M425.018 -28.6412C363.873 -24.7627 293.465 29.6117 303.801 109.842C307.994 142.296 368.407 160.252 371.285 211.574C374.815 274.547 433.096 276.88 468.155 256.919C572.872 197.317 512.426 177.671 533.893 95.9587C555.36 14.2464 486.161 -32.5242 425.018 -28.6412Z" stroke="#97ABCC" stroke-opacity="0.3" stroke-miterlimit="10"/>
<path d="M423.149 -25.701C363.214 -21.2002 294.826 32.9075 305.98 111.439C310.489 143.206 369.997 160.107 373.465 210.384C377.735 272.065 434.925 273.681 469.069 253.719C571.047 194.091 511.502 175.529 531.526 95.1994C551.55 14.8699 483.085 -30.2046 423.149 -25.701Z" stroke="#97ABCC" stroke-opacity="0.3" stroke-miterlimit="10"/>
<path d="M421.311 -22.7361C362.593 -17.6193 296.227 36.2021 308.179 113.018C313.015 144.088 371.586 159.949 375.636 209.17C380.608 269.561 436.723 270.466 469.951 250.503C569.171 190.879 510.552 173.393 529.157 94.4356C547.763 15.4776 480.03 -27.8551 421.311 -22.7361Z" stroke="#97ABCC" stroke-opacity="0.3" stroke-miterlimit="10"/>
<path d="M419.485 -19.8615C361.993 -14.1458 297.654 39.3998 310.396 114.551C315.541 144.954 373.179 159.799 377.808 207.997C383.487 267.131 438.51 267.351 470.812 247.388C567.295 187.764 509.586 171.32 526.77 93.7054C543.955 16.0912 476.977 -25.5795 419.485 -19.8615Z" stroke="#97ABCC" stroke-opacity="0.3" stroke-miterlimit="10"/>
<path d="M417.711 -16.9682C361.392 -10.6558 299.003 42.6061 312.525 116.081C317.987 145.803 374.727 159.637 379.909 206.807C386.277 264.68 440.256 264.224 471.673 244.252C565.516 184.634 508.681 169.238 524.491 92.9766C540.302 16.7148 474.031 -23.2806 417.711 -16.9682Z" stroke="#97ABCC" stroke-opacity="0.3" stroke-miterlimit="10"/>
<path d="M415.953 -14.1664C360.817 -7.27435 300.379 45.7135 314.65 117.561C320.422 146.628 376.244 159.482 381.99 205.65C389.039 262.3 441.959 261.169 472.492 241.212C563.678 181.601 507.736 167.217 522.177 92.2669C536.618 17.3162 471.091 -21.0591 415.953 -14.1664Z" stroke="#97ABCC" stroke-opacity="0.3" stroke-miterlimit="10"/>
<path d="M414.233 -11.3419C360.288 -3.88873 301.799 48.8017 316.811 119.029C322.882 147.435 377.778 159.319 384.067 204.486C391.794 259.901 443.637 258.115 473.277 238.176C561.81 178.607 506.764 165.23 519.863 91.6022C532.962 17.9741 468.181 -18.7956 414.233 -11.3419Z" stroke="#97ABCC" stroke-opacity="0.3" stroke-miterlimit="10"/>
<path d="M412.551 -8.61233C359.738 -0.613051 303.132 51.8141 318.869 120.462C325.234 148.232 379.258 159.176 386.077 203.361C394.446 257.586 445.287 255.167 474.074 235.225C560.058 175.674 505.877 163.275 517.653 90.9262C529.429 18.5777 465.359 -16.622 412.551 -8.61233Z" stroke="#97ABCC" stroke-opacity="0.3" stroke-miterlimit="10"/>
<path d="M410.909 -5.86079C359.244 2.68971 304.508 54.805 320.949 121.867C327.599 148.992 380.729 158.99 388.067 202.207C397.07 255.234 446.884 252.186 474.819 232.264C558.252 172.76 504.945 161.336 515.43 90.2843C525.915 19.233 462.571 -14.4129 410.909 -5.86079Z" stroke="#97ABCC" stroke-opacity="0.3" stroke-miterlimit="10"/>
<path d="M409.312 -3.09054C358.803 5.98313 305.933 57.769 323.05 123.237C329.975 149.718 382.198 158.795 390.038 201.029C399.655 252.847 448.435 249.189 475.515 229.297C556.408 169.892 503.983 159.417 513.196 89.6784C522.41 19.9403 459.821 -12.1642 409.312 -3.09054Z" stroke="#97ABCC" stroke-opacity="0.3" stroke-miterlimit="10"/>
<path d="M407.753 -0.413096C358.345 9.17482 307.267 60.6578 325.051 124.582C332.245 150.44 383.611 158.615 391.939 199.899C402.159 250.551 449.953 246.293 476.217 226.426C554.659 167.091 503.081 157.545 511.065 89.0807C519.049 20.6161 457.161 -10.0032 407.753 -0.413096Z" stroke="#97ABCC" stroke-opacity="0.3" stroke-miterlimit="10"/>
<path d="M406.244 2.28182C357.945 12.3676 308.654 63.5184 327.073 125.893C334.525 151.126 385.018 158.413 393.817 198.741C404.619 248.221 451.407 243.381 476.862 223.549C552.864 164.321 502.142 155.693 508.915 88.4996C515.689 21.3059 454.543 -7.80396 406.244 2.28182Z" stroke="#97ABCC" stroke-opacity="0.3" stroke-miterlimit="10"/>
<path d="M404.762 4.88401C357.579 15.4447 310.073 66.2662 329.12 127.145C336.806 151.776 386.425 158.214 395.691 197.612C407.062 245.957 452.857 240.558 477.487 220.767C551.047 161.658 501.193 153.906 506.763 87.9547C512.333 22.0038 451.937 -5.67193 404.762 4.88401Z" stroke="#97ABCC" stroke-opacity="0.3" stroke-miterlimit="10"/>
<path d="M403.333 7.50525C357.211 18.5362 311.41 69.022 331.054 128.399C338.991 152.418 387.768 158.005 397.479 196.491C409.395 243.697 454.236 237.744 478.087 217.994C549.319 159.007 500.288 152.137 504.714 87.4319C509.14 22.7269 449.453 -3.52512 403.333 7.50525Z" stroke="#97ABCC" stroke-opacity="0.3" stroke-miterlimit="10"/>
<path d="M401.968 10.1403C356.917 21.6202 312.809 71.742 333.015 129.61C341.191 153.019 389.093 157.78 399.237 195.32C411.674 241.381 455.55 234.889 478.624 215.195C547.533 156.377 499.344 150.367 502.655 86.926C505.966 23.4852 447.019 -1.34182 401.968 10.1403Z" stroke="#97ABCC" stroke-opacity="0.3" stroke-miterlimit="10"/>
<path d="M400.62 12.6786C356.643 24.5851 314.227 74.3458 334.991 130.758C343.392 153.588 390.434 157.547 400.989 194.185C413.938 239.141 456.846 232.142 479.139 212.507C545.726 153.863 498.386 148.669 500.589 86.4599C502.792 24.2507 444.597 0.774303 400.62 12.6786Z" stroke="#97ABCC" stroke-opacity="0.3" stroke-miterlimit="10"/>
<path d="M399.348 15.2339C356.396 27.5662 315.575 76.9587 336.872 131.913C345.482 154.143 391.708 157.314 402.652 193.054C416.087 236.902 458.07 229.393 479.623 209.814C544.007 151.349 497.475 146.985 498.627 85.9989C499.779 25.0129 442.302 2.90095 399.348 15.2339Z" stroke="#97ABCC" stroke-opacity="0.3" stroke-miterlimit="10"/>
<path d="M398.093 17.6926C356.167 30.4268 316.964 79.4543 338.762 133.004C347.569 154.667 392.971 157.082 404.31 191.949C418.22 234.731 459.276 226.742 480.092 207.23C542.263 148.956 496.539 145.378 496.657 85.5755C496.776 25.7727 440.017 4.96126 398.093 17.6926Z" stroke="#97ABCC" stroke-opacity="0.3" stroke-miterlimit="10"/>
<path d="M396.895 20.1667C356.003 33.2769 318.378 81.9028 340.672 134.051C349.682 155.142 394.23 156.823 405.936 190.818C420.298 232.525 460.418 224.077 480.497 204.644C540.472 146.604 495.59 143.787 494.687 85.1947C493.784 26.6026 437.787 7.05646 396.895 20.1667Z" stroke="#97ABCC" stroke-opacity="0.3" stroke-miterlimit="10"/>
<path d="M395.764 22.6491C355.908 36.1158 319.875 84.3224 342.598 135.052C351.792 155.573 395.482 156.539 407.535 189.656C422.323 230.288 461.5 221.402 480.851 202.063C538.641 144.3 494.603 142.225 492.719 84.8465C490.836 27.4684 435.614 9.18647 395.764 22.6491Z" stroke="#97ABCC" stroke-opacity="0.3" stroke-miterlimit="10"/>
<path d="M394.653 25.0362C355.781 38.852 321.253 86.6647 344.414 136.039C353.784 156.007 396.667 156.281 409.057 188.557C424.263 228.155 462.547 218.838 481.201 199.579C536.913 142.061 493.67 140.712 490.84 84.4982C488.01 28.2846 433.527 11.2197 394.653 25.0362Z" stroke="#97ABCC" stroke-opacity="0.3" stroke-miterlimit="10"/>
<path d="M393.608 27.4292C355.722 41.5746 322.684 88.9644 346.25 136.981C355.782 156.404 397.844 155.999 410.547 187.425C426.134 225.99 463.527 216.259 481.49 197.1C535.138 139.872 492.706 139.224 488.963 84.1873C485.22 29.1505 431.496 13.2831 393.608 27.4292Z" stroke="#97ABCC" stroke-opacity="0.3" stroke-miterlimit="10"/>
<path d="M392.628 29.8308C355.725 44.2831 324.164 91.2181 348.098 137.875C357.78 156.749 399.008 155.692 412.013 186.275C427.969 223.8 464.452 213.683 481.73 194.634C533.335 137.743 491.722 137.772 487.088 83.928C482.454 30.0836 429.524 15.3803 392.628 29.8308Z" stroke="#97ABCC" stroke-opacity="0.3" stroke-miterlimit="10"/>
<path d="M391.658 32.1398C355.75 46.8675 325.65 93.3397 349.948 138.704C359.78 157.051 400.171 155.383 413.466 185.154C429.78 221.682 465.36 211.206 481.955 192.272C531.512 135.723 490.727 136.394 485.227 83.6977C479.727 31.001 427.563 17.4104 391.658 32.1398Z" stroke="#97ABCC" stroke-opacity="0.3" stroke-miterlimit="10"/>
<path d="M390.767 34.4441C355.798 49.455 327.074 95.4877 351.704 139.542C361.667 157.361 401.264 155.075 414.828 184.037C431.467 219.566 466.191 208.734 482.141 189.913C529.775 133.7 489.774 135.015 483.461 83.4635C477.148 31.9123 425.737 19.4353 390.767 34.4441Z" stroke="#97ABCC" stroke-opacity="0.3" stroke-miterlimit="10"/>
<path d="M389.94 36.7525C355.908 52.0233 328.546 97.575 353.472 140.332C363.552 157.627 402.345 154.748 416.158 182.895C433.097 217.433 466.96 206.256 482.271 187.561C528.004 131.73 488.797 133.665 481.705 83.2689C474.613 32.8728 423.97 21.4846 389.94 36.7525Z" stroke="#97ABCC" stroke-opacity="0.3" stroke-miterlimit="10"/>
<path d="M389.117 38.9653C356.022 54.4581 330.02 99.5441 355.234 141.057C365.435 157.849 403.42 154.41 417.47 181.788C434.707 215.373 467.711 203.885 482.384 185.323C526.216 129.885 487.807 132.397 479.938 83.1154C472.069 33.8337 422.209 23.4565 389.117 38.9653Z" stroke="#97ABCC" stroke-opacity="0.3" stroke-miterlimit="10"/>
<path d="M388.359 41.1796C356.205 56.8937 331.536 101.459 357.015 141.73C367.319 158.021 404.492 154.061 418.76 180.655C436.259 213.289 468.409 201.514 482.453 183.097C524.407 128.094 486.798 131.16 478.194 83.003C469.591 34.8456 420.514 25.4748 388.359 41.1796Z" stroke="#97ABCC" stroke-opacity="0.3" stroke-miterlimit="10"/>
<path d="M387.68 43.387C356.409 59.307 332.988 103.386 358.682 142.424C369.075 158.216 405.485 153.717 419.939 179.539C437.684 211.223 469.01 199.155 482.469 180.878C522.665 126.294 485.825 129.919 476.538 82.879C467.25 35.8395 418.951 27.467 387.68 43.387Z" stroke="#97ABCC" stroke-opacity="0.3" stroke-miterlimit="10"/>
<path d="M387.067 45.5886C356.68 61.6999 334.485 105.259 360.365 143.066C370.835 158.359 406.449 153.355 421.086 178.404C439.045 209.138 469.542 196.802 482.432 178.676C520.894 124.549 484.833 128.71 474.899 82.7929C464.964 36.8756 417.454 29.4795 387.067 45.5886Z" stroke="#97ABCC" stroke-opacity="0.3" stroke-miterlimit="10"/>
<path d="M386.456 47.7066C356.948 63.98 335.973 107.023 362.042 143.658C372.589 158.476 407.424 152.999 422.234 177.311C440.405 207.141 470.1 194.561 482.399 176.595C519.133 122.936 483.846 127.593 473.266 82.7572C462.685 37.9215 415.96 31.4201 386.456 47.7066Z" stroke="#97ABCC" stroke-opacity="0.3" stroke-miterlimit="10"/>
<path d="M385.9 49.7981C357.281 66.2215 337.496 108.709 363.72 144.176C374.319 158.526 408.375 152.6 423.327 176.18C441.685 205.109 470.563 192.312 482.292 174.516C517.328 121.354 482.818 126.491 471.63 82.7412C460.443 38.991 414.53 33.3817 385.9 49.7981Z" stroke="#97ABCC" stroke-opacity="0.3" stroke-miterlimit="10"/>
<path d="M385.428 51.8814C357.625 68.4481 338.958 110.421 365.301 144.729C375.956 158.605 409.261 152.227 424.351 175.075C442.869 203.107 470.976 190.081 482.183 172.446C515.633 119.778 481.865 125.383 470.13 82.7076C458.395 40.0317 413.237 35.3252 385.428 51.8814Z" stroke="#97ABCC" stroke-opacity="0.3" stroke-miterlimit="10"/>
<path d="M384.948 53.8699C357.964 70.5647 340.405 112.013 366.873 145.217C377.579 158.649 410.145 151.856 425.369 174.007C444.038 201.185 471.384 187.963 482.06 170.492C513.932 118.315 480.898 124.36 468.616 82.7135C456.334 41.0668 411.932 37.1773 384.948 53.8699Z" stroke="#97ABCC" stroke-opacity="0.3" stroke-miterlimit="10"/>
<path d="M384.528 55.8495C358.36 72.6475 341.886 113.552 368.445 145.662C379.181 158.652 411.01 151.463 426.337 172.927C445.15 199.259 471.727 185.846 481.883 168.561C512.206 116.913 479.913 123.373 467.112 82.7592C454.311 42.1459 410.696 39.0536 384.528 55.8495Z" stroke="#97ABCC" stroke-opacity="0.3" stroke-miterlimit="10"/>
<path d="M384.174 57.8179C358.819 74.6965 343.401 115.034 370.022 146.058C380.79 158.609 411.861 151.053 427.274 171.829C446.187 197.32 472.016 183.757 481.671 166.649C510.471 115.563 478.924 122.414 465.642 82.8382C452.361 43.2621 409.526 40.9428 384.174 57.8179Z" stroke="#97ABCC" stroke-opacity="0.3" stroke-miterlimit="10"/>
<path d="M383.872 59.7802C359.325 76.7166 344.937 116.464 371.586 146.412C382.366 158.525 412.684 150.624 428.163 170.72C447.157 195.375 472.228 181.675 481.373 164.772C508.685 114.284 477.889 121.502 464.16 82.9635C450.432 44.4253 408.429 42.8412 383.872 59.7802Z" stroke="#97ABCC" stroke-opacity="0.3" stroke-miterlimit="10"/>
<path d="M383.572 61.6281C359.777 78.6373 346.354 117.849 373.048 146.79C383.843 158.491 413.461 150.248 429.012 169.697C448.092 193.563 472.46 179.72 481.137 162.995C507.051 113.042 476.948 120.625 462.792 83.0579C448.636 45.4909 407.367 44.6188 383.572 61.6281Z" stroke="#97ABCC" stroke-opacity="0.3" stroke-miterlimit="10"/>
<path d="M383.329 63.4653C360.28 80.5254 347.806 119.18 374.502 147.1C385.303 158.403 414.216 149.832 429.806 168.647C448.948 191.727 472.613 177.762 480.832 161.223C505.373 111.837 475.976 119.761 461.419 83.1724C446.863 46.5835 406.382 46.404 383.329 63.4653Z" stroke="#97ABCC" stroke-opacity="0.3" stroke-miterlimit="10"/>
<path d="M383.145 65.2894C360.839 82.387 349.279 120.458 375.953 147.381C386.741 158.273 414.953 149.41 430.583 167.589C449.764 189.897 472.729 175.824 480.5 159.488C503.7 110.7 475.01 118.939 460.092 83.3248C445.173 47.7106 405.451 48.1963 383.145 65.2894Z" stroke="#97ABCC" stroke-opacity="0.3" stroke-miterlimit="10"/>
<path d="M383.016 67.0961C361.445 84.1981 350.78 121.679 377.4 147.63C388.169 158.122 415.672 148.986 431.317 166.546C450.508 188.082 472.779 173.927 480.113 157.801C502.016 109.637 474.025 118.174 458.781 83.5409C443.538 48.9082 404.592 49.9929 383.016 67.0961Z" stroke="#97ABCC" stroke-opacity="0.3" stroke-miterlimit="10"/>
<path d="M382.866 68.8045C362.021 85.8916 352.242 122.785 378.826 147.797C389.58 157.915 416.389 148.541 432.053 165.501C451.269 186.311 472.846 172.104 479.755 156.186C500.359 108.652 473.059 117.446 457.474 83.7327C441.89 50.0196 403.708 51.7158 382.866 68.8045Z" stroke="#97ABCC" stroke-opacity="0.3" stroke-miterlimit="10"/>
<path d="M382.762 70.4981C362.632 87.5546 353.715 123.839 380.246 147.932C390.975 157.678 417.091 148.09 432.756 164.466C451.978 184.557 472.883 170.31 479.357 154.617C498.697 107.744 472.089 116.773 456.194 83.9858C440.299 51.1982 402.889 53.4422 382.762 70.4981Z" stroke="#97ABCC" stroke-opacity="0.3" stroke-miterlimit="10"/>
<path d="M382.727 72.1613C363.265 89.207 355.126 124.923 381.565 148.113C392.254 157.494 417.719 147.671 433.365 163.472C452.568 182.856 472.837 168.552 478.926 153.062C497.108 106.797 471.153 116.08 455.004 84.1957C438.856 52.3112 402.189 55.1135 382.727 72.1613Z" stroke="#97ABCC" stroke-opacity="0.3" stroke-miterlimit="10"/>
<path d="M382.744 73.8035C363.939 90.8197 356.558 125.952 382.867 148.257C393.509 157.279 418.32 147.242 433.93 162.474C453.085 181.163 472.728 166.819 478.44 151.541C495.502 105.912 470.197 115.418 453.828 84.4375C437.46 53.4568 401.546 56.7858 382.744 73.8035Z" stroke="#97ABCC" stroke-opacity="0.3" stroke-miterlimit="10"/>
<path d="M382.812 75.4204C364.658 92.39 358.004 126.925 384.166 148.354C394.744 157.023 418.907 146.794 434.459 161.468C453.543 179.474 472.569 165.106 477.927 150.046C493.893 105.07 469.25 114.796 452.683 84.7017C436.117 54.6069 400.967 58.4529 382.812 75.4204Z" stroke="#97ABCC" stroke-opacity="0.3" stroke-miterlimit="10"/>
<path d="M382.842 76.9503C365.328 93.8549 359.399 127.798 385.442 148.421C395.976 156.757 419.499 146.37 435.02 160.518C454.06 177.876 472.472 163.511 477.455 148.675C492.347 104.358 468.328 114.258 451.552 85.0144C434.775 55.7708 400.356 60.0458 382.842 76.9503Z" stroke="#97ABCC" stroke-opacity="0.3" stroke-miterlimit="10"/>
<path d="M382.923 78.4668C366.039 95.2948 360.812 128.638 386.705 148.438C397.179 156.449 420.068 145.927 435.533 159.557C454.508 176.28 472.315 161.935 476.948 147.325C490.773 103.694 467.403 113.747 450.442 85.3356C433.481 56.9247 399.805 61.6394 382.923 78.4668Z" stroke="#97ABCC" stroke-opacity="0.3" stroke-miterlimit="10"/>
<path d="M383.043 79.9395C366.779 96.6557 362.222 129.382 387.947 148.396C398.351 156.088 420.611 145.45 436.006 158.569C454.891 174.667 472.105 160.358 476.396 145.984C489.211 103.055 466.462 113.244 449.355 85.6786C432.248 58.1136 399.309 63.2226 383.043 79.9395Z" stroke="#97ABCC" stroke-opacity="0.3" stroke-miterlimit="10"/>
<path d="M383.234 81.3834C367.542 98.0293 363.583 130.186 389.113 148.426C399.44 155.803 421.109 145.023 436.414 157.646C455.19 173.132 471.852 158.834 475.837 144.674C487.737 102.382 465.584 112.727 448.37 85.9686C431.157 59.2106 398.92 64.7394 383.234 81.3834Z" stroke="#97ABCC" stroke-opacity="0.3" stroke-miterlimit="10"/>
<path d="M383.453 82.8062C368.321 99.366 364.937 130.945 390.248 148.421C400.487 155.492 421.566 144.591 436.767 156.723C455.416 171.602 471.535 157.345 475.223 143.398C486.238 101.762 464.677 112.246 447.387 86.2866C430.097 60.3275 398.583 66.247 383.453 82.8062Z" stroke="#97ABCC" stroke-opacity="0.3" stroke-miterlimit="10"/>
<path d="M383.627 84.1365C369.042 100.585 366.234 131.603 391.362 148.377C401.525 155.161 422.042 144.179 437.141 155.849C455.686 170.176 471.272 155.951 474.667 142.228C484.803 101.245 463.811 111.834 446.422 86.6325C429.032 61.4313 398.209 67.6814 383.627 84.1365Z" stroke="#97ABCC" stroke-opacity="0.3" stroke-miterlimit="10"/>
<path d="M383.842 85.4442C369.8 101.778 367.539 132.214 392.458 148.297C402.539 154.802 422.488 143.736 437.504 154.964C455.928 168.744 470.991 154.578 474.102 141.081C483.39 100.767 462.964 111.446 445.499 86.9888C428.034 62.5318 397.884 69.1081 383.842 85.4442Z" stroke="#97ABCC" stroke-opacity="0.3" stroke-miterlimit="10"/>
<path d="M384.095 86.725C370.583 102.926 368.848 132.779 393.542 148.186C403.53 154.418 422.918 143.294 437.822 154.086C456.109 167.328 470.657 153.236 473.493 139.969C481.967 100.341 462.1 111.079 444.59 87.3767C427.08 63.6749 397.611 70.5252 384.095 86.725Z" stroke="#97ABCC" stroke-opacity="0.3" stroke-miterlimit="10"/>
<path d="M384.39 87.983C371.396 104.036 370.158 133.296 394.607 148.043C404.495 154.008 423.328 142.848 438.107 153.21C456.241 165.925 470.283 151.924 472.857 138.89C480.546 99.9652 461.242 110.769 443.703 87.7846C426.165 64.8001 397.387 71.9293 384.39 87.983Z" stroke="#97ABCC" stroke-opacity="0.3" stroke-miterlimit="10"/>
<path d="M384.722 89.212C372.233 105.099 371.471 133.765 395.654 147.871C405.437 153.576 423.719 142.393 438.361 152.337C456.324 164.537 469.871 150.64 472.194 137.846C479.131 99.6343 460.379 110.472 442.84 88.2145C425.302 65.9566 397.211 73.3201 384.722 89.212Z" stroke="#97ABCC" stroke-opacity="0.3" stroke-miterlimit="10"/>
<path d="M385.094 90.4253C373.101 106.144 372.786 134.199 396.683 147.678C406.352 153.132 424.092 141.943 438.584 151.478C456.362 163.176 469.42 149.396 471.504 136.846C477.72 99.364 459.518 110.218 442.003 88.6732C424.488 67.1283 397.083 74.6985 385.094 90.4253Z" stroke="#97ABCC" stroke-opacity="0.3" stroke-miterlimit="10"/>
<path d="M385.404 91.5255C373.86 107.107 373.958 134.632 397.614 147.533C407.183 152.751 424.434 141.53 438.797 150.695C456.419 161.932 469.037 148.237 470.899 135.898C476.459 99.0443 458.748 109.939 441.243 89.0379C423.737 68.1363 396.946 75.9421 385.404 91.5255Z" stroke="#97ABCC" stroke-opacity="0.3" stroke-miterlimit="10"/>
<path d="M385.74 92.6018C374.635 108.033 375.124 135.025 398.52 147.363C407.984 152.354 424.752 141.129 438.979 149.919C456.431 160.706 468.618 147.11 470.267 134.986C475.198 98.7716 457.984 109.685 440.5 89.4235C423.016 69.1622 396.852 77.1691 385.74 92.6018Z" stroke="#97ABCC" stroke-opacity="0.3" stroke-miterlimit="10"/>
<path d="M386.122 93.6542C375.454 108.923 376.304 135.378 399.423 147.169C408.774 151.939 425.064 140.719 439.138 149.15C456.408 159.498 468.169 146.014 469.628 134.104C473.957 98.5408 457.217 109.465 439.793 89.8261C422.368 70.1877 396.799 78.3828 386.122 93.6542Z" stroke="#97ABCC" stroke-opacity="0.3" stroke-miterlimit="10"/>
<path d="M386.53 94.6808C376.27 109.781 377.471 135.693 400.301 146.952C409.527 151.51 425.354 140.306 439.268 148.392C456.339 158.31 467.688 144.948 468.947 133.26C472.705 98.3561 456.441 109.273 439.089 90.2516C421.737 71.2301 396.788 79.581 386.53 94.6808Z" stroke="#97ABCC" stroke-opacity="0.3" stroke-miterlimit="10"/>
<path d="M386.965 95.6808C377.112 110.601 378.638 135.967 401.162 146.712C410.274 151.059 425.625 139.89 439.37 147.635C456.234 157.141 467.177 143.909 468.256 132.447C471.472 98.2083 455.678 109.106 438.418 90.6891C421.158 72.2724 396.826 80.7608 386.965 95.6808Z" stroke="#97ABCC" stroke-opacity="0.3" stroke-miterlimit="10"/>
<path d="M387.431 96.6612C377.974 111.39 379.8 136.207 402.009 146.466C410.992 150.611 425.885 139.489 439.45 146.907C456.096 156.009 466.649 142.917 467.548 131.683C470.252 98.1188 454.922 108.982 437.772 91.1555C420.623 73.3291 396.888 81.9272 387.431 96.6612Z" stroke="#97ABCC" stroke-opacity="0.3" stroke-miterlimit="10"/>
<path d="M387.817 97.5537C378.741 112.079 380.877 136.361 402.809 146.155C411.682 150.116 426.143 139.06 439.56 146.177C456.018 154.906 466.2 141.97 466.919 130.959C469.112 98.0646 454.213 108.869 437.139 91.602C420.065 74.3352 396.888 83.0274 387.817 97.5537Z" stroke="#97ABCC" stroke-opacity="0.3" stroke-miterlimit="10"/>
<path d="M388.224 98.4267C379.519 112.741 381.942 136.487 403.593 145.841C412.36 149.62 426.385 138.647 439.641 145.471C455.908 153.842 465.707 141.075 466.275 130.29C467.975 98.0688 453.512 108.801 436.525 92.0814C419.537 75.3617 396.929 84.1144 388.224 98.4267Z" stroke="#97ABCC" stroke-opacity="0.3" stroke-miterlimit="10"/>
<path d="M388.665 99.2597C380.293 113.407 382.952 136.682 404.306 145.609C412.941 149.211 426.587 138.288 439.674 144.83C455.733 152.855 465.204 140.214 465.618 129.623C466.897 97.9838 452.836 108.677 435.974 92.4725C419.112 76.2681 397.039 85.1118 388.665 99.2597Z" stroke="#97ABCC" stroke-opacity="0.3" stroke-miterlimit="10"/>
<path d="M389.131 100.067C381.081 114.041 383.956 136.844 405.003 145.361C413.518 148.806 426.775 137.926 439.685 144.198C455.53 151.89 464.661 139.382 464.969 128.983C465.866 97.9288 452.194 108.584 435.467 92.8781C418.741 77.172 397.179 86.094 389.131 100.067Z" stroke="#97ABCC" stroke-opacity="0.3" stroke-miterlimit="10"/>
<path d="M389.616 100.851C381.88 114.643 384.954 136.974 405.684 145.096C414.069 148.381 426.946 137.565 439.675 143.572C455.296 150.942 464.103 138.578 464.293 128.374C464.828 97.909 451.543 108.51 434.968 93.2841C418.393 78.058 397.352 87.0559 389.616 100.851Z" stroke="#97ABCC" stroke-opacity="0.3" stroke-miterlimit="10"/>
<path d="M390.127 101.617C382.693 115.222 385.946 137.082 406.351 144.83C414.605 147.961 427.107 137.221 439.647 142.973C455.046 150.029 463.545 137.812 463.603 127.814C463.8 97.9477 450.893 108.474 434.489 93.7343C418.084 78.9949 397.558 88.0015 390.127 101.617Z" stroke="#97ABCC" stroke-opacity="0.3" stroke-miterlimit="10"/>
<path d="M390.653 102.338C383.512 115.748 386.925 137.139 406.994 144.513C415.11 147.496 427.245 136.841 439.59 142.35C454.736 149.107 462.933 137.041 462.906 127.241C462.788 97.9631 450.254 108.423 434.024 94.138C417.794 79.8536 397.792 88.9303 390.653 102.338Z" stroke="#97ABCC" stroke-opacity="0.3" stroke-miterlimit="10"/>
<path d="M391.09 103.016C384.227 116.212 387.819 137.153 407.603 144.198C415.606 147.049 427.403 136.496 439.583 141.781C454.529 148.268 462.451 136.364 462.305 126.763C461.871 98.0692 449.674 108.433 433.585 94.582C417.496 80.7306 397.95 89.7988 391.09 103.016Z" stroke="#97ABCC" stroke-opacity="0.3" stroke-miterlimit="10"/>
<path d="M391.54 103.652C384.949 116.65 388.699 137.123 408.19 143.852C416.077 146.575 427.538 136.133 439.551 141.205C454.29 147.431 461.939 135.704 461.686 126.283C460.943 98.1786 449.093 108.438 433.151 95.0061C417.209 81.5742 398.131 90.6541 391.54 103.652Z" stroke="#97ABCC" stroke-opacity="0.3" stroke-miterlimit="10"/>
<path d="M392.01 104.274C385.679 117.058 389.572 137.076 408.774 143.499C416.539 146.096 427.675 135.777 439.513 140.643C454.036 146.614 461.421 135.069 461.067 125.857C460.044 98.3437 448.526 108.488 432.748 95.4714C416.97 82.4547 398.34 91.4901 392.01 104.274Z" stroke="#97ABCC" stroke-opacity="0.3" stroke-miterlimit="10"/>
<path d="M392.496 104.875C386.414 117.438 390.432 137.002 409.322 143.137C416.961 145.618 427.769 135.428 439.438 140.093C453.732 145.824 460.866 134.462 460.439 125.446C459.159 98.5238 447.963 108.546 432.358 95.9306C416.752 83.3148 398.575 92.3119 392.496 104.875Z" stroke="#97ABCC" stroke-opacity="0.3" stroke-miterlimit="10"/>
<path d="M392.996 105.453C387.156 117.791 391.285 136.908 409.861 142.758C417.375 145.127 427.882 135.073 439.356 139.552C453.432 145.043 460.309 133.876 459.8 125.059C458.285 98.7272 447.408 108.62 431.987 96.3966C416.567 84.1737 398.833 93.1159 392.996 105.453Z" stroke="#97ABCC" stroke-opacity="0.3" stroke-miterlimit="10"/>
<path d="M393.516 105.993C387.885 118.149 392.085 136.885 410.344 142.477C417.729 144.739 427.95 134.778 439.233 139.076C453.081 144.357 459.731 133.326 459.164 124.673C457.473 98.8313 446.887 108.636 431.674 96.7669C416.461 84.8978 399.144 93.8276 393.516 105.993Z" stroke="#97ABCC" stroke-opacity="0.3" stroke-miterlimit="10"/>
<path d="M394.05 106.512C388.626 118.497 392.877 136.846 410.811 142.186C418.066 144.345 428.009 134.483 439.098 138.61C452.712 143.672 459.142 132.797 458.531 124.308C456.681 98.956 446.38 108.668 431.381 97.1411C416.383 85.6144 399.473 94.5249 394.05 106.512Z" stroke="#97ABCC" stroke-opacity="0.3" stroke-miterlimit="10"/>
<path d="M394.603 107.008C389.375 118.819 393.668 136.783 411.272 141.881C418.391 143.944 428.063 134.19 438.953 138.152C452.318 143.014 458.545 132.29 457.879 123.967C455.89 99.1063 445.867 108.715 431.096 97.5228C416.325 86.3304 399.826 95.2066 394.603 107.008Z" stroke="#97ABCC" stroke-opacity="0.3" stroke-miterlimit="10"/>
<path d="M395.154 107.487C390.112 119.105 394.434 136.701 411.704 141.571C418.689 143.542 428.093 133.9 438.781 137.706C451.897 142.374 457.926 131.81 457.218 123.649C455.105 99.2763 445.356 108.779 430.81 97.914C416.265 87.0492 400.196 95.8692 395.154 107.487Z" stroke="#97ABCC" stroke-opacity="0.3" stroke-miterlimit="10"/>
<path d="M395.597 107.917C390.732 119.344 395.104 136.576 412.095 141.246C418.97 143.136 428.133 133.62 438.656 137.288C451.569 141.785 457.41 131.385 456.657 123.386C454.405 99.4926 444.901 108.873 430.549 98.3014C416.197 87.7301 400.475 96.4787 395.597 107.917Z" stroke="#97ABCC" stroke-opacity="0.3" stroke-miterlimit="10"/>
<path d="M396.075 108.319C391.376 119.554 395.786 136.426 412.497 140.907C419.256 142.718 428.187 133.336 438.542 136.869C451.246 141.207 456.91 130.975 456.124 123.131C453.75 99.7154 444.486 108.976 430.325 98.6878C416.163 88.399 400.773 97.0872 396.075 108.319Z" stroke="#97ABCC" stroke-opacity="0.3" stroke-miterlimit="10"/>
<path d="M396.56 108.708C392.012 119.746 396.457 136.258 412.884 140.559C419.527 142.3 428.228 133.052 438.41 136.462C450.905 140.643 456.397 130.582 455.567 122.902C453.086 99.9644 444.054 109.083 430.095 99.083C416.137 89.0831 401.088 97.6749 396.56 108.708Z" stroke="#97ABCC" stroke-opacity="0.3" stroke-miterlimit="10"/>
<path d="M397.033 109.082C392.649 119.918 397.099 136.077 413.236 140.209C419.764 141.879 428.242 132.776 438.251 136.064C450.534 140.108 455.856 130.216 454.996 122.695C452.424 100.231 443.629 109.211 429.87 99.4838C416.112 89.7567 401.419 98.2462 397.033 109.082Z" stroke="#97ABCC" stroke-opacity="0.3" stroke-miterlimit="10"/>
<path d="M397.526 109.438C393.288 120.071 397.742 135.881 413.587 139.848C419.993 141.444 428.258 132.5 438.089 135.675C450.14 139.57 455.319 129.875 454.432 122.501C451.792 100.512 443.206 109.351 429.665 99.8846C416.124 90.4186 401.764 98.8048 397.526 109.438Z" stroke="#97ABCC" stroke-opacity="0.3" stroke-miterlimit="10"/>
<path d="M398.027 109.777C393.929 120.205 398.375 135.659 413.923 139.481C420.213 141.025 428.264 132.224 437.916 135.29C449.758 139.05 454.771 129.527 453.864 122.324C451.156 100.808 442.795 109.498 429.476 100.29C416.157 91.0817 402.125 99.3492 398.027 109.777Z" stroke="#97ABCC" stroke-opacity="0.3" stroke-miterlimit="10"/>
</svg>
