<?xml version="1.0" standalone="no"?>
<!DOCTYPE svg PUBLIC "-//W3C//DTD SVG 1.1//EN" "http://www.w3.org/Graphics/SVG/1.1/DTD/svg11.dtd" >
<svg xmlns="http://www.w3.org/2000/svg" xmlns:xlink="http://www.w3.org/1999/xlink" version="1.1">
<metadata>
Created by FontForge 20170910 at Thu Apr 17 03:42:30 2014
 By Jimmy Wärting
Copyright \(c\) 2008 by Ramiz Guseynov. All rights reserved.
</metadata>
<defs>
<font id="DecimaMonoX-LightItalic" horiz-adv-x="600" >
  <font-face 
    font-family="Decima Mono X"
    font-weight="300"
    font-style="italic"
    font-stretch="normal"
    units-per-em="1000"
    panose-1="2 0 5 9 0 0 0 2 0 4"
    ascent="789"
    descent="-211"
    x-height="500"
    cap-height="700"
    bbox="-10 -211 714 904"
    underline-thickness="50"
    underline-position="-100"
    unicode-range="U+0020-FB02"
  />
<missing-glyph 
 />
    <glyph glyph-name="fi" unicode="fi" 
d="M108 500h72l10 71c11 83 72 139 163 139c33 0 61 -6 82 -17l-32 -36c-12 7 -31 11 -56 11c-59 0 -99 -41 -107 -93l-11 -75h271l-64 -457h81l-6 -43h-222l6 43h91l58 414h-221l-89 -637h-49l89 637h-72zM525 620h-66l10 70h66z" />
    <glyph glyph-name="fl" unicode="fl" 
d="M516 43l-6 -43h-222l6 43h91l86 614h-126c-62 0 -97 -30 -106 -90l-10 -67h132l-6 -43h-132l-89 -637h-49l89 637h-70l6 43h70l9 64c13 91 68 136 164 136h175l-93 -657h81z" />
    <glyph glyph-name=".notdef" 
 />
    <glyph glyph-name="NULL" horiz-adv-x="0" 
 />
    <glyph glyph-name="CR" horiz-adv-x="333" 
 />
    <glyph glyph-name="space" unicode=" " 
 />
    <glyph glyph-name="exclam" unicode="!" 
d="M310 0h-70l10 70h70zM346 700h52l-77 -550h-52z" />
    <glyph glyph-name="quotedbl" unicode="&#x22;" 
d="M256 483h-35l31 227h68zM396 483h-34l31 227h68z" />
    <glyph glyph-name="numbersign" unicode="#" 
d="M244 455h-101l6 45h107l56 200h45l-56 -200h132l56 200h45l-56 -200h97l-6 -45h-103l-58 -204h98l-6 -45h-104l-58 -206h-45l58 206h-132l-58 -206h-45l58 206h-100l6 45h106zM421 455h-132l-58 -204h132z" />
    <glyph glyph-name="dollar" unicode="$" 
d="M290 -61h-49l9 61c-84 9 -138 72 -138 145c0 14 2 32 5 53h52c-3 -22 -5 -38 -5 -48c0 -59 49 -103 118 -103c43 0 79 14 108 42s43 62 43 102c0 63 -41 107 -92 134c-73 40 -168 80 -168 184c0 52 17 95 50 129c34 35 76 55 125 61l9 62h49l-9 -62
c79 -9 131 -67 131 -150l-2 -23h-51c1 7 1 12 1 15c0 65 -43 111 -108 111c-39 0 -72 -13 -101 -39c-28 -25 -42 -58 -42 -97c0 -52 41 -90 92 -118c75 -41 170 -85 170 -197c0 -55 -18 -102 -55 -139c-36 -37 -80 -58 -133 -62z" />
    <glyph glyph-name="percent" unicode="%" 
d="M363 624l-1 -14l-14 -101c-8 -57 -59 -103 -120 -103c-53 0 -95 40 -95 89c0 4 1 13 1 14l14 101c8 59 56 99 117 99c56 0 98 -34 98 -85zM303 512l13 90c1 5 1 8 1 10c0 32 -23 54 -55 54c-36 0 -66 -28 -71 -64l-13 -89v-4c-1 -3 -1 -5 -1 -6c0 -32 23 -54 56 -54
s65 28 70 63zM520 208l-1 -14l-14 -101c-8 -57 -59 -103 -120 -103c-53 0 -95 40 -95 89c0 4 1 13 1 14l14 101c8 59 56 99 117 99c56 0 98 -34 98 -85zM460 96l13 90c1 5 1 8 1 10c0 32 -22 54 -55 54c-36 0 -66 -28 -71 -64l-13 -89l-1 -4v-6c0 -32 23 -54 56 -54
s65 28 70 63zM57 229l7 47l527 195l-6 -47z" />
    <glyph glyph-name="ampersand" unicode="&#x26;" 
d="M277 -10c-46 0 -84 14 -114 43s-45 66 -45 111c0 11 1 21 2 32l16 117c11 84 63 137 154 159l-78 188l9 60h307l-7 -50h-256l82 -192l-6 -46c-99 -13 -144 -51 -153 -119l-17 -126c-1 -9 -1 -15 -1 -19c0 -64 46 -110 111 -110c37 0 69 12 96 37c28 25 45 55 50 91
l18 130h115l-7 -48h-63l-11 -79c-7 -51 -28 -93 -64 -128c-36 -34 -82 -51 -138 -51z" />
    <glyph glyph-name="quotesingle" unicode="'" 
d="M327 483h-35l31 227h68z" />
    <glyph glyph-name="parenleft" unicode="(" 
d="M346 -147l-7 -48c-87 1 -146 66 -146 151c0 16 1 31 3 44l76 539c7 49 29 89 64 122c36 33 80 51 131 55l-7 -50c-69 -3 -124 -57 -135 -128l-77 -545c-1 -13 -2 -25 -2 -36c0 -57 39 -101 100 -104z" />
    <glyph glyph-name="parenright" unicode=")" 
d="M290 668l7 48c87 -1 146 -66 146 -151c0 -17 -1 -31 -3 -44l-76 -539c-7 -49 -29 -89 -65 -122c-35 -33 -79 -51 -130 -55l7 50c69 3 124 57 135 128l77 545c1 13 2 25 2 36c0 57 -39 101 -100 104z" />
    <glyph glyph-name="asterisk" unicode="*" 
d="M327 625l12 85h35l-12 -85l87 27l4 -31l-87 -32l40 -68l-29 -20l-41 69l-56 -69l-26 20l56 70l-77 24l15 33z" />
    <glyph glyph-name="plus" unicode="+" 
d="M297 308l26 182h51l-26 -182h182l-7 -50h-182l-26 -183h-51l26 183h-181l7 50h181z" />
    <glyph glyph-name="comma" unicode="," 
d="M300 0h-32l10 70h69l-10 -75l-54 -115h-36z" />
    <glyph glyph-name="hyphen" unicode="-" 
d="M211 308h223l-7 -50h-223z" />
    <glyph glyph-name="period" unicode="." 
d="M332 0h-70l10 70h70z" />
    <glyph glyph-name="slash" unicode="/" 
d="M112 -181h-50l462 881h49z" />
    <glyph glyph-name="zero" unicode="0" 
d="M521 533l-52 -366c-7 -51 -28 -94 -63 -127c-34 -33 -78 -50 -131 -50c-43 0 -79 14 -108 43c-28 29 -42 65 -42 108c0 6 1 15 2 27l51 365c7 51 28 94 63 127s79 50 132 50c43 0 79 -14 107 -43c29 -29 43 -65 43 -108c0 -5 -1 -14 -2 -26zM418 166l52 366
c1 5 1 12 1 22c0 63 -43 108 -103 108c-73 0 -128 -55 -139 -130l-51 -365c-1 -5 -1 -12 -1 -21c0 -63 40 -108 103 -108c71 0 127 55 138 128z" />
    <glyph glyph-name="one" unicode="1" 
d="M217 633l7 50l112 17h58l-91 -652h142l-7 -48h-326l7 48h132l84 602z" />
    <glyph glyph-name="two" unicode="2" 
d="M227 533h-52c9 53 32 95 70 128c39 33 84 49 135 49c45 0 81 -14 110 -43c29 -28 44 -64 44 -107c0 -232 -360 -292 -380 -494l-2 -18h311l-6 -48h-364l8 60c15 103 86 175 162 233c105 81 217 147 217 265c0 60 -45 104 -108 104c-71 0 -130 -56 -145 -129z" />
    <glyph glyph-name="three" unicode="3" 
d="M301 411l8 53l163 187h-246l7 49h304l-8 -54l-166 -187c77 0 136 -46 136 -127c0 -7 -1 -20 -3 -38l-17 -126c-7 -50 -29 -92 -66 -127c-37 -34 -82 -51 -135 -51c-48 0 -87 15 -117 44s-45 66 -45 110l2 27h52c-1 -5 -1 -12 -1 -21c0 -65 45 -112 112 -112
c36 0 68 12 96 37s45 56 50 92l19 137c1 9 1 16 1 20c0 53 -34 87 -87 87h-59z" />
    <glyph glyph-name="four" unicode="4" 
d="M375 157h-269l9 62l293 481h56l-298 -492h216l27 190h53l-27 -190h60l-7 -51h-60l-22 -157h-53z" />
    <glyph glyph-name="five" unicode="5" 
d="M337 417c-49 0 -87 -17 -113 -52l-51 15l74 320h283l-7 -49h-235l-50 -224l12 10c12 9 56 28 97 28c89 0 151 -60 151 -149c0 -3 -1 -17 -4 -44l-15 -104c-7 -51 -29 -94 -64 -128c-35 -33 -80 -50 -135 -50c-49 0 -89 14 -119 43c-29 29 -44 66 -44 111l2 27h51
c-1 -7 -1 -16 -1 -25c0 -61 45 -108 112 -108c77 0 134 50 145 129l17 118c1 9 2 20 2 31c0 59 -45 101 -108 101z" />
    <glyph glyph-name="six" unicode="6" 
d="M373 710c47 0 84 -16 110 -47s39 -67 39 -108l-1 -16h-51v19c0 53 -39 103 -103 103c-37 0 -70 -13 -97 -38s-43 -55 -48 -92l-20 -136c3 4 6 8 23 24c24 21 64 45 120 45c88 0 151 -63 151 -151c0 -9 -1 -23 -3 -41l-14 -104c-7 -50 -29 -92 -68 -127
c-38 -34 -84 -51 -137 -51c-47 0 -85 14 -114 43s-44 65 -44 108c0 9 1 22 3 40l50 351c7 51 29 94 65 127c37 34 83 51 139 51zM335 416c-36 0 -68 -12 -97 -36s-46 -55 -51 -94l-17 -120v-8c-1 -5 -1 -9 -1 -11c0 -64 45 -109 110 -109c37 0 70 12 97 37s44 55 49 92
l17 119c1 9 2 17 2 22c0 65 -45 108 -109 108z" />
    <glyph glyph-name="seven" unicode="7" 
d="M277 0h-54c9 55 26 118 53 187c27 70 54 132 82 185s54 106 78 159s38 93 42 120h-276l7 49h328l-8 -60c-4 -30 -25 -83 -62 -160c-37 -76 -76 -159 -116 -250c-39 -90 -64 -167 -74 -230z" />
    <glyph glyph-name="eight" unicode="8" 
d="M521 542l-5 -34c-11 -77 -66 -121 -90 -132l-8 -5c4 -3 8 -4 23 -19c21 -19 45 -55 45 -108l-2 -30l-6 -47c-7 -51 -28 -93 -64 -127c-36 -33 -81 -50 -136 -50c-49 0 -88 14 -117 42c-29 29 -44 65 -44 108l1 25l6 52c4 32 15 61 34 86c19 26 36 44 53 53l25 15l-18 12
c-7 6 -16 19 -27 39c-11 21 -17 43 -17 68c0 5 1 15 2 20v5l4 27c7 48 28 88 63 120s78 48 129 48c45 0 81 -14 108 -41c28 -27 42 -62 42 -103c0 -12 0 -20 -1 -24zM424 166l7 50l1 2v18c0 63 -44 110 -109 110c-35 0 -68 -13 -97 -40c-29 -26 -45 -57 -50 -93l-6 -46v-4
c0 -5 -1 -13 -1 -17c0 -63 44 -108 111 -108c75 0 133 55 144 128zM466 513l4 25l1 17v1c0 61 -41 106 -104 106c-71 0 -125 -53 -136 -124l-4 -24c-1 -8 -1 -14 -1 -18c0 -57 39 -102 104 -102c69 0 125 50 136 119z" />
    <glyph glyph-name="nine" unicode="9" 
d="M274 -10c-47 0 -84 16 -110 47s-39 67 -39 108l1 16h51v-19c0 -53 39 -103 103 -103c37 0 69 12 96 37s44 56 49 93l20 136c-3 -4 -5 -8 -24 -24c-22 -21 -64 -45 -119 -45c-88 0 -151 63 -151 151c0 9 1 23 3 41l14 104c7 50 29 92 67 126c39 35 85 52 138 52
c47 0 85 -14 114 -43s44 -65 44 -108c0 -9 -1 -22 -3 -40l-50 -351c-7 -51 -29 -94 -66 -128c-36 -33 -82 -50 -138 -50zM312 284c36 0 68 12 97 36s46 55 51 94l17 120l1 8v11c0 64 -45 109 -110 109c-37 0 -70 -12 -97 -37s-44 -55 -49 -92l-17 -119c-1 -9 -2 -17 -2 -22
c0 -65 45 -108 109 -108z" />
    <glyph glyph-name="colon" unicode=":" 
d="M317 0h-70l10 70h70zM377 430h-70l10 70h70z" />
    <glyph glyph-name="semicolon" unicode=";" 
d="M384 430h-70l9 70h70zM285 0h-32l10 70h69l-11 -75l-53 -115h-36z" />
    <glyph glyph-name="less" unicode="&#x3c;" 
d="M493 70l-382 184l8 58l434 184l-7 -55l-378 -156l-1 -4l334 -155z" />
    <glyph glyph-name="equal" unicode="=" 
d="M105 229h413l-7 -50h-413zM127 389h413l-7 -50h-413z" />
    <glyph glyph-name="greater" unicode="&#x3e;" 
d="M145 496l382 -184l-8 -58l-434 -184l8 56l378 155l1 4l-334 156z" />
    <glyph glyph-name="question" unicode="?" 
d="M307 150h-51c7 85 45 153 86 193c60 60 134 112 134 214c0 60 -46 104 -109 104c-36 0 -68 -12 -96 -37c-27 -24 -43 -54 -48 -91h-52c7 52 29 94 68 127s83 50 133 50c45 0 83 -14 113 -43c31 -28 46 -64 46 -109c0 -72 -32 -128 -73 -168c-59 -55 -138 -118 -151 -240z
M296 0h-70l9 70h70z" />
    <glyph glyph-name="at" unicode="@" 
d="M314 364l-32 -228c-1 -11 -2 -19 -2 -26c0 -47 27 -77 71 -77c52 0 93 39 101 96l33 235c1 4 1 10 1 17c0 45 -28 72 -75 72c-51 0 -89 -33 -97 -89zM490 466l8 -11l8 59c1 11 2 18 2 23c0 73 -54 127 -133 127c-45 0 -84 -14 -117 -43s-52 -64 -58 -107l-70 -496
c-1 -9 -2 -19 -2 -28c0 -35 12 -65 36 -88c25 -24 55 -36 92 -36l-6 -46c-49 1 -90 17 -123 49s-49 71 -49 118c0 9 1 19 2 31l70 496c8 56 33 103 75 140s94 56 157 56c52 0 94 -16 126 -48c33 -32 49 -72 49 -120c0 -9 -1 -18 -2 -29l-72 -513h-45l4 42
c-3 -4 -7 -9 -12 -14s-17 -13 -35 -22c-17 -9 -36 -14 -55 -14c-65 0 -110 46 -110 107c0 11 1 21 2 32l34 240c11 72 70 128 145 128c39 0 70 -18 79 -33z" />
    <glyph glyph-name="A" unicode="A" 
d="M134 274l185 426h108l65 -426l-39 -274h-52l34 239h-254l-34 -239h-52zM193 287h244l-53 365h-36z" />
    <glyph glyph-name="B" unicode="B" 
d="M283 0h-166l98 700h170c77 0 131 -54 131 -126c0 -9 0 -15 -1 -20l-8 -63c-7 -49 -41 -100 -88 -123c36 -24 60 -66 60 -114l-1 -19l-11 -79c-7 -46 -27 -84 -62 -113c-34 -29 -75 -43 -122 -43zM381 650h-121l-36 -258h121c55 0 105 45 113 100l8 58c1 6 1 12 1 19
c0 45 -34 81 -86 81zM332 346h-114l-42 -298h112c68 0 119 47 128 111l11 76l1 13v1c0 51 -31 97 -96 97z" />
    <glyph glyph-name="C" unicode="C" 
d="M286 38c39 0 71 12 96 36c26 24 42 52 47 83l1 12h51c0 -43 -19 -84 -57 -122c-37 -38 -85 -57 -142 -57c-47 0 -85 14 -115 43c-29 29 -44 66 -44 109c0 9 1 21 3 37l50 356c7 50 29 92 65 125c37 33 82 50 136 50c45 0 83 -15 112 -44c30 -29 45 -63 45 -102l-2 -29
h-51c1 4 1 9 1 16c0 63 -41 109 -109 109c-36 0 -68 -12 -96 -37c-27 -24 -44 -54 -49 -89l-50 -361c-1 -8 -2 -17 -2 -26c0 -63 45 -109 110 -109z" />
    <glyph glyph-name="D" unicode="D" 
d="M279 0h-173l98 700h165c96 0 159 -63 159 -152l-2 -31l-48 -341c-7 -51 -29 -94 -65 -127s-81 -49 -134 -49zM426 179l47 336c1 7 2 16 2 27c0 63 -45 108 -110 108h-116l-84 -602h116c36 0 68 12 96 37s44 57 49 94z" />
    <glyph glyph-name="E" unicode="E" 
d="M123 0l98 700h314l-6 -48h-262l-37 -258h238l-6 -48h-238l-42 -298h271l-7 -48h-323z" />
    <glyph glyph-name="F" unicode="F" 
d="M131 0l98 700h314l-6 -48h-262l-37 -258h246l-6 -48h-246l-49 -346h-52z" />
    <glyph glyph-name="G" unicode="G" 
d="M356 343h156l-25 -178c-15 -101 -91 -175 -204 -175c-50 0 -90 14 -121 43c-30 29 -45 65 -45 108c0 12 1 25 3 39l50 355c7 51 30 93 67 126s84 49 139 49c101 0 164 -63 164 -150l-2 -25h-51c1 4 1 9 1 15c0 65 -43 110 -115 110c-80 0 -140 -55 -151 -131l-51 -357
c-1 -9 -2 -18 -2 -26c0 -64 44 -108 116 -108c84 0 140 52 151 129l17 128h-104z" />
    <glyph glyph-name="H" unicode="H" 
d="M457 394l43 306h52l-98 -700h-52l49 346h-254l-49 -346h-52l98 700h52l-43 -306h254z" />
    <glyph glyph-name="I" unicode="I" 
d="M342 652h-156l6 48h362l-6 -48h-154l-85 -604h154l-7 -48h-362l7 48h156z" />
    <glyph glyph-name="J" unicode="J" 
d="M419 165l69 487h-271l7 48h323l-75 -534c-7 -50 -29 -92 -65 -126c-36 -33 -80 -50 -132 -50c-97 0 -162 63 -162 151c0 9 1 20 1 25l1 5l8 57h52l-9 -64v-4c0 -4 -1 -10 -1 -14c0 -63 46 -108 110 -108c36 0 68 12 95 36c27 25 44 55 49 91z" />
    <glyph glyph-name="K" unicode="K" 
d="M213 700h52l-45 -324l289 324h64l-299 -331l215 -369h-60l-211 365l-51 -365h-52z" />
    <glyph glyph-name="L" unicode="L" 
d="M130 0l98 700h52l-91 -652h291l-7 -48h-343z" />
    <glyph glyph-name="M" unicode="M" 
d="M327 368l174 332h72l-98 -700h-52l79 565l13 59l-3 1l-166 -307h-52l-81 307l-3 -1l-5 -59l-79 -565h-51l98 700h69z" />
    <glyph glyph-name="N" unicode="N" 
d="M422 138l79 562h51l-98 -700h-65l-148 566l-7 61l-3 -1l-5 -64l-79 -562h-51l98 700h65l147 -566l8 -61l3 1z" />
    <glyph glyph-name="O" unicode="O" 
d="M532 521l-50 -356c-7 -50 -30 -92 -67 -125s-84 -50 -139 -50c-99 0 -164 64 -164 152c0 11 1 23 3 37l50 356c7 50 30 92 67 125s84 50 140 50c49 0 88 -15 118 -44s45 -65 45 -108c0 -11 -1 -23 -3 -37zM430 164l50 364c1 9 2 18 2 25c0 63 -43 109 -114 109
c-79 0 -140 -55 -151 -128l-50 -362c-1 -11 -2 -19 -2 -25c0 -63 44 -109 115 -109c79 0 139 54 150 126z" />
    <glyph glyph-name="P" unicode="P" 
d="M452 404l21 149v2c0 3 1 8 1 15c0 45 -37 81 -85 81h-123l-49 -348h123c60 0 104 42 112 101zM175 0h-52l98 700h178c73 0 127 -52 127 -123l-2 -30l-21 -147c-12 -84 -78 -145 -166 -145h-126z" />
    <glyph glyph-name="Q" unicode="Q" 
d="M532 521l-50 -356c-6 -41 -22 -76 -47 -105l44 -51l-37 -32l-44 50c-34 -25 -75 -37 -122 -37c-99 0 -164 64 -164 152c0 11 1 23 3 37l50 356c7 50 30 92 67 125s84 50 140 50c49 0 88 -15 118 -44s45 -65 45 -108c0 -11 -1 -23 -3 -37zM430 164l50 364c1 9 2 18 2 25
c0 63 -43 109 -114 109c-79 0 -140 -55 -151 -128l-50 -362c-1 -11 -2 -19 -2 -25c0 -12 2 -25 5 -38c33 45 72 67 117 67c35 0 64 -14 86 -41l30 -37c14 19 23 41 27 66zM280 38c33 0 62 9 87 26l-31 38c-16 19 -34 28 -54 28c-15 0 -30 -5 -45 -14
c-28 -19 -37 -33 -44 -45c20 -22 49 -33 87 -33z" />
    <glyph glyph-name="R" unicode="R" 
d="M451 416l19 137c1 6 1 12 1 17c0 44 -37 80 -85 80h-123l-47 -335h123c56 0 103 38 112 101zM172 0h-52l98 700h178c36 0 66 -12 90 -36c25 -23 37 -52 37 -87l-2 -30l-19 -136c-9 -64 -57 -122 -118 -137l75 -274h-55l-75 267h-120z" />
    <glyph glyph-name="S" unicode="S" 
d="M528 560l-1 -25h-51c1 7 1 12 1 15c0 65 -44 112 -109 112c-38 0 -71 -13 -100 -40c-28 -27 -42 -59 -42 -97c-1 -71 65 -103 129 -146c66 -40 130 -87 130 -187c0 -55 -19 -103 -57 -143c-38 -39 -87 -59 -148 -59c-51 0 -92 14 -123 42s-46 64 -46 107c0 5 1 14 2 26
l3 24h52c-3 -20 -4 -35 -4 -45c0 -64 45 -106 116 -106c43 0 79 14 108 43s44 64 44 107c0 59 -40 105 -91 134c-74 45 -167 89 -167 192c0 57 19 104 58 141s86 55 142 55c89 0 154 -61 154 -150z" />
    <glyph glyph-name="T" unicode="T" 
d="M341 652h-173l6 48h398l-6 -48h-173l-92 -652h-52z" />
    <glyph glyph-name="U" unicode="U" 
d="M506 700h52l-76 -532c-7 -51 -29 -94 -65 -128c-35 -33 -81 -50 -136 -50c-101 0 -167 64 -167 152c0 9 1 21 3 37l72 521h52l-74 -527c-1 -11 -2 -20 -2 -28c0 -64 44 -107 116 -107c81 0 140 56 151 137z" />
    <glyph glyph-name="V" unicode="V" 
d="M195 700h51l-39 -278l56 -374h37l161 375l40 277h52l-39 -276l-185 -424h-107l-66 424z" />
    <glyph glyph-name="W" unicode="W" 
d="M400 48l87 377l38 275h52l-39 -278l-101 -422h-96l-18 315h-9l-107 -315h-95l17 422l39 278h52l-38 -275l-19 -377h14l115 332h72l22 -332h14z" />
    <glyph glyph-name="X" unicode="X" 
d="M181 700h59l94 -284l171 284h59l-208 -336l126 -364h-61l-103 312l-190 -312h-61l231 366z" />
    <glyph glyph-name="Y" unicode="Y" 
d="M170 700h58l103 -306l188 306h57l-228 -368l-47 -332h-52l47 333z" />
    <glyph glyph-name="Z" unicode="Z" 
d="M553 700l-7 -54l-387 -598h302l-7 -48h-359l7 54l388 598h-288l6 48h345z" />
    <glyph glyph-name="bracketleft" unicode="[" 
d="M231 -132h117l-7 -48h-170l124 880h170l-8 -51h-117z" />
    <glyph glyph-name="backslash" unicode="\" 
d="M186 700h49l214 -881h-50z" />
    <glyph glyph-name="bracketright" unicode="]" 
d="M341 -180h-170l7 48h118l109 781h-118l8 51h170z" />
    <glyph glyph-name="asciicircum" unicode="^" 
d="M137 352l200 348h49l103 -348h-46l-87 309l-174 -309h-45z" />
    <glyph glyph-name="underscore" unicode="_" horiz-adv-x="598" 
d="M-10 -129l5 37h598l-5 -37h-598z" />
    <glyph glyph-name="grave" unicode="`" 
d="M332 675l92 -122h-54l-110 122h72z" />
    <glyph glyph-name="a" unicode="a" 
d="M202 349l-26 -185v-4c-1 -5 -2 -16 -2 -25c0 -61 41 -103 104 -103c38 0 71 14 100 41s45 58 50 91l38 279c-31 16 -69 24 -116 24c-77 0 -139 -53 -148 -118zM490 -5c-31 0 -61 27 -72 66c-41 -47 -91 -71 -149 -71c-42 0 -77 13 -105 38c-27 26 -41 58 -41 96
c0 6 1 16 2 29l29 202c7 45 28 82 64 111c37 29 81 44 133 44c63 0 126 -13 151 -24l18 -9l-52 -370c-1 -11 -2 -18 -2 -22c0 -25 13 -46 36 -47h4l-6 -42c-3 -1 -6 -1 -10 -1z" />
    <glyph glyph-name="b" unicode="b" 
d="M360 509c42 0 77 -13 104 -39c28 -25 42 -57 42 -95c0 -6 -1 -16 -2 -29l-29 -202c-6 -43 -28 -80 -65 -110c-37 -29 -81 -44 -132 -44c-64 0 -126 14 -150 26l-19 8l96 676h49l-37 -257c0 1 48 66 143 66zM351 467c-35 0 -67 -13 -97 -40c-30 -26 -47 -55 -52 -87
l-39 -284c31 -16 70 -24 118 -24c75 0 135 50 147 130l25 173l1 4c0 5 1 16 1 25c0 60 -41 103 -104 103z" />
    <glyph glyph-name="c" unicode="c" 
d="M285 -10c-96 0 -158 58 -158 135c0 18 1 34 3 48l26 182c6 44 26 81 61 110c35 30 79 45 132 45c47 0 85 -14 112 -42c27 -27 41 -60 41 -99v-12h-49v13c0 53 -42 97 -107 97c-73 0 -133 -51 -142 -118l-26 -183c-1 -11 -2 -22 -2 -34c0 -60 47 -99 114 -99
c71 0 129 48 141 113h48c-17 -92 -90 -156 -194 -156z" />
    <glyph glyph-name="d" unicode="d" 
d="M445 0h-46l6 55c-4 -5 -10 -11 -17 -18s-24 -17 -49 -29s-51 -18 -79 -18c-42 0 -77 13 -105 38c-27 26 -41 58 -41 96c0 6 1 16 2 29l29 202c6 44 27 81 62 110s78 44 127 44c55 0 97 -21 125 -64l36 255h49zM419 161l26 188c1 3 1 8 1 15c0 57 -47 103 -115 103
c-33 0 -64 -12 -91 -35s-42 -51 -47 -83l-26 -185l-1 -4c0 -5 -1 -16 -1 -25c0 -60 41 -103 104 -103c38 0 71 14 100 41c29 28 46 57 50 88z" />
    <glyph glyph-name="e" unicode="e" 
d="M288 33c40 0 92 11 116 19l19 6l-5 -45c-34 -15 -78 -23 -131 -23c-96 0 -159 58 -159 137c0 11 1 25 3 42l26 186c6 44 27 81 62 110c36 30 81 45 134 45c44 0 80 -13 108 -39s42 -56 42 -91c0 -11 -1 -24 -2 -40c-5 -60 -51 -92 -134 -117l-188 -58
c-1 -15 -2 -25 -2 -32c0 -59 46 -100 111 -100zM205 349l-19 -135l189 58c48 14 74 37 78 70c1 15 2 24 2 29c0 52 -45 96 -108 96c-73 0 -133 -53 -142 -118z" />
    <glyph glyph-name="f" unicode="f" 
d="M325 457l-89 -637h-49l89 637h-102l6 43h102l10 71c11 83 72 139 163 139c33 0 61 -6 82 -17l-32 -36c-12 7 -31 11 -56 11c-59 0 -99 -41 -107 -93l-11 -75h172l-6 -43h-172z" />
    <glyph glyph-name="g" unicode="g" 
d="M351 510c57 0 121 -13 149 -24l20 -7l-72 -515c-6 -44 -27 -81 -63 -110c-35 -29 -80 -44 -133 -44c-80 0 -135 39 -135 100c0 46 22 82 67 107l61 34l25 11c-6 -1 -11 -1 -14 -1c-35 0 -64 13 -88 38c-24 26 -36 56 -36 91c0 8 2 21 2 30l1 6l18 126c7 45 28 83 64 113
s81 45 134 45zM201 346l-16 -116l-1 -4c0 -5 -1 -16 -1 -25c0 -59 41 -103 105 -103c34 0 66 14 96 41c31 28 48 58 53 91l29 213c-36 16 -77 24 -122 24c-37 0 -69 -12 -96 -36c-27 -23 -42 -52 -47 -85zM401 -29l23 159c-15 -27 -37 -48 -67 -64l-145 -79
c-31 -17 -46 -40 -46 -68c0 -39 34 -68 91 -68c37 0 69 12 96 36c27 23 43 51 48 84z" />
    <glyph glyph-name="h" unicode="h" 
d="M503 347l-48 -347h-49l48 340c1 11 2 19 2 26c0 64 -37 102 -104 102c-37 0 -70 -12 -99 -35s-46 -51 -51 -83l-49 -350h-49l98 700h49l-36 -256c3 4 5 8 24 23c27 19 65 43 121 43c91 0 145 -56 145 -136c0 -5 -1 -14 -2 -27z" />
    <glyph glyph-name="i" unicode="i" 
d="M192 457l6 43h210l-64 -457h142l-6 -43h-352l6 43h160l58 414h-160zM427 597h-66l10 70h66z" />
    <glyph glyph-name="j" unicode="j" 
d="M483 597h-64l10 70h64zM341 -27l24 171l-30 -22l-161 -96c-47 -28 -70 -63 -70 -104s34 -71 93 -71c79 0 135 54 144 122zM254 500h210l-75 -534c-6 -44 -27 -81 -63 -111c-35 -30 -80 -45 -134 -45c-83 0 -135 41 -135 113c0 55 29 99 88 134l192 115l35 27l36 258h-160
z" />
    <glyph glyph-name="k" unicode="k" 
d="M487 0h-63l-187 259l-36 -259h-48l98 700h48l-60 -427l237 227h65l-249 -235z" />
    <glyph glyph-name="l" unicode="l" 
d="M241 657l6 43h161l-92 -657h152l-6 -43h-344l6 43h142l86 614h-111z" />
    <glyph glyph-name="m" unicode="m" 
d="M482 0h-48l57 399c1 7 1 12 1 15c0 35 -19 52 -44 52c-39 0 -80 -33 -87 -80l-55 -386h-48l57 399c1 5 1 9 1 12c0 33 -19 55 -47 55c-40 0 -81 -36 -86 -77l-55 -389h-48l71 500h44l-4 -36l11 12c11 11 48 32 81 32c36 0 62 -21 69 -38l5 -12c3 4 7 9 12 14
c6 5 18 13 36 22c19 9 37 14 56 14c49 0 80 -30 80 -82c0 -9 -1 -19 -2 -28z" />
    <glyph glyph-name="n" unicode="n" 
d="M507 347l-48 -347h-49l48 340c1 11 2 20 2 28c0 64 -37 100 -104 100c-37 0 -70 -12 -99 -35s-46 -51 -51 -83l-49 -350h-49l70 500h48l-7 -56c3 4 5 8 24 23c27 19 65 43 121 43c91 0 145 -56 145 -136c0 -5 -1 -14 -2 -27z" />
    <glyph glyph-name="o" unicode="o" 
d="M351 510c95 0 158 -58 158 -135c0 -18 -1 -34 -3 -48l-26 -182c-6 -44 -27 -81 -62 -111c-35 -29 -78 -44 -131 -44c-96 0 -160 58 -160 135c0 18 1 34 3 48l26 182c6 44 27 81 62 110c35 30 80 45 133 45zM290 33c73 0 133 51 142 118l26 183c1 11 2 22 2 34
c0 60 -47 99 -114 99c-73 0 -133 -51 -142 -118l-26 -183c-1 -11 -2 -22 -2 -34c0 -60 47 -99 114 -99z" />
    <glyph glyph-name="p" unicode="p" 
d="M235 500l-6 -54c4 5 10 10 17 17s23 17 48 29s52 18 79 18c42 0 77 -13 104 -39c28 -25 42 -57 42 -95c0 -6 -1 -16 -2 -29l-29 -202c-6 -43 -27 -80 -62 -110c-35 -29 -77 -44 -125 -44c-53 0 -100 28 -115 49l-12 16l-32 -236h-49l95 680h47zM215 346l-27 -195
c-1 -3 -1 -8 -1 -15c0 -57 47 -103 115 -103c73 0 129 51 138 118l26 185v4c1 5 2 16 2 25c0 60 -41 103 -104 103c-35 0 -68 -13 -98 -38s-47 -53 -51 -84z" />
    <glyph glyph-name="q" unicode="q" 
d="M234 -9c-42 0 -77 13 -105 38c-27 26 -41 58 -41 96c0 6 1 16 2 29l29 202c6 43 28 80 65 109c37 30 81 45 132 45c56 0 120 -13 148 -24l22 -7l-94 -659h-49l34 237c0 -1 -48 -66 -143 -66zM243 33c35 0 67 13 97 39c30 27 47 56 52 88l39 284c-31 16 -71 24 -121 24
c-71 0 -133 -51 -144 -128l-25 -175l-1 -4c0 -5 -1 -16 -1 -25c0 -60 41 -103 104 -103z" />
    <glyph glyph-name="r" unicode="r" 
d="M182 43l64 457h47l-6 -57c3 5 8 11 15 18s21 17 44 29s48 18 74 18c85 0 124 -58 124 -123v-8h-51v10c0 47 -31 80 -83 80c-29 0 -58 -12 -87 -35c-28 -23 -44 -50 -48 -79l-43 -310h199l-6 -43h-353l6 43h104z" />
    <glyph glyph-name="s" unicode="s" 
d="M187 128c0 -55 38 -95 103 -95c33 0 62 10 87 31s37 46 37 76c0 108 -226 89 -226 222c0 42 16 77 48 105c33 29 72 43 117 43c47 0 83 -13 106 -40c24 -26 36 -53 36 -81v-12h-50v12c-3 43 -43 78 -96 78c-28 0 -53 -9 -76 -27s-34 -40 -34 -65c0 -104 226 -76 226 -230
c0 -43 -17 -79 -51 -110c-34 -30 -75 -45 -124 -45c-100 0 -152 61 -152 130l2 20h48c-1 -4 -1 -8 -1 -12z" />
    <glyph glyph-name="t" unicode="t" 
d="M241 457h-77l6 43h77l19 140h48l-19 -140h242l-6 -43h-242l-43 -310c-1 -8 -2 -18 -2 -31c0 -43 31 -82 92 -82c59 0 105 44 113 91h45c-4 -35 -22 -66 -53 -94c-31 -27 -67 -41 -110 -41c-84 0 -135 56 -135 128c0 11 1 24 3 39z" />
    <glyph glyph-name="u" unicode="u" 
d="M128 153l48 347h49l-48 -340c-1 -11 -2 -21 -2 -32c0 -64 35 -96 104 -96c37 0 70 12 99 35s46 51 51 83l49 350h49l-70 -500h-48l7 56c-3 -4 -5 -8 -25 -23c-25 -19 -64 -43 -120 -43c-91 0 -145 56 -145 136c0 5 1 14 2 27z" />
    <glyph glyph-name="v" unicode="v" 
d="M417 466l6 44c52 -4 98 -44 98 -115c0 -14 -1 -27 -3 -38l-20 -141c-9 -65 -35 -119 -76 -162s-92 -64 -153 -64c-83 0 -140 55 -140 132c0 6 1 19 3 39l47 339h49l-48 -342c-1 -9 -2 -20 -2 -35c0 -56 40 -91 93 -91c43 0 82 17 116 51c34 35 55 79 62 132l21 149
c1 11 2 21 2 32c0 38 -18 61 -55 70z" />
    <glyph glyph-name="w" unicode="w" 
d="M328 500h49l-52 -379l-1 -4c0 -5 -1 -16 -1 -25c0 -32 28 -60 61 -60c52 0 84 39 95 116l32 216c1 11 2 22 2 33c0 37 -16 59 -48 66l6 42c53 -3 91 -37 91 -108c0 -10 -1 -23 -3 -39l-31 -210c-16 -105 -63 -158 -142 -158c-43 0 -78 22 -89 39l-8 13l-12 -15
c-5 -5 -16 -13 -35 -23c-18 -9 -38 -14 -59 -14c-61 0 -103 43 -103 103c0 6 1 19 3 39l50 368h50l-53 -381c-1 -9 -2 -18 -2 -28c0 -31 23 -59 60 -59c40 0 80 36 85 80z" />
    <glyph glyph-name="x" unicode="x" 
d="M178 500h57l88 -204l145 204h58l-180 -245l117 -255h-58l-94 213l-153 -213h-57l188 257z" />
    <glyph glyph-name="y" unicode="y" 
d="M127 220l1 6l39 274h49l-38 -270v-4c-1 -5 -2 -16 -2 -25c0 -59 41 -103 105 -103c34 0 66 14 96 41c31 28 48 58 53 91l38 270h49l-76 -536c-6 -44 -27 -81 -63 -110c-35 -29 -80 -44 -133 -44c-80 0 -135 39 -135 100c0 46 22 82 67 107l61 34l25 11
c-6 -1 -11 -1 -14 -1c-35 0 -64 13 -88 38c-24 26 -36 56 -36 91c0 8 1 21 2 30zM394 -29l23 159c-15 -27 -37 -48 -67 -64l-145 -79c-31 -17 -46 -40 -46 -68c0 -39 34 -68 91 -68c75 0 133 52 144 120z" />
    <glyph glyph-name="z" unicode="z" 
d="M295 203h-80l8 56l215 198h-247l6 43h294l-9 -59l-217 -196h41c91 0 149 -56 149 -132l-2 -34l-16 -113c-6 -44 -27 -81 -63 -111c-35 -30 -80 -45 -134 -45c-80 0 -135 40 -135 113c0 56 38 105 87 134c115 64 179 102 191 114c-19 21 -49 32 -88 32zM389 -27l15 110
c1 8 2 15 2 21c0 13 -1 23 -4 31c-5 -6 -23 -18 -53 -37c-30 -18 -59 -35 -86 -50l-41 -22c-47 -28 -70 -62 -70 -101c0 -45 33 -74 93 -74c79 0 135 54 144 122z" />
    <glyph glyph-name="braceleft" unicode="{" 
d="M373 -142l-6 -48c-87 3 -146 63 -146 151c0 8 1 18 2 30l24 172c0 6 3 17 3 24c0 29 -20 54 -48 55l7 48c32 1 60 31 65 64l27 194c7 47 28 85 63 115c36 30 79 46 129 47l-7 -49c-71 -3 -125 -50 -134 -122l-25 -177c-7 -45 -43 -87 -74 -95l-1 -3c25 -8 49 -41 49 -78
c0 -6 -1 -14 -2 -25l-25 -175c-1 -12 -2 -20 -2 -25c0 -60 41 -100 101 -103z" />
    <glyph glyph-name="bar" unicode="|" 
d="M279 -180h-46l124 880h46z" />
    <glyph glyph-name="braceright" unicode="}" 
d="M261 662l6 48c87 -3 146 -63 146 -151c0 -8 -1 -18 -2 -30l-24 -172c0 -7 -3 -17 -3 -24c0 -29 20 -54 48 -55l-7 -48c-32 -1 -60 -31 -65 -64l-27 -194c-7 -47 -28 -85 -64 -115c-35 -30 -78 -46 -128 -47l7 49c71 3 125 50 134 122l25 177c7 45 43 87 74 95l1 3
c-25 8 -49 41 -49 78c0 6 1 14 2 25l25 175c1 12 2 20 2 25c0 60 -41 100 -101 103z" />
    <glyph glyph-name="asciitilde" unicode="~" 
d="M231 348c25 0 58 -10 99 -30c41 -19 69 -29 86 -29c41 0 70 23 74 51h45c-8 -53 -60 -98 -125 -98c-25 0 -59 10 -100 29c-41 20 -69 30 -86 30c-41 0 -69 -23 -73 -51h-45c7 53 60 98 125 98z" />
    <glyph glyph-name="exclamdown" unicode="&#xa1;" 
d="M384 430h-70l10 70h70zM311 350h52l-77 -549h-52z" />
    <glyph glyph-name="cent" unicode="&#xa2;" 
d="M296 -62h-46l9 61c-79 8 -131 62 -131 135c0 9 1 19 2 31l26 181c12 85 79 148 174 157l8 59h46l-8 -59c76 -9 125 -67 125 -139v-13h-48v11c0 57 -43 99 -106 99c-36 0 -68 -11 -96 -34c-27 -22 -43 -50 -48 -84l-26 -184c-1 -6 -1 -13 -1 -22c0 -57 44 -96 112 -96
c71 0 130 44 142 113h47c-17 -87 -83 -146 -172 -155z" />
    <glyph glyph-name="sterling" unicode="&#xa3;" 
d="M207 48h264l-6 -48h-370l6 48h54l35 248h-54l7 48h54l29 204c15 101 87 162 179 162c39 0 72 -13 97 -38c26 -25 39 -57 39 -94c0 -9 -1 -18 -2 -27l-3 -23h-50l5 33c1 4 1 8 1 13c0 49 -39 88 -91 88c-61 0 -114 -43 -123 -110l-29 -208h142l-7 -48h-142z" />
    <glyph glyph-name="currency" unicode="&#xa4;" 
d="M534 117l-36 -36l-49 49c-85 -60 -173 -60 -258 0l-49 -49l-36 36l48 50c-29 40 -43 82 -43 127c0 44 15 87 44 130l-49 49l36 36l49 -49c81 57 177 57 258 0l49 49l36 -36l-49 -49c29 -43 44 -86 44 -130c0 -43 -14 -86 -43 -127zM320 135c43 0 80 16 111 47
c32 32 48 70 48 113s-16 81 -47 112c-31 32 -69 48 -112 48s-81 -16 -113 -48c-31 -31 -47 -69 -47 -112c0 -44 16 -82 47 -113s69 -47 113 -47z" />
    <glyph glyph-name="yen" unicode="&#xa5;" 
d="M500 262l-7 -48h-162l-30 -214h-52l30 214h-163l7 48h163l10 71l-4 10h-158l7 48h135l-107 309h58l103 -305l189 305h58l-193 -309h134l-7 -48h-157l-6 -10l-10 -71h162z" />
    <glyph glyph-name="brokenbar" unicode="&#xa6;" 
d="M354 355h-46l49 345h46zM279 -180h-46l49 346h46z" />
    <glyph glyph-name="section" unicode="&#xa7;" 
d="M389 227c37 23 56 52 56 89c0 24 -9 44 -27 60s-45 33 -81 50c-36 18 -62 33 -79 46c-37 -21 -56 -51 -56 -90c0 -23 9 -43 27 -59c18 -15 45 -32 80 -49s62 -33 80 -47zM374 710c92 0 135 -46 135 -111l-2 -25h-51c1 4 1 8 1 12c0 44 -20 74 -87 74
c-72 0 -108 -44 -108 -85c0 -37 37 -66 84 -89c68 -31 154 -68 154 -153c0 -54 -26 -100 -78 -139c12 -21 18 -42 18 -64c0 -79 -63 -140 -167 -140c-93 0 -135 46 -135 113l2 23h51c-1 -4 -1 -8 -1 -12c0 -49 29 -74 88 -74c72 0 107 42 107 85c0 101 -239 95 -239 242
c0 56 27 102 80 138c-13 21 -19 43 -19 64c0 39 15 73 44 100c30 27 71 41 123 41z" />
    <glyph glyph-name="dieresis" unicode="&#xa8;" 
d="M284 597h-58l10 70h58zM451 597h-58l10 70h58z" />
    <glyph glyph-name="copyright" unicode="&#xa9;" 
d="M118 439v-184c0 -63 20 -116 60 -157c41 -41 90 -62 149 -62c58 0 107 21 146 62c40 41 60 94 60 157v184c0 66 -20 120 -60 161c-39 42 -88 63 -146 63c-59 0 -108 -21 -149 -63c-40 -41 -60 -95 -60 -161zM69 257v180c0 79 25 144 74 195c50 51 111 77 184 77
c72 0 133 -26 182 -77c50 -51 75 -116 75 -195v-180c0 -77 -25 -140 -75 -191s-111 -76 -182 -76c-73 0 -134 25 -184 75c-49 51 -74 115 -74 192zM328 499c-51 0 -84 -37 -84 -89v-131c0 -49 38 -87 87 -87c45 0 79 27 79 63v11h42v-12c0 -27 -12 -51 -35 -74
c-23 -22 -51 -33 -86 -33c-76 0 -130 56 -130 125v148c0 33 12 62 36 86c25 24 56 36 94 36c34 0 62 -11 84 -34s33 -46 33 -71v-12h-43v10c0 32 -33 64 -77 64z" />
    <glyph glyph-name="ordfeminine" unicode="&#xaa;" 
d="M440 461c0 -17 8 -26 25 -27l-4 -40c-31 0 -51 12 -62 36c-25 -24 -54 -36 -86 -36c-56 0 -96 40 -96 93c0 3 1 12 2 27c3 31 7 60 11 86c8 63 61 110 130 110c37 0 75 -8 113 -23l-29 -195c-3 -15 -4 -25 -4 -31zM322 433c39 0 73 27 78 68l23 156c-19 9 -41 13 -64 13
c-43 0 -77 -29 -84 -68l-10 -85c-1 -12 -2 -22 -2 -30c0 -32 24 -54 59 -54zM216 340h237l-6 -39h-237z" />
    <glyph glyph-name="guillemotleft" unicode="&#xab;" 
d="M204 292l97 -152h-53l-96 152l138 152h53zM369 292l97 -152h-53l-97 152l139 152h53z" />
    <glyph glyph-name="logicalnot" unicode="&#xac;" 
d="M127 389h413l-29 -210h-49l22 160h-364z" />
    <glyph glyph-name="uni00AD" unicode="&#xad;" 
 />
    <glyph glyph-name="registered" unicode="&#xae;" 
d="M432 260h-39l-52 121h-67v-121h-35v319h111c37 0 72 -34 72 -73v-51c0 -28 -20 -57 -44 -68zM388 453v54c0 21 -19 39 -39 39h-75v-133h75c20 0 39 19 39 40zM152 485v-138c0 -53 17 -96 51 -131c34 -34 76 -51 127 -51c50 0 92 17 125 51c34 35 51 78 51 131v138
c0 55 -17 99 -51 134c-33 35 -75 52 -125 52c-51 0 -93 -17 -127 -52s-51 -79 -51 -134zM111 349v134c0 66 21 120 63 163s94 64 156 64s114 -21 155 -64c42 -43 63 -97 63 -163v-134c0 -65 -21 -118 -63 -160s-94 -63 -155 -63c-62 0 -114 21 -156 63s-63 95 -63 160z" />
    <glyph glyph-name="overscore" unicode="&#xaf;" 
d="M469 590h-260l7 45h260z" />
    <glyph glyph-name="degree" unicode="&#xb0;" 
d="M240 472c-27 27 -40 60 -40 99s13 71 40 98s60 41 99 41s71 -14 98 -41s41 -59 41 -98s-14 -72 -41 -99s-59 -40 -98 -40s-72 13 -99 40zM269 641c-39 -39 -39 -101 0 -140s101 -39 140 0s39 101 0 140s-101 39 -140 0z" />
    <glyph glyph-name="plusminus" unicode="&#xb1;" 
d="M303 343l22 157h51l-22 -157h181l-7 -50h-181l-22 -154h-51l22 154h-181l7 50h181zM87 95h414l-7 -50h-414z" />
    <glyph glyph-name="twosuperior" unicode="&#xb2;" 
d="M426 373l-6 -42h-222l5 35c18 125 211 147 211 253c0 31 -22 51 -53 51c-37 0 -70 -27 -75 -68h-42c8 63 57 108 122 108c56 0 93 -37 93 -86c0 -31 -10 -58 -31 -83s-44 -44 -69 -58c-49 -28 -104 -69 -109 -110h176z" />
    <glyph glyph-name="threesuperior" unicode="&#xb3;" 
d="M216 405l1 15h41v-11c0 -27 20 -45 55 -45c41 0 69 27 76 68l6 41c1 6 1 12 1 18c0 25 -17 43 -45 43h-37l5 40l83 86h-133l6 40h186l-5 -38l-86 -88c44 -7 71 -37 71 -77c0 -8 -1 -16 -2 -24l-6 -44c-9 -65 -59 -105 -122 -105c-57 0 -95 36 -95 81z" />
    <glyph glyph-name="acute" unicode="&#xb4;" 
d="M441 675l-144 -122h-52l117 122h79z" />
    <glyph glyph-name="mu" unicode="&#xb5;" 
d="M135 -180h-47l96 680h47l-48 -338c-1 -11 -2 -19 -2 -24c0 -64 40 -105 97 -105c33 0 64 11 93 34s45 50 50 82l50 351h47l-56 -395c-2 -12 -3 -22 -3 -29c0 -20 14 -35 34 -38l-6 -43c-37 1 -67 24 -72 64c-45 -47 -82 -69 -139 -69c-51 0 -87 21 -108 64z" />
    <glyph glyph-name="paragraph" unicode="&#xb6;" 
d="M316 -180h-45l70 502c-93 8 -156 74 -156 173c0 54 22 102 66 143s94 62 151 62h144l-124 -880h-45l117 836h-61z" />
    <glyph glyph-name="middot" unicode="&#xb7;" 
d="M350 258h-70l10 70h70z" />
    <glyph glyph-name="cedilla" unicode="&#xb8;" 
d="M270 -180h-56l5 40h51c25 0 42 16 42 36c0 16 -9 24 -28 24h-45l11 80h40l-6 -40h8c41 0 67 -24 67 -60c0 -44 -34 -80 -89 -80z" />
    <glyph glyph-name="onesuperior" unicode="&#xb9;" 
d="M296 646l5 38l76 16h47l-52 -369h-47l46 330z" />
    <glyph glyph-name="ordmasculine" unicode="&#xba;" 
d="M202 340h221l-6 -40h-221zM462 618v-6l-17 -120c-7 -56 -56 -98 -123 -98c-60 0 -102 37 -102 86c0 1 0 5 1 11l1 9l16 112c8 56 58 98 125 98c59 0 100 -37 100 -85c0 -1 0 -4 -1 -7zM399 492l16 110l1 8v14c0 24 -26 46 -58 46c-37 0 -69 -27 -73 -58l-16 -112l-1 -8
c-1 -5 -1 -8 -1 -11c0 -25 26 -47 59 -47c35 0 69 27 73 58z" />
    <glyph glyph-name="guillemotright" unicode="&#xbb;" 
d="M487 292l-138 -152h-53l139 152l-97 152h53zM323 292l-139 -152h-53l139 152l-97 152h53z" />
    <glyph glyph-name="onequarter" unicode="&#xbc;" 
d="M107 0h-41l449 700h41zM450 78h-162l6 42l158 249h48l-160 -249h116l12 85h45l-12 -85h37l-6 -42h-37l-11 -78h-45zM132 646l5 38l75 16h47l-52 -369h-47l47 330z" />
    <glyph glyph-name="onehalf" unicode="&#xbd;" 
d="M88 0h-41l449 700h41zM126 646l5 38l75 16h47l-52 -369h-47l47 330zM517 42l-6 -42h-222l5 35c18 125 211 147 211 253c0 31 -22 51 -53 51c-37 0 -70 -27 -75 -68h-42c8 63 57 108 122 108c56 0 93 -37 93 -86c0 -31 -10 -58 -31 -83s-44 -44 -69 -58
c-49 -28 -104 -69 -109 -110h176z" />
    <glyph glyph-name="threequarters" unicode="&#xbe;" 
d="M132 0h-41l449 700h41zM452 78h-162l6 42l158 249h48l-160 -249h116l12 85h45l-12 -85h37l-6 -42h-37l-11 -78h-45zM72 405l1 15h41v-11c0 -27 20 -45 55 -45c41 0 69 27 76 68l6 41c1 6 1 12 1 18c0 25 -17 43 -45 43h-37l5 40l83 86h-133l6 40h186l-5 -38l-86 -88
c44 -7 71 -37 71 -77c0 -8 -1 -16 -2 -24l-6 -44c-9 -65 -59 -105 -122 -105c-57 0 -95 36 -95 81z" />
    <glyph glyph-name="questiondown" unicode="&#xbf;" 
d="M327 349h51c-7 -85 -45 -153 -86 -194c-60 -58 -134 -111 -134 -213c0 -60 46 -104 109 -104c36 0 68 12 95 37c28 24 44 54 49 91h52c-7 -52 -29 -94 -68 -127s-83 -50 -133 -50c-45 0 -83 14 -114 43c-30 28 -45 64 -45 109c0 72 32 128 73 167c59 57 138 119 151 241z
M338 499h70l-9 -70h-70z" />
    <glyph glyph-name="Agrave" unicode="&#xc0;" 
d="M134 274l185 426h108l65 -426l-39 -274h-52l34 239h-254l-34 -239h-52zM193 287h244l-53 365h-36zM328 875l92 -122h-54l-110 122h72z" />
    <glyph glyph-name="Aacute" unicode="&#xc1;" 
d="M134 274l185 426h108l65 -426l-39 -274h-52l34 239h-254l-34 -239h-52zM193 287h244l-53 365h-36zM520 875l-144 -122h-52l117 122h79z" />
    <glyph glyph-name="Acircumflex" unicode="&#xc2;" 
d="M134 274l185 426h108l65 -426l-39 -274h-52l34 239h-254l-34 -239h-52zM193 287h244l-53 365h-36zM433 875l71 -122h-51l-58 86l-84 -86h-53l108 122h67z" />
    <glyph glyph-name="Atilde" unicode="&#xc3;" 
d="M134 274l185 426h108l65 -426l-39 -274h-52l34 239h-254l-34 -239h-52zM193 287h244l-53 365h-36zM335 859c18 0 38 -7 61 -21s41 -21 52 -21c19 0 34 14 37 35l1 7h45v-7c-1 -45 -43 -79 -86 -79c-19 0 -40 7 -63 21s-40 21 -51 21c-20 0 -35 -14 -38 -34l-1 -8h-45v8
c3 47 44 78 88 78z" />
    <glyph glyph-name="Adieresis" unicode="&#xc4;" 
d="M134 274l185 426h108l65 -426l-39 -274h-52l34 239h-254l-34 -239h-52zM193 287h244l-53 365h-36zM333 797h-58l10 70h58zM500 797h-58l10 70h58z" />
    <glyph glyph-name="Aring" unicode="&#xc5;" 
d="M134 274l185 426h108l65 -426l-39 -274h-52l34 239h-254l-34 -239h-52zM193 287h244l-53 365h-36zM381 743c-41 0 -74 31 -74 71c0 48 42 90 91 90c40 0 74 -31 74 -71c0 -48 -40 -90 -91 -90zM385 779c28 0 48 24 48 51c0 23 -16 38 -39 38c-27 0 -48 -23 -48 -51
c0 -21 18 -38 39 -38z" />
    <glyph glyph-name="AE" unicode="&#xc6;" 
d="M104 278l185 422h305l-7 -48h-176l-36 -258h152l-7 -48h-152l-42 -298h183l-7 -48h-235l34 239h-150l-34 -239h-52zM359 652h-43l-155 -365h147z" />
    <glyph glyph-name="Ccedilla" unicode="&#xc7;" 
d="M286 38c39 0 71 12 96 36c26 24 42 52 47 83l1 12h51c0 -41 -17 -81 -52 -118s-79 -57 -133 -60l-4 -31h8c41 0 67 -24 67 -60c0 -44 -34 -80 -89 -80h-56l5 40h51c25 0 42 16 42 36c0 16 -9 24 -28 24h-45l10 72c-80 9 -134 71 -134 150c0 9 1 21 3 37l50 356
c7 50 29 92 65 125c37 33 82 50 136 50c45 0 83 -15 112 -44c30 -29 45 -63 45 -102l-2 -29h-51c1 4 1 9 1 16c0 63 -41 109 -109 109c-36 0 -68 -12 -96 -37c-27 -24 -44 -54 -49 -89l-50 -361c-1 -8 -2 -17 -2 -26c0 -63 45 -109 110 -109z" />
    <glyph glyph-name="Egrave" unicode="&#xc8;" 
d="M123 0l98 700h314l-6 -48h-262l-37 -258h238l-6 -48h-238l-42 -298h271l-7 -48h-323zM359 875l92 -122h-54l-110 122h72z" />
    <glyph glyph-name="Eacute" unicode="&#xc9;" 
d="M123 0l98 700h314l-6 -48h-262l-37 -258h238l-6 -48h-238l-42 -298h271l-7 -48h-323zM491 875l-144 -122h-52l117 122h79z" />
    <glyph glyph-name="Ecircumflex" unicode="&#xca;" 
d="M123 0l98 700h314l-6 -48h-262l-37 -258h238l-6 -48h-238l-42 -298h271l-7 -48h-323zM432 875l71 -122h-51l-58 86l-84 -86h-53l108 122h67z" />
    <glyph glyph-name="Edieresis" unicode="&#xcb;" 
d="M123 0l98 700h314l-6 -48h-262l-37 -258h238l-6 -48h-238l-42 -298h271l-7 -48h-323zM336 797h-58l10 70h58zM503 797h-58l10 70h58z" />
    <glyph glyph-name="Igrave" unicode="&#xcc;" 
d="M342 652h-156l6 48h362l-6 -48h-154l-85 -604h154l-7 -48h-362l7 48h156zM347 875l92 -122h-54l-110 122h72z" />
    <glyph glyph-name="Iacute" unicode="&#xcd;" 
d="M342 652h-156l6 48h362l-6 -48h-154l-85 -604h154l-7 -48h-362l7 48h156zM491 875l-144 -122h-52l117 122h79z" />
    <glyph glyph-name="Icircumflex" unicode="&#xce;" 
d="M342 652h-156l6 48h362l-6 -48h-154l-85 -604h154l-7 -48h-362l7 48h156zM433 875l71 -122h-51l-58 86l-84 -86h-53l108 122h67z" />
    <glyph glyph-name="Idieresis" unicode="&#xcf;" 
d="M342 652h-156l6 48h362l-6 -48h-154l-85 -604h154l-7 -48h-362l7 48h156zM335 797h-58l10 70h58zM502 797h-58l10 70h58z" />
    <glyph glyph-name="Eth" unicode="&#xd0;" 
d="M159 347h-63l7 45h63l43 308h165c96 0 159 -63 159 -152l-2 -31l-48 -341c-7 -51 -29 -94 -65 -127s-81 -49 -134 -49h-173zM431 179l47 336c1 7 2 16 2 27c0 63 -45 108 -110 108h-116l-36 -258h117l-7 -45h-117l-41 -299h116c36 0 68 12 96 37s44 57 49 94z" />
    <glyph glyph-name="Ntilde" unicode="&#xd1;" 
d="M422 138l79 562h51l-98 -700h-65l-148 566l-7 61l-3 -1l-5 -64l-79 -562h-51l98 700h65l147 -566l8 -61l3 1zM335 859c18 0 38 -7 61 -21s41 -21 52 -21c19 0 34 14 37 35l1 7h45v-7c-1 -45 -43 -79 -86 -79c-19 0 -40 7 -63 21s-40 21 -51 21c-20 0 -35 -14 -38 -34
l-1 -8h-45v8c3 47 44 78 88 78z" />
    <glyph glyph-name="Ograve" unicode="&#xd2;" 
d="M532 521l-50 -356c-7 -50 -30 -92 -67 -125s-84 -50 -139 -50c-99 0 -164 64 -164 152c0 11 1 23 3 37l50 356c7 50 30 92 67 125s84 50 140 50c49 0 88 -15 118 -44s45 -65 45 -108c0 -11 -1 -23 -3 -37zM430 164l50 364c1 9 2 18 2 25c0 63 -43 109 -114 109
c-79 0 -140 -55 -151 -128l-50 -362c-1 -11 -2 -19 -2 -25c0 -63 44 -109 115 -109c79 0 139 54 150 126zM354 875l92 -122h-54l-110 122h72z" />
    <glyph glyph-name="Oacute" unicode="&#xd3;" 
d="M532 521l-50 -356c-7 -50 -30 -92 -67 -125s-84 -50 -139 -50c-99 0 -164 64 -164 152c0 11 1 23 3 37l50 356c7 50 30 92 67 125s84 50 140 50c49 0 88 -15 118 -44s45 -65 45 -108c0 -11 -1 -23 -3 -37zM430 164l50 364c1 9 2 18 2 25c0 63 -43 109 -114 109
c-79 0 -140 -55 -151 -128l-50 -362c-1 -11 -2 -19 -2 -25c0 -63 44 -109 115 -109c79 0 139 54 150 126zM495 875l-144 -122h-52l117 122h79z" />
    <glyph glyph-name="Ocircumflex" unicode="&#xd4;" 
d="M532 521l-50 -356c-7 -50 -30 -92 -67 -125s-84 -50 -139 -50c-99 0 -164 64 -164 152c0 11 1 23 3 37l50 356c7 50 30 92 67 125s84 50 140 50c49 0 88 -15 118 -44s45 -65 45 -108c0 -11 -1 -23 -3 -37zM430 164l50 364c1 9 2 18 2 25c0 63 -43 109 -114 109
c-79 0 -140 -55 -151 -128l-50 -362c-1 -11 -2 -19 -2 -25c0 -63 44 -109 115 -109c79 0 139 54 150 126zM427 875l71 -122h-51l-58 86l-84 -86h-53l108 122h67z" />
    <glyph glyph-name="Otilde" unicode="&#xd5;" 
d="M532 521l-50 -356c-7 -50 -30 -92 -67 -125s-84 -50 -139 -50c-99 0 -164 64 -164 152c0 11 1 23 3 37l50 356c7 50 30 92 67 125s84 50 140 50c49 0 88 -15 118 -44s45 -65 45 -108c0 -11 -1 -23 -3 -37zM430 164l50 364c1 9 2 18 2 25c0 63 -43 109 -114 109
c-79 0 -140 -55 -151 -128l-50 -362c-1 -11 -2 -19 -2 -25c0 -63 44 -109 115 -109c79 0 139 54 150 126zM335 859c18 0 38 -7 61 -21s41 -21 52 -21c19 0 34 14 37 35l1 7h45v-7c-1 -45 -43 -79 -86 -79c-19 0 -40 7 -63 21s-40 21 -51 21c-20 0 -35 -14 -38 -34l-1 -8h-45
v8c3 47 44 78 88 78z" />
    <glyph glyph-name="Odieresis" unicode="&#xd6;" 
d="M532 521l-50 -356c-7 -50 -30 -92 -67 -125s-84 -50 -139 -50c-99 0 -164 64 -164 152c0 11 1 23 3 37l50 356c7 50 30 92 67 125s84 50 140 50c49 0 88 -15 118 -44s45 -65 45 -108c0 -11 -1 -23 -3 -37zM430 164l50 364c1 9 2 18 2 25c0 63 -43 109 -114 109
c-79 0 -140 -55 -151 -128l-50 -362c-1 -11 -2 -19 -2 -25c0 -63 44 -109 115 -109c79 0 139 54 150 126zM331 797h-58l10 70h58zM498 797h-58l10 70h58z" />
    <glyph glyph-name="multiply" unicode="&#xd7;" 
d="M284 292l-127 148l40 35l128 -147l168 147l31 -35l-169 -148l127 -147l-41 -36l-126 148l-169 -147l-31 35z" />
    <glyph glyph-name="Oslash" unicode="&#xd8;" 
d="M138 55l-50 -70l-34 24l64 89c-4 14 -6 29 -6 44c0 11 1 23 3 37l50 356c7 50 30 92 67 125s84 50 140 50c62 0 108 -22 137 -67l51 70l34 -24l-65 -89c4 -14 6 -28 6 -42c0 -11 -1 -23 -3 -37l-50 -356c-7 -50 -30 -92 -67 -125s-83 -50 -138 -50c-63 0 -110 22 -139 65
zM217 534l-50 -362c-1 -3 -1 -5 -1 -7l309 430c-16 41 -54 67 -107 67c-79 0 -140 -55 -151 -128zM430 164l51 368l-309 -430c17 -43 53 -64 108 -64c79 0 139 54 150 126z" />
    <glyph glyph-name="Ugrave" unicode="&#xd9;" 
d="M506 700h52l-76 -532c-7 -51 -29 -94 -65 -128c-35 -33 -81 -50 -136 -50c-101 0 -167 64 -167 152c0 9 1 21 3 37l72 521h52l-74 -527c-1 -11 -2 -20 -2 -28c0 -64 44 -107 116 -107c81 0 140 56 151 137zM357 875l92 -122h-54l-110 122h72z" />
    <glyph glyph-name="Uacute" unicode="&#xda;" 
d="M506 700h52l-76 -532c-7 -51 -29 -94 -65 -128c-35 -33 -81 -50 -136 -50c-101 0 -167 64 -167 152c0 9 1 21 3 37l72 521h52l-74 -527c-1 -11 -2 -20 -2 -28c0 -64 44 -107 116 -107c81 0 140 56 151 137zM509 875l-144 -122h-52l117 122h79z" />
    <glyph glyph-name="Ucircumflex" unicode="&#xdb;" 
d="M506 700h52l-76 -532c-7 -51 -29 -94 -65 -128c-35 -33 -81 -50 -136 -50c-101 0 -167 64 -167 152c0 9 1 21 3 37l72 521h52l-74 -527c-1 -11 -2 -20 -2 -28c0 -64 44 -107 116 -107c81 0 140 56 151 137zM431 875l71 -122h-51l-58 86l-84 -86h-53l108 122h67z" />
    <glyph glyph-name="Udieresis" unicode="&#xdc;" 
d="M506 700h52l-76 -532c-7 -51 -29 -94 -65 -128c-35 -33 -81 -50 -136 -50c-101 0 -167 64 -167 152c0 9 1 21 3 37l72 521h52l-74 -527c-1 -11 -2 -20 -2 -28c0 -64 44 -107 116 -107c81 0 140 56 151 137zM334 797h-58l10 70h58zM501 797h-58l10 70h58z" />
    <glyph glyph-name="Yacute" unicode="&#xdd;" 
d="M170 700h58l103 -306l188 306h57l-228 -368l-47 -332h-52l47 333zM506 875l-144 -122h-52l117 122h79z" />
    <glyph glyph-name="Thorn" unicode="&#xde;" 
d="M177 0h-52l97 700h50l-14 -105h127c73 0 127 -52 127 -123l-2 -30l-21 -147c-12 -84 -78 -145 -166 -145h-126zM438 299l21 149v2c0 3 1 8 1 15c0 45 -37 81 -85 81h-123l-49 -348h123c60 0 104 42 112 101z" />
    <glyph glyph-name="germandbls" unicode="&#xdf;" 
d="M239 104l1 30h48c-1 -13 -1 -21 -1 -24c0 -44 31 -77 78 -77c57 0 101 47 101 106c0 44 -33 87 -66 115c-32 29 -65 77 -65 129c0 67 49 114 132 130c3 23 5 40 5 53c0 60 -44 101 -105 101c-75 0 -133 -51 -145 -135l-100 -712h-49l100 713c7 53 29 95 66 128
s80 49 130 49c45 0 82 -13 109 -40s41 -59 41 -98c0 -16 -2 -30 -2 -31l-7 -46c-2 -13 -10 -20 -23 -22c-67 -11 -101 -40 -101 -87c0 -37 33 -78 65 -106c33 -28 66 -78 66 -133c0 -43 -14 -80 -43 -111c-28 -31 -64 -46 -108 -46c-76 0 -127 49 -127 114z" />
    <glyph glyph-name="agrave" unicode="&#xe0;" 
d="M202 349l-26 -185v-4c-1 -5 -2 -16 -2 -25c0 -61 41 -103 104 -103c38 0 71 14 100 41s45 58 50 91l38 279c-31 16 -69 24 -116 24c-77 0 -139 -53 -148 -118zM490 -5c-31 0 -61 27 -72 66c-41 -47 -91 -71 -149 -71c-42 0 -77 13 -105 38c-27 26 -41 58 -41 96
c0 6 1 16 2 29l29 202c7 45 28 82 64 111c37 29 81 44 133 44c63 0 126 -13 151 -24l18 -9l-52 -370c-1 -11 -2 -18 -2 -22c0 -25 13 -46 36 -47h4l-6 -42c-3 -1 -6 -1 -10 -1zM332 675l92 -122h-54l-110 122h72z" />
    <glyph glyph-name="aacute" unicode="&#xe1;" 
d="M202 349l-26 -185v-4c-1 -5 -2 -16 -2 -25c0 -61 41 -103 104 -103c38 0 71 14 100 41s45 58 50 91l38 279c-31 16 -69 24 -116 24c-77 0 -139 -53 -148 -118zM490 -5c-31 0 -61 27 -72 66c-41 -47 -91 -71 -149 -71c-42 0 -77 13 -105 38c-27 26 -41 58 -41 96
c0 6 1 16 2 29l29 202c7 45 28 82 64 111c37 29 81 44 133 44c63 0 126 -13 151 -24l18 -9l-52 -370c-1 -11 -2 -18 -2 -22c0 -25 13 -46 36 -47h4l-6 -42c-3 -1 -6 -1 -10 -1zM483 675l-144 -122h-52l117 122h79z" />
    <glyph glyph-name="acircumflex" unicode="&#xe2;" 
d="M202 349l-26 -185v-4c-1 -5 -2 -16 -2 -25c0 -61 41 -103 104 -103c38 0 71 14 100 41s45 58 50 91l38 279c-31 16 -69 24 -116 24c-77 0 -139 -53 -148 -118zM490 -5c-31 0 -61 27 -72 66c-41 -47 -91 -71 -149 -71c-42 0 -77 13 -105 38c-27 26 -41 58 -41 96
c0 6 1 16 2 29l29 202c7 45 28 82 64 111c37 29 81 44 133 44c63 0 126 -13 151 -24l18 -9l-52 -370c-1 -11 -2 -18 -2 -22c0 -25 13 -46 36 -47h4l-6 -42c-3 -1 -6 -1 -10 -1zM408 675l71 -122h-51l-58 86l-84 -86h-53l108 122h67z" />
    <glyph glyph-name="atilde" unicode="&#xe3;" 
d="M202 349l-26 -185v-4c-1 -5 -2 -16 -2 -25c0 -61 41 -103 104 -103c38 0 71 14 100 41s45 58 50 91l38 279c-31 16 -69 24 -116 24c-77 0 -139 -53 -148 -118zM490 -5c-31 0 -61 27 -72 66c-41 -47 -91 -71 -149 -71c-42 0 -77 13 -105 38c-27 26 -41 58 -41 96
c0 6 1 16 2 29l29 202c7 45 28 82 64 111c37 29 81 44 133 44c63 0 126 -13 151 -24l18 -9l-52 -370c-1 -11 -2 -18 -2 -22c0 -25 13 -46 36 -47h4l-6 -42c-3 -1 -6 -1 -10 -1zM315 659c18 0 38 -7 61 -21s41 -21 52 -21c19 0 34 14 37 35l1 7h45v-7c-1 -45 -43 -79 -86 -79
c-19 0 -40 7 -63 21s-40 21 -51 21c-20 0 -35 -14 -38 -34l-1 -8h-45v8c3 47 44 78 88 78z" />
    <glyph glyph-name="adieresis" unicode="&#xe4;" 
d="M202 349l-26 -185v-4c-1 -5 -2 -16 -2 -25c0 -61 41 -103 104 -103c38 0 71 14 100 41s45 58 50 91l38 279c-31 16 -69 24 -116 24c-77 0 -139 -53 -148 -118zM490 -5c-31 0 -61 27 -72 66c-41 -47 -91 -71 -149 -71c-42 0 -77 13 -105 38c-27 26 -41 58 -41 96
c0 6 1 16 2 29l29 202c7 45 28 82 64 111c37 29 81 44 133 44c63 0 126 -13 151 -24l18 -9l-52 -370c-1 -11 -2 -18 -2 -22c0 -25 13 -46 36 -47h4l-6 -42c-3 -1 -6 -1 -10 -1zM310 597h-58l10 70h58zM477 597h-58l10 70h58z" />
    <glyph glyph-name="aring" unicode="&#xe5;" 
d="M202 349l-26 -185v-4c-1 -5 -2 -16 -2 -25c0 -61 41 -103 104 -103c38 0 71 14 100 41s45 58 50 91l38 279c-31 16 -69 24 -116 24c-77 0 -139 -53 -148 -118zM490 -5c-31 0 -61 27 -72 66c-41 -47 -91 -71 -149 -71c-42 0 -77 13 -105 38c-27 26 -41 58 -41 96
c0 6 1 16 2 29l29 202c7 45 28 82 64 111c37 29 81 44 133 44c63 0 126 -13 151 -24l18 -9l-52 -370c-1 -11 -2 -18 -2 -22c0 -25 13 -46 36 -47h4l-6 -42c-3 -1 -6 -1 -10 -1zM357 543c-41 0 -74 31 -74 71c0 48 42 90 91 90c40 0 74 -31 74 -71c0 -48 -40 -90 -91 -90z
M361 579c28 0 48 24 48 51c0 23 -16 38 -39 38c-27 0 -48 -23 -48 -51c0 -21 18 -38 39 -38z" />
    <glyph glyph-name="ae" unicode="&#xe6;" 
d="M359 366l-22 -153l131 66c32 16 50 40 55 71c3 16 4 32 4 48c0 41 -26 69 -70 69c-57 0 -91 -48 -98 -101zM286 46l-2 7s-31 -63 -105 -63c-61 0 -108 45 -108 104c0 11 1 21 2 32l37 265c9 67 69 119 142 119c41 0 85 -13 102 -24l13 -8c23 21 56 32 97 32
c64 0 107 -42 107 -107c0 -14 -2 -33 -5 -58c-8 -55 -41 -81 -108 -117l-127 -65c-5 -31 -7 -53 -7 -64c0 -44 25 -66 75 -66c36 0 76 12 93 21l12 7l-7 -50c-31 -14 -65 -21 -102 -21c-78 0 -104 41 -109 56zM273 116l46 331c-21 13 -43 20 -66 20c-45 0 -89 -35 -96 -82
l-36 -255c-1 -11 -2 -20 -2 -29c0 -40 27 -68 66 -68c44 0 81 35 88 83z" />
    <glyph glyph-name="ccedilla" unicode="&#xe7;" 
d="M272 -180h-56l5 40h51c25 0 42 16 42 36c0 16 -9 24 -28 24h-45l10 73c-77 11 -124 64 -124 132c0 18 1 34 3 48l26 182c6 44 26 81 61 110c35 30 79 45 132 45c47 0 85 -14 112 -42c27 -27 41 -60 41 -99v-12h-49v13c0 53 -42 97 -107 97c-73 0 -133 -51 -142 -118
l-26 -183c-1 -11 -2 -22 -2 -34c0 -60 47 -99 114 -99c71 0 129 48 141 113h48c-17 -91 -88 -153 -189 -156l-4 -30h8c41 0 67 -24 67 -60c0 -44 -34 -80 -89 -80z" />
    <glyph glyph-name="egrave" unicode="&#xe8;" 
d="M270 33c40 0 92 11 116 19l19 6l-5 -45c-34 -15 -78 -23 -131 -23c-96 0 -159 58 -159 137c0 11 1 25 3 42l26 186c6 44 27 81 62 110c36 30 81 45 134 45c44 0 80 -13 108 -39s42 -56 42 -91c0 -11 -1 -24 -2 -40c-5 -60 -51 -92 -134 -117l-188 -58
c-1 -15 -2 -25 -2 -32c0 -59 46 -100 111 -100zM187 349l-19 -135l189 58c48 14 74 37 78 70c1 15 2 24 2 29c0 52 -45 96 -108 96c-73 0 -133 -53 -142 -118zM301 675l92 -122h-54l-110 122h72z" />
    <glyph glyph-name="eacute" unicode="&#xe9;" 
d="M270 33c40 0 92 11 116 19l19 6l-5 -45c-34 -15 -78 -23 -131 -23c-96 0 -159 58 -159 137c0 11 1 25 3 42l26 186c6 44 27 81 62 110c36 30 81 45 134 45c44 0 80 -13 108 -39s42 -56 42 -91c0 -11 -1 -24 -2 -40c-5 -60 -51 -92 -134 -117l-188 -58
c-1 -15 -2 -25 -2 -32c0 -59 46 -100 111 -100zM187 349l-19 -135l189 58c48 14 74 37 78 70c1 15 2 24 2 29c0 52 -45 96 -108 96c-73 0 -133 -53 -142 -118zM467 675l-144 -122h-52l117 122h79z" />
    <glyph glyph-name="ecircumflex" unicode="&#xea;" 
d="M270 33c40 0 92 11 116 19l19 6l-5 -45c-34 -15 -78 -23 -131 -23c-96 0 -159 58 -159 137c0 11 1 25 3 42l26 186c6 44 27 81 62 110c36 30 81 45 134 45c44 0 80 -13 108 -39s42 -56 42 -91c0 -11 -1 -24 -2 -40c-5 -60 -51 -92 -134 -117l-188 -58
c-1 -15 -2 -25 -2 -32c0 -59 46 -100 111 -100zM187 349l-19 -135l189 58c48 14 74 37 78 70c1 15 2 24 2 29c0 52 -45 96 -108 96c-73 0 -133 -53 -142 -118zM388 675l71 -122h-51l-58 86l-84 -86h-53l108 122h67z" />
    <glyph glyph-name="edieresis" unicode="&#xeb;" 
d="M270 33c40 0 92 11 116 19l19 6l-5 -45c-34 -15 -78 -23 -131 -23c-96 0 -159 58 -159 137c0 11 1 25 3 42l26 186c6 44 27 81 62 110c36 30 81 45 134 45c44 0 80 -13 108 -39s42 -56 42 -91c0 -11 -1 -24 -2 -40c-5 -60 -51 -92 -134 -117l-188 -58
c-1 -15 -2 -25 -2 -32c0 -59 46 -100 111 -100zM187 349l-19 -135l189 58c48 14 74 37 78 70c1 15 2 24 2 29c0 52 -45 96 -108 96c-73 0 -133 -53 -142 -118zM291 597h-58l10 70h58zM458 597h-58l10 70h58z" />
    <glyph glyph-name="igrave" unicode="&#xec;" 
d="M192 457l6 43h210l-64 -457h142l-6 -43h-352l6 43h160l58 414h-160zM326 675l92 -122h-54l-110 122h72z" />
    <glyph glyph-name="iacute" unicode="&#xed;" 
d="M192 457l6 43h210l-64 -457h142l-6 -43h-352l6 43h160l58 414h-160zM487 675l-144 -122h-52l117 122h79z" />
    <glyph glyph-name="icircumflex" unicode="&#xee;" 
d="M192 457l6 43h210l-64 -457h142l-6 -43h-352l6 43h160l58 414h-160zM436 675l71 -122h-51l-58 86l-84 -86h-53l108 122h67z" />
    <glyph glyph-name="idieresis" unicode="&#xef;" 
d="M192 457l6 43h210l-64 -457h142l-6 -43h-352l6 43h160l58 414h-160zM340 597h-58l10 70h58zM507 597h-58l10 70h58z" />
    <glyph glyph-name="eth" unicode="&#xf0;" 
d="M391 151l20 141c1 4 1 10 1 19c0 61 -48 104 -119 104c-35 0 -65 -12 -91 -35s-41 -50 -46 -83l-19 -131c-1 -11 -2 -22 -2 -34c0 -60 47 -99 114 -99c73 0 133 51 142 118zM422 404l4 -6l18 129c1 11 2 18 2 23l-104 -37l8 45l92 33c-9 39 -46 66 -101 66h-53l6 43h56
c73 0 123 -39 140 -92l84 30l-7 -44l-71 -26c0 -9 -1 -19 -2 -29l-55 -394c-6 -44 -27 -81 -62 -111c-35 -29 -78 -44 -131 -44c-96 0 -160 58 -160 135c0 18 1 34 3 48l19 130c6 44 26 81 61 110c35 30 77 45 128 45c76 0 114 -38 125 -54z" />
    <glyph glyph-name="ntilde" unicode="&#xf1;" 
d="M507 347l-48 -347h-49l48 340c1 11 2 20 2 28c0 64 -37 100 -104 100c-37 0 -70 -12 -99 -35s-46 -51 -51 -83l-49 -350h-49l70 500h48l-7 -56c3 4 5 8 24 23c27 19 65 43 121 43c91 0 145 -56 145 -136c0 -5 -1 -14 -2 -27zM307 659c18 0 38 -7 61 -21s41 -21 52 -21
c19 0 34 14 37 35l1 7h45v-7c-1 -45 -43 -79 -86 -79c-19 0 -40 7 -63 21s-40 21 -51 21c-20 0 -35 -14 -38 -34l-1 -8h-45v8c3 47 44 78 88 78z" />
    <glyph glyph-name="ograve" unicode="&#xf2;" 
d="M351 510c95 0 158 -58 158 -135c0 -18 -1 -34 -3 -48l-26 -182c-6 -44 -27 -81 -62 -111c-35 -29 -78 -44 -131 -44c-96 0 -160 58 -160 135c0 18 1 34 3 48l26 182c6 44 27 81 62 110c35 30 80 45 133 45zM290 33c73 0 133 51 142 118l26 183c1 11 2 22 2 34
c0 60 -47 99 -114 99c-73 0 -133 -51 -142 -118l-26 -183c-1 -11 -2 -22 -2 -34c0 -60 47 -99 114 -99zM318 675l92 -122h-54l-110 122h72z" />
    <glyph glyph-name="oacute" unicode="&#xf3;" 
d="M351 510c95 0 158 -58 158 -135c0 -18 -1 -34 -3 -48l-26 -182c-6 -44 -27 -81 -62 -111c-35 -29 -78 -44 -131 -44c-96 0 -160 58 -160 135c0 18 1 34 3 48l26 182c6 44 27 81 62 110c35 30 80 45 133 45zM290 33c73 0 133 51 142 118l26 183c1 11 2 22 2 34
c0 60 -47 99 -114 99c-73 0 -133 -51 -142 -118l-26 -183c-1 -11 -2 -22 -2 -34c0 -60 47 -99 114 -99zM489 675l-144 -122h-52l117 122h79z" />
    <glyph glyph-name="ocircumflex" unicode="&#xf4;" 
d="M351 510c95 0 158 -58 158 -135c0 -18 -1 -34 -3 -48l-26 -182c-6 -44 -27 -81 -62 -111c-35 -29 -78 -44 -131 -44c-96 0 -160 58 -160 135c0 18 1 34 3 48l26 182c6 44 27 81 62 110c35 30 80 45 133 45zM290 33c73 0 133 51 142 118l26 183c1 11 2 22 2 34
c0 60 -47 99 -114 99c-73 0 -133 -51 -142 -118l-26 -183c-1 -11 -2 -22 -2 -34c0 -60 47 -99 114 -99zM405 675l71 -122h-51l-58 86l-84 -86h-53l108 122h67z" />
    <glyph glyph-name="otilde" unicode="&#xf5;" 
d="M351 510c95 0 158 -58 158 -135c0 -18 -1 -34 -3 -48l-26 -182c-6 -44 -27 -81 -62 -111c-35 -29 -78 -44 -131 -44c-96 0 -160 58 -160 135c0 18 1 34 3 48l26 182c6 44 27 81 62 110c35 30 80 45 133 45zM290 33c73 0 133 51 142 118l26 183c1 11 2 22 2 34
c0 60 -47 99 -114 99c-73 0 -133 -51 -142 -118l-26 -183c-1 -11 -2 -22 -2 -34c0 -60 47 -99 114 -99zM312 659c18 0 38 -7 61 -21s41 -21 52 -21c19 0 34 14 37 35l1 7h45v-7c-1 -45 -43 -79 -86 -79c-19 0 -40 7 -63 21s-40 21 -51 21c-20 0 -35 -14 -38 -34l-1 -8h-45v8
c3 47 44 78 88 78z" />
    <glyph glyph-name="odieresis" unicode="&#xf6;" 
d="M351 510c95 0 158 -58 158 -135c0 -18 -1 -34 -3 -48l-26 -182c-6 -44 -27 -81 -62 -111c-35 -29 -78 -44 -131 -44c-96 0 -160 58 -160 135c0 18 1 34 3 48l26 182c6 44 27 81 62 110c35 30 80 45 133 45zM290 33c73 0 133 51 142 118l26 183c1 11 2 22 2 34
c0 60 -47 99 -114 99c-73 0 -133 -51 -142 -118l-26 -183c-1 -11 -2 -22 -2 -34c0 -60 47 -99 114 -99zM309 597h-58l10 70h58zM476 597h-58l10 70h58z" />
    <glyph glyph-name="divide" unicode="&#xf7;" 
d="M109 258l7 49h414l-7 -49h-414zM325 79h-70l10 70h70zM372 417h-70l10 70h70z" />
    <glyph glyph-name="oslash" unicode="&#xf8;" 
d="M147 -17l-29 20l33 46c-16 21 -24 46 -24 76c0 18 1 34 3 48l26 182c6 44 27 81 62 110c35 30 80 45 133 45c42 0 78 -11 108 -33l28 39l29 -19l-33 -45c17 -23 26 -48 26 -77c0 -18 -1 -34 -3 -48l-26 -182c-6 -44 -27 -81 -62 -111c-35 -29 -78 -44 -131 -44
c-44 0 -81 11 -111 34zM290 33c73 0 133 51 142 118l26 183c1 11 2 22 2 34c0 14 -3 27 -8 40l-248 -345c22 -20 51 -30 86 -30zM176 132c0 -15 2 -28 7 -39l247 344c-21 20 -49 30 -84 30c-73 0 -133 -51 -142 -118l-26 -183c-1 -11 -2 -22 -2 -34z" />
    <glyph glyph-name="ugrave" unicode="&#xf9;" 
d="M128 153l48 347h49l-48 -340c-1 -11 -2 -21 -2 -32c0 -64 35 -96 104 -96c37 0 70 12 99 35s46 51 51 83l49 350h49l-70 -500h-48l7 56c-3 -4 -5 -8 -25 -23c-25 -19 -64 -43 -120 -43c-91 0 -145 56 -145 136c0 5 1 14 2 27zM323 675l92 -122h-54l-110 122h72z" />
    <glyph glyph-name="uacute" unicode="&#xfa;" 
d="M128 153l48 347h49l-48 -340c-1 -11 -2 -21 -2 -32c0 -64 35 -96 104 -96c37 0 70 12 99 35s46 51 51 83l49 350h49l-70 -500h-48l7 56c-3 -4 -5 -8 -25 -23c-25 -19 -64 -43 -120 -43c-91 0 -145 56 -145 136c0 5 1 14 2 27zM489 675l-144 -122h-52l117 122h79z" />
    <glyph glyph-name="ucircumflex" unicode="&#xfb;" 
d="M128 153l48 347h49l-48 -340c-1 -11 -2 -21 -2 -32c0 -64 35 -96 104 -96c37 0 70 12 99 35s46 51 51 83l49 350h49l-70 -500h-48l7 56c-3 -4 -5 -8 -25 -23c-25 -19 -64 -43 -120 -43c-91 0 -145 56 -145 136c0 5 1 14 2 27zM410 675l71 -122h-51l-58 86l-84 -86h-53
l108 122h67z" />
    <glyph glyph-name="udieresis" unicode="&#xfc;" 
d="M128 153l48 347h49l-48 -340c-1 -11 -2 -21 -2 -32c0 -64 35 -96 104 -96c37 0 70 12 99 35s46 51 51 83l49 350h49l-70 -500h-48l7 56c-3 -4 -5 -8 -25 -23c-25 -19 -64 -43 -120 -43c-91 0 -145 56 -145 136c0 5 1 14 2 27zM311 597h-58l10 70h58zM478 597h-58l10 70
h58z" />
    <glyph glyph-name="yacute" unicode="&#xfd;" 
d="M127 220l1 6l39 274h49l-38 -270v-4c-1 -5 -2 -16 -2 -25c0 -59 41 -103 105 -103c34 0 66 14 96 41c31 28 48 58 53 91l38 270h49l-76 -536c-6 -44 -27 -81 -63 -110c-35 -29 -80 -44 -133 -44c-80 0 -135 39 -135 100c0 46 22 82 67 107l61 34l25 11
c-6 -1 -11 -1 -14 -1c-35 0 -64 13 -88 38c-24 26 -36 56 -36 91c0 8 1 21 2 30zM394 -29l23 159c-15 -27 -37 -48 -67 -64l-145 -79c-31 -17 -46 -40 -46 -68c0 -39 34 -68 91 -68c75 0 133 52 144 120zM479 675l-144 -122h-52l117 122h79z" />
    <glyph glyph-name="thorn" unicode="&#xfe;" 
d="M266 700l-36 -254c3 4 5 7 24 22c24 19 63 42 119 42c42 0 77 -13 104 -39c28 -25 42 -57 42 -95c0 -6 -1 -16 -2 -29l-29 -202c-6 -43 -27 -80 -62 -110c-35 -29 -77 -44 -125 -44c-53 0 -100 28 -115 49l-12 16l-32 -236h-49l123 880h50zM215 346l-27 -195
c-1 -3 -1 -8 -1 -15c0 -57 47 -103 115 -103c73 0 129 51 138 118l26 185v4c1 5 2 16 2 25c0 60 -41 103 -104 103c-35 0 -68 -13 -98 -38s-47 -53 -51 -84z" />
    <glyph glyph-name="ydieresis" unicode="&#xff;" 
d="M127 220l1 6l39 274h49l-38 -270v-4c-1 -5 -2 -16 -2 -25c0 -59 41 -103 105 -103c34 0 66 14 96 41c31 28 48 58 53 91l38 270h49l-76 -536c-6 -44 -27 -81 -63 -110c-35 -29 -80 -44 -133 -44c-80 0 -135 39 -135 100c0 46 22 82 67 107l61 34l25 11
c-6 -1 -11 -1 -14 -1c-35 0 -64 13 -88 38c-24 26 -36 56 -36 91c0 8 1 21 2 30zM394 -29l23 159c-15 -27 -37 -48 -67 -64l-145 -79c-31 -17 -46 -40 -46 -68c0 -39 34 -68 91 -68c75 0 133 52 144 120zM298 597h-58l10 70h58zM465 597h-58l10 70h58z" />
    <glyph glyph-name="Amacron" unicode="&#x100;" 
d="M134 274l185 426h108l65 -426l-39 -274h-52l34 239h-254l-34 -239h-52zM193 287h244l-53 365h-36zM516 790h-260l7 45h260z" />
    <glyph glyph-name="amacron" unicode="&#x101;" 
d="M202 349l-26 -185v-4c-1 -5 -2 -16 -2 -25c0 -61 41 -103 104 -103c38 0 71 14 100 41s45 58 50 91l38 279c-31 16 -69 24 -116 24c-77 0 -139 -53 -148 -118zM490 -5c-31 0 -61 27 -72 66c-41 -47 -91 -71 -149 -71c-42 0 -77 13 -105 38c-27 26 -41 58 -41 96
c0 6 1 16 2 29l29 202c7 45 28 82 64 111c37 29 81 44 133 44c63 0 126 -13 151 -24l18 -9l-52 -370c-1 -11 -2 -18 -2 -22c0 -25 13 -46 36 -47h4l-6 -42c-3 -1 -6 -1 -10 -1zM491 590h-260l7 45h260z" />
    <glyph glyph-name="Abreve" unicode="&#x102;" 
d="M134 274l185 426h108l65 -426l-39 -274h-52l34 239h-254l-34 -239h-52zM193 287h244l-53 365h-36zM378 800c72 0 84 63 85 71h50c-3 -20 -9 -39 -28 -67c-17 -27 -57 -46 -108 -46c-42 0 -72 10 -89 30c-17 21 -26 43 -26 68v15h49v-10c-2 -19 8 -58 67 -61z" />
    <glyph glyph-name="abreve" unicode="&#x103;" 
d="M202 349l-26 -185v-4c-1 -5 -2 -16 -2 -25c0 -61 41 -103 104 -103c38 0 71 14 100 41s45 58 50 91l38 279c-31 16 -69 24 -116 24c-77 0 -139 -53 -148 -118zM490 -5c-31 0 -61 27 -72 66c-41 -47 -91 -71 -149 -71c-42 0 -77 13 -105 38c-27 26 -41 58 -41 96
c0 6 1 16 2 29l29 202c7 45 28 82 64 111c37 29 81 44 133 44c63 0 126 -13 151 -24l18 -9l-52 -370c-1 -11 -2 -18 -2 -22c0 -25 13 -46 36 -47h4l-6 -42c-3 -1 -6 -1 -10 -1zM355 600c72 0 84 63 85 71h50c-3 -20 -9 -39 -28 -67c-17 -27 -57 -46 -108 -46
c-42 0 -72 10 -89 30c-17 21 -26 43 -26 68v15h49v-10c-2 -19 8 -58 67 -61z" />
    <glyph glyph-name="Aogonek" unicode="&#x104;" 
d="M134 274l185 426h108l65 -426l-39 -274l-9 -6c-23 -18 -82 -63 -82 -103c0 -21 13 -31 39 -31h43l-5 -40h-51c-44 0 -73 26 -73 63c0 40 36 84 65 103l21 14l34 239h-254l-34 -239h-52zM193 287h244l-53 365h-36z" />
    <glyph glyph-name="aogonek" unicode="&#x105;" 
d="M499 -140l-5 -40h-51c-44 0 -73 26 -73 63c0 29 19 63 43 84c24 20 40 32 48 36c-21 11 -36 30 -43 58c-41 -47 -91 -71 -149 -71c-42 0 -77 13 -105 38c-27 26 -41 58 -41 96c0 6 1 16 2 29l29 202c7 45 28 82 64 111c37 29 81 44 133 44c63 0 126 -13 151 -24l18 -9
l-52 -370c-1 -11 -2 -18 -2 -22c0 -25 13 -46 36 -47h4l-6 -42c-6 -4 -14 -9 -23 -16s-22 -20 -37 -39s-23 -35 -23 -50c0 -21 13 -31 39 -31h43zM202 349l-26 -185v-4c-1 -5 -2 -16 -2 -25c0 -61 41 -103 104 -103c38 0 71 14 100 41s45 58 50 91l38 279
c-31 16 -69 24 -116 24c-77 0 -139 -53 -148 -118z" />
    <glyph glyph-name="Cacute" unicode="&#x106;" 
d="M286 38c39 0 71 12 96 36c26 24 42 52 47 83l1 12h51c0 -43 -19 -84 -57 -122c-37 -38 -85 -57 -142 -57c-47 0 -85 14 -115 43c-29 29 -44 66 -44 109c0 9 1 21 3 37l50 356c7 50 29 92 65 125c37 33 82 50 136 50c45 0 83 -15 112 -44c30 -29 45 -63 45 -102l-2 -29
h-51c1 4 1 9 1 16c0 63 -41 109 -109 109c-36 0 -68 -12 -96 -37c-27 -24 -44 -54 -49 -89l-50 -361c-1 -8 -2 -17 -2 -26c0 -63 45 -109 110 -109zM503 875l-144 -122h-52l117 122h79z" />
    <glyph glyph-name="cacute" unicode="&#x107;" 
d="M285 -10c-96 0 -158 58 -158 135c0 18 1 34 3 48l26 182c6 44 26 81 61 110c35 30 79 45 132 45c47 0 85 -14 112 -42c27 -27 41 -60 41 -99v-12h-49v13c0 53 -42 97 -107 97c-73 0 -133 -51 -142 -118l-26 -183c-1 -11 -2 -22 -2 -34c0 -60 47 -99 114 -99
c71 0 129 48 141 113h48c-17 -92 -90 -156 -194 -156zM481 675l-144 -122h-52l117 122h79z" />
    <glyph glyph-name="Ccircumflex" unicode="&#x108;" 
d="M286 38c39 0 71 12 96 36c26 24 42 52 47 83l1 12h51c0 -43 -19 -84 -57 -122c-37 -38 -85 -57 -142 -57c-47 0 -85 14 -115 43c-29 29 -44 66 -44 109c0 9 1 21 3 37l50 356c7 50 29 92 65 125c37 33 82 50 136 50c45 0 83 -15 112 -44c30 -29 45 -63 45 -102l-2 -29
h-51c1 4 1 9 1 16c0 63 -41 109 -109 109c-36 0 -68 -12 -96 -37c-27 -24 -44 -54 -49 -89l-50 -361c-1 -8 -2 -17 -2 -26c0 -63 45 -109 110 -109zM434 875l71 -122h-51l-58 86l-84 -86h-53l108 122h67z" />
    <glyph glyph-name="ccircumflex" unicode="&#x109;" 
d="M285 -10c-96 0 -158 58 -158 135c0 18 1 34 3 48l26 182c6 44 26 81 61 110c35 30 79 45 132 45c47 0 85 -14 112 -42c27 -27 41 -60 41 -99v-12h-49v13c0 53 -42 97 -107 97c-73 0 -133 -51 -142 -118l-26 -183c-1 -11 -2 -22 -2 -34c0 -60 47 -99 114 -99
c71 0 129 48 141 113h48c-17 -92 -90 -156 -194 -156zM404 675l71 -122h-51l-58 86l-84 -86h-53l108 122h67z" />
    <glyph glyph-name="Cdotaccent" unicode="&#x10a;" 
d="M286 38c39 0 71 12 96 36c26 24 42 52 47 83l1 12h51c0 -43 -19 -84 -57 -122c-37 -38 -85 -57 -142 -57c-47 0 -85 14 -115 43c-29 29 -44 66 -44 109c0 9 1 21 3 37l50 356c7 50 29 92 65 125c37 33 82 50 136 50c45 0 83 -15 112 -44c30 -29 45 -63 45 -102l-2 -29
h-51c1 4 1 9 1 16c0 63 -41 109 -109 109c-36 0 -68 -12 -96 -37c-27 -24 -44 -54 -49 -89l-50 -361c-1 -8 -2 -17 -2 -26c0 -63 45 -109 110 -109zM420 797h-66l10 70h66z" />
    <glyph glyph-name="cdotaccent" unicode="&#x10b;" 
d="M285 -10c-96 0 -158 58 -158 135c0 18 1 34 3 48l26 182c6 44 26 81 61 110c35 30 79 45 132 45c47 0 85 -14 112 -42c27 -27 41 -60 41 -99v-12h-49v13c0 53 -42 97 -107 97c-73 0 -133 -51 -142 -118l-26 -183c-1 -11 -2 -22 -2 -34c0 -60 47 -99 114 -99
c71 0 129 48 141 113h48c-17 -92 -90 -156 -194 -156zM392 597h-66l10 70h66z" />
    <glyph glyph-name="Ccaron" unicode="&#x10c;" 
d="M286 38c39 0 71 12 96 36c26 24 42 52 47 83l1 12h51c0 -43 -19 -84 -57 -122c-37 -38 -85 -57 -142 -57c-47 0 -85 14 -115 43c-29 29 -44 66 -44 109c0 9 1 21 3 37l50 356c7 50 29 92 65 125c37 33 82 50 136 50c45 0 83 -15 112 -44c30 -29 45 -63 45 -102l-2 -29
h-51c1 4 1 9 1 16c0 63 -41 109 -109 109c-36 0 -68 -12 -96 -37c-27 -24 -44 -54 -49 -89l-50 -361c-1 -8 -2 -17 -2 -26c0 -63 45 -109 110 -109zM341 753l-70 122h51l58 -86l83 86h53l-108 -122h-67z" />
    <glyph glyph-name="ccaron" unicode="&#x10d;" 
d="M285 -10c-96 0 -158 58 -158 135c0 18 1 34 3 48l26 182c6 44 26 81 61 110c35 30 79 45 132 45c47 0 85 -14 112 -42c27 -27 41 -60 41 -99v-12h-49v13c0 53 -42 97 -107 97c-73 0 -133 -51 -142 -118l-26 -183c-1 -11 -2 -22 -2 -34c0 -60 47 -99 114 -99
c71 0 129 48 141 113h48c-17 -92 -90 -156 -194 -156zM316 553l-70 122h51l58 -86l83 86h53l-108 -122h-67z" />
    <glyph glyph-name="Dcaron" unicode="&#x10e;" 
d="M279 0h-173l98 700h165c96 0 159 -63 159 -152l-2 -31l-48 -341c-7 -51 -29 -94 -65 -127s-81 -49 -134 -49zM426 179l47 336c1 7 2 16 2 27c0 63 -45 108 -110 108h-116l-84 -602h116c36 0 68 12 96 37s44 57 49 94zM331 753l-70 122h51l58 -86l83 86h53l-108 -122h-67z
" />
    <glyph glyph-name="dcaron" unicode="&#x10f;" 
d="M422 0h-46l6 55c-4 -5 -10 -11 -17 -18s-24 -17 -49 -29s-51 -18 -79 -18c-42 0 -77 13 -105 38c-27 26 -41 58 -41 96c0 6 1 16 2 29l29 202c6 44 27 81 62 110s78 44 127 44c55 0 97 -21 125 -64l36 255h49zM396 161l26 188c1 3 1 8 1 15c0 57 -47 103 -115 103
c-33 0 -64 -12 -91 -35s-42 -51 -47 -83l-26 -185v-4c-1 -5 -2 -16 -2 -25c0 -60 41 -103 104 -103c38 0 71 14 100 41c29 28 46 57 50 88zM714 700l-100 -123h-43l70 123h73z" />
    <glyph glyph-name="Dcroat" unicode="&#x110;" 
d="M159 347h-63l7 45h63l43 308h165c96 0 159 -63 159 -152l-2 -31l-48 -341c-7 -51 -29 -94 -65 -127s-81 -49 -134 -49h-173zM431 179l47 336c1 7 2 16 2 27c0 63 -45 108 -110 108h-116l-36 -258h117l-7 -45h-117l-41 -299h116c36 0 68 12 96 37s44 57 49 94z" />
    <glyph glyph-name="dslash" unicode="&#x111;" 
d="M445 0h-46l6 55c-4 -5 -10 -11 -17 -18s-24 -17 -49 -29s-51 -18 -79 -18c-42 0 -77 13 -105 38c-27 26 -41 58 -41 96c0 6 1 16 2 29l29 202c6 44 27 81 62 110s78 44 127 44c55 0 97 -21 125 -64l18 130h-128l6 43h128l12 82h49l-12 -82h60l-6 -43h-60zM419 161l26 188
c1 3 1 8 1 15c0 57 -47 103 -115 103c-33 0 -64 -12 -91 -35s-42 -51 -47 -83l-26 -185l-1 -4c0 -5 -1 -16 -1 -25c0 -60 41 -103 104 -103c38 0 71 14 100 41c29 28 46 57 50 88z" />
    <glyph glyph-name="Emacron" unicode="&#x112;" 
d="M123 0l98 700h314l-6 -48h-262l-37 -258h238l-6 -48h-238l-42 -298h271l-7 -48h-323zM517 790h-260l7 45h260z" />
    <glyph glyph-name="emacron" unicode="&#x113;" 
d="M288 33c40 0 92 11 116 19l19 6l-5 -45c-34 -15 -78 -23 -131 -23c-96 0 -159 58 -159 137c0 11 1 25 3 42l26 186c6 44 27 81 62 110c36 30 81 45 134 45c44 0 80 -13 108 -39s42 -56 42 -91c0 -11 -1 -24 -2 -40c-5 -60 -51 -92 -134 -117l-188 -58
c-1 -15 -2 -25 -2 -32c0 -59 46 -100 111 -100zM205 349l-19 -135l189 58c48 14 74 37 78 70c1 15 2 24 2 29c0 52 -45 96 -108 96c-73 0 -133 -53 -142 -118zM474 590h-260l7 45h260z" />
    <glyph glyph-name="Ebreve" unicode="&#x114;" 
d="M123 0l98 700h314l-6 -48h-262l-37 -258h238l-6 -48h-238l-42 -298h271l-7 -48h-323zM383 800c72 0 84 63 85 71h50c-3 -20 -9 -39 -28 -67c-17 -27 -57 -46 -108 -46c-42 0 -72 10 -89 30c-17 21 -26 43 -26 68v15h49v-10c-2 -19 8 -58 67 -61z" />
    <glyph glyph-name="ebreve" unicode="&#x115;" 
d="M288 33c40 0 92 11 116 19l19 6l-5 -45c-34 -15 -78 -23 -131 -23c-96 0 -159 58 -159 137c0 11 1 25 3 42l26 186c6 44 27 81 62 110c36 30 81 45 134 45c44 0 80 -13 108 -39s42 -56 42 -91c0 -11 -1 -24 -2 -40c-5 -60 -51 -92 -134 -117l-188 -58
c-1 -15 -2 -25 -2 -32c0 -59 46 -100 111 -100zM205 349l-19 -135l189 58c48 14 74 37 78 70c1 15 2 24 2 29c0 52 -45 96 -108 96c-73 0 -133 -53 -142 -118zM338 600c72 0 84 63 85 71h50c-3 -20 -9 -39 -28 -67c-17 -27 -57 -46 -108 -46c-42 0 -72 10 -89 30
c-17 21 -26 43 -26 68v15h49v-10c-2 -19 8 -58 67 -61z" />
    <glyph glyph-name="Edotaccent" unicode="&#x116;" 
d="M123 0l98 700h314l-6 -48h-262l-37 -258h238l-6 -48h-238l-42 -298h271l-7 -48h-323zM421 797h-66l10 70h66z" />
    <glyph glyph-name="edotaccent" unicode="&#x117;" 
d="M288 33c40 0 92 11 116 19l19 6l-5 -45c-34 -15 -78 -23 -131 -23c-96 0 -159 58 -159 137c0 11 1 25 3 42l26 186c6 44 27 81 62 110c36 30 81 45 134 45c44 0 80 -13 108 -39s42 -56 42 -91c0 -11 -1 -24 -2 -40c-5 -60 -51 -92 -134 -117l-188 -58
c-1 -15 -2 -25 -2 -32c0 -59 46 -100 111 -100zM205 349l-19 -135l189 58c48 14 74 37 78 70c1 15 2 24 2 29c0 52 -45 96 -108 96c-73 0 -133 -53 -142 -118zM376 597h-66l10 70h66z" />
    <glyph glyph-name="Eogonek" unicode="&#x118;" 
d="M123 0l98 700h314l-6 -48h-262l-37 -258h238l-6 -48h-238l-42 -298h271l-7 -48l-25 -18c-10 -7 -23 -21 -40 -40s-25 -36 -25 -51c0 -21 13 -31 39 -31h43l-5 -40h-51c-44 0 -73 26 -73 63c0 53 55 98 78 111l9 6h-273z" />
    <glyph glyph-name="eogonek" unicode="&#x119;" 
d="M288 33c40 0 92 11 116 19l19 6l-5 -45l-32 -19c-12 -8 -28 -23 -49 -44s-31 -41 -31 -59c0 -21 13 -31 39 -31h43l-5 -40h-51c-44 0 -73 26 -73 63c0 39 25 75 75 110c-28 -2 -44 -3 -47 -3c-96 0 -159 58 -159 137c0 11 1 25 3 42l26 186c6 44 27 81 62 110
c36 30 81 45 134 45c44 0 80 -13 108 -39s42 -56 42 -91c0 -11 -1 -24 -2 -40c-5 -60 -51 -92 -134 -117l-188 -58c-1 -15 -2 -25 -2 -32c0 -59 46 -100 111 -100zM205 349l-19 -135l189 58c48 14 74 37 78 70c1 15 2 24 2 29c0 52 -45 96 -108 96c-73 0 -133 -53 -142 -118
z" />
    <glyph glyph-name="Ecaron" unicode="&#x11a;" 
d="M123 0l98 700h314l-6 -48h-262l-37 -258h238l-6 -48h-238l-42 -298h271l-7 -48h-323zM340 753l-70 122h51l58 -86l83 86h53l-108 -122h-67z" />
    <glyph glyph-name="ecaron" unicode="&#x11b;" 
d="M288 33c40 0 92 11 116 19l19 6l-5 -45c-34 -15 -78 -23 -131 -23c-96 0 -159 58 -159 137c0 11 1 25 3 42l26 186c6 44 27 81 62 110c36 30 81 45 134 45c44 0 80 -13 108 -39s42 -56 42 -91c0 -11 -1 -24 -2 -40c-5 -60 -51 -92 -134 -117l-188 -58
c-1 -15 -2 -25 -2 -32c0 -59 46 -100 111 -100zM205 349l-19 -135l189 58c48 14 74 37 78 70c1 15 2 24 2 29c0 52 -45 96 -108 96c-73 0 -133 -53 -142 -118zM308 553l-70 122h51l58 -86l83 86h53l-108 -122h-67z" />
    <glyph glyph-name="Gcircumflex" unicode="&#x11c;" 
d="M356 343h156l-25 -178c-15 -101 -91 -175 -204 -175c-50 0 -90 14 -121 43c-30 29 -45 65 -45 108c0 12 1 25 3 39l50 355c7 51 30 93 67 126s84 49 139 49c101 0 164 -63 164 -150l-2 -25h-51c1 4 1 9 1 15c0 65 -43 110 -115 110c-80 0 -140 -55 -151 -131l-51 -357
c-1 -9 -2 -18 -2 -26c0 -64 44 -108 116 -108c84 0 140 52 151 129l17 128h-104zM430 875l71 -122h-51l-58 86l-84 -86h-53l108 122h67z" />
    <glyph glyph-name="gcircumflex" unicode="&#x11d;" 
d="M351 510c57 0 121 -13 149 -24l20 -7l-72 -515c-6 -44 -27 -81 -63 -110c-35 -29 -80 -44 -133 -44c-80 0 -135 39 -135 100c0 46 22 82 67 107l61 34l25 11c-6 -1 -11 -1 -14 -1c-35 0 -64 13 -88 38c-24 26 -36 56 -36 91c0 8 2 21 2 30l1 6l18 126c7 45 28 83 64 113
s81 45 134 45zM201 346l-16 -116l-1 -4c0 -5 -1 -16 -1 -25c0 -59 41 -103 105 -103c34 0 66 14 96 41c31 28 48 58 53 91l29 213c-36 16 -77 24 -122 24c-37 0 -69 -12 -96 -36c-27 -23 -42 -52 -47 -85zM401 -29l23 159c-15 -27 -37 -48 -67 -64l-145 -79
c-31 -17 -46 -40 -46 -68c0 -39 34 -68 91 -68c37 0 69 12 96 36c27 23 43 51 48 84zM410 675l71 -122h-51l-58 86l-84 -86h-53l108 122h67z" />
    <glyph glyph-name="Gbreve" unicode="&#x11e;" 
d="M356 343h156l-25 -178c-15 -101 -91 -175 -204 -175c-50 0 -90 14 -121 43c-30 29 -45 65 -45 108c0 12 1 25 3 39l50 355c7 51 30 93 67 126s84 49 139 49c101 0 164 -63 164 -150l-2 -25h-51c1 4 1 9 1 15c0 65 -43 110 -115 110c-80 0 -140 -55 -151 -131l-51 -357
c-1 -9 -2 -18 -2 -26c0 -64 44 -108 116 -108c84 0 140 52 151 129l17 128h-104zM380 800c72 0 84 63 85 71h50c-3 -20 -9 -39 -28 -67c-17 -27 -57 -46 -108 -46c-42 0 -72 10 -89 30c-17 21 -26 43 -26 68v15h49v-10c-2 -19 8 -58 67 -61z" />
    <glyph glyph-name="gbreve" unicode="&#x11f;" 
d="M351 510c57 0 121 -13 149 -24l20 -7l-72 -515c-6 -44 -27 -81 -63 -110c-35 -29 -80 -44 -133 -44c-80 0 -135 39 -135 100c0 46 22 82 67 107l61 34l25 11c-6 -1 -11 -1 -14 -1c-35 0 -64 13 -88 38c-24 26 -36 56 -36 91c0 8 2 21 2 30l1 6l18 126c7 45 28 83 64 113
s81 45 134 45zM201 346l-16 -116l-1 -4c0 -5 -1 -16 -1 -25c0 -59 41 -103 105 -103c34 0 66 14 96 41c31 28 48 58 53 91l29 213c-36 16 -77 24 -122 24c-37 0 -69 -12 -96 -36c-27 -23 -42 -52 -47 -85zM401 -29l23 159c-15 -27 -37 -48 -67 -64l-145 -79
c-31 -17 -46 -40 -46 -68c0 -39 34 -68 91 -68c37 0 69 12 96 36c27 23 43 51 48 84zM361 600c72 0 84 63 85 71h50c-3 -20 -9 -39 -28 -67c-17 -27 -57 -46 -108 -46c-42 0 -72 10 -89 30c-17 21 -26 43 -26 68v15h49v-10c-2 -19 8 -58 67 -61z" />
    <glyph glyph-name="Gdotaccent" unicode="&#x120;" 
d="M356 343h156l-25 -178c-15 -101 -91 -175 -204 -175c-50 0 -90 14 -121 43c-30 29 -45 65 -45 108c0 12 1 25 3 39l50 355c7 51 30 93 67 126s84 49 139 49c101 0 164 -63 164 -150l-2 -25h-51c1 4 1 9 1 15c0 65 -43 110 -115 110c-80 0 -140 -55 -151 -131l-51 -357
c-1 -9 -2 -18 -2 -26c0 -64 44 -108 116 -108c84 0 140 52 151 129l17 128h-104zM422 797h-66l10 70h66z" />
    <glyph glyph-name="gdotaccent" unicode="&#x121;" 
d="M351 510c57 0 121 -13 149 -24l20 -7l-72 -515c-6 -44 -27 -81 -63 -110c-35 -29 -80 -44 -133 -44c-80 0 -135 39 -135 100c0 46 22 82 67 107l61 34l25 11c-6 -1 -11 -1 -14 -1c-35 0 -64 13 -88 38c-24 26 -36 56 -36 91c0 8 2 21 2 30l1 6l18 126c7 45 28 83 64 113
s81 45 134 45zM201 346l-16 -116l-1 -4c0 -5 -1 -16 -1 -25c0 -59 41 -103 105 -103c34 0 66 14 96 41c31 28 48 58 53 91l29 213c-36 16 -77 24 -122 24c-37 0 -69 -12 -96 -36c-27 -23 -42 -52 -47 -85zM401 -29l23 159c-15 -27 -37 -48 -67 -64l-145 -79
c-31 -17 -46 -40 -46 -68c0 -39 34 -68 91 -68c37 0 69 12 96 36c27 23 43 51 48 84zM401 597h-66l10 70h66z" />
    <glyph glyph-name="Gcommaaccent" unicode="&#x122;" 
d="M356 343h156l-25 -178c-15 -101 -91 -175 -204 -175c-50 0 -90 14 -121 43c-30 29 -45 65 -45 108c0 12 1 25 3 39l50 355c7 51 30 93 67 126s84 49 139 49c101 0 164 -63 164 -150l-2 -25h-51c1 4 1 9 1 15c0 65 -43 110 -115 110c-80 0 -140 -55 -151 -131l-51 -357
c-1 -9 -2 -18 -2 -26c0 -64 44 -108 116 -108c84 0 140 52 151 129l17 128h-104zM325 -50l-100 -123h-43l70 123h73z" />
    <glyph glyph-name="gcommaaccent" unicode="&#x123;" 
d="M351 510c57 0 121 -13 149 -24l20 -7l-72 -515c-6 -44 -27 -81 -63 -110c-35 -29 -80 -44 -133 -44c-80 0 -135 39 -135 100c0 46 22 82 67 107l61 34l25 11c-6 -1 -11 -1 -14 -1c-35 0 -64 13 -88 38c-24 26 -36 56 -36 91c0 8 2 21 2 30l1 6l18 126c7 45 28 83 64 113
s81 45 134 45zM201 346l-16 -116l-1 -4c0 -5 -1 -16 -1 -25c0 -59 41 -103 105 -103c34 0 66 14 96 41c31 28 48 58 53 91l29 213c-36 16 -77 24 -122 24c-37 0 -69 -12 -96 -36c-27 -23 -42 -52 -47 -85zM401 -29l23 159c-15 -27 -37 -48 -67 -64l-145 -79
c-31 -17 -46 -40 -46 -68c0 -39 34 -68 91 -68c37 0 69 12 96 36c27 23 43 51 48 84zM332 554l100 123h43l-70 -123h-73z" />
    <glyph glyph-name="Hcircumflex" unicode="&#x124;" 
d="M457 394l43 306h52l-98 -700h-52l49 346h-254l-49 -346h-52l98 700h52l-43 -306h254zM434 875l71 -122h-51l-58 86l-84 -86h-53l108 122h67z" />
    <glyph glyph-name="hcircumflex" unicode="&#x125;" 
d="M503 347l-48 -347h-49l48 340c1 11 2 19 2 26c0 64 -37 102 -104 102c-37 0 -70 -12 -99 -35s-46 -51 -51 -83l-49 -350h-49l98 700h49l-36 -256c3 4 5 8 24 23c27 19 65 43 121 43c91 0 145 -56 145 -136c0 -5 -1 -14 -2 -27zM413 876l71 -122h-51l-58 86l-84 -86h-53
l108 122h67z" />
    <glyph glyph-name="Hbar" unicode="&#x126;" 
d="M481 567l19 133h52l-19 -133h53l-7 -46h-52l-73 -521h-52l49 346h-254l-49 -346h-52l73 521h-50l7 46h49l19 133h52l-19 -133h254zM221 521l-18 -127h254l18 127h-254z" />
    <glyph glyph-name="hbar" unicode="&#x127;" 
d="M184 575h-58l7 43h57l12 82h49l-12 -82h128l-7 -43h-127l-20 -140c3 4 5 8 24 23c27 19 65 43 121 43c91 0 145 -56 145 -136c0 -5 -1 -14 -2 -27l-46 -338h-49l46 331c1 11 2 19 2 26c0 64 -37 102 -104 102c-37 0 -70 -12 -99 -35s-46 -51 -51 -83l-47 -341h-49z" />
    <glyph glyph-name="Itilde" unicode="&#x128;" 
d="M342 652h-156l6 48h362l-6 -48h-154l-85 -604h154l-7 -48h-362l7 48h156zM340 859c18 0 38 -7 61 -21s41 -21 52 -21c19 0 34 14 37 35l1 7h45v-7c-1 -45 -43 -79 -86 -79c-19 0 -40 7 -63 21s-40 21 -51 21c-20 0 -35 -14 -38 -34l-1 -8h-45v8c3 47 44 78 88 78z" />
    <glyph glyph-name="itilde" unicode="&#x129;" 
d="M343 659c18 0 38 -7 61 -21s41 -21 52 -21c19 0 34 14 37 35l1 7h45v-7c-1 -45 -43 -79 -86 -79c-19 0 -40 7 -63 21s-40 21 -51 21c-20 0 -35 -14 -38 -34l-1 -8h-45v8c3 47 44 78 88 78zM192 457l6 43h210l-64 -457h142l-6 -43h-352l6 43h160l58 414h-160z" />
    <glyph glyph-name="Imacron" unicode="&#x12a;" 
d="M342 652h-156l6 48h362l-6 -48h-154l-85 -604h154l-7 -48h-362l7 48h156zM520 790h-260l7 45h260z" />
    <glyph glyph-name="imacron" unicode="&#x12b;" 
d="M192 457l6 43h210l-64 -457h142l-6 -43h-352l6 43h160l58 414h-160zM523 590h-260l7 45h260z" />
    <glyph glyph-name="Ibreve" unicode="&#x12c;" 
d="M342 652h-156l6 48h362l-6 -48h-154l-85 -604h154l-7 -48h-362l7 48h156zM380 800c72 0 84 63 85 71h50c-3 -20 -9 -39 -28 -67c-17 -27 -57 -46 -108 -46c-42 0 -72 10 -89 30c-17 21 -26 43 -26 68v15h49v-10c-2 -19 8 -58 67 -61z" />
    <glyph glyph-name="ibreve" unicode="&#x12d;" 
d="M385 600c72 0 84 63 85 71h50c-3 -20 -9 -39 -28 -67c-17 -27 -57 -46 -108 -46c-42 0 -72 10 -89 30c-17 21 -26 43 -26 68v15h49v-10c-2 -19 8 -58 67 -61zM192 457l6 43h210l-64 -457h142l-6 -43h-352l6 43h160l58 414h-160z" />
    <glyph glyph-name="Iogonek" unicode="&#x12e;" 
d="M342 652h-156l6 48h362l-6 -48h-154l-85 -604h154l-7 -48l-25 -18c-10 -7 -23 -21 -40 -40s-25 -36 -25 -51c0 -21 13 -31 39 -31h43l-5 -40h-51c-44 0 -73 26 -73 63c0 53 55 98 78 111l9 6h-312l7 48h156z" />
    <glyph glyph-name="iogonek" unicode="&#x12f;" 
d="M192 457l6 43h210l-64 -457h142l-6 -43l-25 -18c-10 -7 -23 -21 -40 -40s-25 -36 -25 -51c0 -21 13 -31 39 -31h43l-5 -40h-51c-44 0 -73 26 -73 63c0 53 55 98 78 111l9 6h-302l6 43h160l58 414h-160zM427 597h-66l10 70h66z" />
    <glyph glyph-name="Idot" unicode="&#x130;" 
d="M342 652h-156l6 48h362l-6 -48h-154l-85 -604h154l-7 -48h-362l7 48h156zM422 797h-66l10 70h66z" />
    <glyph glyph-name="dotlessi" unicode="&#x131;" 
d="M192 457l6 43h210l-64 -457h142l-6 -43h-352l6 43h160l58 414h-160z" />
    <glyph glyph-name="IJ" unicode="&#x132;" 
d="M227 48l-7 -48h-214l7 48h80l85 604h-80l7 48h214l-7 -48h-82l-85 -604h82zM283 184h50l-7 -53c-1 -9 -2 -19 -2 -30c0 -40 24 -63 63 -63c45 0 79 31 87 87l74 527h-111l7 48h163l-81 -573c-12 -85 -63 -137 -142 -137c-65 0 -111 42 -111 105c0 9 1 19 2 31z" />
    <glyph glyph-name="ij" unicode="&#x133;" horiz-adv-x="601" 
d="M399 500h140l-80 -573c-9 -68 -57 -117 -129 -117c-59 0 -106 43 -106 94l2 23h48c-1 -9 -2 -17 -2 -22c0 -29 26 -54 59 -54c41 0 70 29 77 72l75 534h-90zM111 457l6 43h140l-64 -457h88l-6 -43h-228l6 43h90l58 414h-90zM276 597h-66l10 70h66zM555 597h-64l10 70h64z
" />
    <glyph glyph-name="Jcircumflex" unicode="&#x134;" 
d="M419 165l69 487h-271l7 48h323l-75 -534c-7 -50 -29 -92 -65 -126c-36 -33 -80 -50 -132 -50c-97 0 -162 63 -162 151c0 9 1 20 1 25l1 5l8 57h52l-9 -64v-4c0 -4 -1 -10 -1 -14c0 -63 46 -108 110 -108c36 0 68 12 95 36c27 25 44 55 49 91zM456 875l71 -122h-51l-58 86
l-84 -86h-53l108 122h67z" />
    <glyph glyph-name="jcircumflex" unicode="&#x135;" 
d="M341 -27l24 171l-30 -22l-161 -96c-47 -28 -70 -63 -70 -104s34 -71 93 -71c79 0 135 54 144 122zM254 500h210l-75 -534c-6 -44 -27 -81 -63 -111c-35 -30 -80 -45 -134 -45c-83 0 -135 41 -135 113c0 55 29 99 88 134l192 115l35 27l36 258h-160zM423 675l71 -122h-51
l-58 86l-84 -86h-53l108 122h67z" />
    <glyph glyph-name="Kcommaaccent" unicode="&#x136;" 
d="M213 700h52l-45 -324l289 324h64l-299 -331l215 -369h-60l-211 365l-51 -365h-52zM320 -50l-100 -123h-43l70 123h73z" />
    <glyph glyph-name="kcommaaccent" unicode="&#x137;" 
d="M487 0h-63l-187 259l-36 -259h-48l98 700h48l-60 -427l237 227h65l-249 -235zM323 -50l-100 -123h-43l70 123h73z" />
    <glyph glyph-name="kgreenlandic" unicode="&#x138;" 
d="M487 0h-63l-187 259l-36 -259h-48l70 500h48l-32 -227l237 227h65l-249 -235z" />
    <glyph glyph-name="Lacute" unicode="&#x139;" 
d="M130 0l98 700h52l-91 -652h291l-7 -48h-343zM464 875l-144 -122h-52l117 122h79z" />
    <glyph glyph-name="lacute" unicode="&#x13a;" 
d="M241 657l6 43h161l-92 -657h152l-6 -43h-344l6 43h142l86 614h-111zM527 874l-144 -122h-52l117 122h79z" />
    <glyph glyph-name="Lcommaaccent" unicode="&#x13b;" 
d="M130 0l98 700h52l-91 -652h291l-7 -48h-343zM334 -50l-100 -123h-43l70 123h73z" />
    <glyph glyph-name="lcommaaccent" unicode="&#x13c;" 
d="M241 657l6 43h161l-92 -657h152l-6 -43h-344l6 43h142l86 614h-111zM322 -50l-100 -123h-43l70 123h73z" />
    <glyph glyph-name="Lcaron" unicode="&#x13d;" 
d="M130 0l98 700h52l-91 -652h291l-7 -48h-343zM572 700l-100 -123h-43l70 123h73z" />
    <glyph glyph-name="lcaron" unicode="&#x13e;" 
d="M241 657l6 43h161l-92 -657h152l-6 -43h-344l6 43h142l86 614h-111zM644 700l-100 -123h-43l70 123h73z" />
    <glyph glyph-name="Ldot" unicode="&#x13f;" 
d="M130 0l98 700h52l-91 -652h291l-7 -48h-343zM504 330h-70l10 70h70z" />
    <glyph glyph-name="ldot" unicode="&#x140;" 
d="M241 657l6 43h161l-92 -657h152l-6 -43h-344l6 43h142l86 614h-111zM560 258h-70l10 70h70z" />
    <glyph glyph-name="Lslash" unicode="&#x141;" 
d="M240 368l163 88l-8 -52l-163 -88l-37 -268h290l-7 -48h-342l40 286l-67 -36l7 52l67 36l51 362h52z" />
    <glyph glyph-name="lslash" unicode="&#x142;" 
d="M302 337l-81 -43l7 46l81 43l38 274h-111l6 43h161l-40 -289l107 57l-7 -46l-107 -56l-45 -323h152l-6 -43h-344l6 43h142z" />
    <glyph glyph-name="Nacute" unicode="&#x143;" 
d="M422 138l79 562h51l-98 -700h-65l-148 566l-7 61l-3 -1l-5 -64l-79 -562h-51l98 700h65l147 -566l8 -61l3 1zM506 875l-144 -122h-52l117 122h79z" />
    <glyph glyph-name="nacute" unicode="&#x144;" 
d="M507 347l-48 -347h-49l48 340c1 11 2 20 2 28c0 64 -37 100 -104 100c-37 0 -70 -12 -99 -35s-46 -51 -51 -83l-49 -350h-49l70 500h48l-7 -56c3 4 5 8 24 23c27 19 65 43 121 43c91 0 145 -56 145 -136c0 -5 -1 -14 -2 -27zM490 675l-144 -122h-52l117 122h79z" />
    <glyph glyph-name="Ncommaaccent" unicode="&#x145;" 
d="M422 138l79 562h51l-98 -700h-65l-148 566l-7 61l-3 -1l-5 -64l-79 -562h-51l98 700h65l147 -566l8 -61l3 1zM314 -50l-100 -123h-43l70 123h73z" />
    <glyph glyph-name="ncommaaccent" unicode="&#x146;" 
d="M507 347l-48 -347h-49l48 340c1 11 2 20 2 28c0 64 -37 100 -104 100c-37 0 -70 -12 -99 -35s-46 -51 -51 -83l-49 -350h-49l70 500h48l-7 -56c3 4 5 8 24 23c27 19 65 43 121 43c91 0 145 -56 145 -136c0 -5 -1 -14 -2 -27zM328 -50l-100 -123h-43l70 123h73z" />
    <glyph glyph-name="Ncaron" unicode="&#x147;" 
d="M422 138l79 562h51l-98 -700h-65l-148 566l-7 61l-3 -1l-5 -64l-79 -562h-51l98 700h65l147 -566l8 -61l3 1zM341 753l-70 122h51l58 -86l83 86h53l-108 -122h-67z" />
    <glyph glyph-name="ncaron" unicode="&#x148;" 
d="M507 347l-48 -347h-49l48 340c1 11 2 20 2 28c0 64 -37 100 -104 100c-37 0 -70 -12 -99 -35s-46 -51 -51 -83l-49 -350h-49l70 500h48l-7 -56c3 4 5 8 24 23c27 19 65 43 121 43c91 0 145 -56 145 -136c0 -5 -1 -14 -2 -27zM328 553l-70 122h51l58 -86l83 86h53
l-108 -122h-67z" />
    <glyph glyph-name="napostrophe" unicode="&#x149;" 
d="M507 347l-48 -347h-49l48 340c1 11 2 20 2 28c0 64 -37 100 -104 100c-37 0 -70 -12 -99 -35s-46 -51 -51 -83l-49 -350h-49l70 500h48l-7 -56c3 4 5 8 24 23c27 19 65 43 121 43c91 0 145 -56 145 -136c0 -5 -1 -14 -2 -27zM237 700l-100 -123h-43l70 123h73z" />
    <glyph glyph-name="Eng" unicode="&#x14a;" 
d="M394 -56l5 39l-158 577l-7 66l-4 -1l-5 -70l-78 -555h-51l98 700h65l150 -557l6 -59l3 1l5 62l78 553h51l-106 -756c-5 -37 -22 -69 -51 -94s-64 -38 -106 -38h-10l7 46h10c56 0 91 39 98 86z" />
    <glyph glyph-name="eng" unicode="&#x14b;" 
d="M411 -2l49 342c1 11 2 20 2 28c0 61 -40 100 -104 100c-37 0 -70 -12 -99 -35s-46 -51 -51 -83l-49 -350h-49l70 500h47l-6 -56c4 5 10 11 17 18s23 17 48 29c25 13 52 19 79 19c92 0 146 -55 146 -135c0 -7 -1 -16 -2 -27l-48 -347c-13 -103 -82 -145 -162 -145l5 42
c62 0 98 33 107 100z" />
    <glyph glyph-name="Omacron" unicode="&#x14c;" 
d="M532 521l-50 -356c-7 -50 -30 -92 -67 -125s-84 -50 -139 -50c-99 0 -164 64 -164 152c0 11 1 23 3 37l50 356c7 50 30 92 67 125s84 50 140 50c49 0 88 -15 118 -44s45 -65 45 -108c0 -11 -1 -23 -3 -37zM430 164l50 364c1 9 2 18 2 25c0 63 -43 109 -114 109
c-79 0 -140 -55 -151 -128l-50 -362c-1 -11 -2 -19 -2 -25c0 -63 44 -109 115 -109c79 0 139 54 150 126zM513 790h-260l7 45h260z" />
    <glyph glyph-name="omacron" unicode="&#x14d;" 
d="M351 510c95 0 158 -58 158 -135c0 -18 -1 -34 -3 -48l-26 -182c-6 -44 -27 -81 -62 -111c-35 -29 -78 -44 -131 -44c-96 0 -160 58 -160 135c0 18 1 34 3 48l26 182c6 44 27 81 62 110c35 30 80 45 133 45zM290 33c73 0 133 51 142 118l26 183c1 11 2 22 2 34
c0 60 -47 99 -114 99c-73 0 -133 -51 -142 -118l-26 -183c-1 -11 -2 -22 -2 -34c0 -60 47 -99 114 -99zM490 590h-260l7 45h260z" />
    <glyph glyph-name="Obreve" unicode="&#x14e;" 
d="M532 521l-50 -356c-7 -50 -30 -92 -67 -125s-84 -50 -139 -50c-99 0 -164 64 -164 152c0 11 1 23 3 37l50 356c7 50 30 92 67 125s84 50 140 50c49 0 88 -15 118 -44s45 -65 45 -108c0 -11 -1 -23 -3 -37zM430 164l50 364c1 9 2 18 2 25c0 63 -43 109 -114 109
c-79 0 -140 -55 -151 -128l-50 -362c-1 -11 -2 -19 -2 -25c0 -63 44 -109 115 -109c79 0 139 54 150 126zM377 800c72 0 84 63 85 71h50c-3 -20 -9 -39 -28 -67c-17 -27 -57 -46 -108 -46c-42 0 -72 10 -89 30c-17 21 -26 43 -26 68v15h49v-10c-2 -19 8 -58 67 -61z" />
    <glyph glyph-name="obreve" unicode="&#x14f;" 
d="M351 510c95 0 158 -58 158 -135c0 -18 -1 -34 -3 -48l-26 -182c-6 -44 -27 -81 -62 -111c-35 -29 -78 -44 -131 -44c-96 0 -160 58 -160 135c0 18 1 34 3 48l26 182c6 44 27 81 62 110c35 30 80 45 133 45zM290 33c73 0 133 51 142 118l26 183c1 11 2 22 2 34
c0 60 -47 99 -114 99c-73 0 -133 -51 -142 -118l-26 -183c-1 -11 -2 -22 -2 -34c0 -60 47 -99 114 -99zM356 600c72 0 84 63 85 71h50c-3 -20 -9 -39 -28 -67c-17 -27 -57 -46 -108 -46c-42 0 -72 10 -89 30c-17 21 -26 43 -26 68v15h49v-10c-2 -19 8 -58 67 -61z" />
    <glyph glyph-name="Ohungarumlaut" unicode="&#x150;" 
d="M532 521l-50 -356c-7 -50 -30 -92 -67 -125s-84 -50 -139 -50c-99 0 -164 64 -164 152c0 11 1 23 3 37l50 356c7 50 30 92 67 125s84 50 140 50c49 0 88 -15 118 -44s45 -65 45 -108c0 -11 -1 -23 -3 -37zM430 164l50 364c1 9 2 18 2 25c0 63 -43 109 -114 109
c-79 0 -140 -55 -151 -128l-50 -362c-1 -11 -2 -19 -2 -25c0 -63 44 -109 115 -109c79 0 139 54 150 126zM465 875l-133 -122h-46l111 122h68zM596 875l-133 -122h-46l111 122h68z" />
    <glyph glyph-name="ohungarumlaut" unicode="&#x151;" 
d="M351 510c95 0 158 -58 158 -135c0 -18 -1 -34 -3 -48l-26 -182c-6 -44 -27 -81 -62 -111c-35 -29 -78 -44 -131 -44c-96 0 -160 58 -160 135c0 18 1 34 3 48l26 182c6 44 27 81 62 110c35 30 80 45 133 45zM290 33c73 0 133 51 142 118l26 183c1 11 2 22 2 34
c0 60 -47 99 -114 99c-73 0 -133 -51 -142 -118l-26 -183c-1 -11 -2 -22 -2 -34c0 -60 47 -99 114 -99zM445 675l-133 -122h-46l111 122h68zM576 675l-133 -122h-46l111 122h68z" />
    <glyph glyph-name="OE" unicode="&#x152;" 
d="M525 48l-7 -48h-266c-99 0 -164 64 -164 152c0 11 1 23 3 37l48 336c7 50 30 92 67 125s84 50 140 50h260l-6 -48h-176l-37 -258h152l-6 -48h-152l-42 -298h186zM141 157c0 -63 44 -109 115 -109h31l84 604h-29c-79 0 -140 -55 -151 -128l-48 -342c-1 -11 -2 -19 -2 -25z
" />
    <glyph glyph-name="oe" unicode="&#x153;" 
d="M359 366l-22 -153l131 66c32 16 50 40 55 71c3 16 4 32 4 48c0 41 -26 69 -70 69c-57 0 -91 -48 -98 -101zM295 34l-7 15l-12 -17c-5 -6 -17 -15 -36 -26s-39 -16 -61 -16c-61 0 -108 45 -108 104c0 11 1 21 2 32l37 265c9 68 63 119 136 119c62 0 90 -38 98 -54l2 -6
s35 60 118 60c64 0 107 -42 107 -107c0 -14 -2 -33 -5 -58c-8 -55 -41 -81 -108 -117l-127 -65c-5 -31 -7 -53 -7 -64c0 -44 25 -66 75 -66c36 0 75 11 91 20l13 7l-7 -49c-32 -14 -66 -21 -101 -21c-53 0 -91 25 -100 44zM273 116l38 267c1 7 1 11 1 14c0 40 -26 70 -69 70
s-79 -35 -86 -82l-36 -255c-1 -11 -2 -20 -2 -29c0 -40 27 -68 66 -68c44 0 81 35 88 83z" />
    <glyph glyph-name="Racute" unicode="&#x154;" 
d="M451 416l19 137c1 6 1 12 1 17c0 44 -37 80 -85 80h-123l-47 -335h123c56 0 103 38 112 101zM172 0h-52l98 700h178c36 0 66 -12 90 -36c25 -23 37 -52 37 -87l-2 -30l-19 -136c-9 -64 -57 -122 -118 -137l75 -274h-55l-75 267h-120zM493 875l-144 -122h-52l117 122h79z
" />
    <glyph glyph-name="racute" unicode="&#x155;" 
d="M182 43l64 457h47l-6 -57c3 5 8 11 15 18s21 17 44 29s48 18 74 18c85 0 124 -58 124 -123v-8h-51v10c0 47 -31 80 -83 80c-29 0 -58 -12 -87 -35c-28 -23 -44 -50 -48 -79l-43 -310h199l-6 -43h-353l6 43h104zM558 675l-144 -122h-52l117 122h79z" />
    <glyph glyph-name="Rcommaaccent" unicode="&#x156;" 
d="M451 416l19 137c1 6 1 12 1 17c0 44 -37 80 -85 80h-123l-47 -335h123c56 0 103 38 112 101zM172 0h-52l98 700h178c36 0 66 -12 90 -36c25 -23 37 -52 37 -87l-2 -30l-19 -136c-9 -64 -57 -122 -118 -137l75 -274h-55l-75 267h-120zM324 -50l-100 -123h-43l70 123h73z
" />
    <glyph glyph-name="rcommaaccent" unicode="&#x157;" 
d="M182 43l64 457h47l-6 -57c3 5 8 11 15 18s21 17 44 29s48 18 74 18c85 0 124 -58 124 -123v-8h-51v10c0 47 -31 80 -83 80c-29 0 -58 -12 -87 -35c-28 -23 -44 -50 -48 -79l-43 -310h199l-6 -43h-353l6 43h104zM307 -50l-100 -123h-43l70 123h73z" />
    <glyph glyph-name="Rcaron" unicode="&#x158;" 
d="M451 416l19 137c1 6 1 12 1 17c0 44 -37 80 -85 80h-123l-47 -335h123c56 0 103 38 112 101zM172 0h-52l98 700h178c36 0 66 -12 90 -36c25 -23 37 -52 37 -87l-2 -30l-19 -136c-9 -64 -57 -122 -118 -137l75 -274h-55l-75 267h-120zM328 753l-70 122h51l58 -86l83 86h53
l-108 -122h-67z" />
    <glyph glyph-name="rcaron" unicode="&#x159;" 
d="M182 43l64 457h47l-6 -57c3 5 8 11 15 18s21 17 44 29s48 18 74 18c85 0 124 -58 124 -123v-8h-51v10c0 47 -31 80 -83 80c-29 0 -58 -12 -87 -35c-28 -23 -44 -50 -48 -79l-43 -310h199l-6 -43h-353l6 43h104zM385 553l-70 122h51l58 -86l83 86h53l-108 -122h-67z" />
    <glyph glyph-name="Sacute" unicode="&#x15a;" 
d="M528 560l-1 -25h-51c1 7 1 12 1 15c0 65 -44 112 -109 112c-38 0 -71 -13 -100 -40c-28 -27 -42 -59 -42 -97c-1 -71 65 -103 129 -146c66 -40 130 -87 130 -187c0 -55 -19 -103 -57 -143c-38 -39 -87 -59 -148 -59c-51 0 -92 14 -123 42s-46 64 -46 107c0 5 1 14 2 26
l3 24h52c-3 -20 -4 -35 -4 -45c0 -64 45 -106 116 -106c43 0 79 14 108 43s44 64 44 107c0 59 -40 105 -91 134c-74 45 -167 89 -167 192c0 57 19 104 58 141s86 55 142 55c89 0 154 -61 154 -150zM513 875l-144 -122h-52l117 122h79z" />
    <glyph glyph-name="sacute" unicode="&#x15b;" 
d="M187 128c0 -55 38 -95 103 -95c33 0 62 10 87 31s37 46 37 76c0 108 -226 89 -226 222c0 42 16 77 48 105c33 29 72 43 117 43c47 0 83 -13 106 -40c24 -26 36 -53 36 -81v-12h-50v12c-3 43 -43 78 -96 78c-28 0 -53 -9 -76 -27s-34 -40 -34 -65c0 -104 226 -76 226 -230
c0 -43 -17 -79 -51 -110c-34 -30 -75 -45 -124 -45c-100 0 -152 61 -152 130l2 20h48c-1 -4 -1 -8 -1 -12zM508 675l-144 -122h-52l117 122h79z" />
    <glyph glyph-name="Scircumflex" unicode="&#x15c;" 
d="M528 560l-1 -25h-51c1 7 1 12 1 15c0 65 -44 112 -109 112c-38 0 -71 -13 -100 -40c-28 -27 -42 -59 -42 -97c-1 -71 65 -103 129 -146c66 -40 130 -87 130 -187c0 -55 -19 -103 -57 -143c-38 -39 -87 -59 -148 -59c-51 0 -92 14 -123 42s-46 64 -46 107c0 5 1 14 2 26
l3 24h52c-3 -20 -4 -35 -4 -45c0 -64 45 -106 116 -106c43 0 79 14 108 43s44 64 44 107c0 59 -40 105 -91 134c-74 45 -167 89 -167 192c0 57 19 104 58 141s86 55 142 55c89 0 154 -61 154 -150zM429 875l71 -122h-51l-58 86l-84 -86h-53l108 122h67z" />
    <glyph glyph-name="scircumflex" unicode="&#x15d;" 
d="M187 128c0 -55 38 -95 103 -95c33 0 62 10 87 31s37 46 37 76c0 108 -226 89 -226 222c0 42 16 77 48 105c33 29 72 43 117 43c47 0 83 -13 106 -40c24 -26 36 -53 36 -81v-12h-50v12c-3 43 -43 78 -96 78c-28 0 -53 -9 -76 -27s-34 -40 -34 -65c0 -104 226 -76 226 -230
c0 -43 -17 -79 -51 -110c-34 -30 -75 -45 -124 -45c-100 0 -152 61 -152 130l2 20h48c-1 -4 -1 -8 -1 -12zM408 675l71 -122h-51l-58 86l-84 -86h-53l108 122h67z" />
    <glyph glyph-name="Scedilla" unicode="&#x15e;" 
d="M528 560l-1 -25h-51c1 7 1 12 1 15c0 65 -44 112 -109 112c-38 0 -71 -13 -100 -40c-28 -27 -42 -59 -42 -97c-1 -71 65 -103 129 -146c66 -40 130 -87 130 -187c0 -53 -18 -100 -54 -139c-35 -39 -82 -60 -139 -63l-4 -30h8c41 0 67 -24 67 -60c0 -44 -34 -80 -89 -80
h-56l5 40h51c25 0 42 16 42 36c0 16 -9 24 -28 24h-45l10 72c-87 9 -142 68 -142 147c0 5 1 14 2 26l3 24h52c-3 -20 -4 -35 -4 -45c0 -64 45 -106 116 -106c43 0 79 14 108 43s44 64 44 107c0 59 -40 105 -91 134c-74 45 -167 89 -167 192c0 57 19 104 58 141s86 55 142 55
c89 0 154 -61 154 -150z" />
    <glyph glyph-name="scedilla" unicode="&#x15f;" 
d="M187 128c0 -55 38 -95 103 -95c33 0 62 10 87 31s37 46 37 76c0 108 -226 89 -226 222c0 42 16 77 48 105c33 29 72 43 117 43c47 0 83 -13 106 -40c24 -26 36 -53 36 -81v-12h-50v12c-3 43 -43 78 -96 78c-28 0 -53 -9 -76 -27s-34 -40 -34 -65c0 -104 226 -76 226 -230
c0 -42 -17 -78 -51 -109c-33 -30 -74 -45 -122 -46l-4 -30h8c41 0 67 -24 67 -60c0 -44 -34 -80 -89 -80h-56l5 40h51c25 0 42 16 42 36c0 16 -9 24 -28 24h-45l10 73c-76 12 -115 67 -115 127l2 20h48c-1 -4 -1 -8 -1 -12z" />
    <glyph glyph-name="Scaron" unicode="&#x160;" 
d="M528 560l-1 -25h-51c1 7 1 12 1 15c0 65 -44 112 -109 112c-38 0 -71 -13 -100 -40c-28 -27 -42 -59 -42 -97c-1 -71 65 -103 129 -146c66 -40 130 -87 130 -187c0 -55 -19 -103 -57 -143c-38 -39 -87 -59 -148 -59c-51 0 -92 14 -123 42s-46 64 -46 107c0 5 1 14 2 26
l3 24h52c-3 -20 -4 -35 -4 -45c0 -64 45 -106 116 -106c43 0 79 14 108 43s44 64 44 107c0 59 -40 105 -91 134c-74 45 -167 89 -167 192c0 57 19 104 58 141s86 55 142 55c89 0 154 -61 154 -150zM333 753l-70 122h51l58 -86l83 86h53l-108 -122h-67z" />
    <glyph glyph-name="scaron" unicode="&#x161;" 
d="M187 128c0 -55 38 -95 103 -95c33 0 62 10 87 31s37 46 37 76c0 108 -226 89 -226 222c0 42 16 77 48 105c33 29 72 43 117 43c47 0 83 -13 106 -40c24 -26 36 -53 36 -81v-12h-50v12c-3 43 -43 78 -96 78c-28 0 -53 -9 -76 -27s-34 -40 -34 -65c0 -104 226 -76 226 -230
c0 -43 -17 -79 -51 -110c-34 -30 -75 -45 -124 -45c-100 0 -152 61 -152 130l2 20h48c-1 -4 -1 -8 -1 -12zM317 553l-70 122h51l58 -86l83 86h53l-108 -122h-67z" />
    <glyph glyph-name="Tcommaaccent" unicode="&#x162;" 
d="M341 652h-173l6 48h398l-6 -48h-173l-92 -652h-52zM313 -50l-100 -123h-43l70 123h73z" />
    <glyph glyph-name="tcommaaccent" unicode="&#x163;" 
d="M241 457h-77l6 43h77l19 140h48l-19 -140h242l-6 -43h-242l-43 -310c-1 -8 -2 -18 -2 -31c0 -43 31 -82 92 -82c59 0 105 44 113 91h45c-4 -35 -22 -66 -53 -94c-31 -27 -67 -41 -110 -41c-84 0 -135 56 -135 128c0 11 1 24 3 39zM353 -50l-100 -123h-43l70 123h73z" />
    <glyph glyph-name="Tcaron" unicode="&#x164;" 
d="M341 652h-173l6 48h398l-6 -48h-173l-92 -652h-52zM344 753l-70 122h51l58 -86l83 86h53l-108 -122h-67z" />
    <glyph glyph-name="tcaron" unicode="&#x165;" 
d="M241 457h-77l6 43h77l19 140h48l-19 -140h242l-6 -43h-242l-43 -310c-1 -8 -2 -18 -2 -31c0 -43 31 -82 92 -82c59 0 105 44 113 91h45c-4 -35 -22 -66 -53 -94c-31 -27 -67 -41 -110 -41c-84 0 -135 56 -135 128c0 11 1 24 3 39zM637 700l-100 -123h-43l70 123h73z" />
    <glyph glyph-name="Tbar" unicode="&#x166;" 
d="M341 652h-173l6 48h398l-6 -48h-173l-37 -259h137l-6 -46h-137l-49 -347h-52l49 347h-135l6 46h135z" />
    <glyph glyph-name="tbar" unicode="&#x167;" 
d="M241 457h-77l6 43h77l19 140h48l-19 -140h242l-6 -43h-242l-21 -154h131l-7 -42h-130l-16 -114c-1 -8 -2 -18 -2 -31c0 -43 31 -82 92 -82c59 0 105 44 113 91h45c-4 -35 -22 -66 -53 -94c-31 -27 -67 -41 -110 -41c-84 0 -135 56 -135 128c0 11 1 24 3 39l14 104h-73
l7 42h72z" />
    <glyph glyph-name="Utilde" unicode="&#x168;" 
d="M506 700h52l-76 -532c-7 -51 -29 -94 -65 -128c-35 -33 -81 -50 -136 -50c-101 0 -167 64 -167 152c0 9 1 21 3 37l72 521h52l-74 -527c-1 -11 -2 -20 -2 -28c0 -64 44 -107 116 -107c81 0 140 56 151 137zM339 859c18 0 38 -7 61 -21s41 -21 52 -21c19 0 34 14 37 35
l1 7h45v-7c-1 -45 -43 -79 -86 -79c-19 0 -40 7 -63 21s-40 21 -51 21c-20 0 -35 -14 -38 -34l-1 -8h-45v8c3 47 44 78 88 78z" />
    <glyph glyph-name="utilde" unicode="&#x169;" 
d="M128 153l48 347h49l-48 -340c-1 -11 -2 -21 -2 -32c0 -64 35 -96 104 -96c37 0 70 12 99 35s46 51 51 83l49 350h49l-70 -500h-48l7 56c-3 -4 -5 -8 -25 -23c-25 -19 -64 -43 -120 -43c-91 0 -145 56 -145 136c0 5 1 14 2 27zM317 659c18 0 38 -7 61 -21s41 -21 52 -21
c19 0 34 14 37 35l1 7h45v-7c-1 -45 -43 -79 -86 -79c-19 0 -40 7 -63 21s-40 21 -51 21c-20 0 -35 -14 -38 -34l-1 -8h-45v8c3 47 44 78 88 78z" />
    <glyph glyph-name="Umacron" unicode="&#x16a;" 
d="M506 700h52l-76 -532c-7 -51 -29 -94 -65 -128c-35 -33 -81 -50 -136 -50c-101 0 -167 64 -167 152c0 9 1 21 3 37l72 521h52l-74 -527c-1 -11 -2 -20 -2 -28c0 -64 44 -107 116 -107c81 0 140 56 151 137zM519 790h-260l7 45h260z" />
    <glyph glyph-name="umacron" unicode="&#x16b;" 
d="M128 153l48 347h49l-48 -340c-1 -11 -2 -21 -2 -32c0 -64 35 -96 104 -96c37 0 70 12 99 35s46 51 51 83l49 350h49l-70 -500h-48l7 56c-3 -4 -5 -8 -25 -23c-25 -19 -64 -43 -120 -43c-91 0 -145 56 -145 136c0 5 1 14 2 27zM497 590h-260l7 45h260z" />
    <glyph glyph-name="Ubreve" unicode="&#x16c;" 
d="M506 700h52l-76 -532c-7 -51 -29 -94 -65 -128c-35 -33 -81 -50 -136 -50c-101 0 -167 64 -167 152c0 9 1 21 3 37l72 521h52l-74 -527c-1 -11 -2 -20 -2 -28c0 -64 44 -107 116 -107c81 0 140 56 151 137zM380 800c72 0 84 63 85 71h50c-3 -20 -9 -39 -28 -67
c-17 -27 -57 -46 -108 -46c-42 0 -72 10 -89 30c-17 21 -26 43 -26 68v15h49v-10c-2 -19 8 -58 67 -61z" />
    <glyph glyph-name="ubreve" unicode="&#x16d;" 
d="M128 153l48 347h49l-48 -340c-1 -11 -2 -21 -2 -32c0 -64 35 -96 104 -96c37 0 70 12 99 35s46 51 51 83l49 350h49l-70 -500h-48l7 56c-3 -4 -5 -8 -25 -23c-25 -19 -64 -43 -120 -43c-91 0 -145 56 -145 136c0 5 1 14 2 27zM363 600c72 0 84 63 85 71h50
c-3 -20 -9 -39 -28 -67c-17 -27 -57 -46 -108 -46c-42 0 -72 10 -89 30c-17 21 -26 43 -26 68v15h49v-10c-2 -19 8 -58 67 -61z" />
    <glyph glyph-name="Uring" unicode="&#x16e;" 
d="M506 700h52l-76 -532c-7 -51 -29 -94 -65 -128c-35 -33 -81 -50 -136 -50c-101 0 -167 64 -167 152c0 9 1 21 3 37l72 521h52l-74 -527c-1 -11 -2 -20 -2 -28c0 -64 44 -107 116 -107c81 0 140 56 151 137zM386 743c-41 0 -74 31 -74 71c0 48 42 90 91 90
c40 0 74 -31 74 -71c0 -48 -40 -90 -91 -90zM390 779c28 0 48 24 48 51c0 23 -16 38 -39 38c-27 0 -48 -23 -48 -51c0 -21 18 -38 39 -38z" />
    <glyph glyph-name="uring" unicode="&#x16f;" 
d="M128 153l48 347h49l-48 -340c-1 -11 -2 -21 -2 -32c0 -64 35 -96 104 -96c37 0 70 12 99 35s46 51 51 83l49 350h49l-70 -500h-48l7 56c-3 -4 -5 -8 -25 -23c-25 -19 -64 -43 -120 -43c-91 0 -145 56 -145 136c0 5 1 14 2 27zM362 543c-41 0 -74 31 -74 71
c0 48 42 90 91 90c40 0 74 -31 74 -71c0 -48 -40 -90 -91 -90zM366 579c28 0 48 24 48 51c0 23 -16 38 -39 38c-27 0 -48 -23 -48 -51c0 -21 18 -38 39 -38z" />
    <glyph glyph-name="Uhungarumlaut" unicode="&#x170;" 
d="M506 700h52l-76 -532c-7 -51 -29 -94 -65 -128c-35 -33 -81 -50 -136 -50c-101 0 -167 64 -167 152c0 9 1 21 3 37l72 521h52l-74 -527c-1 -11 -2 -20 -2 -28c0 -64 44 -107 116 -107c81 0 140 56 151 137zM452 875l-133 -122h-46l111 122h68zM583 875l-133 -122h-46
l111 122h68z" />
    <glyph glyph-name="uhungarumlaut" unicode="&#x171;" 
d="M128 153l48 347h49l-48 -340c-1 -11 -2 -21 -2 -32c0 -64 35 -96 104 -96c37 0 70 12 99 35s46 51 51 83l49 350h49l-70 -500h-48l7 56c-3 -4 -5 -8 -25 -23c-25 -19 -64 -43 -120 -43c-91 0 -145 56 -145 136c0 5 1 14 2 27zM438 675l-133 -122h-46l111 122h68zM569 675
l-133 -122h-46l111 122h68z" />
    <glyph glyph-name="Uogonek" unicode="&#x172;" 
d="M506 700h52l-76 -532c-9 -55 -32 -99 -70 -131c-71 -63 -107 -112 -107 -146c0 -20 17 -31 37 -31h46l-5 -40h-52c-45 0 -73 24 -73 65c0 37 30 79 54 98l19 14c-17 -5 -35 -7 -54 -7c-49 0 -89 14 -119 43s-45 66 -45 109c0 9 1 21 3 37l73 521h52l-74 -527
c-1 -5 -1 -14 -1 -26c0 -64 43 -109 115 -109c79 0 139 54 150 131z" />
    <glyph glyph-name="uogonek" unicode="&#x173;" 
d="M128 153l48 347h49l-48 -340c-1 -11 -2 -21 -2 -32c0 -64 35 -96 104 -96c37 0 70 12 99 35s46 51 51 83l49 350h49l-70 -500l-25 -18c-10 -7 -23 -21 -40 -40s-25 -36 -25 -51c0 -21 13 -31 39 -31h43l-5 -40h-51c-44 0 -73 26 -73 63c0 53 56 98 80 111l9 6l7 56
c-3 -4 -5 -8 -25 -23c-25 -19 -64 -43 -120 -43c-91 0 -145 56 -145 136c0 5 1 14 2 27z" />
    <glyph glyph-name="Wcircumflex" unicode="&#x174;" 
d="M400 48l87 377l38 275h52l-39 -278l-101 -422h-96l-18 315h-9l-107 -315h-95l17 422l39 278h52l-38 -275l-19 -377h14l115 332h72l22 -332h14zM428 875l71 -122h-51l-58 86l-84 -86h-53l108 122h67z" />
    <glyph glyph-name="wcircumflex" unicode="&#x175;" 
d="M328 500h49l-52 -379l-1 -4c0 -5 -1 -16 -1 -25c0 -32 28 -60 61 -60c52 0 84 39 95 116l32 216c1 11 2 22 2 33c0 37 -16 59 -48 66l6 42c53 -3 91 -37 91 -108c0 -10 -1 -23 -3 -39l-31 -210c-16 -105 -63 -158 -142 -158c-43 0 -78 22 -89 39l-8 13l-12 -15
c-5 -5 -16 -13 -35 -23c-18 -9 -38 -14 -59 -14c-61 0 -103 43 -103 103c0 6 1 19 3 39l50 368h50l-53 -381c-1 -9 -2 -18 -2 -28c0 -31 23 -59 60 -59c40 0 80 36 85 80zM414 675l71 -122h-51l-58 86l-84 -86h-53l108 122h67z" />
    <glyph glyph-name="Ycircumflex" unicode="&#x176;" 
d="M170 700h58l103 -306l188 306h57l-228 -368l-47 -332h-52l47 333zM428 875l71 -122h-51l-58 86l-84 -86h-53l108 122h67z" />
    <glyph glyph-name="ycircumflex" unicode="&#x177;" 
d="M127 220l1 6l39 274h49l-38 -270v-4c-1 -5 -2 -16 -2 -25c0 -59 41 -103 105 -103c34 0 66 14 96 41c31 28 48 58 53 91l38 270h49l-76 -536c-6 -44 -27 -81 -63 -110c-35 -29 -80 -44 -133 -44c-80 0 -135 39 -135 100c0 46 22 82 67 107l61 34l25 11
c-6 -1 -11 -1 -14 -1c-35 0 -64 13 -88 38c-24 26 -36 56 -36 91c0 8 1 21 2 30zM394 -29l23 159c-15 -27 -37 -48 -67 -64l-145 -79c-31 -17 -46 -40 -46 -68c0 -39 34 -68 91 -68c75 0 133 52 144 120zM397 675l71 -122h-51l-58 86l-84 -86h-53l108 122h67z" />
    <glyph glyph-name="Ydieresis" unicode="&#x178;" 
d="M170 700h58l103 -306l188 306h57l-228 -368l-47 -332h-52l47 333zM331 797h-58l10 70h58zM498 797h-58l10 70h58z" />
    <glyph glyph-name="Zacute" unicode="&#x179;" 
d="M553 700l-7 -54l-387 -598h302l-7 -48h-359l7 54l388 598h-288l6 48h345zM525 875l-144 -122h-52l117 122h79z" />
    <glyph glyph-name="zacute" unicode="&#x17a;" 
d="M295 203h-80l8 56l215 198h-247l6 43h294l-9 -59l-217 -196h41c91 0 149 -56 149 -132l-2 -34l-16 -113c-6 -44 -27 -81 -63 -111c-35 -30 -80 -45 -134 -45c-80 0 -135 40 -135 113c0 56 38 105 87 134c115 64 179 102 191 114c-19 21 -49 32 -88 32zM389 -27l15 110
c1 8 2 15 2 21c0 13 -1 23 -4 31c-5 -6 -23 -18 -53 -37c-30 -18 -59 -35 -86 -50l-41 -22c-47 -28 -70 -62 -70 -101c0 -45 33 -74 93 -74c79 0 135 54 144 122zM477 675l-144 -122h-52l117 122h79z" />
    <glyph glyph-name="Zdotaccent" unicode="&#x17b;" 
d="M553 700l-7 -54l-387 -598h302l-7 -48h-359l7 54l388 598h-288l6 48h345zM423 797h-66l10 70h66z" />
    <glyph glyph-name="zdotaccent" unicode="&#x17c;" 
d="M295 203h-80l8 56l215 198h-247l6 43h294l-9 -59l-217 -196h41c91 0 149 -56 149 -132l-2 -34l-16 -113c-6 -44 -27 -81 -63 -111c-35 -30 -80 -45 -134 -45c-80 0 -135 40 -135 113c0 56 38 105 87 134c115 64 179 102 191 114c-19 21 -49 32 -88 32zM389 -27l15 110
c1 8 2 15 2 21c0 13 -1 23 -4 31c-5 -6 -23 -18 -53 -37c-30 -18 -59 -35 -86 -50l-41 -22c-47 -28 -70 -62 -70 -101c0 -45 33 -74 93 -74c79 0 135 54 144 122zM387 597h-66l10 70h66z" />
    <glyph glyph-name="Zcaron" unicode="&#x17d;" 
d="M553 700l-7 -54l-387 -598h302l-7 -48h-359l7 54l388 598h-288l6 48h345zM351 753l-70 122h51l58 -86l83 86h53l-108 -122h-67z" />
    <glyph glyph-name="zcaron" unicode="&#x17e;" 
d="M295 203h-80l8 56l215 198h-247l6 43h294l-9 -59l-217 -196h41c91 0 149 -56 149 -132l-2 -34l-16 -113c-6 -44 -27 -81 -63 -111c-35 -30 -80 -45 -134 -45c-80 0 -135 40 -135 113c0 56 38 105 87 134c115 64 179 102 191 114c-19 21 -49 32 -88 32zM389 -27l15 110
c1 8 2 15 2 21c0 13 -1 23 -4 31c-5 -6 -23 -18 -53 -37c-30 -18 -59 -35 -86 -50l-41 -22c-47 -28 -70 -62 -70 -101c0 -45 33 -74 93 -74c79 0 135 54 144 122zM314 553l-70 122h51l58 -86l83 86h53l-108 -122h-67z" />
    <glyph glyph-name="florin" unicode="&#x192;" 
d="M351 348l-74 -529h-49l74 529h-153l6 44h153l24 174c12 88 74 144 161 144c31 0 61 -8 73 -15l9 -5l-29 -35c-12 9 -31 13 -56 13c-57 0 -101 -42 -109 -103l-24 -173h198l-6 -44h-198z" />
    <glyph glyph-name="AEacute" unicode="&#x1fc;" 
d="M104 278l185 422h305l-7 -48h-176l-36 -258h152l-7 -48h-152l-42 -298h183l-7 -48h-235l34 239h-150l-34 -239h-52zM359 652h-43l-155 -365h147zM555 875l-144 -122h-52l117 122h79z" />
    <glyph glyph-name="aeacute" unicode="&#x1fd;" 
d="M359 366l-22 -153l131 66c32 16 50 40 55 71c3 16 4 32 4 48c0 41 -26 69 -70 69c-57 0 -91 -48 -98 -101zM286 46l-2 7s-31 -63 -105 -63c-61 0 -108 45 -108 104c0 11 1 21 2 32l37 265c9 67 69 119 142 119c41 0 85 -13 102 -24l13 -8c23 21 56 32 97 32
c64 0 107 -42 107 -107c0 -14 -2 -33 -5 -58c-8 -55 -41 -81 -108 -117l-127 -65c-5 -31 -7 -53 -7 -64c0 -44 25 -66 75 -66c36 0 76 12 93 21l12 7l-7 -50c-31 -14 -65 -21 -102 -21c-78 0 -104 41 -109 56zM273 116l46 331c-21 13 -43 20 -66 20c-45 0 -89 -35 -96 -82
l-36 -255c-1 -11 -2 -20 -2 -29c0 -40 27 -68 66 -68c44 0 81 35 88 83zM493 675l-144 -122h-52l117 122h79z" />
    <glyph glyph-name="Oslashacute" unicode="&#x1fe;" 
d="M138 55l-50 -70l-34 24l64 89c-4 14 -6 29 -6 44c0 11 1 23 3 37l50 356c7 50 30 92 67 125s84 50 140 50c62 0 108 -22 137 -67l51 70l34 -24l-65 -89c4 -14 6 -28 6 -42c0 -11 -1 -23 -3 -37l-50 -356c-7 -50 -30 -92 -67 -125s-83 -50 -138 -50c-63 0 -110 22 -139 65
zM217 534l-50 -362c-1 -3 -1 -5 -1 -7l309 430c-16 41 -54 67 -107 67c-79 0 -140 -55 -151 -128zM430 164l51 368l-309 -430c17 -43 53 -64 108 -64c79 0 139 54 150 126zM509 875l-144 -122h-53l120 122h77z" />
    <glyph glyph-name="oslashacute" unicode="&#x1ff;" 
d="M147 -17l-29 20l33 46c-16 21 -24 46 -24 76c0 18 1 34 3 48l26 182c6 44 27 81 62 110c35 30 80 45 133 45c42 0 78 -11 108 -33l28 39l29 -19l-33 -45c17 -23 26 -48 26 -77c0 -18 -1 -34 -3 -48l-26 -182c-6 -44 -27 -81 -62 -111c-35 -29 -78 -44 -131 -44
c-44 0 -81 11 -111 34zM290 33c73 0 133 51 142 118l26 183c1 11 2 22 2 34c0 14 -3 27 -8 40l-248 -345c22 -20 51 -30 86 -30zM176 132c0 -15 2 -28 7 -39l247 344c-21 20 -49 30 -84 30c-73 0 -133 -51 -142 -118l-26 -183c-1 -11 -2 -22 -2 -34zM485 675l-144 -122h-53
l120 122h77z" />
    <glyph glyph-name="Scommaaccent" unicode="&#x218;" 
d="M528 560l-1 -25h-51c1 7 1 12 1 15c0 65 -44 112 -109 112c-38 0 -71 -13 -100 -40c-28 -27 -42 -59 -42 -97c-1 -71 65 -103 129 -146c66 -40 130 -87 130 -187c0 -55 -19 -103 -57 -143c-38 -39 -87 -59 -148 -59c-51 0 -92 14 -123 42s-46 64 -46 107c0 5 1 14 2 26
l3 24h52c-3 -20 -4 -35 -4 -45c0 -64 45 -106 116 -106c43 0 79 14 108 43s44 64 44 107c0 59 -40 105 -91 134c-74 45 -167 89 -167 192c0 57 19 104 58 141s86 55 142 55c89 0 154 -61 154 -150zM324 -50l-100 -123h-43l70 123h73z" />
    <glyph glyph-name="scommaaccent" unicode="&#x219;" 
d="M187 128c0 -55 38 -95 103 -95c33 0 62 10 87 31s37 46 37 76c0 108 -226 89 -226 222c0 42 16 77 48 105c33 29 72 43 117 43c47 0 83 -13 106 -40c24 -26 36 -53 36 -81v-12h-50v12c-3 43 -43 78 -96 78c-28 0 -53 -9 -76 -27s-34 -40 -34 -65c0 -104 226 -76 226 -230
c0 -43 -17 -79 -51 -110c-34 -30 -75 -45 -124 -45c-100 0 -152 61 -152 130l2 20h48c-1 -4 -1 -8 -1 -12zM323 -50l-100 -123h-43l70 123h73z" />
    <glyph glyph-name="dotlessj" unicode="&#x237;" 
d="M341 -27l24 171l-30 -22l-161 -96c-47 -28 -70 -63 -70 -104s34 -71 93 -71c79 0 135 54 144 122zM254 500h210l-75 -534c-6 -44 -27 -81 -63 -111c-35 -30 -80 -45 -134 -45c-83 0 -135 41 -135 113c0 55 29 99 88 134l192 115l35 27l36 258h-160z" />
    <glyph glyph-name="circumflex" unicode="&#x2c6;" 
d="M383 675l71 -122h-51l-58 86l-84 -86h-53l108 122h67z" />
    <glyph glyph-name="caron" unicode="&#x2c7;" 
d="M299 553l-70 122h51l58 -86l83 86h53l-108 -122h-67z" />
    <glyph glyph-name="breve" unicode="&#x2d8;" 
d="M341 600c72 0 84 63 85 71h50c-3 -20 -9 -39 -28 -67c-17 -27 -57 -46 -108 -46c-42 0 -72 10 -89 30c-17 21 -26 43 -26 68v15h49v-10c-2 -19 8 -58 67 -61z" />
    <glyph glyph-name="dotaccent" unicode="&#x2d9;" 
d="M372 597h-66l10 70h66z" />
    <glyph glyph-name="ring" unicode="&#x2da;" 
d="M334 543c-41 0 -74 31 -74 71c0 48 42 90 91 90c40 0 74 -31 74 -71c0 -48 -40 -90 -91 -90zM338 579c28 0 48 24 48 51c0 23 -16 38 -39 38c-27 0 -48 -23 -48 -51c0 -21 18 -38 39 -38z" />
    <glyph glyph-name="ogonek" unicode="&#x2db;" 
d="M351 -140l-5 -40h-51c-44 0 -73 26 -73 63c0 40 37 84 66 103l21 14h50l-25 -18c-10 -7 -23 -21 -40 -40s-25 -36 -25 -51c0 -21 13 -31 39 -31h43z" />
    <glyph glyph-name="tilde" unicode="&#x2dc;" 
d="M289 659c18 0 38 -7 61 -21s41 -21 52 -21c19 0 34 14 37 35l1 7h45v-7c-1 -45 -43 -79 -86 -79c-19 0 -40 7 -63 21s-40 21 -51 21c-20 0 -35 -14 -38 -34l-1 -8h-45v8c3 47 44 78 88 78z" />
    <glyph glyph-name="hungarumlaut" unicode="&#x2dd;" 
d="M367 675l-133 -122h-46l111 122h68zM498 675l-133 -122h-46l111 122h68z" />
    <glyph glyph-name="afii10023" unicode="&#x401;" 
d="M122 0l98 700h314l-6 -48h-262l-37 -258h238l-6 -48h-238l-42 -298h271l-7 -48h-323zM325 797h-58l10 70h58zM492 797h-58l10 70h58z" />
    <glyph glyph-name="afii10051" unicode="&#x402;" 
d="M526 312c0 -7 -1 -17 -2 -29l-19 -137c-6 -41 -24 -76 -54 -104s-65 -42 -105 -42h-44l7 48h41c51 0 96 46 103 99l18 129c1 9 2 18 2 25c0 57 -36 92 -97 92c-35 0 -78 -16 -98 -28l-16 -9l-50 -356h-52l92 652h-128l6 48h334l-6 -48h-154l-35 -243c39 21 79 32 120 32
c83 0 137 -52 137 -129z" />
    <glyph glyph-name="afii10052" unicode="&#x403;" 
d="M53 0l7 48h129l91 652h314l-6 -48h-262l-85 -604h172l-7 -48h-353zM585 875l-144 -122h-52l117 122h79z" />
    <glyph glyph-name="afii10053" unicode="&#x404;" 
d="M284 38c39 0 71 12 96 36c26 24 42 52 47 83l1 12h51c0 -43 -19 -84 -57 -122c-37 -38 -85 -57 -142 -57c-47 0 -85 14 -115 43c-29 29 -44 66 -44 109c0 9 1 21 3 37l50 356c7 50 29 92 65 125c37 33 82 50 136 50c45 0 83 -15 112 -44s44 -63 44 -102l-2 -29h-51
c1 4 1 9 1 16c0 64 -40 111 -108 111c-36 0 -68 -12 -96 -37c-27 -25 -44 -55 -49 -91l-20 -145h179l-7 -48h-179l-23 -168c-1 -8 -2 -17 -2 -26c0 -63 45 -109 110 -109z" />
    <glyph glyph-name="afii10054" unicode="&#x405;" 
d="M528 560l-1 -25h-51c1 7 1 12 1 15c0 65 -44 112 -109 112c-38 0 -71 -13 -100 -40c-28 -27 -42 -59 -42 -97c-1 -71 65 -103 129 -146c66 -40 130 -87 130 -187c0 -55 -19 -103 -57 -143c-38 -39 -87 -59 -148 -59c-51 0 -92 14 -123 42s-46 64 -46 107c0 5 1 14 2 26
l3 24h52c-3 -20 -4 -35 -4 -45c0 -64 45 -106 116 -106c43 0 79 14 108 43s44 64 44 107c0 59 -40 105 -91 134c-74 45 -167 89 -167 192c0 57 19 104 58 141s86 55 142 55c89 0 154 -61 154 -150z" />
    <glyph glyph-name="afii10055" unicode="&#x406;" 
d="M342 652h-156l6 48h362l-6 -48h-154l-85 -604h154l-7 -48h-362l7 48h156z" />
    <glyph glyph-name="afii10056" unicode="&#x407;" 
d="M342 652h-156l6 48h362l-6 -48h-154l-85 -604h154l-7 -48h-362l7 48h156zM312 797h-58l10 70h58zM479 797h-58l10 70h58z" />
    <glyph glyph-name="afii10057" unicode="&#x408;" 
d="M419 165l69 487h-271l7 48h323l-75 -534c-7 -50 -29 -92 -65 -126c-36 -33 -80 -50 -132 -50c-97 0 -162 63 -162 151c0 9 1 20 1 25l1 5l8 57h52l-9 -64v-4c0 -4 -1 -10 -1 -14c0 -63 46 -108 110 -108c36 0 68 12 95 36c27 25 44 55 49 91z" />
    <glyph glyph-name="afii10058" unicode="&#x409;" horiz-adv-x="599" 
d="M388 0h-123l92 652h-109l-97 -495c-19 -95 -76 -158 -144 -158l-13 1l6 46c51 0 84 39 100 117c27 128 61 307 104 537h211l-43 -306h74c72 0 123 -53 123 -122c0 -7 -1 -16 -1 -21l-1 -4l-14 -101c-12 -84 -77 -146 -165 -146zM502 147l14 103v2c0 3 1 8 1 15
c0 44 -33 79 -80 79h-71l-42 -296h71c56 0 99 42 107 97z" />
    <glyph glyph-name="afii10059" unicode="&#x40a;" 
d="M396 0h-123l49 346h-179l-49 -346h-52l98 700h52l-43 -306h179l43 306h52l-43 -306h74c72 0 123 -53 123 -122c0 -7 -1 -16 -1 -21l-1 -4l-14 -101c-12 -84 -77 -146 -165 -146zM510 147l14 103v2c0 3 1 8 1 15c0 44 -33 79 -80 79h-71l-42 -296h71c56 0 99 42 107 97z
" />
    <glyph glyph-name="afii10060" unicode="&#x40b;" 
d="M278 364l-16 -9l-50 -355h-52l92 652h-128l6 48h334l-6 -48h-154l-35 -243c37 21 77 32 120 32c83 0 137 -52 137 -129c0 -7 -1 -17 -2 -29l-40 -283h-52l39 276c1 9 2 18 2 25c0 57 -36 92 -97 92c-35 0 -78 -16 -98 -29z" />
    <glyph glyph-name="afii10061" unicode="&#x40c;" 
d="M213 700h52l-45 -324l292 324h60l-298 -328l215 -372h-62l-209 365l-51 -365h-52zM551 875l-144 -122h-52l117 122h79z" />
    <glyph glyph-name="afii10062" unicode="&#x40e;" 
d="M394 798c49 0 77 24 82 73h51c-4 -34 -28 -113 -139 -113c-72 0 -108 31 -108 94c0 9 0 16 1 19h51c-1 -3 -1 -9 -1 -18c0 -37 21 -55 63 -55zM525 700h57l-381 -700h-57l146 263l-114 437h60l92 -367z" />
    <glyph glyph-name="afii10145" unicode="&#x40f;" 
d="M233 -149l21 149h-153l99 700h52l-92 -652h254l92 652h52l-99 -700h-153l-21 -149h-52z" />
    <glyph glyph-name="afii10017" unicode="&#x410;" 
d="M134 274l185 426h108l65 -426l-38 -274h-52l33 239h-254l-33 -239h-52zM193 287h244l-52 365h-36z" />
    <glyph glyph-name="afii10018" unicode="&#x411;" 
d="M301 0h-178l98 700h282l-6 -48h-230l-37 -258h116c85 0 136 -53 136 -126c0 -8 -1 -19 -3 -33l-12 -89c-5 -41 -24 -75 -56 -104c-31 -28 -68 -42 -110 -42zM416 147l14 102c0 3 1 9 1 13c0 52 -31 84 -91 84h-116l-42 -296h123c56 0 104 44 111 97z" />
    <glyph glyph-name="afii10019" unicode="&#x412;" 
d="M283 0h-166l98 700h170c77 0 131 -54 131 -126c0 -9 0 -15 -1 -20l-8 -63c-7 -49 -41 -100 -88 -123c36 -24 60 -66 60 -114l-1 -19l-11 -79c-7 -46 -27 -84 -62 -113c-34 -29 -75 -43 -122 -43zM381 650h-121l-36 -258h121c55 0 105 45 113 100l8 58c1 6 1 12 1 19
c0 45 -34 81 -86 81zM332 346h-114l-42 -298h112c68 0 119 47 128 111l11 76l1 13v1c0 51 -31 97 -96 97z" />
    <glyph glyph-name="afii10020" unicode="&#x413;" 
d="M53 0l7 48h129l91 652h314l-6 -48h-262l-85 -604h172l-7 -48h-353z" />
    <glyph glyph-name="afii10021" unicode="&#x414;" horiz-adv-x="599" 
d="M474 652h-173l-107 -539c-5 -28 -18 -51 -26 -59l-6 -6h227zM80 -149h-52l28 197h35c21 0 45 34 54 78l114 574h274l-92 -652h63l-28 -197h-52l21 149h-344z" />
    <glyph glyph-name="afii10022" unicode="&#x415;" 
d="M122 0l98 700h314l-6 -48h-262l-37 -258h238l-6 -48h-238l-42 -298h271l-7 -48h-323z" />
    <glyph glyph-name="afii10024" unicode="&#x416;" 
d="M28 0l219 371l-112 329h59l108 -323l45 323h52l-45 -323l198 323h59l-204 -329l115 -371h-59l-111 364l-51 -364h-52l51 364l-213 -364h-59z" />
    <glyph glyph-name="afii10025" unicode="&#x417;" 
d="M361 710c91 0 148 -60 148 -147l-1 -23l-4 -33c-8 -70 -59 -114 -80 -127l-8 -5s57 -28 57 -103c0 -9 -1 -22 -3 -38l-10 -68c-7 -51 -29 -93 -66 -126c-36 -33 -81 -50 -135 -50c-96 0 -158 65 -158 149l3 30h50c-1 -11 -2 -19 -2 -24c0 -57 43 -107 111 -107
c37 0 68 12 95 36c27 25 44 55 49 91l10 73c1 15 2 23 2 25c0 48 -35 83 -86 83h-76l6 48h66c34 0 62 12 83 35c22 23 35 49 39 77l4 30c1 7 1 15 1 24c0 59 -40 102 -104 102c-67 0 -115 -46 -131 -97l-3 -13h-50c1 7 3 13 4 17c11 41 34 75 69 101c35 27 75 40 120 40z
" />
    <glyph glyph-name="afii10026" unicode="&#x418;" 
d="M552 700l-98 -700h-51l79 562l13 64l-3 1l-26 -61l-305 -566h-65l98 700h51l-79 -562l-13 -64l3 -1l25 61l306 566h65z" />
    <glyph glyph-name="afii10027" unicode="&#x419;" 
d="M546 700l-98 -700h-51l79 562l13 64l-3 1l-26 -61l-305 -566h-65l98 700h51l-79 -562l-13 -64l3 -1l25 61l306 566h65zM382 798c33 0 56 9 65 26c11 19 11 26 14 47h52c0 -40 -26 -113 -135 -113c-85 0 -113 44 -113 93l2 20h52c-1 -8 -2 -15 -2 -20c0 -36 14 -53 65 -53
z" />
    <glyph glyph-name="afii10028" unicode="&#x41a;" 
d="M213 700h52l-45 -324l289 324h64l-299 -331l215 -369h-60l-211 365l-51 -365h-52z" />
    <glyph glyph-name="afii10029" unicode="&#x41b;" horiz-adv-x="599" 
d="M529 700l-98 -700h-52l92 652h-173l-97 -495c-19 -95 -77 -158 -145 -158l-14 1l6 46c51 0 85 39 101 117c27 128 61 307 104 537h276z" />
    <glyph glyph-name="afii10030" unicode="&#x41c;" 
d="M327 368l174 332h72l-98 -700h-52l79 565l13 59l-3 1l-166 -307h-52l-81 307l-3 -1l-5 -59l-79 -565h-51l98 700h69z" />
    <glyph glyph-name="afii10031" unicode="&#x41d;" 
d="M457 394l43 306h52l-98 -700h-52l49 346h-254l-49 -346h-52l98 700h52l-43 -306h254z" />
    <glyph glyph-name="afii10032" unicode="&#x41e;" 
d="M532 521l-50 -356c-7 -50 -30 -92 -67 -125s-84 -50 -139 -50c-99 0 -164 64 -164 152c0 11 1 23 3 37l50 356c7 50 30 92 67 125s84 50 140 50c49 0 88 -15 118 -44s45 -65 45 -108c0 -11 -1 -23 -3 -37zM430 164l50 364c1 9 2 18 2 25c0 63 -43 109 -114 109
c-79 0 -140 -55 -151 -128l-50 -362c-1 -11 -2 -19 -2 -25c0 -63 44 -109 115 -109c79 0 139 54 150 126z" />
    <glyph glyph-name="afii10033" unicode="&#x41f;" 
d="M194 700h358l-98 -700h-52l92 652h-254l-92 -652h-52z" />
    <glyph glyph-name="afii10034" unicode="&#x420;" 
d="M452 404l21 149v2c0 3 1 8 1 15c0 45 -37 81 -85 81h-123l-49 -348h123c60 0 104 42 112 101zM175 0h-52l98 700h178c73 0 127 -52 127 -123l-2 -30l-21 -147c-12 -84 -78 -145 -166 -145h-126z" />
    <glyph glyph-name="afii10035" unicode="&#x421;" 
d="M286 38c39 0 71 12 96 36c26 24 42 52 47 83l1 12h51c0 -43 -19 -84 -57 -122c-37 -38 -85 -57 -142 -57c-47 0 -85 14 -115 43c-29 29 -44 66 -44 109c0 9 1 21 3 37l50 356c7 50 29 92 65 125c37 33 82 50 136 50c45 0 83 -15 112 -44c30 -29 45 -63 45 -102l-2 -29
h-51c1 4 1 9 1 16c0 63 -41 109 -109 109c-36 0 -68 -12 -96 -37c-27 -24 -44 -54 -49 -89l-50 -361c-1 -8 -2 -17 -2 -26c0 -63 45 -109 110 -109z" />
    <glyph glyph-name="afii10036" unicode="&#x422;" 
d="M341 652h-173l6 48h398l-6 -48h-173l-92 -652h-52z" />
    <glyph glyph-name="afii10037" unicode="&#x423;" 
d="M531 700h57l-381 -700h-57l146 263l-114 437h60l92 -367z" />
    <glyph glyph-name="afii10038" unicode="&#x424;" 
d="M540 448l-27 -193c-7 -49 -29 -90 -67 -122s-83 -49 -134 -52l-11 -81h-52l11 81c-91 5 -153 62 -153 149c0 7 1 23 4 47l26 184c7 50 29 91 66 123c38 32 83 49 135 52l9 64h52l-9 -64c88 -5 153 -65 153 -150c0 -7 -1 -20 -3 -38zM189 461l-27 -192
c-1 -8 -2 -19 -2 -33c0 -61 44 -103 107 -106l64 457c-35 -1 -67 -14 -94 -37s-43 -53 -48 -89zM461 254l27 192c1 8 2 19 2 33c0 63 -46 105 -107 108l-64 -457c34 1 65 14 93 37s44 52 49 87z" />
    <glyph glyph-name="afii10039" unicode="&#x425;" 
d="M181 700h59l94 -284l171 284h59l-208 -336l126 -364h-61l-103 312l-190 -312h-61l231 366z" />
    <glyph glyph-name="afii10040" unicode="&#x426;" 
d="M429 -149l21 149h-349l99 700h52l-92 -652h254l92 652h52l-92 -652h43l-28 -197h-52z" />
    <glyph glyph-name="afii10041" unicode="&#x427;" 
d="M476 700h52l-98 -700h-52l40 283c-39 -19 -84 -28 -134 -28c-84 0 -136 49 -136 132c0 8 1 19 2 32l39 281h52l-38 -276c-1 -12 -2 -23 -2 -32c0 -56 37 -89 98 -89c43 0 90 14 111 25l15 9z" />
    <glyph glyph-name="afii10042" unicode="&#x428;" 
d="M531 700h52l-98 -700h-420l98 700h52l-91 -652h132l91 652h52l-91 -652h132z" />
    <glyph glyph-name="afii10043" unicode="&#x429;" 
d="M457 -149l21 149h-411l99 700h52l-92 -652h132l92 652h52l-92 -652h132l92 652h52l-92 -652h43l-28 -197h-52z" />
    <glyph glyph-name="afii10044" unicode="&#x42a;" 
d="M348 0h-198l92 652h-109l6 48h161l-43 -306h146c73 0 127 -51 127 -123c0 -16 -2 -26 -2 -29v-2l-13 -94c-6 -42 -25 -77 -57 -105c-32 -27 -69 -41 -110 -41zM463 147l12 91c1 8 2 16 2 25c0 48 -35 83 -83 83h-143l-42 -296h143c27 0 51 9 73 28s35 42 38 69z" />
    <glyph glyph-name="afii10045" unicode="&#x42b;" 
d="M545 700h52l-98 -700h-52zM333 147l12 88c1 9 2 19 2 28c0 48 -35 83 -83 83h-111l-42 -296h111c55 0 104 44 111 97zM218 0h-166l98 700h52l-43 -306h114c73 0 126 -52 126 -124c0 -11 -1 -22 -2 -34l-12 -90c-5 -41 -24 -75 -56 -104c-32 -28 -69 -42 -111 -42z" />
    <glyph glyph-name="afii10046" unicode="&#x42c;" 
d="M451 147l12 88c1 9 2 19 2 28c0 48 -35 83 -83 83h-143l-42 -296h143c55 0 104 44 111 97zM336 0h-198l98 700h52l-43 -306h146c73 0 126 -52 126 -124c0 -11 -1 -22 -2 -34l-12 -90c-5 -41 -24 -75 -56 -104c-32 -28 -69 -42 -111 -42z" />
    <glyph glyph-name="afii10047" unicode="&#x42d;" 
d="M258 341l7 48h178l19 138c1 11 2 19 2 26c0 63 -43 109 -107 109c-39 0 -72 -13 -99 -40c-26 -26 -41 -55 -45 -87h-51c3 32 21 71 50 108c31 39 87 67 151 67c92 0 153 -63 153 -148c0 -9 -1 -22 -3 -40l-50 -356c-7 -51 -29 -93 -65 -126s-81 -50 -136 -50
c-47 0 -85 14 -114 43s-44 63 -44 104l2 32h52c-1 -7 -1 -16 -1 -27c0 -55 42 -104 109 -104c76 0 135 55 147 142l23 161h-178z" />
    <glyph glyph-name="afii10048" unicode="&#x42e;" 
d="M588 534v-1l-52 -366c-7 -51 -27 -94 -59 -127c-31 -33 -72 -50 -121 -50c-84 0 -140 62 -140 147c0 14 1 28 3 42l24 167h-87l-49 -346h-52l98 700h52l-43 -306h87l20 139c7 51 27 94 58 127c32 33 73 50 124 50c84 0 139 -61 139 -146c0 -16 -2 -26 -2 -30zM485 166
l52 366c1 11 2 20 2 29c0 59 -35 101 -92 101c-71 0 -116 -54 -127 -130l-51 -356c-2 -18 -3 -30 -3 -35c0 -61 35 -103 95 -103c68 0 113 53 124 128z" />
    <glyph glyph-name="afii10049" unicode="&#x42f;" 
d="M235 553l-19 -134c-1 -9 -2 -17 -2 -24c0 -44 36 -80 84 -80h119l47 335h-119c-56 0 -102 -42 -110 -97zM142 0h-57l158 275c-49 17 -81 65 -81 120c0 9 1 18 2 26l19 133c6 41 24 76 55 104s68 42 111 42h174l-98 -700h-52l37 267h-115z" />
    <glyph glyph-name="afii10065" unicode="&#x430;" 
d="M202 349l-26 -185v-4c-1 -5 -2 -16 -2 -25c0 -61 41 -103 104 -103c38 0 71 14 100 41s45 58 50 91l38 279c-31 16 -69 24 -116 24c-77 0 -139 -53 -148 -118zM490 -5c-31 0 -61 27 -72 66c-41 -47 -91 -71 -149 -71c-42 0 -77 13 -105 38c-27 26 -41 58 -41 96
c0 6 1 16 2 29l29 202c7 45 28 82 64 111c37 29 81 44 133 44c63 0 126 -13 151 -24l18 -9l-52 -370c-1 -11 -2 -18 -2 -22c0 -25 13 -46 36 -47h4l-6 -42c-3 -1 -6 -1 -10 -1z" />
    <glyph glyph-name="afii10066" unicode="&#x431;" 
d="M416 161l22 154c1 12 2 22 2 30c0 64 -44 105 -104 105c-75 0 -139 -52 -151 -135l-22 -164c-1 -7 -1 -14 -1 -20c0 -59 43 -98 110 -98c72 0 132 49 144 128zM486 320l-22 -163c-13 -100 -89 -167 -198 -167c-96 0 -153 54 -153 139c0 10 1 20 2 29l38 273
c24 173 130 259 274 264c26 1 49 4 68 8l-6 -44c-12 -3 -35 -6 -68 -9c-116 -5 -203 -80 -223 -223c0 1 48 67 146 67c85 0 144 -56 144 -139c0 -11 -1 -23 -2 -35z" />
    <glyph glyph-name="afii10067" unicode="&#x432;" 
d="M278 -9c-57 0 -121 16 -148 29l-21 9l75 527c6 44 27 81 62 110c36 29 81 44 134 44c80 0 135 -39 135 -100c0 -48 -29 -94 -69 -117l-60 -34l-26 -11c6 1 11 1 14 1c35 0 64 -13 88 -39c24 -25 36 -55 36 -90c0 -8 -2 -21 -2 -30l-1 -6l-19 -136
c-7 -45 -28 -83 -64 -113c-36 -29 -81 -44 -134 -44zM428 164l17 116l1 4c0 5 1 16 1 25c0 59 -41 103 -105 103c-34 0 -66 -14 -97 -42c-30 -27 -47 -57 -52 -90l-30 -221c33 -17 71 -25 116 -25c81 0 136 43 149 130zM231 549l-25 -169c15 27 37 48 67 64l145 79
c25 13 48 47 48 78c0 39 -34 68 -91 68c-37 0 -70 -12 -97 -36c-27 -23 -42 -51 -47 -84z" />
    <glyph glyph-name="afii10068" unicode="&#x433;" 
d="M285 33c39 0 71 12 95 37s36 48 36 70h45v-5c0 -33 -17 -66 -51 -98c-33 -31 -75 -47 -125 -47c-43 0 -78 12 -106 35s-42 53 -42 88c0 69 46 117 105 142c85 39 192 64 192 140c0 41 -41 72 -88 72c-30 0 -57 -10 -81 -29c-23 -19 -36 -39 -37 -61h-46v4
c0 28 16 56 47 85c32 29 71 44 117 44c80 0 137 -46 137 -114c0 -67 -46 -111 -105 -135c-84 -33 -191 -60 -191 -146c0 -48 41 -82 98 -82z" />
    <glyph glyph-name="afii10069" unicode="&#x434;" 
d="M351 510c64 0 126 -13 151 -24l18 -9l-72 -513c-6 -44 -27 -81 -63 -110c-35 -29 -80 -44 -133 -44c-80 0 -135 39 -135 100c0 46 22 82 67 107l61 34l25 11c-6 -1 -11 -1 -14 -1c-35 0 -64 13 -88 38c-24 26 -36 56 -36 91c0 8 2 21 2 30l1 6l18 126c7 45 28 83 64 113
s81 45 134 45zM201 346l-16 -116l-1 -4c0 -5 -1 -16 -1 -25c0 -59 41 -103 105 -103c34 0 66 14 96 41c31 28 48 58 53 91l29 213c-36 16 -77 24 -122 24c-37 0 -69 -12 -96 -36c-27 -23 -42 -52 -47 -85zM401 -29l23 159c-15 -27 -37 -48 -67 -64l-145 -79
c-31 -17 -46 -40 -46 -68c0 -39 34 -68 91 -68c37 0 69 12 96 36c27 23 43 51 48 84z" />
    <glyph glyph-name="afii10070" unicode="&#x435;" 
d="M288 33c40 0 92 11 116 19l19 6l-5 -45c-34 -15 -78 -23 -131 -23c-96 0 -159 58 -159 137c0 11 1 25 3 42l26 186c6 44 27 81 62 110c36 30 81 45 134 45c44 0 80 -13 108 -39s42 -56 42 -91c0 -11 -1 -24 -2 -40c-5 -60 -51 -92 -134 -117l-188 -58
c-1 -15 -2 -25 -2 -32c0 -59 46 -100 111 -100zM205 349l-19 -135l189 58c48 14 74 37 78 70c1 15 2 24 2 29c0 52 -45 96 -108 96c-73 0 -133 -53 -142 -118z" />
    <glyph glyph-name="afii10072" unicode="&#x436;" 
d="M57 0l187 263l-103 237h57l96 -234l33 234h49l-33 -234l162 234h57l-169 -237l113 -263h-58l-106 255l-36 -255h-49l36 255l-178 -255h-58z" />
    <glyph glyph-name="afii10073" unicode="&#x437;" 
d="M413 167c0 0 -11 44 -83 44h-59l7 44h56c31 0 58 12 79 36c22 25 33 53 33 85c0 48 -39 91 -103 91c-39 0 -70 -11 -92 -33c-21 -21 -32 -41 -32 -59h-48c0 33 17 64 50 92c34 29 76 43 125 43c97 0 148 -61 148 -130c0 -100 -82 -139 -83 -139c0 0 57 -25 57 -98l-4 -42
l-23 -135c-15 -89 -86 -156 -193 -156c-84 0 -139 44 -139 113c0 46 29 86 87 121c131 67 203 108 217 123zM393 -27l20 114l4 31c-6 -5 -25 -17 -57 -34l-90 -48l-44 -23c-15 -8 -26 -15 -35 -21c-16 -12 -35 -38 -35 -67c0 -45 34 -74 93 -74c79 0 135 54 144 122z" />
    <glyph glyph-name="afii10074" unicode="&#x438;" 
d="M128 153l48 347h49l-48 -340c-1 -11 -2 -21 -2 -32c0 -64 35 -96 104 -96c37 0 70 12 99 35s46 51 51 83l49 350h49l-70 -500h-48l7 56c-3 -4 -5 -8 -25 -23c-25 -19 -64 -43 -120 -43c-91 0 -145 56 -145 136c0 5 1 14 2 27z" />
    <glyph glyph-name="afii10075" unicode="&#x439;" 
d="M128 153l48 347h49l-48 -340c-1 -11 -2 -21 -2 -32c0 -64 35 -96 104 -96c37 0 70 12 99 35s46 51 51 83l49 350h49l-70 -500h-48l7 56c-3 -4 -5 -8 -25 -23c-25 -19 -64 -43 -120 -43c-91 0 -145 56 -145 136c0 5 1 14 2 27zM359 598c33 0 56 9 65 26c11 19 11 26 14 47
h52c0 -40 -26 -113 -135 -113c-85 0 -113 44 -113 93l2 20h52c-1 -8 -2 -15 -2 -20c0 -36 14 -53 65 -53z" />
    <glyph glyph-name="afii10076" unicode="&#x43a;" 
d="M478 0h-63l-187 259l-36 -259h-48l70 500h48l-32 -227l238 227h64l-249 -233z" />
    <glyph glyph-name="afii10077" unicode="&#x43b;" 
d="M200 103c-13 -59 -50 -108 -115 -108l-18 1l5 38h15c41 1 57 31 70 87c21 91 48 218 79 379h292l-70 -500h-49l64 457h-198c-32 -159 -57 -277 -75 -354z" />
    <glyph glyph-name="afii10078" unicode="&#x43c;" 
d="M228 500l93 -225l155 225h61l-70 -500h-49l63 440l-29 -52l-108 -153h-57l-64 153l-17 54l-61 -442h-47l70 500h60z" />
    <glyph glyph-name="afii10079" unicode="&#x43d;" 
d="M190 244l-34 -244h-49l70 500h49l-30 -213h253l30 213h49l-70 -500h-49l34 244h-253z" />
    <glyph glyph-name="afii10080" unicode="&#x43e;" 
d="M351 510c95 0 158 -58 158 -135c0 -18 -1 -34 -3 -48l-26 -182c-6 -44 -27 -81 -62 -111c-35 -29 -78 -44 -131 -44c-96 0 -160 58 -160 135c0 18 1 34 3 48l26 182c6 44 27 81 62 110c35 30 80 45 133 45zM290 33c73 0 133 51 142 118l26 183c1 11 2 22 2 34
c0 60 -47 99 -114 99c-73 0 -133 -51 -142 -118l-26 -183c-1 -11 -2 -22 -2 -34c0 -60 47 -99 114 -99z" />
    <glyph glyph-name="afii10081" unicode="&#x43f;" 
d="M107 0l70 500h351l-70 -500h-49l64 457h-253l-64 -457h-49z" />
    <glyph glyph-name="afii10082" unicode="&#x440;" 
d="M235 500l-6 -54c4 5 10 10 17 17s23 17 48 29s52 18 79 18c42 0 77 -13 104 -39c28 -25 42 -57 42 -95c0 -6 -1 -16 -2 -29l-29 -202c-6 -43 -27 -80 -62 -110c-35 -29 -77 -44 -125 -44c-53 0 -100 28 -115 49l-12 16l-32 -236h-49l95 680h47zM215 346l-27 -195
c-1 -3 -1 -8 -1 -15c0 -57 47 -103 115 -103c73 0 129 51 138 118l26 185v4c1 5 2 16 2 25c0 60 -41 103 -104 103c-35 0 -68 -13 -98 -38s-47 -53 -51 -84z" />
    <glyph glyph-name="afii10083" unicode="&#x441;" 
d="M285 -10c-96 0 -158 58 -158 135c0 18 1 34 3 48l26 182c6 44 26 81 61 110c35 30 79 45 132 45c47 0 85 -14 112 -42c27 -27 41 -60 41 -99v-12h-49v13c0 53 -42 97 -107 97c-73 0 -133 -51 -142 -118l-26 -183c-1 -11 -2 -22 -2 -34c0 -60 47 -99 114 -99
c71 0 129 48 141 113h48c-17 -92 -90 -156 -194 -156z" />
    <glyph glyph-name="afii10084" unicode="&#x442;" 
d="M481 0h-48l57 399c1 7 1 12 1 15c0 35 -19 52 -44 52c-39 0 -80 -33 -87 -80l-55 -386h-48l57 399c1 5 1 9 1 12c0 33 -19 55 -47 55c-40 0 -81 -36 -86 -77l-55 -389h-48l70 500h44l-3 -36l11 12c11 11 48 32 81 32c36 0 62 -21 69 -38l5 -12c3 4 7 9 12 14
c6 5 18 13 36 22c19 9 37 14 56 14c49 0 80 -30 80 -82c0 -9 -1 -19 -2 -28z" />
    <glyph glyph-name="afii10085" unicode="&#x443;" 
d="M127 220l1 6l39 274h49l-38 -270v-4c-1 -5 -2 -16 -2 -25c0 -59 41 -103 105 -103c34 0 66 14 96 41c31 28 48 58 53 91l38 270h49l-76 -536c-6 -44 -27 -81 -63 -110c-35 -29 -80 -44 -133 -44c-80 0 -135 39 -135 100c0 46 22 82 67 107l61 34l25 11
c-6 -1 -11 -1 -14 -1c-35 0 -64 13 -88 38c-24 26 -36 56 -36 91c0 8 1 21 2 30zM394 -29l23 159c-15 -27 -37 -48 -67 -64l-145 -79c-31 -17 -46 -40 -46 -68c0 -39 34 -68 91 -68c37 0 69 12 96 36c27 23 43 51 48 84z" />
    <glyph glyph-name="afii10086" unicode="&#x444;" 
d="M328 502l28 198h49l-28 -198c101 -3 171 -62 171 -143c0 -11 -1 -21 -2 -30l-22 -164c-6 -47 -29 -87 -69 -118s-90 -47 -149 -49l-25 -178h-49l25 178c-51 0 -92 14 -124 41c-31 27 -47 62 -47 104c0 10 1 20 2 29l22 163c7 47 30 86 69 117c40 31 90 48 149 50z
M371 459l-59 -418c91 1 153 55 164 130l21 149c1 12 2 21 2 28c0 65 -47 110 -128 111zM158 329l-21 -149c-1 -12 -2 -21 -2 -28c0 -65 48 -111 128 -111l59 418c-91 -1 -153 -55 -164 -130z" />
    <glyph glyph-name="afii10087" unicode="&#x445;" 
d="M178 500h57l88 -204l145 204h58l-180 -245l117 -255h-58l-94 213l-153 -213h-57l188 257z" />
    <glyph glyph-name="afii10088" unicode="&#x446;" 
d="M442 -105l15 105h-48l8 54c-4 -5 -10 -11 -18 -18c-7 -7 -23 -16 -48 -28s-50 -18 -77 -18c-92 0 -147 53 -147 132c0 6 1 19 3 39l47 339h49l-48 -342c-1 -9 -2 -18 -2 -28c0 -61 40 -98 104 -98c34 0 66 11 96 33c31 22 48 48 53 78l50 357h49l-64 -457h46l-21 -148
h-47z" />
    <glyph glyph-name="afii10089" unicode="&#x447;" 
d="M139 301l28 199h49l-29 -204c-1 -9 -2 -19 -2 -28c0 -52 30 -78 89 -78c23 0 47 5 73 14c27 9 48 19 63 28l23 15l36 253h48l-70 -500h-49l28 197c-55 -33 -110 -50 -166 -50c-80 0 -124 42 -124 114c0 13 1 26 3 40z" />
    <glyph glyph-name="afii10090" unicode="&#x448;" 
d="M150 500h48l-57 -399c-1 -7 -1 -12 -1 -15c0 -35 19 -52 44 -52c39 0 80 33 87 80l55 386h48l-57 -399c-1 -5 -1 -9 -1 -12c0 -33 19 -55 47 -55c40 0 81 36 86 77l55 389h48l-70 -500h-44l3 36l-12 -13c-9 -9 -47 -31 -80 -31c-36 0 -62 21 -69 38l-5 12
c-3 -4 -7 -9 -13 -14c-5 -5 -17 -13 -36 -22c-18 -9 -36 -14 -55 -14c-49 0 -80 30 -80 82c0 9 1 19 2 28z" />
    <glyph glyph-name="afii10091" unicode="&#x449;" 
d="M451 -105l16 105h-43l3 36l-12 -13c-9 -9 -47 -31 -80 -31c-36 0 -62 21 -69 38l-5 12c-3 -4 -7 -9 -13 -14c-5 -5 -17 -13 -36 -22c-18 -9 -36 -14 -55 -14c-49 0 -80 30 -80 82c0 9 1 19 2 28l57 398h48l-57 -399c-1 -7 -1 -12 -1 -15c0 -35 19 -52 44 -52
c39 0 80 33 87 80l55 386h48l-57 -399c-1 -5 -1 -9 -1 -12c0 -33 19 -55 47 -55c40 0 81 36 86 77l55 389h48l-64 -457h46l-21 -148h-48z" />
    <glyph glyph-name="afii10092" unicode="&#x44a;" 
d="M316 35c35 0 64 11 88 33c25 23 37 51 37 84c0 47 -30 84 -89 84h-113l-14 -98c-1 -5 -1 -14 -1 -27c0 -51 31 -76 92 -76zM114 457l6 43h157l-32 -221h110c87 0 135 -54 135 -122c0 -43 -16 -82 -49 -115s-76 -50 -131 -50c-89 0 -135 47 -135 119c0 9 1 21 2 34l45 312
h-108z" />
    <glyph glyph-name="afii10093" unicode="&#x44b;" 
d="M517 500h48l-70 -500h-49zM221 -7c-89 0 -135 47 -135 119c0 9 1 21 2 34l53 354h48l-33 -220h110c87 0 135 -54 135 -122c0 -43 -16 -82 -49 -115s-76 -50 -131 -50zM227 36c35 0 64 11 88 33c25 23 37 51 37 84c0 47 -30 84 -89 84h-113l-14 -98c-1 -5 -1 -14 -1 -27
c0 -51 31 -76 92 -76z" />
    <glyph glyph-name="afii10094" unicode="&#x44c;" 
d="M306 -10c-89 0 -135 47 -135 119c0 9 1 21 2 34l52 357h49l-33 -223h110c87 0 135 -54 135 -122c0 -43 -16 -82 -49 -115s-76 -50 -131 -50zM312 33c35 0 64 11 88 33c25 23 37 51 37 84c0 47 -30 84 -89 84h-113l-14 -98c-1 -5 -1 -14 -1 -27c0 -51 31 -76 92 -76z" />
    <glyph glyph-name="afii10095" unicode="&#x44d;" 
d="M437 237h-163l6 43h163l10 67c1 5 1 11 1 19c0 59 -44 101 -109 101c-68 0 -127 -46 -139 -110h-47c5 41 25 77 60 107c35 31 79 46 130 46c95 0 154 -57 154 -138c0 -6 -1 -14 -2 -25l-28 -199c-13 -95 -87 -158 -192 -158c-96 0 -158 59 -158 142l1 14h46v-11
c0 -61 47 -102 112 -102c76 0 132 47 143 118z" />
    <glyph glyph-name="afii10096" unicode="&#x44e;" 
d="M557 337l-26 -187c-13 -91 -75 -160 -174 -160c-87 0 -135 55 -135 132c0 11 1 22 2 34l12 88h-76l-34 -244h-49l71 500h49l-31 -213h76l9 62c13 92 74 161 174 161c85 0 135 -57 135 -134c0 -8 -1 -21 -3 -39zM486 156l26 187c1 11 2 21 2 30c0 53 -35 94 -92 94
c-69 0 -115 -51 -126 -124l-26 -187c-1 -11 -2 -21 -2 -32c0 -53 34 -91 93 -91c65 0 114 52 125 123z" />
    <glyph glyph-name="afii10097" unicode="&#x44f;" 
d="M440 0h-49l28 203h-115l-152 -203h-57l159 209c-59 16 -89 67 -89 123c0 46 16 85 47 118c32 33 75 50 129 50h169zM455 457h-123c-31 0 -59 -12 -83 -35c-23 -23 -35 -51 -35 -86c0 -48 30 -90 89 -90h123z" />
    <glyph glyph-name="afii10071" unicode="&#x451;" 
d="M288 33c40 0 92 11 116 19l19 6l-5 -45c-34 -15 -78 -23 -131 -23c-96 0 -159 58 -159 137c0 11 1 25 3 42l26 186c6 44 27 81 62 110c36 30 81 45 134 45c44 0 80 -13 108 -39s42 -56 42 -91c0 -11 -1 -24 -2 -40c-5 -60 -51 -92 -134 -117l-188 -58
c-1 -15 -2 -25 -2 -32c0 -59 46 -100 111 -100zM205 349l-19 -135l189 58c48 14 74 37 78 70c1 15 2 24 2 29c0 52 -45 96 -108 96c-73 0 -133 -53 -142 -118zM303 597h-58l10 70h58zM470 597h-58l10 70h58z" />
    <glyph glyph-name="afii10099" unicode="&#x452;" 
d="M505 329l-46 -328c-13 -97 -76 -145 -147 -145l-17 1l6 44h14c51 0 86 33 95 97l47 334c1 9 2 18 2 28c0 61 -40 98 -104 98c-34 0 -66 -11 -97 -33c-30 -22 -47 -48 -52 -78l-49 -347h-49l81 575h-59l6 43h59l12 82h49l-12 -82h127l-6 -43h-127l-19 -136
c4 5 10 10 17 17s23 16 48 27s50 17 77 17c92 0 147 -53 147 -132c0 -6 -1 -19 -3 -39z" />
    <glyph glyph-name="afii10100" unicode="&#x453;" 
d="M285 33c39 0 71 12 95 37s36 48 36 70h45v-5c0 -33 -17 -66 -51 -98c-33 -31 -75 -47 -125 -47c-43 0 -78 12 -106 35s-42 53 -42 88c0 69 46 117 105 142c85 39 192 64 192 140c0 41 -41 72 -88 72c-30 0 -57 -10 -81 -29c-23 -19 -36 -39 -37 -61h-46v4
c0 28 16 56 47 85c32 29 71 44 117 44c80 0 137 -46 137 -114c0 -67 -46 -111 -105 -135c-84 -33 -191 -60 -191 -146c0 -48 41 -82 98 -82zM535 675l-144 -122h-52l117 122h79z" />
    <glyph glyph-name="afii10101" unicode="&#x454;" 
d="M292 -10c-96 0 -160 58 -160 135c0 18 1 34 3 48l26 182c6 44 27 81 62 110c35 30 80 45 133 45c97 0 153 -62 153 -141v-12h-50v13c0 53 -43 97 -108 97c-73 0 -133 -51 -142 -118l-10 -69h164l-6 -44h-164l-10 -70c-1 -11 -2 -22 -2 -34c0 -60 47 -99 114 -99
c73 0 129 52 140 113h47c0 -24 -15 -58 -43 -94c-28 -35 -83 -62 -147 -62z" />
    <glyph glyph-name="afii10102" unicode="&#x455;" 
d="M187 128c0 -55 38 -95 103 -95c33 0 62 10 87 31s37 46 37 76c0 108 -226 89 -226 222c0 42 16 77 48 105c33 29 72 43 117 43c47 0 83 -13 106 -40c24 -26 36 -53 36 -81v-12h-50v12c-3 43 -43 78 -96 78c-28 0 -53 -9 -76 -27s-34 -40 -34 -65c0 -104 226 -76 226 -230
c0 -43 -17 -79 -51 -110c-34 -30 -75 -45 -124 -45c-100 0 -152 61 -152 130l2 20h48c-1 -4 -1 -8 -1 -12z" />
    <glyph glyph-name="afii10103" unicode="&#x456;" 
d="M182 457l6 43h177l-54 -377l-1 -3v-19c0 -39 21 -58 64 -58h80l-6 -43h-88c-64 0 -100 38 -100 99c0 6 1 15 2 27l46 331h-126zM383 597h-66l10 70h66z" />
    <glyph glyph-name="afii10104" unicode="&#x457;" 
d="M182 457l6 43h177l-54 -377l-1 -3v-19c0 -39 21 -58 64 -58h80l-6 -43h-88c-64 0 -100 38 -100 99c0 6 1 15 2 27l46 331h-126zM296 597h-58l10 70h58zM463 597h-58l10 70h58z" />
    <glyph glyph-name="afii10105" unicode="&#x458;" 
d="M341 -27l24 171l-30 -22l-161 -96c-47 -28 -70 -63 -70 -104s34 -71 93 -71c79 0 135 54 144 122zM254 500h209l-74 -534c-6 -44 -27 -81 -63 -111c-35 -30 -80 -45 -134 -45c-83 0 -135 41 -135 113c0 55 29 99 88 134l192 115l35 27l36 258h-160zM483 597h-66l10 70h66
z" />
    <glyph glyph-name="afii10106" unicode="&#x459;" 
d="M415 35c59 0 98 49 98 117c0 47 -30 84 -89 84h-50l-15 -111c-1 -13 -2 -22 -2 -25c0 -43 19 -65 58 -65zM119 121l81 379h212l-32 -221h47c87 0 135 -54 135 -122c0 -45 -13 -84 -38 -117c-25 -32 -62 -48 -111 -48c-75 0 -104 47 -104 106c0 9 1 21 2 34l46 325h-120
c-32 -157 -57 -275 -75 -354c-13 -59 -50 -108 -115 -108l-18 1l5 41c5 -1 10 -1 15 -1c43 1 57 29 70 85z" />
    <glyph glyph-name="afii10107" unicode="&#x45a;" 
d="M327 287l31 213h49l-31 -213h47c85 0 135 -59 135 -128c0 -45 -13 -85 -39 -118c-25 -33 -62 -49 -111 -49c-75 0 -104 47 -104 106c0 9 1 21 2 34l15 112h-166l-34 -244h-49l71 500h50l-32 -213h166zM410 35c59 0 99 51 99 119c0 47 -32 90 -89 90h-50l-16 -119
c-1 -13 -2 -22 -2 -25c0 -43 19 -65 58 -65z" />
    <glyph glyph-name="afii10108" unicode="&#x45b;" 
d="M184 575h-58l7 43h57l12 82h49l-12 -82h128l-7 -43h-127l-20 -140c3 4 5 8 24 23c27 19 65 43 121 43c91 0 145 -56 145 -136c0 -5 -1 -14 -2 -27l-46 -338h-49l46 331c1 11 2 19 2 26c0 64 -37 102 -104 102c-37 0 -70 -12 -99 -35s-46 -51 -51 -83l-47 -341h-49z" />
    <glyph glyph-name="afii10109" unicode="&#x45c;" 
d="M478 0h-63l-187 259l-36 -259h-48l70 500h48l-32 -227l238 227h64l-249 -233zM513 675l-144 -122h-52l117 122h79z" />
    <glyph glyph-name="afii10110" unicode="&#x45e;" 
d="M127 220l1 6l39 274h49l-38 -270v-4c-1 -5 -2 -16 -2 -25c0 -59 41 -103 105 -103c34 0 66 14 96 41c31 28 48 58 53 91l38 270h49l-76 -536c-6 -44 -27 -81 -63 -110c-35 -29 -80 -44 -133 -44c-80 0 -135 39 -135 100c0 46 22 82 67 107l61 34l25 11
c-6 -1 -11 -1 -14 -1c-35 0 -64 13 -88 38c-24 26 -36 56 -36 91c0 8 1 21 2 30zM394 -29l23 159c-15 -27 -37 -48 -67 -64l-145 -79c-31 -17 -46 -40 -46 -68c0 -39 34 -68 91 -68c37 0 69 12 96 36c27 23 43 51 48 84zM359 598c33 0 56 9 65 26c11 19 11 26 14 47h52
c0 -40 -26 -113 -135 -113c-85 0 -113 44 -113 93l2 20h52c-1 -8 -2 -15 -2 -20c0 -36 14 -53 65 -53z" />
    <glyph glyph-name="afii10193" unicode="&#x45f;" 
d="M288 -105h-49l16 96c-81 5 -129 60 -129 135c0 5 1 14 2 27l48 347h49l-48 -340c-1 -11 -2 -21 -2 -32c0 -64 35 -96 104 -96c37 0 70 12 99 35s46 51 51 83l49 350h49l-70 -500h-48l7 56c-3 -4 -8 -9 -14 -15c-5 -5 -18 -14 -37 -25s-39 -19 -60 -23z" />
    <glyph glyph-name="afii10146" unicode="&#x462;" 
d="M446 700l-6 -47h-146l-37 -259h146c73 0 127 -55 127 -127c0 -5 -1 -15 -2 -28l-14 -93c-6 -41 -24 -76 -55 -104s-68 -42 -111 -42h-198l92 653h-115l6 47h313zM463 147l13 96c1 8 2 15 2 20c0 47 -36 83 -84 83h-143l-42 -296h143c59 0 104 42 111 97z" />
    <glyph glyph-name="afii10194" unicode="&#x463;" 
d="M317 34c35 0 64 11 88 33c25 23 37 51 37 84c0 48 -32 93 -89 93h-113l-14 -107c-1 -5 -1 -14 -1 -27c0 -51 31 -76 92 -76zM178 144l53 378h-109l6 43h109l19 135h49l-19 -135h115l-6 -43h-115l-34 -235h110c43 0 76 -13 99 -39c24 -26 36 -57 36 -92
c0 -43 -16 -82 -49 -115s-76 -50 -131 -50c-89 0 -135 47 -135 119c0 9 1 21 2 34z" />
    <glyph glyph-name="afii10147" unicode="&#x472;" 
d="M532 521l-50 -356c-7 -50 -30 -92 -67 -125s-84 -50 -139 -50c-99 0 -164 64 -164 152c0 11 1 23 3 37l50 356c7 50 30 92 67 125s84 50 140 50c49 0 88 -15 118 -44s45 -65 45 -108c0 -11 -1 -23 -3 -37zM430 164l25 182c-27 -19 -53 -28 -76 -28c-17 0 -37 7 -60 21
s-40 21 -51 21c-21 0 -48 -13 -81 -40l-20 -148c-1 -11 -2 -19 -2 -25c0 -63 44 -109 115 -109c79 0 139 54 150 126zM217 534l-22 -159c25 21 51 31 79 31c17 0 37 -7 60 -21s40 -21 51 -21c23 0 49 12 77 37l18 127c1 9 2 18 2 25c0 63 -43 109 -114 109
c-79 0 -140 -55 -151 -128z" />
    <glyph glyph-name="afii10195" unicode="&#x473;" 
d="M351 510c95 0 158 -58 158 -135c0 -18 -1 -34 -3 -48l-26 -182c-6 -44 -27 -81 -62 -111c-35 -29 -78 -44 -131 -44c-96 0 -160 58 -160 135c0 18 1 34 3 48l26 182c6 44 27 81 62 110c35 30 80 45 133 45zM204 349l-11 -80c21 16 44 24 69 24c17 0 38 -7 61 -21
c23 -13 41 -20 52 -20c29 0 54 14 77 42l6 40c1 11 2 22 2 34c0 60 -47 99 -114 99c-73 0 -133 -51 -142 -118zM290 33c73 0 133 51 142 118l11 79c-21 -15 -45 -23 -73 -23c-17 0 -38 7 -61 20c-23 14 -41 21 -52 21c-35 0 -62 -26 -73 -42l-6 -40c-1 -11 -2 -22 -2 -34
c0 -60 47 -99 114 -99z" />
    <glyph glyph-name="afii10148" unicode="&#x474;" 
d="M514 558l-192 -558h-102l-45 700h54l36 -652h26l174 517c32 96 71 141 138 141l17 -1l-6 -42c-8 0 -16 -1 -23 -2c-29 -5 -50 -27 -77 -103z" />
    <glyph glyph-name="afii10196" unicode="&#x475;" 
d="M464 394l-156 -394h-92l-59 500h51l50 -458h19l139 357c15 36 19 45 36 72c19 27 43 37 78 37l19 -1l-6 -41h-15c-32 -1 -43 -19 -64 -72z" />
    <glyph glyph-name="afii10050" unicode="&#x490;" 
d="M49 0l7 48h129l92 652h268l14 102h46l-21 -150h-262l-85 -604h172l-7 -48h-353z" />
    <glyph glyph-name="afii10098" unicode="&#x491;" 
d="M431 43l-6 -43h-367l6 43h147l64 457h218c12 0 19 6 20 17l12 78h47l-13 -96c-4 -25 -25 -42 -50 -42h-190l-58 -414h170z" />
    <glyph glyph-name="afii10846" unicode="&#x4d9;" 
d="M442 221h-259l-7 -55c-1 -11 -2 -22 -2 -34c0 -59 49 -99 116 -99c73 0 133 51 142 118zM350 510c47 0 86 -13 115 -39c29 -25 44 -57 44 -96c0 -18 -1 -34 -3 -48l-26 -182c-6 -44 -27 -81 -62 -111c-35 -29 -78 -44 -131 -44c-96 0 -162 58 -162 135c0 18 1 34 3 48
l10 67c1 12 12 24 25 24h285l10 70c1 11 2 22 2 34c0 60 -47 99 -114 99c-68 0 -127 -46 -139 -110h-47c5 41 25 77 60 107c35 31 79 46 130 46z" />
    <glyph glyph-name="Wgrave" unicode="&#x1e80;" 
d="M400 48l87 377l38 275h52l-39 -278l-101 -422h-96l-18 315h-9l-107 -315h-95l17 422l39 278h52l-38 -275l-19 -377h14l115 332h72l22 -332h14zM348 875l92 -122h-54l-110 122h72z" />
    <glyph glyph-name="wgrave" unicode="&#x1e81;" 
d="M328 500h49l-52 -379l-1 -4c0 -5 -1 -16 -1 -25c0 -32 28 -60 61 -60c52 0 84 39 95 116l32 216c1 11 2 22 2 33c0 37 -16 59 -48 66l6 42c53 -3 91 -37 91 -108c0 -10 -1 -23 -3 -39l-31 -210c-16 -105 -63 -158 -142 -158c-43 0 -78 22 -89 39l-8 13l-12 -15
c-5 -5 -16 -13 -35 -23c-18 -9 -38 -14 -59 -14c-61 0 -103 43 -103 103c0 6 1 19 3 39l50 368h50l-53 -381c-1 -9 -2 -18 -2 -28c0 -31 23 -59 60 -59c40 0 80 36 85 80zM320 675l92 -122h-54l-110 122h72z" />
    <glyph glyph-name="Wacute" unicode="&#x1e82;" 
d="M400 48l87 377l38 275h52l-39 -278l-101 -422h-96l-18 315h-9l-107 -315h-95l17 422l39 278h52l-38 -275l-19 -377h14l115 332h72l22 -332h14zM497 875l-144 -122h-52l117 122h79z" />
    <glyph glyph-name="wacute" unicode="&#x1e83;" 
d="M328 500h49l-52 -379l-1 -4c0 -5 -1 -16 -1 -25c0 -32 28 -60 61 -60c52 0 84 39 95 116l32 216c1 11 2 22 2 33c0 37 -16 59 -48 66l6 42c53 -3 91 -37 91 -108c0 -10 -1 -23 -3 -39l-31 -210c-16 -105 -63 -158 -142 -158c-43 0 -78 22 -89 39l-8 13l-12 -15
c-5 -5 -16 -13 -35 -23c-18 -9 -38 -14 -59 -14c-61 0 -103 43 -103 103c0 6 1 19 3 39l50 368h50l-53 -381c-1 -9 -2 -18 -2 -28c0 -31 23 -59 60 -59c40 0 80 36 85 80zM484 675l-144 -122h-52l117 122h79z" />
    <glyph glyph-name="Wdieresis" unicode="&#x1e84;" 
d="M400 48l87 377l38 275h52l-39 -278l-101 -422h-96l-18 315h-9l-107 -315h-95l17 422l39 278h52l-38 -275l-19 -377h14l115 332h72l22 -332h14zM330 797h-58l10 70h58zM497 797h-58l10 70h58z" />
    <glyph glyph-name="wdieresis" unicode="&#x1e85;" 
d="M328 500h49l-52 -379l-1 -4c0 -5 -1 -16 -1 -25c0 -32 28 -60 61 -60c52 0 84 39 95 116l32 216c1 11 2 22 2 33c0 37 -16 59 -48 66l6 42c53 -3 91 -37 91 -108c0 -10 -1 -23 -3 -39l-31 -210c-16 -105 -63 -158 -142 -158c-43 0 -78 22 -89 39l-8 13l-12 -15
c-5 -5 -16 -13 -35 -23c-18 -9 -38 -14 -59 -14c-61 0 -103 43 -103 103c0 6 1 19 3 39l50 368h50l-53 -381c-1 -9 -2 -18 -2 -28c0 -31 23 -59 60 -59c40 0 80 36 85 80zM313 597h-58l10 70h58zM480 597h-58l10 70h58z" />
    <glyph glyph-name="Ygrave" unicode="&#x1ef2;" 
d="M170 700h58l103 -306l188 306h57l-228 -368l-47 -332h-52l47 333zM353 875l92 -122h-54l-110 122h72z" />
    <glyph glyph-name="ygrave" unicode="&#x1ef3;" 
d="M127 220l1 6l39 274h49l-38 -270v-4c-1 -5 -2 -16 -2 -25c0 -59 41 -103 105 -103c34 0 66 14 96 41c31 28 48 58 53 91l38 270h49l-76 -536c-6 -44 -27 -81 -63 -110c-35 -29 -80 -44 -133 -44c-80 0 -135 39 -135 100c0 46 22 82 67 107l61 34l25 11
c-6 -1 -11 -1 -14 -1c-35 0 -64 13 -88 38c-24 26 -36 56 -36 91c0 8 1 21 2 30zM394 -29l23 159c-15 -27 -37 -48 -67 -64l-145 -79c-31 -17 -46 -40 -46 -68c0 -39 34 -68 91 -68c75 0 133 52 144 120zM314 675l92 -122h-54l-110 122h72z" />
    <glyph glyph-name="endash" unicode="&#x2013;" 
d="M135 320h378l-7 -48h-378z" />
    <glyph glyph-name="emdash" unicode="&#x2014;" horiz-adv-x="599" 
d="M24 320h599l-7 -48h-599z" />
    <glyph glyph-name="quoteleft" unicode="&#x2018;" 
d="M371 700h35l-60 -191h-68z" />
    <glyph glyph-name="quoteright" unicode="&#x2019;" 
d="M312 509h-34l60 191h68z" />
    <glyph glyph-name="quotesinglbase" unicode="&#x201a;" 
d="M267 -120h-34l61 190h68z" />
    <glyph glyph-name="quotedblleft" unicode="&#x201c;" 
d="M439 700h35l-60 -191h-68zM302 700h35l-60 -191h-68z" />
    <glyph glyph-name="quotedblright" unicode="&#x201d;" 
d="M243 509h-34l60 191h68zM380 509h-34l60 191h68z" />
    <glyph glyph-name="quotedblbase" unicode="&#x201e;" 
d="M198 -120h-34l61 190h68zM335 -120h-34l61 190h68z" />
    <glyph glyph-name="dagger" unicode="&#x2020;" 
d="M377 500h120l-7 -49h-120l-90 -641h-53l90 641h-117l7 49h117l28 200h53z" />
    <glyph glyph-name="daggerdbl" unicode="&#x2021;" 
d="M313 49h120l-6 -49h-120l-27 -190h-53l27 190h-117l6 49h117l57 402h-117l7 49h117l28 200h53l-28 -200h120l-7 -49h-120z" />
    <glyph glyph-name="bullet" unicode="&#x2022;" 
d="M229 264c-28 29 -42 63 -42 102s14 73 42 101c29 29 63 43 102 43s73 -14 101 -43c29 -28 43 -62 43 -101s-14 -73 -43 -102c-28 -28 -62 -42 -101 -42s-73 14 -102 42z" />
    <glyph glyph-name="ellipsis" unicode="&#x2026;" 
d="M132 0h-70l10 70h70zM332 0h-70l10 70h70zM532 0h-70l10 70h70z" />
    <glyph glyph-name="perthousand" unicode="&#x2030;" 
d="M534 208l-1 -14l-14 -101c-8 -57 -59 -103 -120 -103c-53 0 -95 40 -95 89c0 4 1 13 1 14l14 101c8 59 56 99 117 99c56 0 98 -34 98 -85zM474 96l13 90c1 5 1 8 1 10c0 32 -22 54 -55 54c-36 0 -66 -28 -71 -64l-13 -89l-1 -4v-6c0 -32 23 -54 56 -54s65 28 70 63z
M289 208l-1 -14l-14 -101c-8 -57 -59 -103 -120 -103c-53 0 -95 40 -95 89c0 4 1 13 1 14l14 101c8 59 56 99 117 99c56 0 98 -34 98 -85zM229 96l13 90c1 5 1 8 1 10c0 32 -23 54 -55 54c-36 0 -66 -28 -71 -64l-13 -89v-4c-1 -3 -1 -5 -1 -6c0 -32 23 -54 56 -54
s65 28 70 63zM348 625l-1 -14l-14 -101c-8 -57 -59 -103 -120 -103c-53 0 -95 40 -95 89c0 4 1 13 1 14l14 101c8 59 56 99 117 99c56 0 98 -34 98 -85zM288 513l13 90c1 5 1 8 1 10c0 31 -22 54 -55 54c-36 0 -66 -28 -71 -64l-13 -89l-1 -4v-6c0 -32 23 -54 56 -54
s65 28 70 63zM64 288l7 47l525 170l-7 -47z" />
    <glyph glyph-name="guilsinglleft" unicode="&#x2039;" 
d="M286 292l98 -152h-54l-96 152l138 152h54z" />
    <glyph glyph-name="guilsinglright" unicode="&#x203a;" 
d="M405 292l-139 -152h-53l139 152l-97 152h53z" />
    <glyph glyph-name="fraction" unicode="&#x2044;" 
d="M120 0h-41l449 700h41z" />
    <glyph glyph-name="Euro" unicode="&#x20ac;" 
d="M233 433h222l-7 -48h-222l-11 -75h190l-6 -48h-190l-14 -95c-1 -5 -1 -12 -1 -21c0 -65 43 -108 110 -108c76 0 138 56 147 132h51c-3 -49 -24 -91 -63 -127c-38 -35 -84 -53 -138 -53c-47 0 -85 14 -115 43c-29 29 -44 66 -44 109c0 11 1 21 2 32l12 88h-59l6 48h59
l11 75h-59l7 48h59l14 100c7 50 30 92 67 126s82 51 135 51c47 0 85 -14 114 -43c30 -29 45 -65 45 -108l-2 -26h-51c1 7 1 13 1 17c0 63 -47 110 -112 110c-36 0 -68 -12 -96 -37c-27 -24 -43 -54 -48 -91z" />
    <glyph glyph-name="trademark" unicode="&#x2122;" 
d="M298 669h-77l-42 -302h-36l42 302h-77l4 31h190zM528 367h-36l39 283l-80 -134h-33l-44 134l-39 -283h-36l46 333h48l46 -150l87 150h48z" />
    <glyph glyph-name="uni2206" unicode="&#x2206;" 
d="M321 700h102l45 -700h-388zM381 652h-30l-203 -604h266z" />
    <glyph glyph-name="product" unicode="&#x220f;" 
d="M197 700h358l-110 -789h-52l104 741h-254l-104 -741h-52z" />
    <glyph glyph-name="summation" unicode="&#x2211;" 
d="M361 332l-4 -25l-200 -348h304l-6 -48h-359l7 50l205 359l-108 337l6 43h349l-6 -48h-288z" />
    <glyph glyph-name="minus" unicode="&#x2212;" 
d="M109 258l7 50h414l-7 -50h-414z" />
    <glyph glyph-name="uni2215" unicode="&#x2215;" 
d="M120 0h-41l449 700h41z" />
    <glyph glyph-name="radical" unicode="&#x221a;" 
d="M269 -92h-88l-40 389c-4 44 -23 52 -60 52l7 45c69 0 99 -23 104 -82l33 -365h13l383 864h52z" />
    <glyph glyph-name="infinity" unicode="&#x221e;" 
d="M423 186c-34 0 -70 23 -107 69c-46 -46 -88 -69 -127 -69c-53 0 -95 40 -95 91c0 31 13 59 38 83s54 36 87 36c37 0 73 -23 106 -70c48 47 91 70 128 70c52 0 93 -39 93 -90c0 -32 -13 -60 -38 -84s-53 -36 -85 -36zM446 353c-24 0 -57 -21 -100 -62
c29 -41 57 -62 83 -62c37 0 74 33 74 70c0 29 -25 54 -57 54zM197 231c25 0 57 21 96 62c-29 41 -56 62 -80 62c-39 0 -75 -37 -75 -73c0 -29 24 -51 59 -51z" />
    <glyph glyph-name="integral" unicode="&#x222b;" 
d="M100 -180l6 45h46c49 0 89 36 96 87l87 617c5 37 23 68 52 93c30 25 64 38 103 38h45l-7 -46h-46c-49 0 -89 -36 -96 -87l-87 -617c-5 -37 -23 -68 -52 -93s-63 -37 -102 -37h-45z" />
    <glyph glyph-name="approxequal" unicode="&#x2248;" 
d="M240 409c25 0 58 -10 99 -30c41 -19 69 -29 86 -29c41 0 70 23 73 51h45c-7 -53 -59 -98 -124 -98c-25 0 -59 10 -100 29c-41 20 -69 30 -86 30c-41 0 -70 -23 -73 -51h-45c7 53 60 98 125 98zM221 280c25 0 58 -10 99 -30c41 -19 70 -29 87 -29c41 0 70 23 73 51h45
c-7 -53 -59 -98 -124 -98c-25 0 -59 10 -100 29c-41 20 -69 30 -86 30c-41 0 -70 -23 -73 -51h-45c7 53 59 98 124 98z" />
    <glyph glyph-name="notequal" unicode="&#x2260;" 
d="M389 389h151l-7 -50h-170l-58 -110h212l-7 -50h-231l-72 -140h-39l72 140h-143l7 50h162l58 110h-204l7 50h223l80 154h39z" />
    <glyph glyph-name="lessequal" unicode="&#x2264;" 
d="M505 130l-391 161l8 61l437 162l-7 -54l-386 -138l347 -136zM86 95h414l-7 -50h-414z" />
    <glyph glyph-name="greaterequal" unicode="&#x2265;" 
d="M493 45h-414l7 50h414zM145 514l391 -162l-8 -61l-437 -161l8 56l385 136l-346 138z" />
    <glyph glyph-name="lozenge" unicode="&#x25ca;" 
d="M404 700l108 -350l-204 -350h-62l-109 350l205 350h62zM374 652h-13l-170 -302l85 -302h13l169 302z" />
    <glyph glyph-name="zero.slash" unicode="&#xf638;" 
d="M521 533l-52 -366c-7 -51 -29 -93 -65 -127c-35 -33 -79 -50 -131 -50c-43 0 -79 14 -107 43c-27 29 -41 65 -41 108c0 6 1 15 2 27l51 365c7 51 29 93 65 126c36 34 80 51 132 51c43 0 79 -14 106 -43c28 -29 42 -65 42 -108c0 -5 -1 -14 -2 -26zM418 166l52 366
c1 7 1 13 1 19v10l-279 -475c19 -32 48 -48 88 -48c35 0 65 12 91 37s42 55 47 91zM178 167l-1 -26l278 474c-19 31 -48 47 -87 47c-72 0 -128 -57 -139 -130z" />
    <glyph glyph-name="commaaccent" unicode="&#xf6c3;" 
d="M364 -50l-100 -123h-43l70 123h73z" />
    <glyph glyph-name="cyrbreve" unicode="&#xf6d4;" 
d="M342 598c33 0 56 9 65 26c11 19 11 26 14 47h52c0 -40 -26 -113 -135 -113c-85 0 -113 44 -113 93l2 20h52c-1 -8 -2 -15 -2 -20c0 -36 14 -53 65 -53z" />
  </font>
</defs>
</svg>
