<?xml version="1.0" standalone="no"?>
<!DOCTYPE svg PUBLIC "-//W3C//DTD SVG 20010904//EN"
 "http://www.w3.org/TR/2001/REC-SVG-20010904/DTD/svg10.dtd">
<svg version="1.0" xmlns="http://www.w3.org/2000/svg"
 width="538.000000pt" height="538.000000pt" viewBox="0 0 538.000000 538.000000"
 preserveAspectRatio="xMidYMid meet">
<metadata>
Created by potrace 1.11, written by Peter Selinger 2001-2013
</metadata>
<g transform="translate(0.000000,538.000000) scale(0.100000,-0.100000)"
fill="#000000" stroke="none">
<path d="M1785 5355 c-22 -7 -85 -32 -140 -54 -55 -23 -104 -43 -110 -45 -22
-6 -174 -84 -245 -126 -69 -40 -219 -138 -297 -194 -121 -87 -353 -306 -440
-414 -21 -26 -43 -51 -49 -57 -6 -5 -33 -39 -59 -75 -27 -36 -52 -67 -55 -70
-3 -3 -11 -17 -19 -32 -8 -16 -18 -28 -23 -28 -4 0 -8 -5 -8 -11 0 -6 -11 -25
-25 -43 -14 -18 -25 -36 -25 -39 0 -4 -16 -32 -36 -63 -92 -144 -252 -517
-232 -542 6 -7 13 -11 15 -8 3 2 35 -7 71 -20 37 -13 70 -24 73 -24 4 0 21 39
39 88 54 143 201 438 242 486 10 11 18 25 18 32 0 7 3 14 8 16 4 2 19 21 33
44 60 91 200 256 313 369 135 134 228 212 361 303 50 34 95 65 100 69 31 24
292 158 380 195 60 25 178 69 192 72 7 1 15 5 19 9 8 8 -45 178 -55 176 -3 -1
-24 -7 -46 -14z"/>
<path d="M3600 5346 c0 -9 -4 -24 -9 -34 -16 -32 -53 -133 -50 -136 2 -1 27
-11 54 -21 88 -32 300 -127 303 -136 2 -5 9 -9 14 -9 23 0 342 -199 368 -229
3 -3 25 -22 50 -41 69 -53 106 -86 225 -205 159 -158 299 -339 412 -530 39
-67 163 -317 168 -339 1 -6 5 -18 8 -26 4 -8 16 -41 28 -73 13 -36 26 -57 33
-54 7 3 39 12 72 22 32 9 67 22 77 30 16 12 16 16 3 46 -8 19 -31 77 -52 129
-20 52 -59 138 -85 191 -27 53 -49 101 -49 107 0 7 -4 12 -10 12 -5 0 -10 7
-10 15 0 8 -4 15 -10 15 -5 0 -10 4 -10 10 0 9 -58 110 -69 120 -4 3 -31 42
-61 88 -30 45 -58 82 -62 82 -5 0 -8 6 -8 14 0 8 -3 16 -7 18 -5 2 -40 41 -80
88 -205 244 -418 424 -728 617 -59 37 -322 164 -400 193 -49 18 -96 38 -102
43 -9 7 -13 5 -13 -7z"/>
<path d="M2535 4038 c-33 -5 -71 -10 -85 -12 -194 -26 -478 -160 -639 -301
-59 -51 -136 -130 -177 -181 -21 -27 -42 -50 -46 -52 -5 -2 -8 -8 -8 -13 0
-11 -42 -72 -52 -77 -5 -2 -8 -9 -8 -16 0 -6 -10 -27 -23 -46 -40 -61 -114
-253 -132 -345 -11 -53 -14 -69 -21 -110 -10 -55 -11 -307 -1 -376 20 -143 74
-319 130 -419 10 -19 29 -53 40 -75 37 -69 152 -217 223 -287 178 -175 415
-306 639 -353 130 -28 199 -37 300 -37 281 -2 535 73 770 230 101 67 144 102
221 182 62 65 164 194 164 208 0 5 6 15 14 21 18 15 102 186 127 260 21 59 49
163 54 196 2 11 7 45 11 75 11 66 11 283 2 360 -11 89 -46 225 -77 305 -4 11
-29 63 -54 116 -129 264 -364 498 -625 620 -116 54 -117 54 -197 77 -58 17
-88 25 -145 37 -87 19 -309 26 -405 13z"/>
<path d="M150 1855 c-82 -31 -76 -29 -111 -39 l-27 -8 24 -64 c62 -172 142
-337 243 -504 67 -111 74 -122 87 -136 6 -7 25 -35 43 -63 18 -28 37 -51 41
-51 5 0 11 -8 14 -17 3 -10 18 -32 33 -48 16 -17 43 -48 62 -70 101 -121 311
-316 441 -411 104 -77 160 -114 169 -114 5 0 11 -4 13 -8 7 -20 244 -147 383
-206 95 -41 268 -107 270 -103 1 1 15 41 32 89 l31 86 -77 28 c-553 198 -1001
547 -1329 1036 -29 42 -52 80 -52 84 0 4 -6 15 -14 23 -32 35 -151 283 -206
429 -17 45 -32 82 -33 81 -1 0 -18 -6 -37 -14z"/>
<path d="M5164 1796 c-15 -39 -37 -95 -50 -124 -13 -28 -24 -54 -24 -57 -1 -8
-105 -207 -139 -263 -55 -93 -168 -254 -183 -260 -5 -2 -8 -10 -8 -17 0 -8 -6
-18 -12 -22 -7 -4 -35 -34 -62 -66 -65 -78 -196 -209 -276 -277 -36 -30 -67
-57 -70 -60 -14 -14 -129 -99 -157 -115 -18 -11 -33 -23 -33 -27 0 -4 -7 -8
-15 -8 -8 0 -15 -4 -15 -10 0 -5 -4 -10 -10 -10 -5 0 -34 -16 -64 -35 -97 -62
-292 -156 -432 -209 -68 -25 -70 -27 -66 -56 2 -17 7 -30 11 -30 4 0 13 -22
20 -49 7 -28 18 -54 24 -59 23 -18 380 142 525 234 29 19 54 34 56 34 15 0
263 182 341 249 42 37 275 270 305 306 231 274 390 545 513 876 l25 65 -89 31
-89 30 -26 -71z"/>
</g>
</svg>
