<?xml version="1.0" standalone="no"?>
<!DOCTYPE svg PUBLIC "-//W3C//DTD SVG 1.1//EN" "http://www.w3.org/Graphics/SVG/1.1/DTD/svg11.dtd" >
<svg xmlns="http://www.w3.org/2000/svg" xmlns:xlink="http://www.w3.org/1999/xlink" version="1.1">
<metadata>
Created by FontForge 20170925 at Thu Apr 17 03:42:29 2014
 By Jimmy Wärting
Copyright \(c\) 2008 by Ramiz Guseynov. All rights reserved.
</metadata>
<defs>
<font id="DecimaMonoX-Light" horiz-adv-x="600" >
  <font-face 
    font-family="Decima Mono X"
    font-weight="300"
    font-stretch="normal"
    units-per-em="1000"
    panose-1="2 0 5 9 0 0 0 2 0 4"
    ascent="789"
    descent="-211"
    x-height="500"
    cap-height="700"
    bbox="0 -210 632 904"
    underline-thickness="50"
    underline-position="-100"
    unicode-range="U+0020-FB02"
  />
<missing-glyph 
 />
    <glyph glyph-name="fi" unicode="fi" 
d="M184 457v-457h-49v457h-72v43h72v66c0 87 59 144 143 144c33 0 61 -6 85 -17l-27 -36c-13 7 -33 11 -58 11c-57 0 -94 -39 -94 -98v-70h271v-457h80v-43h-222v43h92v414h-221zM460 620h-66v70h66v-70z" />
    <glyph glyph-name="fl" unicode="fl" 
d="M64 500h71v64c0 84 58 136 143 136h176v-657h81v-43h-222v43h91v614h-126c-59 0 -94 -31 -94 -90v-67h132v-43h-132v-457h-49v457h-71v43z" />
    <glyph glyph-name=".notdef" 
 />
    <glyph glyph-name="NULL" horiz-adv-x="0" 
 />
    <glyph glyph-name="CR" horiz-adv-x="333" 
 />
    <glyph glyph-name="space" unicode=" " 
 />
    <glyph glyph-name="exclam" unicode="!" 
d="M335 0h-70v70h70v-70zM273 700h52v-550h-52v550z" />
    <glyph glyph-name="quotedbl" unicode="&#x22;" 
d="M230 483h-35v227h68zM370 483h-34v227h68z" />
    <glyph glyph-name="numbersign" unicode="#" 
d="M205 455h-101v45h107l28 200h45l-28 -200h132l28 200h45l-28 -200h97v-45h-103l-29 -204h98v-45h-104l-29 -206h-45l29 206h-132l-29 -206h-45l29 206h-100v45h106zM382 455h-132l-29 -204h132z" />
    <glyph glyph-name="dollar" unicode="$" 
d="M324 -61h-49v61c-47 5 -86 24 -116 57c-29 33 -44 72 -44 117v24h52v-24c0 -72 56 -127 133 -127s132 53 132 125c0 201 -307 140 -307 357c0 44 14 82 43 114s64 51 107 56v62h49v-62c43 -5 79 -24 108 -55s44 -71 45 -118h-51c-3 72 -55 127 -126 127
c-34 0 -63 -12 -87 -35s-36 -52 -36 -86c0 -174 307 -125 307 -355c0 -47 -15 -87 -45 -120s-68 -52 -115 -57v-61z" />
    <glyph glyph-name="percent" unicode="%" 
d="M301 610v-101c0 -57 -48 -103 -108 -103c-59 0 -106 46 -106 103v101c0 57 47 99 106 99c61 0 108 -42 108 -99zM256 512v90c0 36 -27 64 -63 64s-62 -28 -62 -64v-89c0 -36 27 -64 64 -64c33 0 61 28 61 63zM517 194v-101c0 -57 -48 -103 -108 -103
c-59 0 -106 46 -106 103v101c0 57 47 99 106 99c61 0 108 -42 108 -99zM472 96v90c0 36 -27 64 -63 64s-62 -28 -62 -64v-89c0 -36 27 -64 64 -64c33 0 61 28 61 63zM50 229v47l500 195v-47z" />
    <glyph glyph-name="ampersand" unicode="&#x26;" 
d="M151 700h290v-49h-237v-21l217 -513c5 14 7 30 7 47v149h52v-146c0 -43 -11 -79 -34 -109l27 -58l-48 -18l-20 42c-28 -23 -64 -34 -107 -34c-53 0 -96 17 -129 51c-33 35 -49 77 -49 127v152c0 61 42 117 98 141l-67 152v87zM300 38c31 0 62 13 75 24l10 7l-148 346
c-39 -19 -64 -57 -64 -96v-152c0 -73 52 -129 127 -129z" />
    <glyph glyph-name="quotesingle" unicode="'" 
d="M301 483h-35v227h68z" />
    <glyph glyph-name="parenleft" unicode="(" 
d="M385 -147v-48c-48 1 -88 18 -121 53s-49 76 -49 125v556c0 46 17 86 50 120c34 35 74 54 120 57v-50c-68 -3 -117 -57 -117 -128v-557c0 -35 11 -64 33 -89s50 -38 84 -39z" />
    <glyph glyph-name="parenright" unicode=")" 
d="M215 -195v48c34 1 62 14 84 39c23 25 34 54 34 89v557c0 71 -50 125 -118 128v50c48 -1 88 -18 121 -53c33 -34 49 -75 49 -124v-556c0 -46 -17 -86 -51 -121c-33 -35 -73 -54 -119 -57z" />
    <glyph glyph-name="asterisk" unicode="*" 
d="M282 625v85h35v-85l83 27l9 -31l-83 -32l50 -68l-26 -20l-51 69l-46 -69l-29 20l46 70l-80 24l10 33z" />
    <glyph glyph-name="plus" unicode="+" 
d="M274 308v182h51v-182h182v-50h-182v-183h-51v183h-181v50h181z" />
    <glyph glyph-name="comma" unicode="," 
d="M299 0h-32v70h69v-75l-37 -115h-36z" />
    <glyph glyph-name="hyphen" unicode="-" 
d="M188 308h223v-50h-223v50z" />
    <glyph glyph-name="period" unicode="." 
d="M335 0h-70v70h70v-70z" />
    <glyph glyph-name="slash" unicode="/" 
d="M156 -181h-50l338 881h49z" />
    <glyph glyph-name="zero" unicode="0" 
d="M471 533v-366c0 -49 -17 -91 -50 -126c-33 -34 -73 -51 -121 -51s-89 17 -122 52s-50 77 -50 126v365c0 49 17 91 50 125c33 35 74 52 122 52s88 -17 121 -52c33 -34 50 -76 50 -125zM420 166v366c0 36 -12 67 -35 92s-52 38 -85 38c-69 0 -121 -57 -121 -130v-365
c0 -36 11 -67 34 -92s52 -37 87 -37c33 0 62 12 85 37s35 55 35 91z" />
    <glyph glyph-name="one" unicode="1" 
d="M153 633v48l113 19h55v-652h142v-48h-326v48h132v602z" />
    <glyph glyph-name="two" unicode="2" 
d="M178 533h-52c1 52 18 94 53 127s78 50 127 50s91 -17 125 -51c34 -33 51 -75 51 -125c0 -33 -8 -65 -23 -95c-31 -60 -78 -96 -133 -144c-27 -23 -52 -45 -75 -66c-45 -40 -80 -100 -80 -163v-18h311v-48h-364v60c0 88 49 165 110 217c89 77 201 153 201 263
c0 34 -12 63 -37 86c-24 24 -53 36 -88 36c-71 0 -123 -56 -126 -129z" />
    <glyph glyph-name="three" unicode="3" 
d="M300 -10c-51 0 -93 17 -128 51c-35 35 -52 77 -52 126v4h52v-5c0 -36 12 -66 37 -91s55 -37 91 -37s66 12 91 37s37 56 37 92v137c0 65 -40 107 -101 107h-59v55l137 185h-246v49h304v-55l-140 -186c43 0 80 -14 111 -41s46 -65 46 -114v-136c0 -49 -18 -91 -53 -126
s-77 -52 -127 -52z" />
    <glyph glyph-name="four" unicode="4" 
d="M378 158h-269v61l226 481h56l-229 -492h216v190h54v-190h59v-50h-59v-158h-54v158z" />
    <glyph glyph-name="five" unicode="5" 
d="M120 167v4h52v-5c0 -36 12 -66 37 -91s55 -37 91 -37c73 0 128 55 128 131v114c0 79 -51 134 -126 134c-49 0 -89 -27 -105 -52l-53 15l29 320h283v-49h-235l-19 -224c3 3 7 6 13 10c12 9 56 28 97 28c49 0 89 -17 120 -51c32 -34 48 -77 48 -130v-114
c0 -50 -17 -93 -52 -128s-77 -52 -128 -52s-93 17 -128 51c-35 35 -52 77 -52 126z" />
    <glyph glyph-name="six" unicode="6" 
d="M298 710c49 0 90 -17 123 -51c33 -33 49 -71 49 -112v-8h-51c0 3 0 8 -1 13c-3 28 -15 53 -37 75c-21 23 -49 34 -82 34c-37 0 -68 -13 -92 -38c-23 -25 -35 -55 -35 -92v-136c3 4 4 8 20 24c21 21 57 45 113 45c48 0 89 -17 123 -51c35 -34 52 -76 52 -126v-119
c0 -49 -17 -91 -52 -126s-78 -52 -129 -52s-93 17 -128 51c-35 35 -52 77 -52 126v365c0 50 17 92 50 126c34 35 77 52 129 52zM302 416c-72 0 -130 -53 -130 -130v-120c0 -72 55 -128 127 -128c36 0 66 12 91 37s37 56 37 92v119c0 77 -54 130 -125 130z" />
    <glyph glyph-name="seven" unicode="7" 
d="M302 0h-54c1 55 10 118 27 187c17 70 36 132 56 185c21 53 39 106 56 159s25 93 25 120h-276v49h328v-60c0 -25 -8 -64 -25 -118c-17 -53 -35 -107 -55 -162c-20 -54 -39 -115 -56 -183s-25 -127 -26 -177z" />
    <glyph glyph-name="eight" unicode="8" 
d="M470 544v-30c0 -59 -33 -111 -60 -130l-19 -13c5 -3 11 -4 31 -23c26 -24 58 -66 58 -131v-50c0 -49 -17 -91 -52 -126c-35 -34 -77 -51 -128 -51c-52 0 -95 17 -130 51c-34 35 -51 77 -51 127v49c0 86 57 134 81 149l9 5c-4 3 -9 5 -28 21c-24 23 -52 63 -52 123v29
c0 47 16 86 48 118c33 32 74 48 123 48c48 0 88 -16 121 -48s49 -71 49 -118zM426 166v50c0 36 -12 66 -37 91c-24 25 -54 38 -90 38c-35 0 -65 -13 -90 -38c-24 -25 -36 -55 -36 -91v-49c0 -73 54 -129 127 -129c35 0 65 12 89 37c25 25 37 55 37 91zM419 513v27
c0 69 -51 122 -120 122c-33 0 -62 -12 -85 -35s-34 -52 -34 -87v-26c0 -65 48 -120 120 -120c69 0 119 51 119 119z" />
    <glyph glyph-name="nine" unicode="9" 
d="M301 -10c-49 0 -90 17 -123 50c-33 34 -49 72 -49 113v8h51c0 -3 0 -8 1 -13c3 -28 15 -53 36 -76c22 -22 50 -33 83 -33c37 0 68 12 91 37c24 25 36 56 36 93v136c-3 -4 -4 -8 -20 -24c-21 -21 -57 -45 -113 -45c-48 0 -89 17 -124 51c-34 34 -51 76 -51 126v119
c0 49 17 91 52 126s78 52 129 52s93 -17 128 -52c35 -34 52 -76 52 -125v-365c0 -50 -17 -92 -51 -127c-33 -34 -76 -51 -128 -51zM297 284c72 0 130 53 130 130v120c0 72 -55 128 -127 128c-36 0 -66 -13 -91 -38s-37 -55 -37 -91v-119c0 -77 54 -130 125 -130z" />
    <glyph glyph-name="colon" unicode=":" 
d="M335 0h-70v70h70v-70zM335 430h-70v70h70v-70z" />
    <glyph glyph-name="semicolon" unicode=";" 
d="M299 0h-32v70h69v-75l-37 -115h-36zM337 430h-70v70h70v-70z" />
    <glyph glyph-name="less" unicode="&#x3c;" 
d="M504 70l-408 184v58l408 184v-55l-356 -156v-4l356 -155v-56z" />
    <glyph glyph-name="equal" unicode="=" 
d="M93 229h413v-50h-413v50zM93 389h413v-50h-413v50z" />
    <glyph glyph-name="greater" unicode="&#x3e;" 
d="M96 496l408 -184v-58l-408 -184v56l356 155v4l-356 156v55z" />
    <glyph glyph-name="question" unicode="?" 
d="M174 533h-52c1 52 18 94 52 127c35 33 77 50 126 50c51 0 93 -16 127 -49c34 -32 51 -74 51 -127c0 -68 -26 -119 -59 -155c-47 -51 -106 -105 -108 -229h-51c1 88 27 154 59 193c46 56 106 102 106 196c0 34 -12 63 -37 86c-24 23 -53 35 -88 35
c-71 0 -123 -55 -126 -127zM321 0h-70v70h70v-70z" />
    <glyph glyph-name="at" unicode="@" 
d="M282 364v-235c0 -57 34 -96 83 -96c52 0 88 39 88 96v235c0 56 -35 89 -87 89c-51 0 -84 -33 -84 -89zM444 466l9 -11v59c0 43 -15 78 -44 107s-65 43 -108 43c-45 0 -82 -14 -111 -43s-43 -64 -43 -107v-496c0 -43 14 -79 43 -108s63 -44 104 -44v-46
c-55 1 -101 20 -140 59c-38 38 -57 84 -57 139v496c0 55 19 101 58 139s87 57 146 57c57 0 105 -19 143 -57c39 -38 58 -84 58 -139v-514h-45l-2 42c-2 -4 -5 -9 -10 -14c-9 -11 -46 -36 -85 -36c-37 0 -67 12 -91 37s-36 57 -36 94v248c0 35 12 65 36 90c25 25 55 38 91 38
c39 0 72 -18 84 -33z" />
    <glyph glyph-name="A" unicode="A" 
d="M121 274l125 426h108l125 -426v-274h-52v239h-254v-239h-52v274zM178 287h244l-104 365h-36z" />
    <glyph glyph-name="B" unicode="B" 
d="M142 700h170c43 0 79 -14 108 -43c29 -28 43 -62 43 -103v-58c0 -67 -47 -109 -67 -120l-8 -5c4 -3 9 -4 28 -21c25 -20 54 -57 54 -115v-76c0 -45 -16 -83 -49 -114c-32 -30 -70 -45 -113 -45h-166v700zM315 650h-121v-258h121c55 0 100 45 100 100v58
c0 55 -45 100 -100 100zM308 346h-114v-298h114c64 0 111 51 111 111v76c0 25 -10 50 -29 74c-19 25 -47 37 -82 37z" />
    <glyph glyph-name="C" unicode="C" 
d="M431 169h52v-4c0 -49 -17 -90 -52 -124s-77 -51 -126 -51c-50 0 -92 17 -127 51c-35 35 -52 76 -52 125v369c0 49 17 90 51 124s77 51 128 51c50 0 92 -17 126 -51s51 -75 51 -124h-51c-1 35 -13 65 -38 90s-54 38 -89 38c-72 0 -126 -57 -126 -129v-367
c0 -35 13 -66 38 -91s55 -38 89 -38c35 0 65 12 89 36c25 25 37 55 37 90v5z" />
    <glyph glyph-name="D" unicode="D" 
d="M478 524v-348c0 -49 -17 -91 -51 -125c-33 -34 -75 -51 -125 -51h-171v700h171c50 0 92 -17 125 -51c34 -33 51 -75 51 -125zM426 174v349c0 73 -54 127 -127 127h-116v-602h116c73 0 127 53 127 126z" />
    <glyph glyph-name="E" unicode="E" 
d="M147 0v700h314v-48h-262v-258h238v-48h-238v-298h271v-48h-323z" />
    <glyph glyph-name="F" unicode="F" 
d="M156 0v700h314v-48h-262v-258h249v-48h-249v-346h-52z" />
    <glyph glyph-name="G" unicode="G" 
d="M333 343h156v-178c0 -49 -17 -91 -52 -125c-34 -33 -78 -50 -131 -50c-55 0 -99 17 -134 51s-52 76 -52 125v369c0 49 17 91 52 124c35 34 79 51 134 51c53 0 96 -17 129 -50s49 -75 49 -125h-52c-1 71 -53 125 -126 125c-80 0 -134 -54 -134 -126v-369
c0 -72 54 -127 134 -127c77 0 131 54 131 126v131h-104v48z" />
    <glyph glyph-name="H" unicode="H" 
d="M427 394v306h52v-700h-52v346h-254v-346h-52v700h52v-306h254z" />
    <glyph glyph-name="I" unicode="I" 
d="M275 652h-156v48h362v-48h-154v-604h154v-48h-362v48h156v604z" />
    <glyph glyph-name="J" unicode="J" 
d="M116 165v63h52v-64c0 -35 12 -65 36 -90c25 -24 55 -36 90 -36c36 0 66 12 90 37c25 25 37 55 37 90v487h-271v48h323v-534c0 -49 -17 -90 -52 -125c-34 -34 -75 -51 -123 -51h-7c-49 0 -90 17 -124 51s-51 75 -51 124z" />
    <glyph glyph-name="K" unicode="K" 
d="M140 700h52v-324l247 324h60l-252 -328l267 -372h-62l-260 365v-365h-52v700z" />
    <glyph glyph-name="L" unicode="L" 
d="M155 0v700h52v-652h291v-48h-343z" />
    <glyph glyph-name="M" unicode="M" 
d="M300 368l131 332h69v-700h-52v565l3 56l-3 1l-123 -304h-51l-123 304l-3 -1l3 -56v-565h-51v700h69z" />
    <glyph glyph-name="N" unicode="N" 
d="M428 138v562h51v-700h-65l-227 566l-16 61l-3 -1l4 -64v-562h-51v700h65l226 -566l17 -61l3 1z" />
    <glyph glyph-name="O" unicode="O" 
d="M484 535v-370c0 -49 -17 -91 -52 -125c-34 -33 -78 -50 -132 -50s-98 17 -133 51s-52 76 -52 125v369c0 49 17 91 52 124c35 34 79 51 133 51s98 -17 132 -51c35 -33 52 -75 52 -124zM432 164v370c0 72 -53 128 -132 128c-80 0 -133 -56 -133 -128v-369
c0 -72 53 -127 133 -127c79 0 132 54 132 126z" />
    <glyph glyph-name="P" unicode="P" 
d="M200 0h-52v700h178c41 0 76 -14 104 -42c28 -27 42 -62 42 -104v-152c0 -43 -14 -78 -42 -106c-28 -27 -63 -41 -104 -41h-126v-255zM420 399v154c0 56 -41 97 -97 97h-123v-347h123c56 0 97 40 97 96z" />
    <glyph glyph-name="Q" unicode="Q" 
d="M423 164v370c0 72 -53 128 -132 128s-133 -56 -133 -128v-369c0 -24 5 -43 14 -58c0 0 31 69 107 69c35 0 66 -14 92 -41l35 -36c11 20 17 42 17 65zM291 38c33 0 61 9 84 26l-40 41c-17 17 -36 25 -58 25c-32 0 -60 -25 -71 -45l-7 -15c27 -21 57 -32 92 -32zM475 535
v-370c0 -37 -11 -71 -33 -104l51 -52l-32 -32l-51 52c-33 -26 -72 -39 -119 -39c-54 0 -98 17 -133 51s-52 76 -52 125v369c0 49 17 91 52 124c35 34 79 51 133 51s98 -17 132 -51c35 -33 52 -75 52 -124z" />
    <glyph glyph-name="R" unicode="R" 
d="M484 0h-56l-111 267h-120v-267h-52v700h168c95 0 156 -61 156 -146v-140c0 -64 -40 -120 -99 -139zM417 411v142c0 57 -40 97 -105 97h-115v-335h123c56 0 97 40 97 96z" />
    <glyph glyph-name="S" unicode="S" 
d="M477 535h-51c-3 72 -55 127 -126 127c-34 0 -63 -12 -87 -35s-36 -52 -36 -86c-1 -88 77 -122 153 -166c27 -15 51 -31 74 -47c47 -31 80 -88 80 -160c0 -50 -18 -92 -53 -127c-35 -34 -78 -51 -131 -51c-54 0 -98 17 -133 50c-35 34 -52 76 -52 125v24h52v-24
c0 -72 56 -127 133 -127s132 53 132 125c0 73 -48 126 -109 157c-87 47 -198 92 -198 218c0 48 17 89 51 122c35 33 76 50 124 50c49 0 90 -16 124 -49c35 -33 52 -75 53 -126z" />
    <glyph glyph-name="T" unicode="T" 
d="M274 652h-173v48h398v-48h-173v-652h-52v652z" />
    <glyph glyph-name="U" unicode="U" 
d="M432 164v536h52v-535c0 -49 -17 -90 -51 -124s-75 -51 -124 -51h-19c-48 0 -89 17 -124 51c-34 35 -51 76 -51 125v534h52v-535c0 -35 12 -65 36 -90c25 -25 55 -37 91 -37h12c35 0 65 12 89 36c25 25 37 55 37 90z" />
    <glyph glyph-name="V" unicode="V" 
d="M121 700h52v-278l108 -374h38l108 374v278h52v-276l-125 -424h-108l-125 424v276z" />
    <glyph glyph-name="W" unicode="W" 
d="M418 48l34 377v275h52v-278l-42 -422h-96l-62 315h-9l-63 -315h-95l-42 422v278h52v-275l34 -377h14l69 332h72l68 -332h14z" />
    <glyph glyph-name="X" unicode="X" 
d="M108 700h59l132 -283l133 283h59l-161 -336l177 -364h-61l-147 312l-146 -312h-61l176 364z" />
    <glyph glyph-name="Y" unicode="Y" 
d="M96 700h58l147 -309l145 309h57l-177 -367v-333h-52v333z" />
    <glyph glyph-name="Z" unicode="Z" 
d="M480 700v-53l-303 -599h302v-48h-359v53l303 599h-288v48h345z" />
    <glyph glyph-name="bracketleft" unicode="[" 
d="M268 -132h117v-48h-170v880h170v-51h-117v-781z" />
    <glyph glyph-name="backslash" unicode="\" 
d="M106 700h49l338 -881h-50z" />
    <glyph glyph-name="bracketright" unicode="]" 
d="M385 -180h-170v48h118v781h-118v51h170v-880z" />
    <glyph glyph-name="asciicircum" unicode="^" 
d="M125 352l151 348h49l152 -348h-46l-130 309l-131 -309h-45z" />
    <glyph glyph-name="underscore" unicode="_" horiz-adv-x="598" 
d="M0 -129v37h598v-37h-598z" />
    <glyph glyph-name="grave" unicode="`" 
d="M281 675l109 -122h-54l-127 122h72z" />
    <glyph glyph-name="a" unicode="a" 
d="M469 0h-49v53c0 -1 -43 -62 -140 -63c-44 0 -82 14 -113 42s-46 64 -46 107c0 89 70 148 166 155l133 9v46c0 69 -43 118 -112 118c-56 0 -97 -35 -109 -86h-49c12 76 73 129 158 129c103 0 161 -66 161 -162v-348zM286 32c35 0 66 11 93 32s41 46 41 74v122l-121 -7
c-80 -5 -129 -46 -129 -113c0 -61 47 -108 116 -108z" />
    <glyph glyph-name="b" unicode="b" 
d="M432 159v182c0 80 -48 126 -120 126c-77 0 -133 -53 -133 -126v-182c0 -72 57 -126 133 -126c69 0 120 46 120 126zM130 700h49v-252c0 1 42 62 133 62c104 0 169 -67 169 -159v-202c0 -45 -16 -83 -47 -114c-31 -30 -72 -45 -122 -45c-69 0 -115 40 -128 56l-5 7v-53
h-49v700z" />
    <glyph glyph-name="c" unicode="c" 
d="M173 349v-198c0 -68 55 -118 127 -118c69 0 123 45 126 113h47c-3 -45 -20 -82 -52 -112c-31 -29 -72 -44 -121 -44c-53 0 -95 15 -127 46s-48 70 -48 117v194c0 47 16 85 48 116s74 47 127 47c48 0 88 -15 119 -44s48 -66 51 -109h-49c-3 64 -54 110 -121 110
c-72 0 -127 -50 -127 -118z" />
    <glyph glyph-name="d" unicode="d" 
d="M408 464l13 -16v252h49v-700h-49v54c-3 -5 -8 -11 -15 -18s-22 -16 -45 -28s-47 -18 -73 -18c-50 0 -91 15 -122 45c-31 31 -47 69 -47 114v202c0 44 15 81 46 112s72 47 123 47c55 0 104 -26 120 -46zM168 347v-194c0 -69 51 -120 123 -120c35 0 65 12 91 35
c26 24 39 52 39 83v198c0 32 -13 60 -38 83s-56 35 -91 35c-73 0 -124 -51 -124 -120z" />
    <glyph glyph-name="e" unicode="e" 
d="M426 146h48c-5 -91 -74 -156 -174 -156c-52 0 -94 15 -127 44c-32 30 -48 67 -48 111v210c0 44 16 81 48 110c33 30 75 45 127 45c51 0 93 -15 125 -45c33 -30 49 -67 49 -110v-119h-301v-83c0 -71 53 -120 126 -120s124 45 127 113zM173 346v-67h253v68
c0 71 -55 120 -127 120s-126 -50 -126 -121z" />
    <glyph glyph-name="f" unicode="f" 
d="M286 457v-457h-49v457h-102v43h102v66c0 87 59 144 143 144c33 0 61 -6 85 -17l-27 -36c-13 7 -33 11 -58 11c-57 0 -94 -39 -94 -98v-70h172v-43h-172z" />
    <glyph glyph-name="g" unicode="g" 
d="M410 18h-220c-41 0 -74 -33 -74 -77s33 -76 74 -76h220c41 0 76 33 76 76c0 44 -33 77 -76 77zM392 296v68c0 57 -49 103 -106 103c-60 0 -107 -44 -107 -103v-68c0 -29 10 -53 31 -73c21 -19 47 -29 76 -29c28 0 53 10 74 30s32 44 32 72zM491 513h-11
c-21 0 -36 -6 -45 -19l-27 -38c23 -29 35 -60 35 -91v-69c0 -39 -16 -74 -47 -103s-67 -43 -110 -43l-14 1v-88h149c32 0 59 -12 82 -36c23 -23 34 -52 34 -86c0 -68 -52 -121 -116 -121h-243c-64 0 -115 53 -115 121s51 122 115 122h40v102c-19 7 -39 21 -60 44
c-20 23 -30 52 -30 87v69c0 39 15 73 46 102s69 43 112 43c35 0 64 -9 87 -26l38 46c15 18 38 27 69 27h11v-44z" />
    <glyph glyph-name="h" unicode="h" 
d="M480 350v-350h-49v340c0 80 -48 128 -120 128c-37 0 -68 -12 -94 -35s-39 -51 -39 -83v-350h-49v700h49v-256c3 5 8 11 14 18c7 7 22 17 45 29c23 13 49 19 76 19c51 0 91 -15 121 -46c31 -31 46 -69 46 -114z" />
    <glyph glyph-name="i" unicode="i" 
d="M119 457v43h210v-457h142v-43h-352v43h160v414h-160zM334 597h-66v70h66v-70z" />
    <glyph glyph-name="j" unicode="j" 
d="M138 500h287v-540c0 -88 -58 -150 -151 -150c-45 0 -80 10 -107 29l25 37c21 -15 48 -23 82 -23c63 0 101 44 101 109v495h-237v43zM427 597h-64v70h64v-70z" />
    <glyph glyph-name="k" unicode="k" 
d="M496 0h-63l-223 259v-259h-48v700h48v-427l206 227h64l-216 -233z" />
    <glyph glyph-name="l" unicode="l" 
d="M169 657v43h161v-657h152v-43h-344v43h142v614h-111z" />
    <glyph glyph-name="m" unicode="m" 
d="M99 500h44l2 -39l9 13c9 11 43 34 76 34c36 0 67 -21 76 -38l7 -12c2 4 5 9 10 14c9 11 48 36 85 36c55 0 93 -39 93 -102v-406h-48v399c0 44 -22 67 -55 67c-36 0 -73 -35 -73 -80v-386h-48v399c0 39 -24 67 -55 67c-40 0 -75 -38 -75 -81v-385h-48v500z" />
    <glyph glyph-name="n" unicode="n" 
d="M480 350v-350h-49v340c0 80 -48 128 -120 128c-37 0 -68 -12 -94 -35s-39 -51 -39 -83v-350h-49v500h47l2 -56c3 5 8 11 14 18c7 7 22 17 45 29c23 13 49 19 76 19c51 0 91 -15 121 -46c31 -31 46 -69 46 -114z" />
    <glyph glyph-name="o" unicode="o" 
d="M474 355v-210c0 -43 -16 -80 -49 -110c-32 -30 -74 -45 -125 -45c-52 0 -94 15 -127 44c-32 30 -48 67 -48 111v210c0 44 16 81 48 110c33 30 75 45 127 45c51 0 93 -15 125 -45c33 -30 49 -67 49 -110zM426 151v198c0 33 -12 61 -37 84s-55 34 -90 34s-65 -11 -90 -34
c-24 -23 -36 -51 -36 -84v-198c0 -33 12 -61 36 -84c25 -23 55 -34 91 -34c35 0 65 11 89 34c25 23 37 51 37 84z" />
    <glyph glyph-name="p" unicode="p" 
d="M432 159v182c0 80 -51 126 -120 126c-76 0 -133 -54 -133 -126v-182c0 -72 57 -126 133 -126c68 0 120 47 120 126zM192 39l-13 16v-235h-49v680h47l2 -55c3 5 8 11 14 18c7 7 21 17 44 29s48 18 75 18c50 0 91 -15 122 -46c31 -30 47 -68 47 -113v-202
c0 -45 -16 -83 -47 -114c-31 -30 -72 -45 -122 -45c-53 0 -103 28 -120 49z" />
    <glyph glyph-name="q" unicode="q" 
d="M168 341v-182c0 -79 52 -126 120 -126c76 0 133 54 133 126v182c0 72 -57 126 -133 126c-69 0 -120 -46 -120 -126zM470 -180h-49v235c-3 -5 -8 -11 -15 -18c-6 -7 -21 -17 -44 -29s-47 -18 -74 -18c-50 0 -91 15 -122 45c-31 31 -47 69 -47 114v202c0 45 16 83 47 113
c31 31 72 46 122 46c53 0 101 -27 120 -48l13 -17l2 55h47v-680z" />
    <glyph glyph-name="r" unicode="r" 
d="M194 43v457h47l2 -57c1 0 37 65 124 65c45 0 79 -13 102 -40s37 -57 40 -91h-51c-3 52 -39 90 -95 90c-29 0 -57 -12 -82 -35s-37 -50 -37 -79v-310h199v-43h-353v43h104z" />
    <glyph glyph-name="s" unicode="s" 
d="M460 377h-51c-1 51 -49 90 -106 90c-25 0 -48 -8 -69 -24c-40 -31 -39 -83 -4 -114c36 -29 91 -45 142 -68c51 -21 91 -66 91 -133c0 -39 -15 -71 -46 -98s-69 -40 -114 -40c-51 0 -91 15 -121 44c-30 30 -45 65 -45 106h49c1 -60 50 -107 117 -107c64 0 110 40 110 95
c0 48 -40 79 -91 98c-74 29 -167 59 -167 154c0 39 15 70 44 94s65 36 108 36c45 0 81 -14 108 -42s42 -58 45 -91z" />
    <glyph glyph-name="t" unicode="t" 
d="M188 457h-77v43h77v140h48v-140h242v-43h-242v-316c0 -60 39 -107 107 -107c57 0 99 46 100 91h44c-1 -35 -15 -67 -43 -94s-62 -41 -102 -41c-96 0 -154 61 -154 153v314z" />
    <glyph glyph-name="u" unicode="u" 
d="M125 150v350h49v-340c0 -81 48 -128 120 -128c37 0 68 12 94 35s39 51 39 83v350h49v-500h-47l-2 56c-3 -5 -8 -11 -15 -18c-6 -7 -21 -17 -44 -30c-23 -12 -49 -18 -76 -18c-101 0 -167 67 -167 160z" />
    <glyph glyph-name="v" unicode="v" 
d="M130 500h50v-183l111 -275h18l111 275v183h49v-186l-126 -314h-86l-127 314v186z" />
    <glyph glyph-name="w" unicode="w" 
d="M409 42l51 276v182h48v-187l-61 -313h-89l-55 271h-7l-54 -271h-89l-61 313v187h48v-182l53 -276h14l58 280h71l59 -280h14z" />
    <glyph glyph-name="x" unicode="x" 
d="M126 500h58l116 -203l116 203h58l-145 -244l151 -256h-57l-123 214l-123 -214h-58l151 256z" />
    <glyph glyph-name="y" unicode="y" 
d="M91 500h55l152 -425l154 425h55l-257 -680h-50l71 187z" />
    <glyph glyph-name="z" unicode="z" 
d="M456 500v-47l-265 -410h269v-43h-320v48l266 409h-250v43h300z" />
    <glyph glyph-name="braceleft" unicode="{" 
d="M412 -142v-48c-47 1 -87 18 -120 53s-49 76 -49 125v189c0 33 -24 64 -56 65v48c32 1 56 31 56 64v179c0 46 17 86 50 120c33 35 73 54 119 57v-50c-68 -3 -117 -57 -117 -128v-170c0 -45 -32 -86 -61 -94v-4c29 -9 61 -50 61 -95v-183c0 -35 11 -64 33 -89
s50 -38 84 -39z" />
    <glyph glyph-name="bar" unicode="|" 
d="M323 -180h-46v880h46v-880z" />
    <glyph glyph-name="braceright" unicode="}" 
d="M187 -190v48c34 1 62 14 84 39s33 54 33 89v183c0 45 32 86 61 95v4c-29 8 -61 49 -61 94v170c0 71 -49 125 -117 128v50c46 -3 86 -22 119 -57c33 -34 50 -74 50 -120v-179c0 -33 24 -63 56 -64v-48c-32 -1 -56 -32 -56 -65v-189c0 -49 -16 -90 -49 -125
s-73 -52 -120 -53z" />
    <glyph glyph-name="asciitilde" unicode="~" 
d="M203 348c25 0 60 -10 103 -30c44 -19 74 -29 91 -29c41 0 66 23 66 51h45c0 -53 -46 -98 -111 -98c-25 0 -60 10 -104 29c-43 20 -73 30 -90 30c-41 0 -66 -23 -66 -51h-45c0 53 46 98 111 98z" />
    <glyph glyph-name="exclamdown" unicode="&#xa1;" 
d="M335 430h-70v70h70v-70zM273 350h52v-549h-52v549z" />
    <glyph glyph-name="cent" unicode="&#xa2;" 
d="M323 -62h-46v61c-93 9 -152 75 -152 162v180c0 87 59 153 152 162v59h46v-59c84 -9 142 -73 147 -152h-49c-3 64 -54 110 -121 110c-72 0 -127 -50 -127 -118v-184c0 -68 55 -118 127 -118c69 0 123 45 126 113h47c-5 -83 -63 -146 -150 -155v-61z" />
    <glyph glyph-name="sterling" unicode="&#xa3;" 
d="M226 48h264v-48h-370v48h54v248h-54v48h54v204c0 47 15 86 45 116c30 31 67 46 112 46c44 0 81 -15 111 -45s45 -66 45 -108v-29h-50v34c0 27 -10 51 -31 70c-21 20 -45 30 -73 30c-61 0 -107 -43 -107 -110v-208h142v-48h-142v-248z" />
    <glyph glyph-name="currency" unicode="&#xa4;" 
d="M514 117l-36 -36l-49 49c-85 -60 -173 -60 -258 0l-49 -49l-36 36l48 50c-29 40 -43 82 -43 127c0 44 15 87 44 130l-49 49l36 36l49 -49c81 57 177 57 258 0l49 49l36 -36l-49 -49c29 -43 44 -86 44 -130c0 -43 -14 -86 -43 -127zM300 135c43 0 80 16 111 47
c32 32 48 70 48 113s-16 81 -47 112c-31 32 -69 48 -112 48s-81 -16 -113 -48c-31 -31 -47 -69 -47 -112c0 -44 16 -82 47 -113s69 -47 113 -47z" />
    <glyph glyph-name="yen" unicode="&#xa5;" 
d="M488 262v-48h-162v-214h-52v214h-163v48h163v71l-5 10h-158v48h135l-150 309h58l146 -305l146 305h58l-150 -309h134v-48h-157l-5 -10v-71h162z" />
    <glyph glyph-name="brokenbar" unicode="&#xa6;" 
d="M323 355h-46v345h46v-345zM323 -180h-46v346h46v-346z" />
    <glyph glyph-name="section" unicode="&#xa7;" 
d="M427 303c0 27 -10 50 -30 67c-19 17 -50 36 -91 55s-71 35 -89 47c-30 -19 -45 -44 -45 -76c0 -27 10 -50 29 -67c20 -17 50 -34 90 -53c41 -19 71 -35 91 -49c30 19 45 45 45 76zM297 -10c-96 0 -151 52 -151 136h52c0 -48 31 -86 99 -86c65 0 96 35 96 75
c0 43 -42 74 -97 97c-77 33 -179 75 -177 176c0 47 20 86 61 117c-19 27 -29 54 -29 81c0 71 56 124 151 124c96 0 151 -52 151 -136h-52c0 48 -31 86 -99 86c-65 0 -96 -36 -96 -75c0 -118 274 -100 274 -273c0 -46 -20 -85 -60 -118c19 -27 28 -53 28 -80
c0 -71 -56 -124 -151 -124z" />
    <glyph glyph-name="dieresis" unicode="&#xa8;" 
d="M245 597h-58v70h58v-70zM412 597h-58v70h58v-70z" />
    <glyph glyph-name="copyright" unicode="&#xa9;" 
d="M91 439v-184c0 -63 20 -116 60 -157c41 -41 90 -62 149 -62c58 0 107 21 146 62c40 41 60 94 60 157v184c0 66 -20 120 -60 161c-39 42 -88 63 -146 63c-59 0 -108 -21 -149 -63c-40 -41 -60 -95 -60 -161zM42 257v180c0 79 25 144 74 195c50 51 111 77 184 77
c72 0 133 -26 182 -77c50 -51 75 -116 75 -195v-180c0 -77 -25 -140 -75 -191s-111 -76 -182 -76c-73 0 -134 25 -184 75c-49 51 -74 115 -74 192zM301 499c-51 0 -84 -37 -84 -89v-131c0 -49 36 -87 87 -87c45 0 79 27 79 63v11h42v-12c0 -27 -12 -51 -35 -74
c-23 -22 -51 -33 -86 -33c-76 0 -130 56 -130 125v148c0 33 12 62 36 86c25 24 56 36 94 36c34 0 62 -11 84 -34s33 -46 33 -71v-12h-43v10c0 32 -33 64 -77 64z" />
    <glyph glyph-name="ordfeminine" unicode="&#xaa;" 
d="M411 400h-46v19c-19 -17 -43 -25 -72 -25c-56 1 -105 43 -105 96c0 52 45 93 104 97l73 5v17c0 32 -23 63 -58 63c-28 0 -52 -22 -57 -50h-48c8 53 49 88 105 88c65 0 104 -42 104 -98v-212zM295 434c39 0 70 25 70 52v66l-72 -4c-32 -3 -59 -26 -59 -57
c0 -29 30 -57 61 -57zM197 340h214v-40h-214v40z" />
    <glyph glyph-name="guillemotleft" unicode="&#xab;" 
d="M184 292l118 -152h-53l-117 152l117 152h53zM349 292l118 -152h-53l-118 152l118 152h53z" />
    <glyph glyph-name="logicalnot" unicode="&#xac;" 
d="M93 389h413v-210h-49v160h-364v50z" />
    <glyph glyph-name="uni00AD" unicode="&#xad;" 
 />
    <glyph glyph-name="registered" unicode="&#xae;" 
d="M402 260h-39l-52 121h-67v-121h-35v319h111c37 0 72 -34 72 -73v-51c0 -28 -20 -57 -44 -68zM358 453v54c0 21 -19 39 -39 39h-75v-133h75c20 0 39 19 39 40zM122 485v-138c0 -53 17 -96 51 -131c34 -34 76 -51 127 -51c50 0 92 17 125 51c34 35 51 78 51 131v138
c0 55 -17 99 -51 134c-33 35 -75 52 -125 52c-51 0 -93 -17 -127 -52s-51 -79 -51 -134zM81 349v134c0 66 21 120 63 163s94 64 156 64s114 -21 155 -64c42 -43 63 -97 63 -163v-134c0 -65 -21 -118 -63 -160s-94 -63 -155 -63c-62 0 -114 21 -156 63s-63 95 -63 160z" />
    <glyph glyph-name="overscore" unicode="&#xaf;" 
d="M430 590h-260v45h260v-45z" />
    <glyph glyph-name="degree" unicode="&#xb0;" 
d="M201 472c-27 27 -40 60 -40 99s13 71 40 98s60 41 99 41s71 -14 98 -41s41 -59 41 -98s-14 -72 -41 -99s-59 -40 -98 -40s-72 13 -99 40zM230 641c-39 -39 -39 -101 0 -140s101 -39 140 0s39 101 0 140s-101 39 -140 0z" />
    <glyph glyph-name="plusminus" unicode="&#xb1;" 
d="M274 343v157h51v-157h181v-50h-181v-154h-51v154h-181v50h181zM93 95h414v-50h-414v50z" />
    <glyph glyph-name="twosuperior" unicode="&#xb2;" 
d="M411 373v-42h-222v35c0 55 44 103 87 130c44 28 88 69 88 113c0 37 -25 61 -60 61c-36 0 -65 -29 -66 -68h-42c0 57 43 108 110 108c59 0 103 -44 103 -101c0 -123 -174 -145 -174 -236h176z" />
    <glyph glyph-name="threesuperior" unicode="&#xb3;" 
d="M194 420h42c0 -31 26 -56 62 -56c43 0 67 27 67 68v49c0 29 -21 53 -49 53h-41v40l73 86h-135v40h186v-38l-73 -87c49 -8 83 -47 83 -94v-49c0 -63 -47 -108 -111 -108c-61 0 -104 41 -104 96z" />
    <glyph glyph-name="acute" unicode="&#xb4;" 
d="M390 675l-127 -122h-54l109 122h72z" />
    <glyph glyph-name="mu" unicode="&#xb5;" 
d="M160 -180h-47v680h47v-338c0 -77 49 -129 113 -129c33 0 63 11 88 34c26 23 39 50 39 82v351h47v-410c0 -25 17 -48 40 -52v-43c-36 1 -68 27 -81 64c-39 -47 -72 -69 -129 -69c-48 0 -87 21 -117 64v-234z" />
    <glyph glyph-name="paragraph" unicode="&#xb6;" 
d="M360 -180h-45v502c-51 5 -94 25 -129 60s-52 78 -52 128c0 53 18 97 55 134s81 56 133 56h144v-880h-45v836h-61v-836z" />
    <glyph glyph-name="middot" unicode="&#xb7;" 
d="M335 258h-70v70h70v-70z" />
    <glyph glyph-name="cedilla" unicode="&#xb8;" 
d="M289 -180h-56v41h51c23 0 37 12 37 31s-11 28 -32 28h-45v80h40v-40h8c45 0 75 -28 75 -69c0 -40 -33 -71 -78 -71z" />
    <glyph glyph-name="onesuperior" unicode="&#xb9;" 
d="M242 646v38l73 16h47v-369h-47v330z" />
    <glyph glyph-name="ordmasculine" unicode="&#xba;" 
d="M412 612v-120c0 -55 -47 -98 -111 -98c-65 0 -113 43 -113 98v120c0 55 48 98 113 98c64 0 111 -43 111 -98zM366 492v120c0 31 -30 58 -66 58c-35 0 -65 -27 -65 -58v-120c0 -31 30 -58 66 -58c35 0 65 27 65 58zM190 340h221v-40h-221v40z" />
    <glyph glyph-name="guillemotright" unicode="&#xbb;" 
d="M467 292l-117 -152h-53l118 152l-118 152h53zM303 292l-118 -152h-53l118 152l-118 152h53z" />
    <glyph glyph-name="onequarter" unicode="&#xbc;" 
d="M132 0h-41l351 700h41zM464 78h-162v42l123 249h48l-125 -249h116v85h45v-85h37v-42h-37v-78h-45v78zM66 646v38l73 16h47v-369h-47v330z" />
    <glyph glyph-name="onehalf" unicode="&#xbd;" 
d="M536 42v-42h-222v35c0 55 44 103 87 130c44 28 88 69 88 113c0 37 -25 61 -60 61c-36 0 -65 -29 -66 -68h-42c0 57 43 108 110 108c59 0 103 -44 103 -101c0 -123 -174 -145 -174 -236h176zM60 646v38l73 16h47v-369h-47v330zM113 0h-41l351 700h41z" />
    <glyph glyph-name="threequarters" unicode="&#xbe;" 
d="M157 0h-41l351 700h41zM466 78h-162v42l123 249h48l-125 -249h116v85h45v-85h37v-42h-37v-78h-45v78zM39 420h42c0 -31 26 -56 62 -56c43 0 67 27 67 68v49c0 29 -21 53 -49 53h-41v40l73 86h-135v40h186v-38l-73 -87c49 -8 83 -47 83 -94v-49c0 -63 -47 -108 -111 -108
c-61 0 -104 41 -104 96z" />
    <glyph glyph-name="questiondown" unicode="&#xbf;" 
d="M426 -33h52c-1 -52 -18 -94 -53 -127c-34 -33 -76 -50 -125 -50c-51 0 -93 16 -127 49c-34 32 -51 74 -51 127c0 68 26 119 58 154c48 51 108 107 109 230h51c-1 -88 -27 -154 -59 -193c-46 -56 -106 -102 -106 -196c0 -34 12 -63 36 -86c25 -23 54 -35 89 -35
c71 0 123 55 126 127zM279 500h70v-70h-70v70z" />
    <glyph glyph-name="Agrave" unicode="&#xc0;" 
d="M121 274l125 426h108l125 -426v-274h-52v239h-254v-239h-52v274zM178 287h244l-104 365h-36zM241 875l109 -122h-54l-127 122h72z" />
    <glyph glyph-name="Aacute" unicode="&#xc1;" 
d="M121 274l125 426h108l125 -426v-274h-52v239h-254v-239h-52v274zM178 287h244l-104 365h-36zM441 875l-127 -122h-54l109 122h72z" />
    <glyph glyph-name="Acircumflex" unicode="&#xc2;" 
d="M121 274l125 426h108l125 -426v-274h-52v239h-254v-239h-52v274zM178 287h244l-104 365h-36zM299 840l-70 -87h-51l87 122h67l88 -122h-50z" />
    <glyph glyph-name="Atilde" unicode="&#xc3;" 
d="M121 274l125 426h108l125 -426v-274h-52v239h-254v-239h-52v274zM178 287h244l-104 365h-36zM242 859c17 0 38 -7 63 -21s43 -21 54 -21c19 0 32 14 32 35v7h46v-7c0 -47 -34 -79 -78 -79c-17 0 -38 7 -63 21s-43 21 -54 21c-19 0 -33 -14 -33 -34v-8h-46v8
c0 47 34 78 79 78z" />
    <glyph glyph-name="Adieresis" unicode="&#xc4;" 
d="M121 274l125 426h108l125 -426v-274h-52v239h-254v-239h-52v274zM178 287h244l-104 365h-36zM245 797h-58v70h58v-70zM412 797h-58v70h58v-70z" />
    <glyph glyph-name="Aring" unicode="&#xc5;" 
d="M121 274l125 426h108l125 -426v-274h-52v239h-254v-239h-52v274zM178 287h244l-104 365h-36zM218 823c0 45 37 81 81 81s82 -37 82 -81s-38 -80 -82 -80s-81 36 -81 80zM256 823c0 -24 19 -44 43 -44s44 20 44 44c0 25 -19 45 -44 45c-24 0 -43 -20 -43 -45z" />
    <glyph glyph-name="AE" unicode="&#xc6;" 
d="M90 278l125 422h305v-48h-176v-258h152v-48h-152v-298h183v-48h-235v239h-150v-239h-52v278zM292 652h-43l-104 -365h147v365z" />
    <glyph glyph-name="Ccedilla" unicode="&#xc7;" 
d="M431 169h52v-4c0 -49 -17 -90 -52 -124s-77 -51 -126 -51v-30h8c45 0 75 -28 75 -69c0 -40 -33 -71 -78 -71h-56v41h51c23 0 37 12 37 31s-11 28 -32 28h-45v75c-81 17 -139 87 -139 171v369c0 49 17 90 51 124s77 51 128 51c50 0 92 -17 126 -51s51 -75 51 -124h-51
c-1 35 -13 65 -38 90c-24 25 -53 37 -88 37c-72 0 -127 -56 -127 -128v-369c0 -35 12 -65 36 -90c25 -25 55 -37 91 -37c35 0 65 12 89 36c25 25 37 55 37 90v5z" />
    <glyph glyph-name="Egrave" unicode="&#xc8;" 
d="M147 0v700h314v-48h-262v-258h238v-48h-238v-298h271v-48h-323zM258 875l109 -122h-54l-127 122h72z" />
    <glyph glyph-name="Eacute" unicode="&#xc9;" 
d="M147 0v700h314v-48h-262v-258h238v-48h-238v-298h271v-48h-323zM422 875l-127 -122h-54l109 122h72z" />
    <glyph glyph-name="Ecircumflex" unicode="&#xca;" 
d="M147 0v700h314v-48h-262v-258h238v-48h-238v-298h271v-48h-323zM304 840l-70 -87h-51l87 122h67l88 -122h-50z" />
    <glyph glyph-name="Edieresis" unicode="&#xcb;" 
d="M147 0v700h314v-48h-262v-258h238v-48h-238v-298h271v-48h-323zM250 797h-58v70h58v-70zM417 797h-58v70h58v-70z" />
    <glyph glyph-name="Igrave" unicode="&#xcc;" 
d="M275 652h-156v48h362v-48h-154v-604h154v-48h-362v48h156v604zM256 875l109 -122h-54l-127 122h72z" />
    <glyph glyph-name="Iacute" unicode="&#xcd;" 
d="M275 652h-156v48h362v-48h-154v-604h154v-48h-362v48h156v604zM420 875l-127 -122h-54l109 122h72z" />
    <glyph glyph-name="Icircumflex" unicode="&#xce;" 
d="M275 652h-156v48h362v-48h-154v-604h154v-48h-362v48h156v604zM299 840l-70 -87h-51l87 122h67l88 -122h-50z" />
    <glyph glyph-name="Idieresis" unicode="&#xcf;" 
d="M275 652h-156v48h362v-48h-154v-604h154v-48h-362v48h156v604zM245 797h-58v70h58v-70zM412 797h-58v70h58v-70z" />
    <glyph glyph-name="Eth" unicode="&#xd0;" 
d="M136 346h-62v46h62v308h171c50 0 92 -17 125 -51c34 -33 51 -75 51 -125v-348c0 -49 -17 -91 -51 -125c-33 -34 -75 -51 -125 -51h-171v346zM431 174v349c0 73 -52 127 -127 127h-116v-258h114v-46h-114v-298h116c73 0 127 53 127 126z" />
    <glyph glyph-name="Ntilde" unicode="&#xd1;" 
d="M428 138v562h51v-700h-65l-227 566l-16 61l-3 -1l4 -64v-562h-51v700h65l226 -566l17 -61l3 1zM245 859c17 0 38 -7 63 -21s43 -21 54 -21c19 0 32 14 32 35v7h46v-7c0 -47 -34 -79 -78 -79c-17 0 -38 7 -63 21s-43 21 -54 21c-20 0 -33 -14 -33 -34v-8h-46v8
c0 47 34 78 79 78z" />
    <glyph glyph-name="Ograve" unicode="&#xd2;" 
d="M484 535v-370c0 -49 -17 -91 -52 -125c-34 -33 -78 -50 -132 -50s-98 17 -133 51s-52 76 -52 125v369c0 49 17 91 52 124c35 34 79 51 133 51s98 -17 132 -51c35 -33 52 -75 52 -124zM432 164v370c0 72 -53 128 -132 128c-80 0 -133 -56 -133 -128v-369
c0 -72 53 -127 133 -127c79 0 132 54 132 126zM237 875l109 -122h-54l-127 122h72z" />
    <glyph glyph-name="Oacute" unicode="&#xd3;" 
d="M484 535v-370c0 -49 -17 -91 -52 -125c-34 -33 -78 -50 -132 -50s-98 17 -133 51s-52 76 -52 125v369c0 49 17 91 52 124c35 34 79 51 133 51s98 -17 132 -51c35 -33 52 -75 52 -124zM432 164v370c0 72 -53 128 -132 128c-80 0 -133 -56 -133 -128v-369
c0 -72 53 -127 133 -127c79 0 132 54 132 126zM437 875l-127 -122h-54l109 122h72z" />
    <glyph glyph-name="Ocircumflex" unicode="&#xd4;" 
d="M484 535v-370c0 -49 -17 -91 -52 -125c-34 -33 -78 -50 -132 -50s-98 17 -133 51s-52 76 -52 125v369c0 49 17 91 52 124c35 34 79 51 133 51s98 -17 132 -51c35 -33 52 -75 52 -124zM432 164v370c0 72 -53 128 -132 128c-80 0 -133 -56 -133 -128v-369
c0 -72 53 -127 133 -127c79 0 132 54 132 126zM299 840l-70 -87h-51l87 122h67l88 -122h-50z" />
    <glyph glyph-name="Otilde" unicode="&#xd5;" 
d="M484 535v-370c0 -49 -17 -91 -52 -125c-34 -33 -78 -50 -132 -50s-98 17 -133 51s-52 76 -52 125v369c0 49 17 91 52 124c35 34 79 51 133 51s98 -17 132 -51c35 -33 52 -75 52 -124zM432 164v370c0 72 -53 128 -132 128c-80 0 -133 -56 -133 -128v-369
c0 -72 53 -127 133 -127c79 0 132 54 132 126zM242 859c17 0 38 -7 63 -21s43 -21 54 -21c19 0 32 14 32 35v7h46v-7c0 -47 -34 -79 -78 -79c-17 0 -38 7 -63 21s-43 21 -54 21c-19 0 -33 -14 -33 -34v-8h-46v8c0 47 34 78 79 78z" />
    <glyph glyph-name="Odieresis" unicode="&#xd6;" 
d="M484 535v-370c0 -49 -17 -91 -52 -125c-34 -33 -78 -50 -132 -50s-98 17 -133 51s-52 76 -52 125v369c0 49 17 91 52 124c35 34 79 51 133 51s98 -17 132 -51c35 -33 52 -75 52 -124zM432 164v370c0 72 -53 128 -132 128c-80 0 -133 -56 -133 -128v-369
c0 -72 53 -127 133 -127c79 0 132 54 132 126zM245 797h-58v70h58v-70zM412 797h-58v70h58v-70z" />
    <glyph glyph-name="multiply" unicode="&#xd7;" 
d="M264 292l-148 148l35 35l149 -147l147 147l36 -35l-148 -148l148 -147l-36 -36l-147 148l-148 -147l-36 35z" />
    <glyph glyph-name="Oslash" unicode="&#xd8;" 
d="M116 -12l-37 23l49 85c-9 20 -13 43 -13 70v369c0 49 17 91 52 124c35 34 79 51 133 51c61 0 110 -22 146 -66l39 67l38 -21l-52 -89c9 -22 13 -44 13 -66v-370c0 -49 -17 -91 -52 -125c-34 -33 -78 -50 -132 -50c-61 0 -110 21 -146 64zM167 534v-372l250 433
c-20 41 -64 67 -117 67c-80 0 -133 -56 -133 -128zM432 164v369l-250 -431c23 -43 63 -64 118 -64c79 0 132 54 132 126z" />
    <glyph glyph-name="Ugrave" unicode="&#xd9;" 
d="M432 164v536h52v-535c0 -49 -17 -90 -51 -124s-75 -51 -124 -51h-19c-48 0 -89 17 -124 51c-34 35 -51 76 -51 125v534h52v-535c0 -35 12 -65 36 -90c25 -25 55 -37 91 -37h12c35 0 65 12 89 36c25 25 37 55 37 90zM236 875l109 -122h-54l-127 122h72z" />
    <glyph glyph-name="Uacute" unicode="&#xda;" 
d="M432 164v536h52v-535c0 -49 -17 -90 -51 -124s-75 -51 -124 -51h-19c-48 0 -89 17 -124 51c-34 35 -51 76 -51 125v534h52v-535c0 -35 12 -65 36 -90c25 -25 55 -37 91 -37h12c35 0 65 12 89 36c25 25 37 55 37 90zM436 875l-127 -122h-54l109 122h72z" />
    <glyph glyph-name="Ucircumflex" unicode="&#xdb;" 
d="M432 164v536h52v-535c0 -49 -17 -90 -51 -124s-75 -51 -124 -51h-19c-48 0 -89 17 -124 51c-34 35 -51 76 -51 125v534h52v-535c0 -35 12 -65 36 -90c25 -25 55 -37 91 -37h12c35 0 65 12 89 36c25 25 37 55 37 90zM299 840l-70 -87h-51l87 122h67l88 -122h-50z" />
    <glyph glyph-name="Udieresis" unicode="&#xdc;" 
d="M432 164v536h52v-535c0 -49 -17 -90 -51 -124s-75 -51 -124 -51h-19c-48 0 -89 17 -124 51c-34 35 -51 76 -51 125v534h52v-535c0 -35 12 -65 36 -90c25 -25 55 -37 91 -37h12c35 0 65 12 89 36c25 25 37 55 37 90zM245 797h-58v70h58v-70zM412 797h-58v70h58v-70z" />
    <glyph glyph-name="Yacute" unicode="&#xdd;" 
d="M96 700h58l147 -309l145 309h57l-177 -367v-333h-52v333zM419 875l-127 -122h-54l109 122h72z" />
    <glyph glyph-name="Thorn" unicode="&#xde;" 
d="M200 0h-52v700h52v-105h126c41 0 76 -14 104 -42c28 -27 42 -62 42 -104v-152c0 -42 -14 -77 -42 -105s-63 -42 -104 -42h-126v-150zM420 294v154c0 56 -41 97 -97 97h-123v-347h123c56 0 97 40 97 96z" />
    <glyph glyph-name="germandbls" unicode="&#xdf;" 
d="M241 122v12h48v-12c0 -49 40 -89 89 -89s88 40 88 89c0 120 -166 138 -166 277c0 59 49 101 112 112v21c0 39 -12 71 -35 96c-23 26 -52 39 -86 39c-35 0 -64 -13 -89 -39c-25 -25 -37 -57 -37 -96v-532h-49v533c0 49 17 91 50 125c34 35 76 52 125 52
c48 0 88 -16 120 -48c32 -31 48 -69 48 -112v-51c0 -12 -12 -21 -20 -22c-53 -9 -90 -38 -90 -75c0 -39 26 -73 58 -102c48 -41 108 -90 108 -172c0 -39 -13 -71 -40 -98s-60 -40 -99 -40c-37 0 -68 13 -95 39s-40 57 -40 93z" />
    <glyph glyph-name="agrave" unicode="&#xe0;" 
d="M469 0h-49v53c0 -1 -43 -62 -140 -63c-44 0 -82 14 -113 42s-46 64 -46 107c0 89 70 148 166 155l133 9v46c0 69 -43 118 -112 118c-56 0 -97 -35 -109 -86h-49c12 76 73 129 158 129c103 0 161 -66 161 -162v-348zM286 32c35 0 66 11 93 32s41 46 41 74v122l-121 -7
c-80 -5 -129 -46 -129 -113c0 -61 47 -108 116 -108zM264 675l109 -122h-54l-127 122h72z" />
    <glyph glyph-name="aacute" unicode="&#xe1;" 
d="M469 0h-49v53c0 -1 -43 -62 -140 -63c-44 0 -82 14 -113 42s-46 64 -46 107c0 89 70 148 166 155l133 9v46c0 69 -43 118 -112 118c-56 0 -97 -35 -109 -86h-49c12 76 73 129 158 129c103 0 161 -66 161 -162v-348zM286 32c35 0 66 11 93 32s41 46 41 74v122l-121 -7
c-80 -5 -129 -46 -129 -113c0 -61 47 -108 116 -108zM456 675l-127 -122h-54l109 122h72z" />
    <glyph glyph-name="acircumflex" unicode="&#xe2;" 
d="M469 0h-49v53c0 -1 -43 -62 -140 -63c-44 0 -82 14 -113 42s-46 64 -46 107c0 89 70 148 166 155l133 9v46c0 69 -43 118 -112 118c-56 0 -97 -35 -109 -86h-49c12 76 73 129 158 129c103 0 161 -66 161 -162v-348zM286 32c35 0 66 11 93 32s41 46 41 74v122l-121 -7
c-80 -5 -129 -46 -129 -113c0 -61 47 -108 116 -108zM308 640l-70 -87h-51l87 122h67l88 -122h-50z" />
    <glyph glyph-name="atilde" unicode="&#xe3;" 
d="M469 0h-49v53c0 -1 -43 -62 -140 -63c-44 0 -82 14 -113 42s-46 64 -46 107c0 89 70 148 166 155l133 9v46c0 69 -43 118 -112 118c-56 0 -97 -35 -109 -86h-49c12 76 73 129 158 129c103 0 161 -66 161 -162v-348zM286 32c35 0 66 11 93 32s41 46 41 74v122l-121 -7
c-80 -5 -129 -46 -129 -113c0 -61 47 -108 116 -108zM249 659c17 0 38 -7 63 -21s43 -21 54 -21c19 0 32 14 32 35v7h46v-7c0 -47 -34 -79 -78 -79c-17 0 -38 7 -63 21s-43 21 -54 21c-20 0 -33 -14 -33 -34v-8h-46v8c0 47 34 78 79 78z" />
    <glyph glyph-name="adieresis" unicode="&#xe4;" 
d="M469 0h-49v53c0 -1 -43 -62 -140 -63c-44 0 -82 14 -113 42s-46 64 -46 107c0 89 70 148 166 155l133 9v46c0 69 -43 118 -112 118c-56 0 -97 -35 -109 -86h-49c12 76 73 129 158 129c103 0 161 -66 161 -162v-348zM286 32c35 0 66 11 93 32s41 46 41 74v122l-121 -7
c-80 -5 -129 -46 -129 -113c0 -61 47 -108 116 -108zM255 597h-58v70h58v-70zM422 597h-58v70h58v-70z" />
    <glyph glyph-name="aring" unicode="&#xe5;" 
d="M469 0h-49v53c0 -1 -43 -62 -140 -63c-44 0 -82 14 -113 42s-46 64 -46 107c0 89 70 148 166 155l133 9v46c0 69 -43 118 -112 118c-56 0 -97 -35 -109 -86h-49c12 76 73 129 158 129c103 0 161 -66 161 -162v-348zM286 32c35 0 66 11 93 32s41 46 41 74v122l-121 -7
c-80 -5 -129 -46 -129 -113c0 -61 47 -108 116 -108zM229 623c0 45 37 81 81 81s82 -37 82 -81s-38 -80 -82 -80s-81 36 -81 80zM267 623c0 -24 19 -44 43 -44s44 20 44 44c0 25 -19 45 -44 45c-24 0 -43 -20 -43 -45z" />
    <glyph glyph-name="ae" unicode="&#xe6;" 
d="M199 -10c-73 0 -122 52 -122 121v51c0 77 51 127 118 127h82v100c0 43 -33 78 -72 78c-43 0 -66 -33 -66 -86h-48c0 76 50 129 114 129c58 0 87 -39 97 -54l3 -7s22 61 101 61c67 0 116 -52 116 -120v-143h-194v-131c0 -51 26 -83 78 -83c40 0 70 31 70 75v38h45v-38
c0 -33 -11 -61 -34 -84s-51 -34 -84 -34c-61 0 -94 36 -99 50l-3 6c-2 -4 -6 -9 -11 -16c-5 -6 -16 -14 -33 -25c-17 -10 -37 -15 -58 -15zM406 467c-43 0 -78 -35 -78 -79v-99h149v95c0 48 -31 83 -71 83zM199 33c45 0 78 35 78 83v131h-79c-41 0 -73 -33 -73 -85v-52
c0 -44 30 -77 74 -77z" />
    <glyph glyph-name="ccedilla" unicode="&#xe7;" 
d="M173 349v-198c0 -68 55 -118 127 -118c69 0 123 45 126 113h47c-5 -89 -72 -155 -168 -156v-30h8c45 0 75 -28 75 -69c0 -40 -33 -71 -78 -71h-56v41h51c23 0 37 12 37 31s-11 28 -32 28h-45v73c-87 13 -140 76 -140 160v194c0 47 16 85 48 116s74 47 127 47
c48 0 88 -15 119 -44s48 -66 51 -109h-49c-3 64 -54 110 -121 110c-72 0 -127 -50 -127 -118z" />
    <glyph glyph-name="egrave" unicode="&#xe8;" 
d="M426 146h48c-5 -91 -74 -156 -174 -156c-52 0 -94 15 -127 44c-32 30 -48 67 -48 111v210c0 44 16 81 48 110c33 30 75 45 127 45c51 0 93 -15 125 -45c33 -30 49 -67 49 -110v-119h-301v-83c0 -71 53 -120 126 -120s124 45 127 113zM173 346v-67h253v68
c0 71 -55 120 -127 120s-126 -50 -126 -121zM241 675l109 -122h-54l-127 122h72z" />
    <glyph glyph-name="eacute" unicode="&#xe9;" 
d="M426 146h48c-5 -91 -74 -156 -174 -156c-52 0 -94 15 -127 44c-32 30 -48 67 -48 111v210c0 44 16 81 48 110c33 30 75 45 127 45c51 0 93 -15 125 -45c33 -30 49 -67 49 -110v-119h-301v-83c0 -71 53 -120 126 -120s124 45 127 113zM173 346v-67h253v68
c0 71 -55 120 -127 120s-126 -50 -126 -121zM422 675l-127 -122h-54l109 122h72z" />
    <glyph glyph-name="ecircumflex" unicode="&#xea;" 
d="M426 146h48c-5 -91 -74 -156 -174 -156c-52 0 -94 15 -127 44c-32 30 -48 67 -48 111v210c0 44 16 81 48 110c33 30 75 45 127 45c51 0 93 -15 125 -45c33 -30 49 -67 49 -110v-119h-301v-83c0 -71 53 -120 126 -120s124 45 127 113zM173 346v-67h253v68
c0 71 -55 120 -127 120s-126 -50 -126 -121zM299 640l-70 -87h-51l87 122h67l88 -122h-50z" />
    <glyph glyph-name="edieresis" unicode="&#xeb;" 
d="M426 146h48c-5 -91 -74 -156 -174 -156c-52 0 -94 15 -127 44c-32 30 -48 67 -48 111v210c0 44 16 81 48 110c33 30 75 45 127 45c51 0 93 -15 125 -45c33 -30 49 -67 49 -110v-119h-301v-83c0 -71 53 -120 126 -120s124 45 127 113zM173 346v-67h253v68
c0 71 -55 120 -127 120s-126 -50 -126 -121zM245 597h-58v70h58v-70zM412 597h-58v70h58v-70z" />
    <glyph glyph-name="igrave" unicode="&#xec;" 
d="M119 457v43h210v-457h142v-43h-352v43h160v414h-160zM237 675l109 -122h-54l-127 122h72z" />
    <glyph glyph-name="iacute" unicode="&#xed;" 
d="M119 457v43h210v-457h142v-43h-352v43h160v414h-160zM420 675l-127 -122h-54l109 122h72z" />
    <glyph glyph-name="icircumflex" unicode="&#xee;" 
d="M119 457v43h210v-457h142v-43h-352v43h160v414h-160zM300 640l-70 -87h-51l87 122h67l88 -122h-50z" />
    <glyph glyph-name="idieresis" unicode="&#xef;" 
d="M119 457v43h210v-457h142v-43h-352v43h160v414h-160zM245 597h-58v70h58v-70zM412 597h-58v70h58v-70z" />
    <glyph glyph-name="eth" unicode="&#xf0;" 
d="M142 292v-131c0 -72 55 -128 127 -128s126 55 126 127v132c0 72 -54 124 -126 124s-127 -52 -127 -124zM510 637v-45l-69 -25c1 -7 2 -14 2 -21v-393c0 -48 -16 -87 -49 -118c-32 -30 -74 -45 -125 -45c-104 0 -175 67 -175 163v142c0 97 71 164 175 164
c53 0 99 -26 115 -46l11 -15v129l-1 22l-99 -36v45l87 32c-15 39 -58 67 -109 67h-51v43h54c73 0 128 -40 153 -93z" />
    <glyph glyph-name="ntilde" unicode="&#xf1;" 
d="M480 350v-350h-49v340c0 80 -48 128 -120 128c-37 0 -68 -12 -94 -35s-39 -51 -39 -83v-350h-49v500h47l2 -56c3 5 8 11 14 18c7 7 22 17 45 29c23 13 49 19 76 19c51 0 91 -15 121 -46c31 -31 46 -69 46 -114zM248 659c17 0 38 -7 63 -21s43 -21 54 -21
c19 0 32 14 32 35v7h46v-7c0 -47 -34 -79 -78 -79c-17 0 -38 7 -63 21s-43 21 -54 21c-19 0 -33 -14 -33 -34v-8h-46v8c0 47 34 78 79 78z" />
    <glyph glyph-name="ograve" unicode="&#xf2;" 
d="M474 145c0 -43 -16 -80 -49 -110c-32 -30 -74 -45 -125 -45c-52 0 -94 15 -127 44c-32 30 -48 67 -48 111v210c0 44 16 81 48 110c33 30 75 45 127 45c51 0 93 -15 125 -45c33 -30 49 -67 49 -110v-210zM426 349c0 33 -12 61 -37 84s-55 34 -90 34s-65 -11 -90 -34
c-24 -23 -36 -51 -36 -84v-198c0 -33 12 -61 36 -84c25 -23 55 -34 91 -34c35 0 65 11 89 34c25 23 37 51 37 84v198zM253 675l109 -122h-54l-127 122h72z" />
    <glyph glyph-name="oacute" unicode="&#xf3;" 
d="M474 145c0 -43 -16 -80 -49 -110c-32 -30 -74 -45 -125 -45c-52 0 -94 15 -127 44c-32 30 -48 67 -48 111v210c0 44 16 81 48 110c33 30 75 45 127 45c51 0 93 -15 125 -45c33 -30 49 -67 49 -110v-210zM426 349c0 33 -12 61 -37 84s-55 34 -90 34s-65 -11 -90 -34
c-24 -23 -36 -51 -36 -84v-198c0 -33 12 -61 36 -84c25 -23 55 -34 91 -34c35 0 65 11 89 34c25 23 37 51 37 84v198zM431 675l-127 -122h-54l109 122h72z" />
    <glyph glyph-name="ocircumflex" unicode="&#xf4;" 
d="M474 145c0 -43 -16 -80 -49 -110c-32 -30 -74 -45 -125 -45c-52 0 -94 15 -127 44c-32 30 -48 67 -48 111v210c0 44 16 81 48 110c33 30 75 45 127 45c51 0 93 -15 125 -45c33 -30 49 -67 49 -110v-210zM426 349c0 33 -12 61 -37 84s-55 34 -90 34s-65 -11 -90 -34
c-24 -23 -36 -51 -36 -84v-198c0 -33 12 -61 36 -84c25 -23 55 -34 91 -34c35 0 65 11 89 34c25 23 37 51 37 84v198zM299 640l-70 -87h-51l87 122h67l88 -122h-50z" />
    <glyph glyph-name="otilde" unicode="&#xf5;" 
d="M474 145c0 -43 -16 -80 -49 -110c-32 -30 -74 -45 -125 -45c-52 0 -94 15 -127 44c-32 30 -48 67 -48 111v210c0 44 16 81 48 110c33 30 75 45 127 45c51 0 93 -15 125 -45c33 -30 49 -67 49 -110v-210zM426 349c0 33 -12 61 -37 84s-55 34 -90 34s-65 -11 -90 -34
c-24 -23 -36 -51 -36 -84v-198c0 -33 12 -61 36 -84c25 -23 55 -34 91 -34c35 0 65 11 89 34c25 23 37 51 37 84v198zM242 659c17 0 38 -7 63 -21s43 -21 54 -21c19 0 32 14 32 35v7h46v-7c0 -47 -34 -79 -78 -79c-17 0 -38 7 -63 21s-43 21 -54 21c-19 0 -33 -14 -33 -34
v-8h-46v8c0 47 34 78 79 78z" />
    <glyph glyph-name="odieresis" unicode="&#xf6;" 
d="M474 145c0 -43 -16 -80 -49 -110c-32 -30 -74 -45 -125 -45c-52 0 -94 15 -127 44c-32 30 -48 67 -48 111v210c0 44 16 81 48 110c33 30 75 45 127 45c51 0 93 -15 125 -45c33 -30 49 -67 49 -110v-210zM426 349c0 33 -12 61 -37 84s-55 34 -90 34s-65 -11 -90 -34
c-24 -23 -36 -51 -36 -84v-198c0 -33 12 -61 36 -84c25 -23 55 -34 91 -34c35 0 65 11 89 34c25 23 37 51 37 84v198zM245 597h-58v70h58v-70zM412 597h-58v70h58v-70z" />
    <glyph glyph-name="divide" unicode="&#xf7;" 
d="M93 258v49h414v-49h-414zM334 79h-70v70h70v-70zM334 417h-70v70h70v-70z" />
    <glyph glyph-name="oslash" unicode="&#xf8;" 
d="M474 355v-210c0 -43 -16 -80 -49 -110c-32 -30 -74 -45 -125 -45c-43 0 -80 11 -112 33l-20 -36l-32 19l24 42c-23 27 -35 60 -35 97v210c0 44 16 81 48 110c33 30 75 45 127 45c42 0 78 -11 109 -32l20 35l33 -18l-24 -42c24 -28 36 -61 36 -98zM426 151v198
c0 22 -5 41 -15 58l-199 -343c23 -21 52 -31 88 -31c35 0 65 11 89 34c25 23 37 51 37 84zM173 349v-198c0 -21 5 -39 14 -56l198 342c-23 20 -52 30 -86 30c-35 0 -65 -11 -90 -34c-24 -23 -36 -51 -36 -84z" />
    <glyph glyph-name="ugrave" unicode="&#xf9;" 
d="M125 150v350h49v-340c0 -81 48 -128 120 -128c37 0 68 12 94 35s39 51 39 83v350h49v-500h-47l-2 56c-3 -5 -8 -11 -15 -18c-6 -7 -21 -17 -44 -30c-23 -12 -49 -18 -76 -18c-101 0 -167 67 -167 160zM246 675l109 -122h-54l-127 122h72z" />
    <glyph glyph-name="uacute" unicode="&#xfa;" 
d="M125 150v350h49v-340c0 -81 48 -128 120 -128c37 0 68 12 94 35s39 51 39 83v350h49v-500h-47l-2 56c-3 -5 -8 -11 -15 -18c-6 -7 -21 -17 -44 -30c-23 -12 -49 -18 -76 -18c-101 0 -167 67 -167 160zM423 675l-127 -122h-54l109 122h72z" />
    <glyph glyph-name="ucircumflex" unicode="&#xfb;" 
d="M125 150v350h49v-340c0 -81 48 -128 120 -128c37 0 68 12 94 35s39 51 39 83v350h49v-500h-47l-2 56c-3 -5 -8 -11 -15 -18c-6 -7 -21 -17 -44 -30c-23 -12 -49 -18 -76 -18c-101 0 -167 67 -167 160zM299 640l-70 -87h-51l87 122h67l88 -122h-50z" />
    <glyph glyph-name="udieresis" unicode="&#xfc;" 
d="M125 150v350h49v-340c0 -81 48 -128 120 -128c37 0 68 12 94 35s39 51 39 83v350h49v-500h-47l-2 56c-3 -5 -8 -11 -15 -18c-6 -7 -21 -17 -44 -30c-23 -12 -49 -18 -76 -18c-101 0 -167 67 -167 160zM245 597h-58v70h58v-70zM412 597h-58v70h58v-70z" />
    <glyph glyph-name="yacute" unicode="&#xfd;" 
d="M91 500h55l152 -425l154 425h55l-257 -680h-50l71 187zM426 675l-127 -122h-54l109 122h72z" />
    <glyph glyph-name="thorn" unicode="&#xfe;" 
d="M432 159v182c0 80 -51 126 -120 126c-76 0 -133 -54 -133 -126v-182c0 -72 57 -126 133 -126c68 0 120 47 120 126zM192 39l-13 16v-235h-49v880h49v-255c3 5 8 11 14 18c7 7 21 17 44 29s48 18 75 18c50 0 91 -15 122 -46c31 -30 47 -68 47 -113v-202
c0 -45 -16 -83 -47 -114c-31 -30 -72 -45 -122 -45c-53 0 -103 28 -120 49z" />
    <glyph glyph-name="ydieresis" unicode="&#xff;" 
d="M91 500h55l152 -425l154 425h55l-257 -680h-50l71 187zM245 597h-58v70h58v-70zM412 597h-58v70h58v-70z" />
    <glyph glyph-name="Amacron" unicode="&#x100;" 
d="M121 274l125 426h108l125 -426v-274h-52v239h-254v-239h-52v274zM178 287h244l-104 365h-36zM430 790h-260v45h260v-45z" />
    <glyph glyph-name="amacron" unicode="&#x101;" 
d="M469 0h-49v53c0 -1 -43 -62 -140 -63c-44 0 -82 14 -113 42s-46 64 -46 107c0 89 70 148 166 155l133 9v46c0 69 -43 118 -112 118c-56 0 -97 -35 -109 -86h-49c12 76 73 129 158 129c103 0 161 -66 161 -162v-348zM286 32c35 0 66 11 93 32s41 46 41 74v122l-121 -7
c-80 -5 -129 -46 -129 -113c0 -61 47 -108 116 -108zM437 590h-260v45h260v-45z" />
    <glyph glyph-name="Abreve" unicode="&#x102;" 
d="M121 274l125 426h108l125 -426v-274h-52v239h-254v-239h-52v274zM178 287h244l-104 365h-36zM376 871h49c0 -29 -16 -113 -125 -113s-125 84 -125 113h49c0 -9 2 -19 10 -38c9 -19 33 -33 66 -33s57 14 65 33c9 19 11 29 11 38z" />
    <glyph glyph-name="abreve" unicode="&#x103;" 
d="M469 0h-49v53c0 -1 -43 -62 -140 -63c-44 0 -82 14 -113 42s-46 64 -46 107c0 89 70 148 166 155l133 9v46c0 69 -43 118 -112 118c-56 0 -97 -35 -109 -86h-49c12 76 73 129 158 129c103 0 161 -66 161 -162v-348zM286 32c35 0 66 11 93 32s41 46 41 74v122l-121 -7
c-80 -5 -129 -46 -129 -113c0 -61 47 -108 116 -108zM386 671h49c0 -29 -16 -113 -125 -113s-125 84 -125 113h49c0 -9 2 -19 10 -38c9 -19 33 -33 66 -33s57 14 65 33c9 19 11 29 11 38z" />
    <glyph glyph-name="Aogonek" unicode="&#x104;" 
d="M121 274l125 426h108l125 -426v-274l-20 -16c-8 -7 -19 -20 -33 -38c-13 -19 -20 -35 -20 -49c0 -24 17 -37 40 -37h45v-40h-51c-48 0 -80 28 -80 71c0 35 32 75 56 95l19 14h-8v239h-254v-239h-52v274zM178 287h244l-104 365h-36z" />
    <glyph glyph-name="aogonek" unicode="&#x105;" 
d="M402 -14l18 14v53c0 -1 -43 -62 -140 -63c-44 0 -82 14 -113 42s-46 64 -46 107c0 89 70 148 166 155l133 9v46c0 69 -43 118 -112 118c-56 0 -97 -35 -109 -86h-49c12 76 73 129 158 129c103 0 161 -66 161 -162v-348l-20 -16c-8 -7 -19 -20 -33 -38
c-13 -19 -20 -35 -20 -49c0 -24 17 -37 40 -37h45v-40h-51c-48 0 -80 28 -80 71c0 35 29 75 52 95zM286 32c35 0 66 11 93 32s41 46 41 74v122l-121 -7c-80 -5 -129 -46 -129 -113c0 -61 47 -108 116 -108z" />
    <glyph glyph-name="Cacute" unicode="&#x106;" 
d="M431 169h52v-4c0 -49 -17 -90 -52 -124s-77 -51 -126 -51c-50 0 -92 17 -127 51c-35 35 -52 76 -52 125v369c0 49 17 90 51 124s77 51 128 51c50 0 92 -17 126 -51s51 -75 51 -124h-51c-1 35 -13 65 -38 90s-54 38 -89 38c-72 0 -126 -57 -126 -129v-367
c0 -35 13 -66 38 -91s55 -38 89 -38c35 0 65 12 89 36c25 25 37 55 37 90v5zM430 875l-127 -122h-54l109 122h72z" />
    <glyph glyph-name="cacute" unicode="&#x107;" 
d="M173 349v-198c0 -68 55 -118 127 -118c69 0 123 45 126 113h47c-3 -45 -20 -82 -52 -112c-31 -29 -72 -44 -121 -44c-53 0 -95 15 -127 46s-48 70 -48 117v194c0 47 16 85 48 116s74 47 127 47c48 0 88 -15 119 -44s48 -66 51 -109h-49c-3 64 -54 110 -121 110
c-72 0 -127 -50 -127 -118zM431 675l-127 -122h-54l109 122h72z" />
    <glyph glyph-name="Ccircumflex" unicode="&#x108;" 
d="M431 169h52v-4c0 -49 -17 -90 -52 -124s-77 -51 -126 -51c-50 0 -92 17 -127 51c-35 35 -52 76 -52 125v369c0 49 17 90 51 124s77 51 128 51c50 0 92 -17 126 -51s51 -75 51 -124h-51c-1 35 -13 65 -38 90s-54 38 -89 38c-72 0 -126 -57 -126 -129v-367
c0 -35 13 -66 38 -91s55 -38 89 -38c35 0 65 12 89 36c25 25 37 55 37 90v5zM304 840l-70 -87h-51l87 122h67l88 -122h-50z" />
    <glyph glyph-name="ccircumflex" unicode="&#x109;" 
d="M173 349v-198c0 -68 55 -118 127 -118c69 0 123 45 126 113h47c-3 -45 -20 -82 -52 -112c-31 -29 -72 -44 -121 -44c-53 0 -95 15 -127 46s-48 70 -48 117v194c0 47 16 85 48 116s74 47 127 47c48 0 88 -15 119 -44s48 -66 51 -109h-49c-3 64 -54 110 -121 110
c-72 0 -127 -50 -127 -118zM300 640l-70 -87h-51l87 122h67l88 -122h-50z" />
    <glyph glyph-name="Cdotaccent" unicode="&#x10a;" 
d="M431 169h52v-4c0 -49 -17 -90 -52 -124s-77 -51 -126 -51c-50 0 -92 17 -127 51c-35 35 -52 76 -52 125v369c0 49 17 90 51 124s77 51 128 51c50 0 92 -17 126 -51s51 -75 51 -124h-51c-1 35 -13 65 -38 90s-54 38 -89 38c-72 0 -126 -57 -126 -129v-367
c0 -35 13 -66 38 -91s55 -38 89 -38c35 0 65 12 89 36c25 25 37 55 37 90v5zM338 797h-66v70h66v-70z" />
    <glyph glyph-name="cdotaccent" unicode="&#x10b;" 
d="M173 349v-198c0 -68 55 -118 127 -118c69 0 123 45 126 113h47c-3 -45 -20 -82 -52 -112c-31 -29 -72 -44 -121 -44c-53 0 -95 15 -127 46s-48 70 -48 117v194c0 47 16 85 48 116s74 47 127 47c48 0 88 -15 119 -44s48 -66 51 -109h-49c-3 64 -54 110 -121 110
c-72 0 -127 -50 -127 -118zM333 597h-66v70h66v-70z" />
    <glyph glyph-name="Ccaron" unicode="&#x10c;" 
d="M431 169h52v-4c0 -49 -17 -90 -52 -124s-77 -51 -126 -51c-50 0 -92 17 -127 51c-35 35 -52 76 -52 125v369c0 49 17 90 51 124s77 51 128 51c50 0 92 -17 126 -51s51 -75 51 -124h-51c-1 35 -13 65 -38 90s-54 38 -89 38c-72 0 -126 -57 -126 -129v-367
c0 -35 13 -66 38 -91s55 -38 89 -38c35 0 65 12 89 36c25 25 37 55 37 90v5zM270 753l-87 122h51l70 -87l71 87h50l-88 -122h-67z" />
    <glyph glyph-name="ccaron" unicode="&#x10d;" 
d="M173 349v-198c0 -68 55 -118 127 -118c69 0 123 45 126 113h47c-3 -45 -20 -82 -52 -112c-31 -29 -72 -44 -121 -44c-53 0 -95 15 -127 46s-48 70 -48 117v194c0 47 16 85 48 116s74 47 127 47c48 0 88 -15 119 -44s48 -66 51 -109h-49c-3 64 -54 110 -121 110
c-72 0 -127 -50 -127 -118zM266 553l-87 122h51l70 -87l71 87h50l-88 -122h-67z" />
    <glyph glyph-name="Dcaron" unicode="&#x10e;" 
d="M478 524v-348c0 -49 -17 -91 -51 -125c-33 -34 -75 -51 -125 -51h-171v700h171c50 0 92 -17 125 -51c34 -33 51 -75 51 -125zM426 174v349c0 73 -54 127 -127 127h-116v-602h116c73 0 127 53 127 126zM265 753l-87 122h51l70 -87l71 87h50l-88 -122h-67z" />
    <glyph glyph-name="dcaron" unicode="&#x10f;" 
d="M386 464l12 -16v252h49v-700h-49v54c-3 -5 -8 -11 -15 -18s-22 -16 -45 -28s-47 -18 -73 -18c-50 0 -91 15 -122 45c-31 31 -47 69 -47 114v202c0 44 15 81 46 112s72 47 123 47c55 0 104 -26 121 -46zM145 347v-194c0 -69 51 -120 123 -120c35 0 65 12 91 35
c26 24 39 52 39 83v198c0 32 -13 60 -38 83s-56 35 -91 35c-73 0 -124 -51 -124 -120zM632 700l-83 -123h-41l53 123h71z" />
    <glyph glyph-name="Dcroat" unicode="&#x110;" 
d="M136 346h-62v46h62v308h171c50 0 92 -17 125 -51c34 -33 51 -75 51 -125v-348c0 -49 -17 -91 -51 -125c-33 -34 -75 -51 -125 -51h-171v346zM431 174v349c0 73 -52 127 -127 127h-116v-258h114v-46h-114v-298h116c73 0 127 53 127 126z" />
    <glyph glyph-name="dslash" unicode="&#x111;" 
d="M408 464l13 -16v126h-128v44h128v82h49v-82h60v-44h-60v-574h-49v54c-3 -5 -8 -11 -15 -18s-22 -16 -45 -28s-47 -18 -73 -18c-50 0 -91 15 -122 45c-31 31 -47 69 -47 114v202c0 44 15 81 46 112s72 47 123 47c55 0 104 -26 120 -46zM168 347v-194
c0 -69 51 -120 123 -120c35 0 65 12 91 35c26 24 39 52 39 83v198c0 32 -13 60 -38 83s-56 35 -91 35c-73 0 -124 -51 -124 -120z" />
    <glyph glyph-name="Emacron" unicode="&#x112;" 
d="M147 0v700h314v-48h-262v-258h238v-48h-238v-298h271v-48h-323zM435 790h-260v45h260v-45z" />
    <glyph glyph-name="emacron" unicode="&#x113;" 
d="M426 146h48c-5 -91 -74 -156 -174 -156c-52 0 -94 15 -127 44c-32 30 -48 67 -48 111v210c0 44 16 81 48 110c33 30 75 45 127 45c51 0 93 -15 125 -45c33 -30 49 -67 49 -110v-119h-301v-83c0 -71 53 -120 126 -120s124 45 127 113zM173 346v-67h253v68
c0 71 -55 120 -127 120s-126 -50 -126 -121zM430 590h-260v45h260v-45z" />
    <glyph glyph-name="Ebreve" unicode="&#x114;" 
d="M380 871h49c0 -29 -16 -113 -125 -113s-125 84 -125 113h49c0 -9 2 -19 10 -38c9 -19 33 -33 66 -33s57 14 65 33c9 19 11 29 11 38zM147 0v700h314v-48h-262v-258h238v-48h-238v-298h271v-48h-323z" />
    <glyph glyph-name="ebreve" unicode="&#x115;" 
d="M426 146h48c-5 -91 -74 -156 -174 -156c-52 0 -94 15 -127 44c-32 30 -48 67 -48 111v210c0 44 16 81 48 110c33 30 75 45 127 45c51 0 93 -15 125 -45c33 -30 49 -67 49 -110v-119h-301v-83c0 -71 53 -120 126 -120s124 45 127 113zM173 346v-67h253v68
c0 71 -55 120 -127 120s-126 -50 -126 -121zM376 671h49c0 -29 -16 -113 -125 -113s-125 84 -125 113h49c0 -9 2 -19 10 -38c9 -19 33 -33 66 -33s57 14 65 33c9 19 11 29 11 38z" />
    <glyph glyph-name="Edotaccent" unicode="&#x116;" 
d="M147 0v700h314v-48h-262v-258h238v-48h-238v-298h271v-48h-323zM338 797h-66v70h66v-70z" />
    <glyph glyph-name="edotaccent" unicode="&#x117;" 
d="M426 146h48c-5 -91 -74 -156 -174 -156c-52 0 -94 15 -127 44c-32 30 -48 67 -48 111v210c0 44 16 81 48 110c33 30 75 45 127 45c51 0 93 -15 125 -45c33 -30 49 -67 49 -110v-119h-301v-83c0 -71 53 -120 126 -120s124 45 127 113zM173 346v-67h253v68
c0 71 -55 120 -127 120s-126 -50 -126 -121zM333 597h-66v70h66v-70z" />
    <glyph glyph-name="Eogonek" unicode="&#x118;" 
d="M147 0v700h314v-48h-262v-258h238v-48h-238v-298h271v-48l-20 -16c-8 -7 -19 -20 -33 -38c-13 -19 -20 -35 -20 -49c0 -24 17 -37 40 -37h45v-40h-51c-48 0 -80 28 -80 71c0 35 29 75 52 95l17 14h-273z" />
    <glyph glyph-name="eogonek" unicode="&#x119;" 
d="M300 -10c-52 0 -94 15 -127 44c-32 30 -48 67 -48 111v210c0 44 16 81 48 110c33 30 75 45 127 45c51 0 93 -15 125 -45c33 -30 49 -67 49 -110v-119h-301v-85c0 -65 50 -118 126 -118c73 0 124 45 127 113h48c-2 -48 -21 -87 -58 -117c-13 -11 -30 -30 -51 -57
c-20 -28 -30 -53 -30 -75c0 -24 17 -37 40 -37h45v-40h-51c-48 0 -80 28 -80 71c0 37 19 72 58 105c-15 -4 -31 -6 -47 -6zM173 349v-70h253v70c0 32 -12 60 -37 83s-55 35 -90 35c-72 0 -126 -50 -126 -118z" />
    <glyph glyph-name="Ecaron" unicode="&#x11a;" 
d="M147 0v700h314v-48h-262v-258h238v-48h-238v-298h271v-48h-323zM270 753l-87 122h51l70 -87l71 87h50l-88 -122h-67z" />
    <glyph glyph-name="ecaron" unicode="&#x11b;" 
d="M426 146h48c-5 -91 -74 -156 -174 -156c-52 0 -94 15 -127 44c-32 30 -48 67 -48 111v210c0 44 16 81 48 110c33 30 75 45 127 45c51 0 93 -15 125 -45c33 -30 49 -67 49 -110v-119h-301v-83c0 -71 53 -120 126 -120s124 45 127 113zM173 346v-67h253v68
c0 71 -55 120 -127 120s-126 -50 -126 -121zM266 553l-87 122h51l70 -87l71 87h50l-88 -122h-67z" />
    <glyph glyph-name="Gcircumflex" unicode="&#x11c;" 
d="M333 343h156v-178c0 -49 -17 -91 -52 -125c-34 -33 -78 -50 -131 -50c-55 0 -99 17 -134 51s-52 76 -52 125v369c0 49 17 91 52 124c35 34 79 51 134 51c53 0 96 -17 129 -50s49 -75 49 -125h-52c-1 71 -53 125 -126 125c-80 0 -134 -54 -134 -126v-369
c0 -72 54 -127 134 -127c77 0 131 54 131 126v131h-104v48zM304 840l-70 -87h-51l87 122h67l88 -122h-50z" />
    <glyph glyph-name="gcircumflex" unicode="&#x11d;" 
d="M410 18h-220c-41 0 -74 -33 -74 -77s33 -76 74 -76h220c41 0 76 33 76 76c0 44 -33 77 -76 77zM392 296v68c0 57 -49 103 -106 103c-60 0 -107 -44 -107 -103v-68c0 -29 10 -53 31 -73c21 -19 47 -29 76 -29c28 0 53 10 74 30s32 44 32 72zM491 513h-11
c-21 0 -36 -6 -45 -19l-27 -38c23 -29 35 -60 35 -91v-69c0 -39 -16 -74 -47 -103s-67 -43 -110 -43l-14 1v-88h149c32 0 59 -12 82 -36c23 -23 34 -52 34 -86c0 -68 -52 -121 -116 -121h-243c-64 0 -115 53 -115 121s51 122 115 122h40v102c-19 7 -39 21 -60 44
c-20 23 -30 52 -30 87v69c0 39 15 73 46 102s69 43 112 43c35 0 64 -9 87 -26l38 46c15 18 38 27 69 27h11v-44zM285 640l-70 -87h-51l87 122h67l88 -122h-50z" />
    <glyph glyph-name="Gbreve" unicode="&#x11e;" 
d="M333 343h156v-178c0 -49 -17 -91 -52 -125c-34 -33 -78 -50 -131 -50c-55 0 -99 17 -134 51s-52 76 -52 125v369c0 49 17 91 52 124c35 34 79 51 134 51c53 0 96 -17 129 -50s49 -75 49 -125h-52c-1 71 -53 125 -126 125c-80 0 -134 -54 -134 -126v-369
c0 -72 54 -127 134 -127c77 0 131 54 131 126v131h-104v48zM382 871h49c0 -29 -16 -113 -125 -113s-125 84 -125 113h49c0 -9 2 -19 10 -38c9 -19 33 -33 66 -33s57 14 65 33c9 19 11 29 11 38z" />
    <glyph glyph-name="gbreve" unicode="&#x11f;" 
d="M410 18h-220c-41 0 -74 -33 -74 -77s33 -76 74 -76h220c41 0 76 33 76 76c0 44 -33 77 -76 77zM392 296v68c0 57 -49 103 -106 103c-60 0 -107 -44 -107 -103v-68c0 -29 10 -53 31 -73c21 -19 47 -29 76 -29c28 0 53 10 74 30s32 44 32 72zM491 513h-11
c-21 0 -36 -6 -45 -19l-27 -38c23 -29 35 -60 35 -91v-69c0 -39 -16 -74 -47 -103s-67 -43 -110 -43l-14 1v-88h149c32 0 59 -12 82 -36c23 -23 34 -52 34 -86c0 -68 -52 -121 -116 -121h-243c-64 0 -115 53 -115 121s51 122 115 122h40v102c-19 7 -39 21 -60 44
c-20 23 -30 52 -30 87v69c0 39 15 73 46 102s69 43 112 43c35 0 64 -9 87 -26l38 46c15 18 38 27 69 27h11v-44zM364 671h49c0 -29 -16 -113 -125 -113s-125 84 -125 113h49c0 -9 2 -19 10 -38c9 -19 33 -33 66 -33s57 14 65 33c9 19 11 29 11 38z" />
    <glyph glyph-name="Gdotaccent" unicode="&#x120;" 
d="M333 343h156v-178c0 -49 -17 -91 -52 -125c-34 -33 -78 -50 -131 -50c-55 0 -99 17 -134 51s-52 76 -52 125v369c0 49 17 91 52 124c35 34 79 51 134 51c53 0 96 -17 129 -50s49 -75 49 -125h-52c-1 71 -53 125 -126 125c-80 0 -134 -54 -134 -126v-369
c0 -72 54 -127 134 -127c77 0 131 54 131 126v131h-104v48zM339 797h-66v70h66v-70z" />
    <glyph glyph-name="gdotaccent" unicode="&#x121;" 
d="M410 18h-220c-41 0 -74 -33 -74 -77s33 -76 74 -76h220c41 0 76 33 76 76c0 44 -33 77 -76 77zM392 296v68c0 57 -49 103 -106 103c-60 0 -107 -44 -107 -103v-68c0 -29 10 -53 31 -73c21 -19 47 -29 76 -29c28 0 53 10 74 30s32 44 32 72zM491 513h-11
c-21 0 -36 -6 -45 -19l-27 -38c23 -29 35 -60 35 -91v-69c0 -39 -16 -74 -47 -103s-67 -43 -110 -43l-14 1v-88h149c32 0 59 -12 82 -36c23 -23 34 -52 34 -86c0 -68 -52 -121 -116 -121h-243c-64 0 -115 53 -115 121s51 122 115 122h40v102c-19 7 -39 21 -60 44
c-20 23 -30 52 -30 87v69c0 39 15 73 46 102s69 43 112 43c35 0 64 -9 87 -26l38 46c15 18 38 27 69 27h11v-44zM321 597h-66v70h66v-70z" />
    <glyph glyph-name="Gcommaaccent" unicode="&#x122;" 
d="M333 343h156v-178c0 -49 -17 -91 -52 -125c-34 -33 -78 -50 -131 -50c-55 0 -99 17 -134 51s-52 76 -52 125v369c0 49 17 91 52 124c35 34 79 51 134 51c53 0 96 -17 129 -50s49 -75 49 -125h-52c-1 71 -53 125 -126 125c-80 0 -134 -54 -134 -126v-369
c0 -72 54 -127 134 -127c77 0 131 54 131 126v131h-104v48zM354 -50l-83 -123h-41l53 123h71z" />
    <glyph glyph-name="gcommaaccent" unicode="&#x123;" 
d="M410 18h-220c-41 0 -74 -33 -74 -77s33 -76 74 -76h220c41 0 76 33 76 76c0 44 -33 77 -76 77zM392 296v68c0 57 -49 103 -106 103c-60 0 -107 -44 -107 -103v-68c0 -29 10 -53 31 -73c21 -19 47 -29 76 -29c28 0 53 10 74 30s32 44 32 72zM491 513h-11
c-21 0 -36 -6 -45 -19l-27 -38c23 -29 35 -60 35 -91v-69c0 -39 -16 -74 -47 -103s-67 -43 -110 -43l-14 1v-88h149c32 0 59 -12 82 -36c23 -23 34 -52 34 -86c0 -68 -52 -121 -116 -121h-243c-64 0 -115 53 -115 121s51 122 115 122h40v102c-19 7 -39 21 -60 44
c-20 23 -30 52 -30 87v69c0 39 15 73 46 102s69 43 112 43c35 0 64 -9 87 -26l38 46c15 18 38 27 69 27h11v-44zM245 554l83 123h41l-53 -123h-71z" />
    <glyph glyph-name="Hcircumflex" unicode="&#x124;" 
d="M427 394v306h52v-700h-52v346h-254v-346h-52v700h52v-306h254zM299 840l-70 -87h-51l87 122h67l88 -122h-50z" />
    <glyph glyph-name="hcircumflex" unicode="&#x125;" 
d="M480 350v-350h-49v340c0 80 -48 128 -120 128c-37 0 -68 -12 -94 -35s-39 -51 -39 -83v-350h-49v700h49v-256c3 5 8 11 14 18c7 7 22 17 45 29c23 13 49 19 76 19c51 0 91 -15 121 -46c31 -31 46 -69 46 -114zM305 839l-70 -87h-51l87 122h67l88 -122h-50z" />
    <glyph glyph-name="Hbar" unicode="&#x126;" 
d="M427 567v133h52v-133h51v-43h-51v-524h-52v346h-254v-346h-52v524h-51v43h51v133h52v-133h254zM173 524v-130h254v130h-254z" />
    <glyph glyph-name="hbar" unicode="&#x127;" 
d="M129 575h-61v43h61v82h49v-82h128v-43h-128v-131c3 5 8 11 14 18c7 7 22 17 45 29c23 13 49 19 76 19c51 0 91 -15 121 -46c31 -31 46 -69 46 -114v-350h-49v340c0 80 -48 128 -120 128c-37 0 -68 -12 -94 -35s-39 -51 -39 -83v-350h-49v575z" />
    <glyph glyph-name="Itilde" unicode="&#x128;" 
d="M242 859c17 0 38 -7 63 -21s43 -21 54 -21c19 0 32 14 32 35v7h46v-7c0 -47 -34 -79 -78 -79c-17 0 -38 7 -63 21s-43 21 -54 21c-19 0 -33 -14 -33 -34v-8h-46v8c0 47 34 78 79 78zM275 652h-156v48h362v-48h-154v-604h154v-48h-362v48h156v604z" />
    <glyph glyph-name="itilde" unicode="&#x129;" 
d="M242 659c17 0 38 -7 63 -21s43 -21 54 -21c19 0 32 14 32 35v7h46v-7c0 -47 -34 -79 -78 -79c-17 0 -38 7 -63 21s-43 21 -54 21c-19 0 -33 -14 -33 -34v-8h-46v8c0 47 34 78 79 78zM119 457v43h210v-457h142v-43h-352v43h160v414h-160z" />
    <glyph glyph-name="Imacron" unicode="&#x12a;" 
d="M275 652h-156v48h362v-48h-154v-604h154v-48h-362v48h156v604zM430 790h-260v45h260v-45z" />
    <glyph glyph-name="imacron" unicode="&#x12b;" 
d="M119 457v43h210v-457h142v-43h-352v43h160v414h-160zM430 590h-260v45h260v-45z" />
    <glyph glyph-name="Ibreve" unicode="&#x12c;" 
d="M376 871h49c0 -29 -16 -113 -125 -113s-125 84 -125 113h49c0 -9 2 -19 10 -38c9 -19 33 -33 66 -33s57 14 65 33c9 19 11 29 11 38zM275 652h-156v48h362v-48h-154v-604h154v-48h-362v48h156v604z" />
    <glyph glyph-name="ibreve" unicode="&#x12d;" 
d="M376 671h49c0 -29 -16 -113 -125 -113s-125 84 -125 113h49c0 -9 2 -19 10 -38c9 -19 33 -33 66 -33s57 14 65 33c9 19 11 29 11 38zM119 457v43h210v-457h142v-43h-352v43h160v414h-160z" />
    <glyph glyph-name="Iogonek" unicode="&#x12e;" 
d="M275 652h-156v48h362v-48h-154v-604h154v-48l-20 -16c-8 -7 -19 -20 -33 -38c-13 -19 -20 -35 -20 -49c0 -24 17 -37 40 -37h45v-40h-51c-48 0 -80 28 -80 71c0 35 31 75 56 95l18 14h-317v48h156v604z" />
    <glyph glyph-name="iogonek" unicode="&#x12f;" 
d="M119 457v43h210v-457h142v-43l-20 -16c-8 -7 -19 -20 -33 -38c-13 -19 -20 -35 -20 -49c0 -24 17 -37 40 -37h45v-40h-51c-48 0 -80 28 -80 71c0 35 28 75 52 95l17 14h-302v43h160v414h-160zM334 597h-66v70h66v-70z" />
    <glyph glyph-name="Idot" unicode="&#x130;" 
d="M275 652h-156v48h362v-48h-154v-604h154v-48h-362v48h156v604zM333 797h-66v70h66v-70z" />
    <glyph glyph-name="dotlessi" unicode="&#x131;" 
d="M119 457v43h210v-457h142v-43h-352v43h160v414h-160z" />
    <glyph glyph-name="IJ" unicode="&#x132;" 
d="M245 48v-48h-214v48h80v604h-80v48h214v-48h-82v-604h82zM282 184h50v-59c0 -56 30 -87 74 -87c45 0 75 31 75 87v527h-111v48h163v-573c0 -83 -54 -137 -127 -137s-124 53 -124 136v58z" />
    <glyph glyph-name="ij" unicode="&#x133;" horiz-adv-x="601" 
d="M64 457v43h140v-457h88v-43h-228v43h90v414h-90zM209 597h-66v70h66v-70zM346 500h140v-540c0 -88 -58 -150 -151 -150c-45 0 -80 10 -107 29l25 37c21 -15 48 -23 82 -23c63 0 101 44 101 109v495h-90v43zM488 597h-64v70h64v-70z" />
    <glyph glyph-name="Jcircumflex" unicode="&#x134;" 
d="M116 165v63h52v-64c0 -35 12 -65 36 -90c25 -24 55 -36 90 -36c36 0 66 12 90 37c25 25 37 55 37 90v487h-271v48h323v-534c0 -49 -17 -90 -52 -125c-34 -34 -75 -51 -123 -51h-7c-49 0 -90 17 -124 51s-51 75 -51 124zM316 840l-70 -87h-51l87 122h67l88 -122h-50z" />
    <glyph glyph-name="jcircumflex" unicode="&#x135;" 
d="M138 500h287v-540c0 -88 -58 -150 -151 -150c-45 0 -80 10 -107 29l25 37c21 -15 48 -23 82 -23c63 0 101 44 101 109v495h-237v43zM342 640l-70 -87h-51l87 122h67l88 -122h-50z" />
    <glyph glyph-name="Kcommaaccent" unicode="&#x136;" 
d="M140 700h52v-324l247 324h60l-252 -328l267 -372h-62l-260 365v-365h-52v700zM342 -50l-83 -123h-41l53 123h71z" />
    <glyph glyph-name="kcommaaccent" unicode="&#x137;" 
d="M496 0h-63l-223 259v-259h-48v700h48v-427l206 227h64l-216 -233zM349 -50l-83 -123h-41l53 123h71z" />
    <glyph glyph-name="kgreenlandic" unicode="&#x138;" 
d="M496 0h-63l-223 259v-259h-48v500h48v-227l206 227h64l-216 -233z" />
    <glyph glyph-name="Lacute" unicode="&#x139;" 
d="M155 0v700h52v-652h291v-48h-343zM390 875l-127 -122h-54l109 122h72z" />
    <glyph glyph-name="lacute" unicode="&#x13a;" 
d="M169 657v43h161v-657h152v-43h-344v43h142v614h-111zM411 874l-127 -122h-54l109 122h72z" />
    <glyph glyph-name="Lcommaaccent" unicode="&#x13b;" 
d="M155 0v700h52v-652h291v-48h-343zM362 -50l-83 -123h-41l53 123h71z" />
    <glyph glyph-name="lcommaaccent" unicode="&#x13c;" 
d="M169 657v43h161v-657h152v-43h-344v43h142v614h-111zM345 -50l-83 -123h-41l53 123h71z" />
    <glyph glyph-name="Lcaron" unicode="&#x13d;" 
d="M155 0v700h52v-652h291v-48h-343zM499 700l-83 -123h-41l53 123h71z" />
    <glyph glyph-name="lcaron" unicode="&#x13e;" 
d="M169 657v43h161v-657h152v-43h-344v43h142v614h-111zM564 700l-83 -123h-41l53 123h71z" />
    <glyph glyph-name="Ldot" unicode="&#x13f;" 
d="M155 0v700h52v-652h291v-48h-343zM480 328h-70v70h70v-70z" />
    <glyph glyph-name="ldot" unicode="&#x140;" 
d="M169 657v43h161v-657h152v-43h-344v43h142v614h-111zM545 258h-70v70h70v-70z" />
    <glyph glyph-name="Lslash" unicode="&#x141;" 
d="M222 368l151 88l-1 -52l-150 -88v-268h290v-48h-342v286l-62 -36v52l62 36v362h52v-332z" />
    <glyph glyph-name="lslash" unicode="&#x142;" 
d="M280 337l-75 -43v46l75 43v274h-111v43h161v-289l99 57v-46l-99 -56v-323h152v-43h-344v43h142v294z" />
    <glyph glyph-name="Nacute" unicode="&#x143;" 
d="M428 138v562h51v-700h-65l-227 566l-16 61l-3 -1l4 -64v-562h-51v700h65l226 -566l17 -61l3 1zM449 875l-127 -122h-54l109 122h72z" />
    <glyph glyph-name="nacute" unicode="&#x144;" 
d="M480 350v-350h-49v340c0 80 -48 128 -120 128c-37 0 -68 -12 -94 -35s-39 -51 -39 -83v-350h-49v500h47l2 -56c3 5 8 11 14 18c7 7 22 17 45 29c23 13 49 19 76 19c51 0 91 -15 121 -46c31 -31 46 -69 46 -114zM435 675l-127 -122h-54l109 122h72z" />
    <glyph glyph-name="Ncommaaccent" unicode="&#x145;" 
d="M428 138v562h51v-700h-65l-227 566l-16 61l-3 -1l4 -64v-562h-51v700h65l226 -566l17 -61l3 1zM335 -50l-83 -123h-41l53 123h71z" />
    <glyph glyph-name="ncommaaccent" unicode="&#x146;" 
d="M480 350v-350h-49v340c0 80 -48 128 -120 128c-37 0 -68 -12 -94 -35s-39 -51 -39 -83v-350h-49v500h47l2 -56c3 5 8 11 14 18c7 7 22 17 45 29c23 13 49 19 76 19c51 0 91 -15 121 -46c31 -31 46 -69 46 -114zM349 -50l-83 -123h-41l53 123h71z" />
    <glyph glyph-name="Ncaron" unicode="&#x147;" 
d="M428 138v562h51v-700h-65l-227 566l-16 61l-3 -1l4 -64v-562h-51v700h65l226 -566l17 -61l3 1zM265 753l-87 122h51l70 -87l71 87h50l-88 -122h-67z" />
    <glyph glyph-name="ncaron" unicode="&#x148;" 
d="M480 350v-350h-49v340c0 80 -48 128 -120 128c-37 0 -68 -12 -94 -35s-39 -51 -39 -83v-350h-49v500h47l2 -56c3 5 8 11 14 18c7 7 22 17 45 29c23 13 49 19 76 19c51 0 91 -15 121 -46c31 -31 46 -69 46 -114zM274 553l-87 122h51l70 -87l71 87h50l-88 -122h-67z" />
    <glyph glyph-name="napostrophe" unicode="&#x149;" 
d="M480 350v-350h-49v340c0 80 -48 128 -120 128c-37 0 -68 -12 -94 -35s-39 -51 -39 -83v-350h-49v500h47l2 -56c3 5 8 11 14 18c7 7 22 17 45 29c23 13 49 19 76 19c51 0 91 -15 121 -46c31 -31 46 -69 46 -114zM145 700l-83 -123h-41l53 123h71z" />
    <glyph glyph-name="Eng" unicode="&#x14a;" 
d="M427 -56v39l-239 577l-17 66l-3 -1l4 -70v-555h-51v700h65l228 -557l15 -59l3 1l-4 62v553h51v-756c0 -75 -54 -132 -138 -132h-10v46h10c56 0 86 39 86 86z" />
    <glyph glyph-name="eng" unicode="&#x14b;" 
d="M431 -2v342c0 80 -48 128 -120 128c-37 0 -68 -12 -94 -35s-39 -51 -39 -83v-350h-49v500h47l2 -56c3 5 8 11 14 18c7 7 22 17 45 29c23 13 49 19 76 19c51 0 91 -15 121 -46c31 -31 46 -69 46 -114v-349c0 -97 -57 -145 -130 -145h-12v42h12c49 0 81 36 81 100z" />
    <glyph glyph-name="Omacron" unicode="&#x14c;" 
d="M484 535v-370c0 -49 -17 -91 -52 -125c-34 -33 -78 -50 -132 -50s-98 17 -133 51s-52 76 -52 125v369c0 49 17 91 52 124c35 34 79 51 133 51s98 -17 132 -51c35 -33 52 -75 52 -124zM432 164v370c0 72 -53 128 -132 128c-80 0 -133 -56 -133 -128v-369
c0 -72 53 -127 133 -127c79 0 132 54 132 126zM430 790h-260v45h260v-45z" />
    <glyph glyph-name="omacron" unicode="&#x14d;" 
d="M474 145c0 -43 -16 -80 -49 -110c-32 -30 -74 -45 -125 -45c-52 0 -94 15 -127 44c-32 30 -48 67 -48 111v210c0 44 16 81 48 110c33 30 75 45 127 45c51 0 93 -15 125 -45c33 -30 49 -67 49 -110v-210zM426 349c0 33 -12 61 -37 84s-55 34 -90 34s-65 -11 -90 -34
c-24 -23 -36 -51 -36 -84v-198c0 -33 12 -61 36 -84c25 -23 55 -34 91 -34c35 0 65 11 89 34c25 23 37 51 37 84v198zM430 590h-260v45h260v-45z" />
    <glyph glyph-name="Obreve" unicode="&#x14e;" 
d="M484 535v-370c0 -49 -17 -91 -52 -125c-34 -33 -78 -50 -132 -50s-98 17 -133 51s-52 76 -52 125v369c0 49 17 91 52 124c35 34 79 51 133 51s98 -17 132 -51c35 -33 52 -75 52 -124zM432 164v370c0 72 -53 128 -132 128c-80 0 -133 -56 -133 -128v-369
c0 -72 53 -127 133 -127c79 0 132 54 132 126zM376 871h49c0 -29 -16 -113 -125 -113s-125 84 -125 113h49c0 -9 2 -19 10 -38c9 -19 33 -33 66 -33s57 14 65 33c9 19 11 29 11 38z" />
    <glyph glyph-name="obreve" unicode="&#x14f;" 
d="M474 145c0 -43 -16 -80 -49 -110c-32 -30 -74 -45 -125 -45c-52 0 -94 15 -127 44c-32 30 -48 67 -48 111v210c0 44 16 81 48 110c33 30 75 45 127 45c51 0 93 -15 125 -45c33 -30 49 -67 49 -110v-210zM426 349c0 33 -12 61 -37 84s-55 34 -90 34s-65 -11 -90 -34
c-24 -23 -36 -51 -36 -84v-198c0 -33 12 -61 36 -84c25 -23 55 -34 91 -34c35 0 65 11 89 34c25 23 37 51 37 84v198zM376 671h49c0 -29 -16 -113 -125 -113s-125 84 -125 113h49c0 -9 2 -19 10 -38c9 -19 33 -33 66 -33s57 14 65 33c9 19 11 29 11 38z" />
    <glyph glyph-name="Ohungarumlaut" unicode="&#x150;" 
d="M484 535v-370c0 -49 -17 -91 -52 -125c-34 -33 -78 -50 -132 -50s-98 17 -133 51s-52 76 -52 125v369c0 49 17 91 52 124c35 34 79 51 133 51s98 -17 132 -51c35 -33 52 -75 52 -124zM432 164v370c0 72 -53 128 -132 128c-80 0 -133 -56 -133 -128v-369
c0 -72 53 -127 133 -127c79 0 132 54 132 126zM367 875l-116 -122h-46l94 122h68zM498 875l-116 -122h-46l94 122h68z" />
    <glyph glyph-name="ohungarumlaut" unicode="&#x151;" 
d="M474 145c0 -43 -16 -80 -49 -110c-32 -30 -74 -45 -125 -45c-52 0 -94 15 -127 44c-32 30 -48 67 -48 111v210c0 44 16 81 48 110c33 30 75 45 127 45c51 0 93 -15 125 -45c33 -30 49 -67 49 -110v-210zM426 349c0 33 -12 61 -37 84s-55 34 -90 34s-65 -11 -90 -34
c-24 -23 -36 -51 -36 -84v-198c0 -33 12 -61 36 -84c25 -23 55 -34 91 -34c35 0 65 11 89 34c25 23 37 51 37 84v198zM366 675l-116 -122h-46l94 122h68zM497 675l-116 -122h-46l94 122h68z" />
    <glyph glyph-name="OE" unicode="&#x152;" 
d="M261 700h273v-48h-178v-258h154v-48h-154v-298h183v-48h-278c-48 0 -89 17 -122 52s-49 76 -49 125v347c0 49 16 90 49 124c33 35 74 52 122 52zM142 523v-347c0 -73 51 -128 122 -128h40v602h-40c-72 0 -122 -54 -122 -127z" />
    <glyph glyph-name="oe" unicode="&#x153;" 
d="M472 109v37h45v-37c0 -33 -11 -62 -33 -85s-49 -34 -81 -34c-49 0 -84 20 -104 59c-23 -39 -56 -59 -101 -59c-34 0 -63 12 -86 35s-35 52 -35 85v281c0 33 12 61 35 84s52 35 86 35c44 0 81 -24 93 -44l9 -14c2 4 5 9 10 16c9 13 49 42 93 42c67 0 115 -51 115 -119
v-154h-195v-121c0 -49 30 -83 79 -83c43 0 70 28 70 76zM273 116v273c0 44 -30 78 -75 78c-44 0 -73 -34 -73 -82v-269c0 -48 30 -83 73 -83c44 0 75 35 75 83zM323 389v-110h150v108c0 47 -31 80 -71 80c-43 0 -79 -35 -79 -78z" />
    <glyph glyph-name="Racute" unicode="&#x154;" 
d="M484 0h-56l-111 267h-120v-267h-52v700h168c95 0 156 -61 156 -146v-140c0 -64 -40 -120 -99 -139zM417 411v142c0 57 -40 97 -105 97h-115v-335h123c56 0 97 40 97 96zM415 875l-127 -122h-54l109 122h72z" />
    <glyph glyph-name="racute" unicode="&#x155;" 
d="M194 43v457h47l2 -57c1 0 37 65 124 65c45 0 79 -13 102 -40s37 -57 40 -91h-51c-3 52 -39 90 -95 90c-29 0 -57 -12 -82 -35s-37 -50 -37 -79v-310h199v-43h-353v43h104zM479 675l-127 -122h-54l109 122h72z" />
    <glyph glyph-name="Rcommaaccent" unicode="&#x156;" 
d="M484 0h-56l-111 267h-120v-267h-52v700h168c95 0 156 -61 156 -146v-140c0 -64 -40 -120 -99 -139zM417 411v142c0 57 -40 97 -105 97h-115v-335h123c56 0 97 40 97 96zM337 -50l-83 -123h-41l53 123h71z" />
    <glyph glyph-name="rcommaaccent" unicode="&#x157;" 
d="M194 43v457h47l2 -57c1 0 37 65 124 65c45 0 79 -13 102 -40s37 -57 40 -91h-51c-3 52 -39 90 -95 90c-29 0 -57 -12 -82 -35s-37 -50 -37 -79v-310h199v-43h-353v43h104zM290 -50l-83 -123h-41l53 123h71z" />
    <glyph glyph-name="Rcaron" unicode="&#x158;" 
d="M484 0h-56l-111 267h-120v-267h-52v700h168c95 0 156 -61 156 -146v-140c0 -64 -40 -120 -99 -139zM417 411v142c0 57 -40 97 -105 97h-115v-335h123c56 0 97 40 97 96zM265 753l-87 122h51l70 -87l71 87h50l-88 -122h-67z" />
    <glyph glyph-name="rcaron" unicode="&#x159;" 
d="M194 43v457h47l2 -57c1 0 37 65 124 65c45 0 79 -13 102 -40s37 -57 40 -91h-51c-3 52 -39 90 -95 90c-29 0 -57 -12 -82 -35s-37 -50 -37 -79v-310h199v-43h-353v43h104zM316 553l-87 122h51l70 -87l71 87h50l-88 -122h-67z" />
    <glyph glyph-name="Sacute" unicode="&#x15a;" 
d="M477 535h-51c-3 72 -55 127 -126 127c-34 0 -63 -12 -87 -35s-36 -52 -36 -86c-1 -88 77 -122 153 -166c27 -15 51 -31 74 -47c47 -31 80 -88 80 -160c0 -50 -18 -92 -53 -127c-35 -34 -78 -51 -131 -51c-54 0 -98 17 -133 50c-35 34 -52 76 -52 125v24h52v-24
c0 -72 56 -127 133 -127s132 53 132 125c0 73 -48 126 -109 157c-87 47 -198 92 -198 218c0 48 17 89 51 122c35 33 76 50 124 50c49 0 90 -16 124 -49c35 -33 52 -75 53 -126zM432 875l-127 -122h-54l109 122h72z" />
    <glyph glyph-name="sacute" unicode="&#x15b;" 
d="M460 377h-51c-1 51 -49 90 -106 90c-25 0 -48 -8 -69 -24c-40 -31 -39 -83 -4 -114c36 -29 91 -45 142 -68c51 -21 91 -66 91 -133c0 -39 -15 -71 -46 -98s-69 -40 -114 -40c-51 0 -91 15 -121 44c-30 30 -45 65 -45 106h49c1 -60 50 -107 117 -107c64 0 110 40 110 95
c0 48 -40 79 -91 98c-74 29 -167 59 -167 154c0 39 15 70 44 94s65 36 108 36c45 0 81 -14 108 -42s42 -58 45 -91zM438 675l-127 -122h-54l109 122h72z" />
    <glyph glyph-name="Scircumflex" unicode="&#x15c;" 
d="M477 535h-51c-3 72 -55 127 -126 127c-34 0 -63 -12 -87 -35s-36 -52 -36 -86c-1 -88 77 -122 153 -166c27 -15 51 -31 74 -47c47 -31 80 -88 80 -160c0 -50 -18 -92 -53 -127c-35 -34 -78 -51 -131 -51c-54 0 -98 17 -133 50c-35 34 -52 76 -52 125v24h52v-24
c0 -72 56 -127 133 -127s132 53 132 125c0 73 -48 126 -109 157c-87 47 -198 92 -198 218c0 48 17 89 51 122c35 33 76 50 124 50c49 0 90 -16 124 -49c35 -33 52 -75 53 -126zM305 840l-70 -87h-51l87 122h67l88 -122h-50z" />
    <glyph glyph-name="scircumflex" unicode="&#x15d;" 
d="M460 377h-51c-1 51 -49 90 -106 90c-25 0 -48 -8 -69 -24c-40 -31 -39 -83 -4 -114c36 -29 91 -45 142 -68c51 -21 91 -66 91 -133c0 -39 -15 -71 -46 -98s-69 -40 -114 -40c-51 0 -91 15 -121 44c-30 30 -45 65 -45 106h49c1 -60 50 -107 117 -107c64 0 110 40 110 95
c0 48 -40 79 -91 98c-74 29 -167 59 -167 154c0 39 15 70 44 94s65 36 108 36c45 0 81 -14 108 -42s42 -58 45 -91zM303 640l-70 -87h-51l87 122h67l88 -122h-50z" />
    <glyph glyph-name="Scedilla" unicode="&#x15e;" 
d="M477 535h-51c-3 72 -55 127 -126 127c-34 0 -63 -12 -87 -35s-36 -52 -36 -86c-1 -88 77 -122 153 -166c27 -15 51 -31 74 -47c47 -31 80 -88 80 -160c0 -49 -17 -90 -50 -124s-75 -52 -125 -54v-30h8c45 0 75 -28 75 -69c0 -40 -33 -71 -78 -71h-56v41h51
c23 0 37 12 37 31s-11 28 -32 28h-45v73c-92 12 -154 83 -154 172v24h52v-24c0 -72 56 -127 133 -127s132 53 132 125c0 73 -48 126 -109 157c-87 47 -198 92 -198 218c0 48 17 89 51 122c35 33 76 50 124 50c49 0 90 -16 124 -49c35 -33 52 -75 53 -126z" />
    <glyph glyph-name="scedilla" unicode="&#x15f;" 
d="M460 377h-51c-1 51 -49 90 -106 90c-25 0 -48 -8 -69 -24c-40 -31 -39 -83 -4 -114c36 -29 91 -45 142 -68c51 -21 91 -66 91 -133c0 -38 -15 -70 -44 -96s-65 -40 -108 -42v-30h8c45 0 75 -28 75 -69c0 -40 -33 -71 -78 -71h-56v41h51c23 0 37 12 37 31s-11 28 -32 28
h-45v73c-83 12 -134 75 -134 147h49c1 -60 50 -107 117 -107c64 0 110 40 110 95c0 48 -40 79 -91 98c-74 29 -167 59 -167 154c0 39 15 70 44 94s65 36 108 36c45 0 81 -14 108 -42s42 -58 45 -91z" />
    <glyph glyph-name="Scaron" unicode="&#x160;" 
d="M477 535h-51c-3 72 -55 127 -126 127c-34 0 -63 -12 -87 -35s-36 -52 -36 -86c-1 -88 77 -122 153 -166c27 -15 51 -31 74 -47c47 -31 80 -88 80 -160c0 -50 -18 -92 -53 -127c-35 -34 -78 -51 -131 -51c-54 0 -98 17 -133 50c-35 34 -52 76 -52 125v24h52v-24
c0 -72 56 -127 133 -127s132 53 132 125c0 73 -48 126 -109 157c-87 47 -198 92 -198 218c0 48 17 89 51 122c35 33 76 50 124 50c49 0 90 -16 124 -49c35 -33 52 -75 53 -126zM272 753l-87 122h51l70 -87l71 87h50l-88 -122h-67z" />
    <glyph glyph-name="scaron" unicode="&#x161;" 
d="M460 377h-51c-1 51 -49 90 -106 90c-25 0 -48 -8 -69 -24c-40 -31 -39 -83 -4 -114c36 -29 91 -45 142 -68c51 -21 91 -66 91 -133c0 -39 -15 -71 -46 -98s-69 -40 -114 -40c-51 0 -91 15 -121 44c-30 30 -45 65 -45 106h49c1 -60 50 -107 117 -107c64 0 110 40 110 95
c0 48 -40 79 -91 98c-74 29 -167 59 -167 154c0 39 15 70 44 94s65 36 108 36c45 0 81 -14 108 -42s42 -58 45 -91zM269 553l-87 122h51l70 -87l71 87h50l-88 -122h-67z" />
    <glyph glyph-name="Tcommaaccent" unicode="&#x162;" 
d="M274 652h-173v48h398v-48h-173v-652h-52v652zM342 -50l-83 -123h-41l53 123h71z" />
    <glyph glyph-name="tcommaaccent" unicode="&#x163;" 
d="M188 457h-77v43h77v140h48v-140h242v-43h-242v-316c0 -60 39 -107 107 -107c57 0 99 46 100 91h44c-1 -35 -15 -67 -43 -94s-62 -41 -102 -41c-96 0 -154 61 -154 153v314zM362 -50l-83 -123h-41l53 123h71z" />
    <glyph glyph-name="Tcaron" unicode="&#x164;" 
d="M274 652h-173v48h398v-48h-173v-652h-52v652zM265 753l-87 122h51l70 -87l71 87h50l-88 -122h-67z" />
    <glyph glyph-name="tcaron" unicode="&#x165;" 
d="M188 457h-77v43h77v140h48v-140h242v-43h-242v-316c0 -60 39 -107 107 -107c57 0 99 46 100 91h44c-1 -35 -15 -67 -43 -94s-62 -41 -102 -41c-96 0 -154 61 -154 153v314zM555 700l-83 -123h-41l53 123h71z" />
    <glyph glyph-name="Tbar" unicode="&#x166;" 
d="M274 652h-173v48h398v-48h-173v-259h137v-46h-137v-347h-52v347h-135v46h135v259z" />
    <glyph glyph-name="tbar" unicode="&#x167;" 
d="M188 457h-77v43h77v140h48v-140h242v-43h-242v-154h130v-42h-130v-120c0 -60 39 -107 107 -107c57 0 99 46 100 91h44c-1 -35 -15 -67 -43 -94s-62 -41 -102 -41c-96 0 -154 61 -154 153v118h-73v42h73v154z" />
    <glyph glyph-name="Utilde" unicode="&#x168;" 
d="M242 859c17 0 38 -7 63 -21s43 -21 54 -21c19 0 32 14 32 35v7h46v-7c0 -47 -34 -79 -78 -79c-17 0 -38 7 -63 21s-43 21 -54 21c-19 0 -33 -14 -33 -34v-8h-46v8c0 47 34 78 79 78zM432 164v536h52v-535c0 -49 -17 -90 -51 -124s-75 -51 -124 -51h-19
c-48 0 -89 17 -124 51c-34 35 -51 76 -51 125v534h52v-535c0 -35 12 -65 36 -90c25 -25 55 -37 91 -37h12c35 0 65 12 89 36c25 25 37 55 37 90z" />
    <glyph glyph-name="utilde" unicode="&#x169;" 
d="M125 150v350h49v-340c0 -81 48 -128 120 -128c37 0 68 12 94 35s39 51 39 83v350h49v-500h-47l-2 56c-3 -5 -8 -11 -15 -18c-6 -7 -21 -17 -44 -30c-23 -12 -49 -18 -76 -18c-101 0 -167 67 -167 160zM242 659c17 0 38 -7 63 -21s43 -21 54 -21c19 0 32 14 32 35v7h46v-7
c0 -47 -34 -79 -78 -79c-17 0 -38 7 -63 21s-43 21 -54 21c-19 0 -33 -14 -33 -34v-8h-46v8c0 47 34 78 79 78z" />
    <glyph glyph-name="Umacron" unicode="&#x16a;" 
d="M432 164v536h52v-535c0 -49 -17 -90 -51 -124s-75 -51 -124 -51h-19c-48 0 -89 17 -124 51c-34 35 -51 76 -51 125v534h52v-535c0 -35 12 -65 36 -90c25 -25 55 -37 91 -37h12c35 0 65 12 89 36c25 25 37 55 37 90zM430 790h-260v45h260v-45z" />
    <glyph glyph-name="umacron" unicode="&#x16b;" 
d="M125 150v350h49v-340c0 -81 48 -128 120 -128c37 0 68 12 94 35s39 51 39 83v350h49v-500h-47l-2 56c-3 -5 -8 -11 -15 -18c-6 -7 -21 -17 -44 -30c-23 -12 -49 -18 -76 -18c-101 0 -167 67 -167 160zM430 590h-260v45h260v-45z" />
    <glyph glyph-name="Ubreve" unicode="&#x16c;" 
d="M376 871h49c0 -29 -16 -113 -125 -113s-125 84 -125 113h49c0 -9 2 -19 10 -38c9 -19 33 -33 66 -33s57 14 65 33c9 19 11 29 11 38zM432 164v536h52v-535c0 -49 -17 -90 -51 -124s-75 -51 -124 -51h-19c-48 0 -89 17 -124 51c-34 35 -51 76 -51 125v534h52v-535
c0 -35 12 -65 36 -90c25 -25 55 -37 91 -37h12c35 0 65 12 89 36c25 25 37 55 37 90z" />
    <glyph glyph-name="ubreve" unicode="&#x16d;" 
d="M125 150v350h49v-340c0 -81 48 -128 120 -128c37 0 68 12 94 35s39 51 39 83v350h49v-500h-47l-2 56c-3 -5 -8 -11 -15 -18c-6 -7 -21 -17 -44 -30c-23 -12 -49 -18 -76 -18c-101 0 -167 67 -167 160zM376 671h49c0 -29 -16 -113 -125 -113s-125 84 -125 113h49
c0 -9 2 -19 10 -38c9 -19 33 -33 66 -33s57 14 65 33c9 19 11 29 11 38z" />
    <glyph glyph-name="Uring" unicode="&#x16e;" 
d="M218 823c0 45 37 81 81 81s82 -37 82 -81s-38 -80 -82 -80s-81 36 -81 80zM256 823c0 -24 19 -44 43 -44s44 20 44 44c0 25 -19 45 -44 45c-24 0 -43 -20 -43 -45zM432 164v536h52v-535c0 -49 -17 -90 -51 -124s-75 -51 -124 -51h-19c-48 0 -89 17 -124 51
c-34 35 -51 76 -51 125v534h52v-535c0 -35 12 -65 36 -90c25 -25 55 -37 91 -37h12c35 0 65 12 89 36c25 25 37 55 37 90z" />
    <glyph glyph-name="uring" unicode="&#x16f;" 
d="M218 623c0 45 37 81 81 81s82 -37 82 -81s-38 -80 -82 -80s-81 36 -81 80zM256 623c0 -24 19 -44 43 -44s44 20 44 44c0 25 -19 45 -44 45c-24 0 -43 -20 -43 -45zM125 150v350h49v-340c0 -81 48 -128 120 -128c37 0 68 12 94 35s39 51 39 83v350h49v-500h-47l-2 56
c-3 -5 -8 -11 -15 -18c-6 -7 -21 -17 -44 -30c-23 -12 -49 -18 -76 -18c-101 0 -167 67 -167 160z" />
    <glyph glyph-name="Uhungarumlaut" unicode="&#x170;" 
d="M432 164v536h52v-535c0 -49 -17 -90 -51 -124s-75 -51 -124 -51h-19c-48 0 -89 17 -124 51c-34 35 -51 76 -51 125v534h52v-535c0 -35 12 -65 36 -90c25 -25 55 -37 91 -37h12c35 0 65 12 89 36c25 25 37 55 37 90zM366 875l-116 -122h-46l94 122h68zM497 875l-116 -122
h-46l94 122h68z" />
    <glyph glyph-name="uhungarumlaut" unicode="&#x171;" 
d="M125 150v350h49v-340c0 -81 48 -128 120 -128c37 0 68 12 94 35s39 51 39 83v350h49v-500h-47l-2 56c-3 -5 -8 -11 -15 -18c-6 -7 -21 -17 -44 -30c-23 -12 -49 -18 -76 -18c-101 0 -167 67 -167 160zM361 675l-116 -122h-46l94 122h68zM492 675l-116 -122h-46l94 122h68
z" />
    <glyph glyph-name="Uogonek" unicode="&#x172;" 
d="M432 700h52v-535c0 -59 -27 -112 -74 -143c-16 -11 -35 -29 -56 -55s-32 -49 -32 -70c0 -24 17 -37 40 -37h45v-40h-51c-48 0 -80 28 -80 71c0 34 20 68 60 102c-12 -2 -24 -3 -36 -3c-54 0 -98 17 -133 51s-52 76 -52 125v534h52v-535c0 -72 53 -127 133 -127
c79 0 132 54 132 126v536z" />
    <glyph glyph-name="uogonek" unicode="&#x173;" 
d="M125 150v350h49v-340c0 -81 48 -128 120 -128c37 0 68 12 94 35s39 51 39 83v350h49v-500l-20 -16c-8 -7 -19 -20 -33 -38c-13 -19 -20 -35 -20 -49c0 -24 17 -37 40 -37h45v-40h-51c-48 0 -80 28 -80 71c0 35 30 75 54 95l18 14l-2 56c-3 -5 -8 -11 -15 -18
c-6 -7 -21 -17 -44 -30c-23 -12 -49 -18 -76 -18c-101 0 -167 67 -167 160z" />
    <glyph glyph-name="Wcircumflex" unicode="&#x174;" 
d="M418 48l34 377v275h52v-278l-42 -422h-96l-62 315h-9l-63 -315h-95l-42 422v278h52v-275l34 -377h14l69 332h72l68 -332h14zM299 840l-70 -87h-51l87 122h67l88 -122h-50z" />
    <glyph glyph-name="wcircumflex" unicode="&#x175;" 
d="M409 42l51 276v182h48v-187l-61 -313h-89l-55 271h-7l-54 -271h-89l-61 313v187h48v-182l53 -276h14l58 280h71l59 -280h14zM300 640l-70 -87h-51l87 122h67l88 -122h-50z" />
    <glyph glyph-name="Ycircumflex" unicode="&#x176;" 
d="M96 700h58l147 -309l145 309h57l-177 -367v-333h-52v333zM299 840l-70 -87h-51l87 122h67l88 -122h-50z" />
    <glyph glyph-name="ycircumflex" unicode="&#x177;" 
d="M91 500h55l152 -425l154 425h55l-257 -680h-50l71 187zM300 640l-70 -87h-51l87 122h67l88 -122h-50z" />
    <glyph glyph-name="Ydieresis" unicode="&#x178;" 
d="M96 700h58l147 -309l145 309h57l-177 -367v-333h-52v333zM245 797h-58v70h58v-70zM412 797h-58v70h58v-70z" />
    <glyph glyph-name="Zacute" unicode="&#x179;" 
d="M480 700v-53l-303 -599h302v-48h-359v53l303 599h-288v48h345zM439 875l-127 -122h-54l109 122h72z" />
    <glyph glyph-name="zacute" unicode="&#x17a;" 
d="M456 500v-47l-265 -410h269v-43h-320v48l266 409h-250v43h300zM436 675l-127 -122h-54l109 122h72z" />
    <glyph glyph-name="Zdotaccent" unicode="&#x17b;" 
d="M480 700v-53l-303 -599h302v-48h-359v53l303 599h-288v48h345zM342 797h-66v70h66v-70z" />
    <glyph glyph-name="zdotaccent" unicode="&#x17c;" 
d="M456 500v-47l-265 -410h269v-43h-320v48l266 409h-250v43h300zM340 597h-66v70h66v-70z" />
    <glyph glyph-name="Zcaron" unicode="&#x17d;" 
d="M480 700v-53l-303 -599h302v-48h-359v53l303 599h-288v48h345zM281 753l-87 122h51l70 -87l71 87h50l-88 -122h-67z" />
    <glyph glyph-name="zcaron" unicode="&#x17e;" 
d="M456 500v-47l-265 -410h269v-43h-320v48l266 409h-250v43h300zM274 553l-87 122h51l70 -87l71 87h50l-88 -122h-67z" />
    <glyph glyph-name="florin" unicode="&#x192;" 
d="M321 348v-529h-49v529h-153v44h153v174c0 87 59 144 143 144c33 0 61 -6 85 -17l-27 -38c-13 9 -33 13 -58 13c-57 0 -94 -42 -94 -103v-173h198v-44h-198z" />
    <glyph glyph-name="AEacute" unicode="&#x1fc;" 
d="M90 278l125 422h305v-48h-176v-258h152v-48h-152v-298h183v-48h-235v239h-150v-239h-52v278zM292 652h-43l-104 -365h147v365zM462 875l-127 -122h-54l109 122h72z" />
    <glyph glyph-name="aeacute" unicode="&#x1fd;" 
d="M199 -10c-73 0 -122 52 -122 121v51c0 77 51 127 118 127h82v100c0 43 -33 78 -72 78c-43 0 -66 -33 -66 -86h-48c0 76 50 129 114 129c58 0 87 -39 97 -54l3 -7s22 61 101 61c67 0 116 -52 116 -120v-143h-194v-131c0 -51 26 -83 78 -83c40 0 70 31 70 75v38h45v-38
c0 -33 -11 -61 -34 -84s-51 -34 -84 -34c-61 0 -94 36 -99 50l-3 6c-2 -4 -6 -9 -11 -16c-5 -6 -16 -14 -33 -25c-17 -10 -37 -15 -58 -15zM406 467c-43 0 -78 -35 -78 -79v-99h149v95c0 48 -31 83 -71 83zM199 33c45 0 78 35 78 83v131h-79c-41 0 -73 -33 -73 -85v-52
c0 -44 30 -77 74 -77zM434 675l-127 -122h-54l109 122h72z" />
    <glyph glyph-name="Oslashacute" unicode="&#x1fe;" 
d="M116 -12l-37 23l49 85c-9 20 -13 43 -13 70v369c0 49 17 91 52 124c35 34 79 51 133 51c61 0 110 -22 146 -66l39 67l38 -21l-52 -89c9 -22 13 -44 13 -66v-370c0 -49 -17 -91 -52 -125c-34 -33 -78 -50 -132 -50c-61 0 -110 21 -146 64zM167 534v-372l250 433
c-20 41 -64 67 -117 67c-80 0 -133 -56 -133 -128zM432 164v369l-250 -431c23 -43 63 -64 118 -64c79 0 132 54 132 126zM432 875l-127 -122h-54l109 122h72z" />
    <glyph glyph-name="oslashacute" unicode="&#x1ff;" 
d="M474 355v-210c0 -43 -16 -80 -49 -110c-32 -30 -74 -45 -125 -45c-43 0 -80 11 -112 33l-20 -36l-32 19l24 42c-23 27 -35 60 -35 97v210c0 44 16 81 48 110c33 30 75 45 127 45c42 0 78 -11 109 -32l20 35l33 -18l-24 -42c24 -28 36 -61 36 -98zM426 151v198
c0 22 -5 41 -15 58l-199 -343c23 -21 52 -31 88 -31c35 0 65 11 89 34c25 23 37 51 37 84zM173 349v-198c0 -21 5 -39 14 -56l198 342c-23 20 -52 30 -86 30c-35 0 -65 -11 -90 -34c-24 -23 -36 -51 -36 -84zM429 675l-127 -122h-54l109 122h72z" />
    <glyph glyph-name="Scommaaccent" unicode="&#x218;" 
d="M477 535h-51c-3 72 -55 127 -126 127c-34 0 -63 -12 -87 -35s-36 -52 -36 -86c-1 -88 77 -122 153 -166c27 -15 51 -31 74 -47c47 -31 80 -88 80 -160c0 -50 -18 -92 -53 -127c-35 -34 -78 -51 -131 -51c-54 0 -98 17 -133 50c-35 34 -52 76 -52 125v24h52v-24
c0 -72 56 -127 133 -127s132 53 132 125c0 73 -48 126 -109 157c-87 47 -198 92 -198 218c0 48 17 89 51 122c35 33 76 50 124 50c49 0 90 -16 124 -49c35 -33 52 -75 53 -126zM347 -50l-83 -123h-41l53 123h71z" />
    <glyph glyph-name="scommaaccent" unicode="&#x219;" 
d="M460 377h-51c-1 51 -49 90 -106 90c-25 0 -48 -8 -69 -24c-40 -31 -39 -83 -4 -114c36 -29 91 -45 142 -68c51 -21 91 -66 91 -133c0 -39 -15 -71 -46 -98s-69 -40 -114 -40c-51 0 -91 15 -121 44c-30 30 -45 65 -45 106h49c1 -60 50 -107 117 -107c64 0 110 40 110 95
c0 48 -40 79 -91 98c-74 29 -167 59 -167 154c0 39 15 70 44 94s65 36 108 36c45 0 81 -14 108 -42s42 -58 45 -91zM347 -50l-83 -123h-41l53 123h71z" />
    <glyph glyph-name="dotlessj" unicode="&#x237;" 
d="M138 500h287v-540c0 -88 -58 -150 -151 -150c-45 0 -80 10 -107 29l25 37c21 -15 48 -23 82 -23c63 0 101 44 101 109v495h-237v43z" />
    <glyph glyph-name="circumflex" unicode="&#x2c6;" 
d="M299 640l-70 -87h-51l87 122h67l88 -122h-50z" />
    <glyph glyph-name="caron" unicode="&#x2c7;" 
d="M265 553l-87 122h51l70 -87l71 87h50l-88 -122h-67z" />
    <glyph glyph-name="breve" unicode="&#x2d8;" 
d="M376 671h49c0 -29 -16 -113 -125 -113s-125 84 -125 113h49c0 -9 2 -19 10 -38c9 -19 33 -33 66 -33s57 14 65 33c9 19 11 29 11 38z" />
    <glyph glyph-name="dotaccent" unicode="&#x2d9;" 
d="M333 597h-66v70h66v-70z" />
    <glyph glyph-name="ring" unicode="&#x2da;" 
d="M218 623c0 45 37 81 81 81s82 -37 82 -81s-38 -80 -82 -80s-81 36 -81 80zM256 623c0 -24 19 -44 43 -44s44 20 44 44c0 25 -19 45 -44 45c-24 0 -43 -20 -43 -45z" />
    <glyph glyph-name="ogonek" unicode="&#x2db;" 
d="M365 -140v-40h-51c-48 0 -80 28 -80 71c0 35 28 75 52 95l17 14h50l-20 -16c-8 -7 -19 -20 -33 -38c-13 -19 -20 -35 -20 -49c0 -24 17 -37 40 -37h45z" />
    <glyph glyph-name="tilde" unicode="&#x2dc;" 
d="M242 659c17 0 38 -7 63 -21s43 -21 54 -21c19 0 32 14 32 35v7h46v-7c0 -47 -34 -79 -78 -79c-17 0 -38 7 -63 21s-43 21 -54 21c-19 0 -33 -14 -33 -34v-8h-46v8c0 47 34 78 79 78z" />
    <glyph glyph-name="hungarumlaut" unicode="&#x2dd;" 
d="M316 675l-116 -122h-46l94 122h68zM447 675l-116 -122h-46l94 122h68z" />
    <glyph glyph-name="afii10023" unicode="&#x401;" 
d="M147 0v700h314v-48h-262v-258h238v-48h-238v-298h271v-48h-323zM258 797h-58v70h58v-70zM425 797h-58v70h58v-70z" />
    <glyph glyph-name="afii10051" unicode="&#x402;" 
d="M57 652v48h334v-48h-154v-243c35 21 74 32 115 32c92 0 157 -63 157 -158v-137c0 -41 -13 -75 -40 -104c-26 -28 -59 -42 -98 -42h-44v48h41c52 0 89 44 89 99v129c0 72 -45 117 -114 117c-35 0 -74 -16 -93 -28l-13 -9v-356h-52v652h-128z" />
    <glyph glyph-name="afii10052" unicode="&#x403;" 
d="M78 0v48h129v652h314v-48h-262v-604h172v-48h-353zM483 875l-127 -122h-54l109 122h72z" />
    <glyph glyph-name="afii10053" unicode="&#x404;" 
d="M177 389h178v-48h-178v-174c0 -37 12 -67 36 -92c25 -25 55 -37 91 -37c35 0 65 12 89 36c25 25 37 55 37 90v5h52v-4c0 -49 -17 -90 -52 -124s-77 -51 -126 -51c-50 0 -92 17 -127 51c-35 35 -52 76 -52 125v369c0 49 17 90 51 124s77 51 128 51c49 0 91 -17 124 -51
s50 -75 50 -124h-51c-1 35 -13 65 -37 90c-23 25 -52 38 -87 38c-72 0 -126 -57 -126 -129v-145z" />
    <glyph glyph-name="afii10054" unicode="&#x405;" 
d="M477 535h-51c-3 72 -55 127 -126 127c-34 0 -63 -12 -87 -35s-36 -52 -36 -86c-1 -88 77 -122 153 -166c27 -15 51 -31 74 -47c47 -31 80 -88 80 -160c0 -50 -18 -92 -53 -127c-35 -34 -78 -51 -131 -51c-54 0 -98 17 -133 50c-35 34 -52 76 -52 125v24h52v-24
c0 -72 56 -127 133 -127s132 53 132 125c0 73 -48 126 -109 157c-87 47 -198 92 -198 218c0 48 17 89 51 122c35 33 76 50 124 50c49 0 90 -16 124 -49c35 -33 52 -75 53 -126z" />
    <glyph glyph-name="afii10055" unicode="&#x406;" 
d="M275 652h-156v48h362v-48h-154v-604h154v-48h-362v48h156v604z" />
    <glyph glyph-name="afii10056" unicode="&#x407;" 
d="M275 652h-156v48h362v-48h-154v-604h154v-48h-362v48h156v604zM245 797h-58v70h58v-70zM412 797h-58v70h58v-70z" />
    <glyph glyph-name="afii10057" unicode="&#x408;" 
d="M116 165v63h52v-64c0 -35 12 -65 36 -90c25 -24 55 -36 90 -36c36 0 66 12 90 37c25 25 37 55 37 90v487h-271v48h323v-534c0 -49 -17 -90 -52 -125c-34 -34 -75 -51 -123 -51h-7c-49 0 -90 17 -124 51s-51 75 -51 124z" />
    <glyph glyph-name="afii10058" unicode="&#x409;" horiz-adv-x="599" 
d="M506 147v103c0 53 -41 96 -93 96h-71v-296h71c52 0 93 44 93 97zM131 700h211v-306h74c40 0 74 -14 101 -43c27 -28 41 -63 41 -104v-101c0 -41 -14 -75 -41 -104c-27 -28 -61 -42 -101 -42h-126v652h-109c-9 -189 -18 -354 -27 -495c-7 -95 -54 -158 -122 -158l-14 1v46
c51 0 79 39 84 117c8 127 18 306 29 537z" />
    <glyph glyph-name="afii10059" unicode="&#x40a;" 
d="M298 700h52v-306h74c40 0 74 -14 101 -43c27 -28 41 -63 41 -104v-101c0 -41 -14 -75 -41 -104c-27 -28 -61 -42 -101 -42h-126v346h-179v-346h-52v700h52v-306h179v306zM514 147v103c0 53 -41 96 -93 96h-71v-296h71c52 0 93 44 93 97z" />
    <glyph glyph-name="afii10060" unicode="&#x40b;" 
d="M509 283v-283h-52v276c0 72 -45 117 -114 117c-35 0 -74 -16 -93 -28l-13 -9v-356h-52v652h-128v48h334v-48h-154v-243c35 21 74 32 115 32c92 0 157 -63 157 -158z" />
    <glyph glyph-name="afii10061" unicode="&#x40c;" 
d="M140 700h52v-324l247 324h60l-252 -328l267 -372h-62l-260 365v-365h-52v700zM447 875l-127 -122h-54l109 122h72z" />
    <glyph glyph-name="afii10062" unicode="&#x40e;" 
d="M458 700h57l-283 -700h-57l109 263l-175 437h60l143 -367zM385 871h51c0 -34 -12 -113 -123 -113s-123 79 -123 113h51c0 -49 24 -73 72 -73s72 24 72 73z" />
    <glyph glyph-name="afii10145" unicode="&#x40f;" 
d="M274 -149v149h-153v700h52v-652h254v652h52v-700h-153v-149h-52z" />
    <glyph glyph-name="afii10017" unicode="&#x410;" 
d="M121 274l125 426h108l125 -426v-274h-52v239h-254v-239h-52v274zM178 287h244l-104 365h-36z" />
    <glyph glyph-name="afii10018" unicode="&#x411;" 
d="M326 0h-178v700h282v-48h-230v-258h126c40 0 74 -15 103 -44s43 -63 43 -104v-100c0 -41 -14 -75 -43 -104c-29 -28 -63 -42 -103 -42zM420 147v102c0 53 -44 97 -97 97h-123v-296h123c53 0 97 44 97 97z" />
    <glyph glyph-name="afii10019" unicode="&#x412;" 
d="M142 700h170c43 0 79 -14 108 -43c29 -28 43 -62 43 -103v-58c0 -67 -47 -109 -67 -120l-8 -5c4 -3 9 -4 28 -21c25 -20 54 -57 54 -115v-76c0 -45 -16 -83 -49 -114c-32 -30 -70 -45 -113 -45h-166v700zM315 650h-121v-258h121c55 0 100 45 100 100v58
c0 55 -45 100 -100 100zM308 346h-114v-298h114c64 0 111 51 111 111v76c0 25 -10 50 -29 74c-19 25 -47 37 -82 37z" />
    <glyph glyph-name="afii10020" unicode="&#x413;" 
d="M78 0v48h129v652h314v-48h-262v-604h172v-48h-353z" />
    <glyph glyph-name="afii10021" unicode="&#x414;" horiz-adv-x="599" 
d="M402 652h-173l-31 -539c-1 -28 -11 -51 -18 -59l-5 -6h227v604zM121 -149h-52v197h35c21 0 40 34 43 78l33 574h274v-652h63v-197h-52v149h-344v-149z" />
    <glyph glyph-name="afii10022" unicode="&#x415;" 
d="M147 0v700h314v-48h-262v-258h238v-48h-238v-298h271v-48h-323z" />
    <glyph glyph-name="afii10024" unicode="&#x416;" 
d="M53 0l167 371l-158 329h59l153 -323v323h52v-323l153 323h59l-158 -329l167 -371h-59l-162 364v-364h-52v364l-162 -364h-59z" />
    <glyph glyph-name="afii10025" unicode="&#x417;" 
d="M299 710c51 0 92 -17 123 -50s47 -75 47 -125v-24c0 -55 -29 -104 -52 -121l-17 -14s74 -36 74 -128v-82c0 -50 -17 -92 -51 -126c-34 -33 -77 -50 -130 -50c-50 0 -92 16 -125 49s-50 73 -51 118v12h51v-12c1 -31 14 -58 37 -83c23 -24 53 -36 90 -36
c76 0 126 54 126 127v76c0 61 -40 105 -108 105h-67v48h60c38 0 66 12 83 37c18 25 27 52 27 82v23c0 73 -45 126 -120 126c-37 0 -67 -12 -88 -37s-31 -49 -31 -73h-48c0 41 16 77 47 109c32 33 73 49 123 49z" />
    <glyph glyph-name="afii10026" unicode="&#x418;" 
d="M479 700v-700h-51v562l4 64l-3 1l-17 -61l-226 -566h-65v700h51v-562l-4 -64l3 -1l16 61l227 566h65z" />
    <glyph glyph-name="afii10027" unicode="&#x419;" 
d="M479 700v-700h-51v562l4 64l-3 1l-17 -61l-226 -566h-65v700h51v-562l-4 -64l3 -1l16 61l227 566h65zM372 871h51c0 -34 -12 -113 -123 -113s-123 79 -123 113h51c0 -49 24 -73 72 -73s72 24 72 73z" />
    <glyph glyph-name="afii10028" unicode="&#x41a;" 
d="M140 700h52v-324l247 324h60l-252 -328l267 -372h-62l-260 365v-365h-52v700z" />
    <glyph glyph-name="afii10029" unicode="&#x41b;" horiz-adv-x="599" 
d="M456 700v-700h-52v652h-173c-9 -189 -18 -354 -27 -495c-7 -95 -55 -158 -123 -158l-14 1v46c51 0 79 39 84 117c8 127 18 306 29 537h276z" />
    <glyph glyph-name="afii10030" unicode="&#x41c;" 
d="M300 368l131 332h69v-700h-52v565l3 56l-3 1l-123 -304h-51l-123 304l-3 -1l3 -56v-565h-51v700h69z" />
    <glyph glyph-name="afii10031" unicode="&#x41d;" 
d="M427 394v306h52v-700h-52v346h-254v-346h-52v700h52v-306h254z" />
    <glyph glyph-name="afii10032" unicode="&#x41e;" 
d="M484 535v-370c0 -49 -17 -91 -52 -125c-34 -33 -78 -50 -132 -50s-98 17 -133 51s-52 76 -52 125v369c0 49 17 91 52 124c35 34 79 51 133 51s98 -17 132 -51c35 -33 52 -75 52 -124zM432 164v370c0 72 -53 128 -132 128c-80 0 -133 -56 -133 -128v-369
c0 -72 53 -127 133 -127c79 0 132 54 132 126z" />
    <glyph glyph-name="afii10033" unicode="&#x41f;" 
d="M121 700h358v-700h-52v652h-254v-652h-52v700z" />
    <glyph glyph-name="afii10034" unicode="&#x420;" 
d="M200 0h-52v700h178c41 0 76 -14 104 -42c28 -27 42 -62 42 -104v-152c0 -43 -14 -78 -42 -106c-28 -27 -63 -41 -104 -41h-126v-255zM420 399v154c0 56 -41 97 -97 97h-123v-347h123c56 0 97 40 97 96z" />
    <glyph glyph-name="afii10035" unicode="&#x421;" 
d="M431 169h52v-4c0 -49 -17 -90 -52 -124s-77 -51 -126 -51c-50 0 -92 17 -127 51c-35 35 -52 76 -52 125v369c0 49 17 90 51 124s77 51 128 51c50 0 92 -17 126 -51s51 -75 51 -124h-51c-1 35 -13 65 -38 90s-54 38 -89 38c-72 0 -126 -57 -126 -129v-362
c0 -79 54 -134 127 -134c35 0 65 12 89 36c25 25 37 55 37 90v5z" />
    <glyph glyph-name="afii10036" unicode="&#x422;" 
d="M274 652h-173v48h398v-48h-173v-652h-52v652z" />
    <glyph glyph-name="afii10037" unicode="&#x423;" 
d="M458 700h57l-283 -700h-57l109 263l-175 437h60l143 -367z" />
    <glyph glyph-name="afii10038" unicode="&#x424;" 
d="M502 461v-206c0 -49 -17 -90 -52 -122c-34 -32 -75 -49 -124 -52v-81h-52v81c-50 3 -92 20 -126 52s-51 73 -51 123v205c0 50 17 91 51 123s76 49 126 52v64h52v-64c49 -3 90 -20 124 -53c35 -32 52 -73 52 -122zM149 461v-206c0 -71 54 -122 125 -125v457
c-71 -3 -125 -54 -125 -126zM450 254v207c0 72 -56 123 -124 126v-457c34 1 63 14 87 37c25 23 37 52 37 87z" />
    <glyph glyph-name="afii10039" unicode="&#x425;" 
d="M108 700h59l132 -283l133 283h59l-161 -336l177 -364h-61l-147 312l-146 -312h-61l176 364z" />
    <glyph glyph-name="afii10040" unicode="&#x426;" 
d="M470 -149v149h-349v700h52v-652h254v652h52v-652h43v-197h-52z" />
    <glyph glyph-name="afii10041" unicode="&#x427;" 
d="M403 700h52v-700h-52v283c-40 -19 -86 -28 -137 -28c-43 0 -79 14 -108 42c-28 29 -42 66 -42 113v290h52v-283c0 -71 45 -114 114 -114c43 0 87 14 106 25l15 9v363z" />
    <glyph glyph-name="afii10042" unicode="&#x428;" 
d="M458 700h52v-700h-420v700h52v-652h132v652h52v-652h132v652z" />
    <glyph glyph-name="afii10043" unicode="&#x429;" 
d="M498 -149v149h-411v700h52v-652h132v652h52v-652h132v652h52v-652h43v-197h-52z" />
    <glyph glyph-name="afii10044" unicode="&#x42a;" 
d="M66 700h161v-306h146c40 0 74 -14 103 -43s43 -63 43 -104v-101c0 -41 -14 -75 -43 -104c-29 -28 -63 -42 -103 -42h-198v652h-109v48zM467 147v103c0 53 -44 96 -97 96h-143v-296h143c53 0 97 44 97 97z" />
    <glyph glyph-name="afii10045" unicode="&#x42b;" 
d="M337 147v103c0 53 -44 96 -97 96h-111v-296h111c53 0 97 44 97 97zM77 700h52v-306h114c40 0 74 -14 103 -43s43 -63 43 -104v-101c0 -41 -14 -75 -43 -104c-29 -28 -63 -42 -103 -42h-166v700zM472 700h52v-700h-52v700z" />
    <glyph glyph-name="afii10046" unicode="&#x42c;" 
d="M455 147v103c0 53 -44 96 -97 96h-143v-296h143c53 0 97 44 97 97zM163 700h52v-306h146c40 0 74 -14 103 -43s43 -63 43 -104v-101c0 -41 -14 -75 -43 -104c-29 -28 -63 -42 -103 -42h-198v700z" />
    <glyph glyph-name="afii10047" unicode="&#x42d;" 
d="M413 341h-178v48h178v145c0 72 -54 129 -126 129c-35 0 -64 -13 -88 -38c-23 -25 -35 -55 -36 -90h-51c0 49 17 90 50 124s75 51 124 51c51 0 94 -17 128 -51s51 -75 51 -124v-369c0 -49 -17 -90 -52 -125c-35 -34 -77 -51 -127 -51c-49 0 -91 17 -126 51s-52 75 -52 124
v4h52v-5c0 -35 12 -65 36 -90c25 -24 55 -36 90 -36c36 0 66 12 90 37c25 25 37 55 37 92v174z" />
    <glyph glyph-name="afii10048" unicode="&#x42e;" 
d="M538 533v-366c0 -50 -15 -92 -44 -126s-68 -51 -115 -51s-86 17 -116 51c-29 35 -44 77 -44 127v178h-87v-346h-52v700h52v-306h87v139c0 50 15 92 44 126c30 34 69 51 116 51s86 -17 115 -51s44 -76 44 -126zM487 166v366c0 75 -43 130 -108 130
c-68 0 -109 -55 -109 -130v-365c0 -75 41 -129 109 -129c65 0 108 55 108 128z" />
    <glyph glyph-name="afii10049" unicode="&#x42f;" 
d="M398 267h-120l-111 -267h-56l114 275c-59 19 -99 75 -99 139v140c0 85 61 146 156 146h168v-700h-52v267zM178 553v-142c0 -56 41 -96 97 -96h123v335h-115c-65 0 -105 -40 -105 -97z" />
    <glyph glyph-name="afii10065" unicode="&#x430;" 
d="M469 0h-49v53c0 -1 -43 -62 -140 -63c-44 0 -82 14 -113 42s-46 64 -46 107c0 89 70 148 166 155l133 9v46c0 69 -43 118 -112 118c-56 0 -97 -35 -109 -86h-49c12 76 73 129 158 129c103 0 161 -66 161 -162v-348zM286 32c35 0 66 11 93 32s41 46 41 74v122l-121 -7
c-80 -5 -129 -46 -129 -113c0 -61 47 -108 116 -108z" />
    <glyph glyph-name="afii10066" unicode="&#x431;" 
d="M418 161v154c0 84 -53 135 -125 135c-71 0 -128 -53 -128 -141v-148c0 -79 54 -128 127 -128c72 0 126 51 126 128zM466 328v-171c0 -49 -16 -90 -48 -121s-74 -47 -126 -47c-107 0 -175 68 -175 168v274c0 85 22 150 66 194c45 44 100 67 165 69c32 2 56 5 73 9v-44
c-14 -5 -36 -8 -66 -9c-127 -6 -190 -81 -190 -225c1 0 37 69 137 69c47 0 86 -16 117 -47s47 -70 47 -119z" />
    <glyph glyph-name="afii10067" unicode="&#x432;" 
d="M302 0h-172v500h190c99 0 149 -48 149 -127c0 -49 -29 -89 -52 -101l-17 -9c4 -1 9 -3 28 -16c25 -17 54 -50 54 -107c0 -93 -60 -140 -180 -140zM324 457h-145v-177h141c61 0 101 35 101 92c0 49 -36 85 -97 85zM320 237h-141v-194h138c77 0 115 37 115 98
c0 57 -35 96 -112 96z" />
    <glyph glyph-name="afii10068" unicode="&#x433;" 
d="M446 43v-43h-367v43h147v457h284v-43h-234v-414h170z" />
    <glyph glyph-name="afii10069" unicode="&#x434;" 
d="M85 -105v148h26c20 0 42 34 46 78c9 110 19 236 28 379h267v-457h48v-148h-48v105h-319v-105h-48zM404 43v414h-175c-12 -179 -21 -296 -26 -350c-3 -25 -13 -49 -21 -57l-6 -7h228z" />
    <glyph glyph-name="afii10070" unicode="&#x435;" 
d="M426 146h48c-5 -91 -74 -156 -174 -156c-52 0 -94 15 -127 44c-32 30 -48 67 -48 111v210c0 44 16 81 48 110c33 30 75 45 127 45c51 0 93 -15 125 -45c33 -30 49 -67 49 -110v-119h-301v-83c0 -71 53 -120 126 -120s124 45 127 113zM173 346v-67h253v68
c0 71 -55 120 -127 120s-126 -50 -126 -121z" />
    <glyph glyph-name="afii10072" unicode="&#x436;" 
d="M75 0l150 263l-136 237h57l129 -234v234h49v-234l129 234h57l-136 -237l150 -263h-58l-142 255v-255h-49v255l-142 -255h-58z" />
    <glyph glyph-name="afii10073" unicode="&#x437;" 
d="M293 33c73 0 126 47 126 111c0 60 -41 94 -101 94h-59v44h56c57 0 96 41 96 89c0 53 -47 96 -110 96c-64 0 -112 -40 -117 -92h-47c2 37 18 68 48 95c31 27 70 40 117 40s85 -13 114 -40s43 -59 43 -97c0 -43 -27 -82 -48 -95l-16 -11s72 -32 72 -122
c0 -43 -17 -80 -50 -110s-74 -45 -123 -45c-100 0 -169 65 -174 156h47c3 -68 57 -113 126 -113z" />
    <glyph glyph-name="afii10074" unicode="&#x438;" 
d="M170 76l18 36l238 388h52v-500h-49v425l-18 -37l-238 -388h-52v500h49v-424z" />
    <glyph glyph-name="afii10075" unicode="&#x439;" 
d="M170 76l18 36l238 388h52v-500h-49v425l-18 -37l-238 -388h-52v500h49v-424zM372 671h51c0 -34 -12 -113 -123 -113s-123 79 -123 113h51c0 -49 24 -73 72 -73s72 24 72 73z" />
    <glyph glyph-name="afii10076" unicode="&#x43a;" 
d="M496 0h-63l-223 259v-259h-48v500h48v-227l206 227h64l-216 -233z" />
    <glyph glyph-name="afii10077" unicode="&#x43b;" 
d="M203 103c-5 -59 -34 -108 -99 -108l-19 1v38h15c41 1 53 31 58 87c9 92 17 218 26 379h292v-500h-49v457h-198c-10 -159 -19 -277 -26 -354z" />
    <glyph glyph-name="afii10078" unicode="&#x43c;" 
d="M176 500l124 -225l124 225h61v-500h-49v432l-20 -44l-87 -153h-58l-86 153l-21 44v-432h-49v500h61z" />
    <glyph glyph-name="afii10079" unicode="&#x43d;" 
d="M174 244v-244h-49v500h49v-213h253v213h49v-500h-49v244h-253z" />
    <glyph glyph-name="afii10080" unicode="&#x43e;" 
d="M474 355v-210c0 -43 -16 -80 -49 -110c-32 -30 -74 -45 -125 -45c-52 0 -94 15 -127 44c-32 30 -48 67 -48 111v210c0 44 16 81 48 110c33 30 75 45 127 45c51 0 93 -15 125 -45c33 -30 49 -67 49 -110zM426 151v198c0 33 -12 61 -37 84s-55 34 -90 34s-65 -11 -90 -34
c-24 -23 -36 -51 -36 -84v-198c0 -33 12 -61 36 -84c25 -23 55 -34 91 -34c35 0 65 11 89 34c25 23 37 51 37 84z" />
    <glyph glyph-name="afii10081" unicode="&#x43f;" 
d="M125 0v500h351v-500h-49v457h-253v-457h-49z" />
    <glyph glyph-name="afii10082" unicode="&#x440;" 
d="M432 159v182c0 80 -51 126 -120 126c-76 0 -133 -54 -133 -126v-182c0 -72 57 -126 133 -126c68 0 120 47 120 126zM192 39l-13 16v-235h-49v680h47l2 -55c3 5 8 11 14 18c7 7 21 17 44 29s48 18 75 18c50 0 91 -15 122 -46c31 -30 47 -68 47 -113v-202
c0 -45 -16 -83 -47 -114c-31 -30 -72 -45 -122 -45c-53 0 -103 28 -120 49z" />
    <glyph glyph-name="afii10083" unicode="&#x441;" 
d="M173 349v-198c0 -68 55 -118 127 -118c69 0 123 45 126 113h47c-3 -45 -20 -82 -52 -112c-31 -29 -72 -44 -121 -44c-53 0 -95 15 -127 46s-48 70 -48 117v194c0 47 16 85 48 116s74 47 127 47c48 0 88 -15 119 -44s48 -66 51 -109h-49c-3 64 -54 110 -121 110
c-72 0 -127 -50 -127 -118z" />
    <glyph glyph-name="afii10084" unicode="&#x442;" 
d="M98 457v43h402v-43h-176v-457h-50v457h-176z" />
    <glyph glyph-name="afii10085" unicode="&#x443;" 
d="M255 -76l32 83l-179 493h54l153 -423l154 423h53l-223 -594c-22 -58 -67 -87 -134 -87l-19 1v41h15c53 3 77 16 94 63z" />
    <glyph glyph-name="afii10086" unicode="&#x444;" 
d="M276 700h49v-198c55 -1 101 -18 138 -50c37 -31 55 -70 55 -117v-170c0 -47 -19 -87 -56 -119s-82 -48 -137 -48v-178h-49v178c-55 0 -101 16 -138 48s-55 72 -55 119v170c0 47 18 86 55 117c37 32 83 49 138 50v198zM470 171v158c0 73 -57 129 -145 130v-418
c43 0 78 12 105 37s40 56 40 93zM131 329v-158c0 -75 57 -130 145 -130v418c-88 -1 -145 -57 -145 -130z" />
    <glyph glyph-name="afii10087" unicode="&#x445;" 
d="M126 500h58l116 -203l116 203h58l-145 -244l151 -256h-57l-123 214l-123 -214h-58l151 256z" />
    <glyph glyph-name="afii10088" unicode="&#x446;" 
d="M476 -105v105h-351v500h49v-457h253v457h49v-457h48v-148h-48z" />
    <glyph glyph-name="afii10089" unicode="&#x447;" 
d="M114 290v210h49v-200c0 -73 34 -110 102 -110c45 0 102 23 130 42l21 15v253h49v-500h-49v198c-5 -4 -13 -9 -23 -15c-10 -5 -29 -13 -57 -22s-54 -14 -79 -14c-91 0 -143 54 -143 143z" />
    <glyph glyph-name="afii10090" unicode="&#x448;" 
d="M276 500h49v-457h124v457h49v-500h-395v500h49v-457h124v457z" />
    <glyph glyph-name="afii10091" unicode="&#x449;" 
d="M493 -105v105h-395v500h49v-457h124v457h49v-457h124v457h49v-457h48v-148h-48z" />
    <glyph glyph-name="afii10092" unicode="&#x44a;" 
d="M74 457v43h158v-213h110c47 0 85 -14 112 -42c28 -28 42 -61 42 -100s-14 -73 -42 -102c-27 -29 -65 -43 -112 -43h-159v457h-109zM447 145c0 52 -37 99 -102 99h-113v-201h113c65 0 102 49 102 102z" />
    <glyph glyph-name="afii10093" unicode="&#x44b;" 
d="M86 500h49v-213h110c47 0 85 -14 112 -42c28 -28 42 -61 42 -100s-14 -73 -42 -102c-27 -29 -65 -43 -112 -43h-159v500zM350 145c0 52 -37 99 -102 99h-113v-201h113c65 0 102 49 102 102zM464 500h49v-500h-49v500z" />
    <glyph glyph-name="afii10094" unicode="&#x44c;" 
d="M177 500h49v-213h110c47 0 85 -14 112 -42c28 -28 42 -61 42 -100s-14 -73 -42 -102c-27 -29 -65 -43 -112 -43h-159v500zM441 145c0 52 -37 99 -102 99h-113v-201h113c65 0 102 49 102 102z" />
    <glyph glyph-name="afii10095" unicode="&#x44d;" 
d="M422 237h-163v43h163v69c0 68 -55 118 -127 118c-67 0 -118 -46 -121 -110h-49c3 43 20 80 51 109s71 44 119 44c53 0 95 -16 127 -47s48 -69 48 -116v-194c0 -47 -16 -86 -48 -117s-74 -46 -127 -46c-49 0 -90 15 -122 44c-31 30 -48 67 -51 112h47
c3 -68 57 -113 126 -113c72 0 127 50 127 118v86z" />
    <glyph glyph-name="afii10096" unicode="&#x44e;" 
d="M528 349v-199c0 -45 -14 -83 -41 -114s-65 -46 -113 -46c-49 0 -87 15 -114 46s-40 69 -40 114v94h-76v-244h-49v500h49v-213h76v62c0 45 13 83 40 114s65 47 114 47c48 0 86 -16 113 -47s41 -69 41 -114zM482 156v187c0 71 -43 124 -108 124c-67 0 -108 -53 -108 -124
v-187c0 -71 41 -123 108 -123s108 52 108 123z" />
    <glyph glyph-name="afii10097" unicode="&#x44f;" 
d="M458 0h-49v203h-115l-124 -203h-57l130 209c-68 19 -108 77 -108 141c0 39 14 74 41 104c28 31 66 46 113 46h169v-500zM184 350c0 -52 37 -104 102 -104h123v211h-123c-32 0 -57 -11 -75 -34c-18 -22 -27 -46 -27 -73z" />
    <glyph glyph-name="afii10071" unicode="&#x451;" 
d="M426 146h48c-5 -91 -74 -156 -174 -156c-52 0 -94 15 -127 44c-32 30 -48 67 -48 111v210c0 44 16 81 48 110c33 30 75 45 127 45c51 0 93 -15 125 -45c33 -30 49 -67 49 -110v-119h-301v-83c0 -71 53 -120 126 -120s124 45 127 113zM173 346v-67h253v68
c0 71 -55 120 -127 120s-126 -50 -126 -121zM245 597h-58v70h58v-70zM412 597h-58v70h58v-70z" />
    <glyph glyph-name="afii10099" unicode="&#x452;" 
d="M475 342v-341c0 -97 -57 -145 -130 -145h-12v45h12c51 0 81 33 81 97v334c0 79 -48 126 -120 126c-36 0 -67 -11 -94 -33c-26 -22 -39 -48 -39 -78v-347h-49v575h-60v43h60v82h49v-82h128v-43h-128v-136c4 5 9 10 16 17s22 16 45 27s47 17 72 17c51 0 92 -15 123 -45
s46 -68 46 -113z" />
    <glyph glyph-name="afii10100" unicode="&#x453;" 
d="M446 43v-43h-367v43h147v457h284v-43h-234v-414h170zM484 675l-127 -122h-54l109 122h72z" />
    <glyph glyph-name="afii10101" unicode="&#x454;" 
d="M178 280h163v-43h-163v-86c0 -68 55 -118 127 -118c69 0 123 45 126 113h47c-3 -45 -20 -82 -52 -112c-31 -29 -72 -44 -121 -44c-53 0 -95 15 -127 46s-48 70 -48 117v194c0 47 16 85 48 116s74 47 127 47c48 0 88 -15 119 -44s48 -66 51 -109h-49
c-3 64 -54 110 -121 110c-72 0 -127 -50 -127 -118v-69z" />
    <glyph glyph-name="afii10102" unicode="&#x455;" 
d="M460 377h-51c-1 51 -49 90 -106 90c-25 0 -48 -8 -69 -24c-40 -31 -39 -83 -4 -114c36 -29 91 -45 142 -68c51 -21 91 -66 91 -133c0 -39 -15 -71 -46 -98s-69 -40 -114 -40c-51 0 -91 15 -121 44c-30 30 -45 65 -45 106h49c1 -60 50 -107 117 -107c64 0 110 40 110 95
c0 48 -40 79 -91 98c-74 29 -167 59 -167 154c0 39 15 70 44 94s65 36 108 36c45 0 81 -14 108 -42s42 -58 45 -91z" />
    <glyph glyph-name="afii10103" unicode="&#x456;" 
d="M119 457v43h210v-457h142v-43h-352v43h160v414h-160zM334 597h-66v70h66v-70z" />
    <glyph glyph-name="afii10104" unicode="&#x457;" 
d="M119 457v43h210v-457h142v-43h-352v43h160v414h-160zM245 597h-58v70h58v-70zM412 597h-58v70h58v-70z" />
    <glyph glyph-name="afii10105" unicode="&#x458;" 
d="M138 500h287v-540c0 -88 -58 -150 -151 -150c-45 0 -80 10 -107 29l25 37c21 -15 48 -23 82 -23c63 0 101 44 101 109v495h-237v43zM427 597h-64v70h64v-70z" />
    <glyph glyph-name="afii10106" unicode="&#x459;" 
d="M159 103c-5 -59 -34 -108 -99 -108l-19 1v41h15c41 1 54 29 58 84c9 100 18 226 27 379h213v-213h45c47 0 85 -14 112 -42c28 -28 42 -61 42 -100s-14 -73 -42 -102c-27 -29 -65 -43 -112 -43h-94v457h-120c-10 -157 -19 -275 -26 -354zM402 244h-48v-201h48
c65 0 102 49 102 102c0 52 -37 99 -102 99z" />
    <glyph glyph-name="afii10107" unicode="&#x45a;" 
d="M399 0h-94v244h-166v-244h-49v500h49v-213h166v213h49v-213h45c47 0 85 -14 112 -42c28 -28 42 -61 42 -100s-14 -73 -42 -102c-27 -29 -65 -43 -112 -43zM402 244h-48v-201h48c65 0 102 49 102 102c0 52 -37 99 -102 99z" />
    <glyph glyph-name="afii10108" unicode="&#x45b;" 
d="M129 575h-61v43h61v82h49v-82h128v-43h-128v-140c3 5 8 11 14 18c7 7 22 17 45 29c23 13 49 19 76 19c51 0 91 -15 121 -46c31 -31 46 -69 46 -114v-341h-49v331c0 80 -48 128 -120 128c-37 0 -68 -12 -94 -35s-39 -51 -39 -83v-341h-49v575z" />
    <glyph glyph-name="afii10109" unicode="&#x45c;" 
d="M496 0h-63l-223 259v-259h-48v500h48v-227l206 227h64l-216 -233zM447 675l-127 -122h-54l109 122h72z" />
    <glyph glyph-name="afii10110" unicode="&#x45e;" 
d="M255 -76l32 83l-179 493h54l153 -423l154 423h53l-223 -594c-22 -58 -67 -87 -134 -87l-19 1v41h15c53 3 77 16 94 63zM392 671h49c0 -29 -16 -113 -125 -113s-125 84 -125 113h49c0 -9 2 -19 10 -38c9 -19 33 -33 66 -33s57 14 65 33c9 19 11 29 11 38z" />
    <glyph glyph-name="afii10193" unicode="&#x45f;" 
d="M324 -105h-48v105h-151v500h49v-457h253v457h49v-500h-152v-105z" />
    <glyph glyph-name="afii10146" unicode="&#x462;" 
d="M373 700v-47h-146v-259h146c40 0 74 -14 103 -43s43 -63 43 -104v-101c0 -41 -14 -75 -43 -104c-29 -28 -63 -42 -103 -42h-198v653h-115v47h313zM467 147v103c0 53 -44 96 -97 96h-143v-296h143c53 0 97 44 97 97z" />
    <glyph glyph-name="afii10194" unicode="&#x463;" 
d="M183 522h-109v43h109v135h49v-135h115v-43h-115v-235h110c47 0 85 -14 112 -42c28 -28 42 -61 42 -100s-14 -73 -42 -102c-27 -29 -65 -43 -112 -43h-159v522zM447 145c0 52 -37 99 -102 99h-113v-201h113c65 0 102 49 102 102z" />
    <glyph glyph-name="afii10147" unicode="&#x472;" 
d="M484 535v-370c0 -49 -17 -91 -52 -125c-34 -33 -78 -50 -132 -50s-98 17 -133 51s-52 76 -52 125v369c0 49 17 91 52 124c35 34 79 51 133 51s98 -17 132 -51c35 -33 52 -75 52 -124zM359 318c-17 0 -38 7 -63 21s-43 21 -54 21c-23 0 -48 -13 -75 -40v-155
c0 -72 53 -127 133 -127c79 0 132 54 132 126v183c-25 -19 -49 -29 -73 -29zM167 534v-159c23 21 48 31 75 31c17 0 38 -7 63 -21s43 -21 54 -21c23 0 48 13 73 38v132c0 72 -53 126 -132 126c-80 0 -133 -54 -133 -126z" />
    <glyph glyph-name="afii10195" unicode="&#x473;" 
d="M474 355v-210c0 -43 -16 -80 -49 -110c-32 -30 -74 -45 -125 -45c-52 0 -94 15 -127 44c-32 30 -48 67 -48 111v210c0 44 16 81 48 110c33 30 75 45 127 45c51 0 93 -15 125 -45c33 -30 49 -67 49 -110zM173 349v-80c19 16 41 24 66 24c17 0 39 -7 64 -21
c25 -13 44 -20 55 -20c27 0 52 19 61 32l7 11v54c0 32 -12 60 -37 83s-55 35 -90 35s-65 -12 -90 -35c-24 -23 -36 -51 -36 -83zM359 207c-17 0 -39 7 -64 20c-25 14 -44 21 -55 21c-13 0 -25 -4 -36 -11c-23 -15 -27 -24 -31 -32v-54c0 -32 12 -60 37 -83s55 -35 90 -35
s64 12 89 35s37 51 37 83v80c-18 -16 -40 -24 -67 -24z" />
    <glyph glyph-name="afii10148" unicode="&#x474;" 
d="M461 558l-114 -558h-102l-143 700h54l128 -652h26l101 517c19 96 53 141 118 141l17 -1v-42c-8 0 -16 -1 -23 -2c-28 -5 -46 -27 -62 -103z" />
    <glyph glyph-name="afii10196" unicode="&#x475;" 
d="M427 394l-101 -394h-92l-129 500h51l114 -458h19l89 357c9 36 13 45 26 72c15 27 38 37 73 37l19 -1v-41h-15c-32 -1 -41 -19 -54 -72z" />
    <glyph glyph-name="afii10050" unicode="&#x490;" 
d="M78 0v48h129v652h268v102h46v-150h-262v-604h172v-48h-353z" />
    <glyph glyph-name="afii10098" unicode="&#x491;" 
d="M446 43v-43h-367v43h147v457h236v95h48v-138h-234v-414h170z" />
    <glyph glyph-name="afii10846" unicode="&#x4d9;" 
d="M429 151v70h-260v-70c0 -31 13 -59 38 -83c26 -23 57 -35 92 -35s66 12 91 35c26 24 39 52 39 83zM300 510c53 0 95 -15 128 -45s49 -67 49 -110v-210c0 -43 -17 -80 -50 -110s-76 -45 -129 -45c-51 0 -94 15 -127 45s-50 67 -50 110v102c0 9 8 17 17 17h291v85
c0 69 -56 118 -128 118c-75 0 -124 -41 -127 -109h-48c5 91 74 152 174 152z" />
    <glyph glyph-name="Wgrave" unicode="&#x1e80;" 
d="M418 48l34 377v275h52v-278l-42 -422h-96l-62 315h-9l-63 -315h-95l-42 422v278h52v-275l34 -377h14l69 332h72l68 -332h14zM239 875l109 -122h-54l-127 122h72z" />
    <glyph glyph-name="wgrave" unicode="&#x1e81;" 
d="M409 42l51 276v182h48v-187l-61 -313h-89l-55 271h-7l-54 -271h-89l-61 313v187h48v-182l53 -276h14l58 280h71l59 -280h14zM247 675l109 -122h-54l-127 122h72z" />
    <glyph glyph-name="Wacute" unicode="&#x1e82;" 
d="M418 48l34 377v275h52v-278l-42 -422h-96l-62 315h-9l-63 -315h-95l-42 422v278h52v-275l34 -377h14l69 332h72l68 -332h14zM438 875l-127 -122h-54l109 122h72z" />
    <glyph glyph-name="wacute" unicode="&#x1e83;" 
d="M409 42l51 276v182h48v-187l-61 -313h-89l-55 271h-7l-54 -271h-89l-61 313v187h48v-182l53 -276h14l58 280h71l59 -280h14zM431 675l-127 -122h-54l109 122h72z" />
    <glyph glyph-name="Wdieresis" unicode="&#x1e84;" 
d="M418 48l34 377v275h52v-278l-42 -422h-96l-62 315h-9l-63 -315h-95l-42 422v278h52v-275l34 -377h14l69 332h72l68 -332h14zM245 797h-58v70h58v-70zM412 797h-58v70h58v-70z" />
    <glyph glyph-name="wdieresis" unicode="&#x1e85;" 
d="M409 42l51 276v182h48v-187l-61 -313h-89l-55 271h-7l-54 -271h-89l-61 313v187h48v-182l53 -276h14l58 280h71l59 -280h14zM245 597h-58v70h58v-70zM412 597h-58v70h58v-70z" />
    <glyph glyph-name="Ygrave" unicode="&#x1ef2;" 
d="M96 700h58l147 -309l145 309h57l-177 -367v-333h-52v333zM253 875l109 -122h-54l-127 122h72z" />
    <glyph glyph-name="ygrave" unicode="&#x1ef3;" 
d="M91 500h55l152 -425l154 425h55l-257 -680h-50l71 187zM240 675l109 -122h-54l-127 122h72z" />
    <glyph glyph-name="endash" unicode="&#x2013;" 
d="M111 320h378v-48h-378v48z" />
    <glyph glyph-name="emdash" unicode="&#x2014;" horiz-adv-x="599" 
d="M0 320h599v-48h-599v48z" />
    <glyph glyph-name="quoteleft" unicode="&#x2018;" 
d="M316 700h35l-34 -191h-68z" />
    <glyph glyph-name="quoteright" unicode="&#x2019;" 
d="M283 509h-34l34 191h68z" />
    <glyph glyph-name="quotesinglbase" unicode="&#x201a;" 
d="M283 -120h-34l34 190h68z" />
    <glyph glyph-name="quotedblleft" unicode="&#x201c;" 
d="M384 700h35l-34 -191h-68zM247 700h35l-34 -191h-68z" />
    <glyph glyph-name="quotedblright" unicode="&#x201d;" 
d="M214 509h-34l34 191h68zM351 509h-34l34 191h68z" />
    <glyph glyph-name="quotedblbase" unicode="&#x201e;" 
d="M214 -120h-34l34 190h68zM351 -120h-34l34 190h68z" />
    <glyph glyph-name="dagger" unicode="&#x2020;" 
d="M325 500h120v-49h-120v-641h-53v641h-117v49h117v200h53v-200z" />
    <glyph glyph-name="daggerdbl" unicode="&#x2021;" 
d="M325 49h120v-49h-120v-190h-53v190h-117v49h117v402h-117v49h117v200h53v-200h120v-49h-120v-402z" />
    <glyph glyph-name="bullet" unicode="&#x2022;" 
d="M198 264c-28 29 -42 63 -42 102s14 73 42 101c29 29 63 43 102 43s73 -14 101 -43c29 -28 43 -62 43 -101s-14 -73 -43 -102c-28 -28 -62 -42 -101 -42s-73 14 -102 42z" />
    <glyph glyph-name="ellipsis" unicode="&#x2026;" 
d="M135 0h-70v70h70v-70zM335 0h-70v70h70v-70zM535 0h-70v70h70v-70z" />
    <glyph glyph-name="perthousand" unicode="&#x2030;" 
d="M286 610v-101c0 -57 -48 -103 -108 -103c-59 0 -106 46 -106 103v101c0 57 47 99 106 99c61 0 108 -42 108 -99zM241 512v90c0 36 -27 64 -63 64s-62 -28 -62 -64v-89c0 -36 27 -64 64 -64c33 0 61 28 61 63zM531 194v-101c0 -57 -48 -103 -108 -103
c-59 0 -106 46 -106 103v101c0 57 47 99 106 99c61 0 108 -42 108 -99zM486 96v90c0 36 -27 64 -63 64s-62 -28 -62 -64v-89c0 -36 27 -64 64 -64c33 0 61 28 61 63zM286 194v-101c0 -57 -48 -103 -108 -103c-59 0 -106 46 -106 103v101c0 57 47 99 106 99
c61 0 108 -42 108 -99zM241 96v90c0 36 -27 64 -63 64s-62 -28 -62 -64v-89c0 -36 27 -64 64 -64c33 0 61 28 61 63zM49 288v47l501 170v-47z" />
    <glyph glyph-name="guilsinglleft" unicode="&#x2039;" 
d="M266 292l119 -152h-54l-117 152l117 152h54z" />
    <glyph glyph-name="guilsinglright" unicode="&#x203a;" 
d="M385 292l-118 -152h-53l118 152l-118 152h53z" />
    <glyph glyph-name="fraction" unicode="&#x2044;" 
d="M145 0h-41l351 700h41z" />
    <glyph glyph-name="Euro" unicode="&#x20ac;" 
d="M197 433h222v-48h-222v-75h190v-48h-190v-95c0 -36 12 -67 36 -92c25 -25 55 -37 91 -37s66 12 91 37s37 55 37 91v5h51v-4c0 -49 -17 -91 -52 -126c-34 -34 -75 -51 -124 -51h-6c-49 0 -90 17 -125 52s-52 77 -52 126v94h-59v48h59v75h-59v48h59v100c0 49 17 90 52 125
s76 52 125 52h6c49 0 90 -17 124 -52c35 -34 52 -76 52 -125h-51c-1 35 -13 65 -38 90s-55 37 -90 37c-72 0 -127 -56 -127 -128v-99z" />
    <glyph glyph-name="trademark" unicode="&#x2122;" 
d="M242 669h-77v-302h-36v302h-77v31h190v-31zM514 367h-36v283l-62 -134h-33l-62 134v-283h-36v333h48l67 -150l66 150h48v-333z" />
    <glyph glyph-name="uni2206" unicode="&#x2206;" 
d="M248 700h102l143 -700h-388zM314 652h-30l-118 -604h266z" />
    <glyph glyph-name="product" unicode="&#x220f;" 
d="M121 700h358v-789h-52v741h-254v-741h-52v789z" />
    <glyph glyph-name="summation" unicode="&#x2211;" 
d="M336 332v-25l-151 -348h304v-48h-359v50l155 359l-155 337v43h349v-48h-288z" />
    <glyph glyph-name="minus" unicode="&#x2212;" 
d="M93 258v50h414v-50h-414z" />
    <glyph glyph-name="uni2215" unicode="&#x2215;" 
d="M145 0h-41l351 700h41z" />
    <glyph glyph-name="radical" unicode="&#x221a;" 
d="M308 -92h-88l-95 389c-11 44 -30 52 -67 52v45c69 0 103 -23 116 -82l84 -365h13l262 864h52z" />
    <glyph glyph-name="infinity" unicode="&#x221e;" 
d="M418 186c-35 0 -74 23 -117 69c-39 -46 -78 -69 -117 -69c-29 0 -55 10 -77 31c-21 21 -32 45 -32 73c0 59 48 106 109 106c38 0 77 -23 116 -70c42 47 81 70 118 70c29 0 54 -10 75 -31c21 -20 32 -44 32 -72c0 -59 -47 -107 -107 -107zM417 353c-25 0 -55 -21 -91 -62
c35 -41 66 -62 92 -62c35 0 65 29 65 62s-31 62 -66 62zM185 231c26 0 55 21 88 62c-36 41 -66 62 -89 62c-36 0 -65 -31 -65 -64c0 -35 29 -60 66 -60z" />
    <glyph glyph-name="integral" unicode="&#x222b;" 
d="M144 -180v45h46c49 0 84 36 84 87v617c0 37 13 68 39 93s58 38 97 38h45v-46h-46c-49 0 -84 -36 -84 -87v-617c0 -37 -13 -68 -39 -93s-58 -37 -97 -37h-45z" />
    <glyph glyph-name="approxequal" unicode="&#x2248;" 
d="M203 409c25 0 60 -10 103 -30c44 -19 74 -29 91 -29c41 0 66 23 66 51h45c0 -53 -46 -98 -111 -98c-25 0 -60 10 -104 29c-43 20 -73 30 -90 30c-41 0 -66 -23 -66 -51h-45c0 53 46 98 111 98zM203 280c25 0 60 -10 103 -30c44 -19 74 -29 91 -29c41 0 66 23 66 51h45
c0 -53 -46 -98 -111 -98c-25 0 -60 10 -104 29c-43 20 -73 30 -90 30c-41 0 -66 -23 -66 -51h-45c0 53 46 98 111 98z" />
    <glyph glyph-name="notequal" unicode="&#x2260;" 
d="M355 389h151v-50h-170l-42 -110h212v-50h-231l-53 -140h-39l53 140h-143v50h162l42 110h-204v50h223l59 154h39z" />
    <glyph glyph-name="lessequal" unicode="&#x2264;" 
d="M507 130l-414 161v61l414 162v-54l-366 -138l366 -136v-56zM93 95h414v-50h-414v50z" />
    <glyph glyph-name="greaterequal" unicode="&#x2265;" 
d="M507 45h-414v50h414v-50zM93 514l414 -162v-61l-414 -161v56l366 136l-366 138v54z" />
    <glyph glyph-name="lozenge" unicode="&#x25ca;" 
d="M331 700l157 -350l-155 -350h-62l-158 350l156 350h62zM307 652h-13l-127 -302l127 -302h13l127 302z" />
    <glyph glyph-name="zero.slash" unicode="&#xf638;" 
d="M471 533v-366c0 -49 -17 -91 -50 -126c-33 -34 -73 -51 -121 -51s-89 17 -122 52s-50 77 -50 126v365c0 49 17 91 50 125c33 35 74 52 122 52s88 -17 121 -52c33 -34 50 -76 50 -125zM421 166v366c0 11 -1 20 -4 29l-213 -475c23 -32 55 -48 96 -48c33 0 62 12 85 37
c24 25 36 55 36 91zM178 532v-365c0 -8 1 -17 4 -28l211 475c-24 32 -55 48 -93 48c-35 0 -64 -13 -87 -38s-35 -56 -35 -92z" />
    <glyph glyph-name="commaaccent" unicode="&#xf6c3;" 
d="M362 -50l-83 -123h-41l53 123h71z" />
    <glyph glyph-name="cyrbreve" unicode="&#xf6d4;" 
d="M372 671h51c0 -34 -12 -113 -123 -113s-123 79 -123 113h51c0 -49 24 -73 72 -73s72 24 72 73z" />
  </font>
</defs>
</svg>
