<?xml version="1.0" standalone="no"?>
<!DOCTYPE svg PUBLIC "-//W3C//DTD SVG 1.1//EN" "http://www.w3.org/Graphics/SVG/1.1/DTD/svg11.dtd" >
<svg xmlns="http://www.w3.org/2000/svg" xmlns:xlink="http://www.w3.org/1999/xlink" version="1.1">
<metadata>
Created by FontForge 20170925 at Thu Apr 17 03:42:31 2014
 By Jimmy Wärting
Copyright \(c\) 2008 by Ramiz Guseynov. All rights reserved.
</metadata>
<defs>
<font id="DecimaMonoX-Italic" horiz-adv-x="600" >
  <font-face 
    font-family="Decima Mono X"
    font-weight="400"
    font-style="italic"
    font-stretch="normal"
    units-per-em="1000"
    panose-1="2 0 5 9 0 0 0 2 0 4"
    ascent="789"
    descent="-211"
    x-height="500"
    cap-height="700"
    bbox="-32 -209 731 905"
    underline-thickness="50"
    underline-position="-100"
    unicode-range="U+0020-FB02"
  />
<missing-glyph 
 />
    <glyph glyph-name="fi" unicode="fi" 
d="M246 428l-87 -608h-78l87 608h-78l10 72h78l10 71c12 80 72 138 153 138c34 0 65 -10 92 -31l-55 -60c-13 11 -27 17 -44 17c-36 0 -63 -27 -68 -64l-10 -71h262l-60 -427h72l-10 -73h-220l10 73h69l50 355h-183zM535 592h-92l13 90h92z" />
    <glyph glyph-name="fl" unicode="fl" 
d="M245 428l-87 -608h-78l87 608h-78l10 72h78l9 62c12 83 64 138 159 138h201l-88 -628h73l-10 -72h-221l10 72h69l79 555h-122c-39 0 -67 -27 -72 -62l-9 -65h121l-10 -72h-121z" />
    <glyph glyph-name=".notdef" 
 />
    <glyph glyph-name="NULL" horiz-adv-x="0" 
 />
    <glyph glyph-name="CR" horiz-adv-x="333" 
 />
    <glyph glyph-name="space" unicode=" " 
 />
    <glyph glyph-name="exclam" unicode="!" 
d="M324 0h-98l14 98h98zM332 700h81l-75 -535h-81z" />
    <glyph glyph-name="quotedbl" unicode="&#x22;" 
d="M274 464h-53l33 236h79zM407 464h-53l33 236h79z" />
    <glyph glyph-name="numbersign" unicode="#" 
d="M432 267h81l-10 -75h-92l-54 -192h-77l53 192h-106l-54 -192h-76l54 192h-83l10 75h94l45 158h-84l10 75h95l56 200h76l-57 -200h107l57 200h78l-57 -200h80l-10 -75h-90zM293 425l-46 -158h107l45 158h-106z" />
    <glyph glyph-name="dollar" unicode="$" 
d="M305 -71h-80l10 72c-84 16 -132 77 -132 154l5 49h84c-3 -20 -5 -32 -5 -37c0 -55 35 -92 99 -92c37 0 68 11 92 34s36 50 36 81c0 149 -257 131 -257 315c0 49 17 92 50 128c34 37 76 59 126 67l10 70h80l-10 -72c80 -17 124 -83 124 -152l-2 -25h-82c1 3 1 8 1 15
c0 43 -35 87 -91 87c-32 0 -60 -11 -85 -32c-24 -21 -36 -47 -36 -76c0 -44 41 -79 92 -107c75 -36 171 -91 170 -206c0 -45 -17 -89 -50 -130s-80 -66 -139 -73z" />
    <glyph glyph-name="percent" unicode="%" 
d="M133 521l12 84c8 60 60 105 131 105c57 0 101 -39 101 -90c0 -3 -1 -11 -2 -23l-12 -83c-9 -60 -60 -104 -129 -104c-59 0 -103 39 -103 88c0 7 1 15 2 23zM208 605l-11 -77c-1 -9 -2 -17 -2 -23c0 -23 19 -41 46 -41c32 0 55 21 59 50l11 76c1 9 2 17 2 22
c0 24 -20 43 -45 43c-32 0 -56 -21 -60 -50zM273 101l12 84c8 60 60 105 131 105c57 0 101 -39 101 -90c0 -3 -1 -11 -2 -23l-12 -83c-9 -60 -60 -104 -129 -104c-59 0 -103 39 -103 88c0 7 1 15 2 23zM348 185l-11 -77c-1 -9 -2 -17 -2 -23c0 -23 19 -41 46 -41
c32 0 55 21 59 50l11 76c1 9 2 17 2 22c0 24 -20 43 -45 43c-32 0 -56 -21 -60 -50zM55 223l8 57l527 193l-7 -55z" />
    <glyph glyph-name="ampersand" unicode="&#x26;" 
d="M393 174l19 134h150l-8 -79h-69l-7 -55c-7 -53 -29 -97 -67 -132c-37 -35 -84 -52 -141 -52c-99 0 -163 66 -163 157c0 13 0 22 1 28l16 118c12 80 64 136 136 156l-63 172l9 79h320l-11 -79h-229l64 -170l-6 -67c-16 -1 -28 -1 -37 -2c-48 -4 -90 -42 -97 -86l-17 -122
c-1 -4 -1 -10 -1 -18c0 -51 33 -87 85 -87c65 0 107 42 116 105z" />
    <glyph glyph-name="quotesingle" unicode="'" 
d="M340 464h-53l33 236h79z" />
    <glyph glyph-name="parenleft" unicode="(" 
d="M364 -111l-11 -79c-49 0 -91 15 -124 45s-49 67 -49 110c0 9 1 19 2 30l74 532c7 53 31 97 72 132s91 52 151 52l-11 -81c-69 0 -120 -43 -129 -104l-74 -523c-1 -11 -2 -21 -2 -30c0 -47 41 -84 101 -84z" />
    <glyph glyph-name="parenright" unicode=")" 
d="M269 632l11 79c49 0 90 -15 123 -45s50 -67 50 -110c0 -9 -1 -19 -2 -30l-74 -532c-7 -53 -31 -97 -72 -132s-91 -52 -151 -52l11 81c69 0 120 43 129 104l74 523c1 11 2 21 2 30c0 47 -41 84 -101 84z" />
    <glyph glyph-name="asterisk" unicode="*" 
d="M310 625l10 74h68l-11 -75l77 26l11 -67l-78 -24l38 -57l-60 -39l-36 58l-47 -58l-53 39l52 59l-71 21l29 64z" />
    <glyph glyph-name="plus" unicode="+" 
d="M286 333l23 175h81l-25 -175h178l-9 -77h-180l-24 -177h-81l26 177h-178l9 77h180z" />
    <glyph glyph-name="comma" unicode="," 
d="M285 0h-32l14 98h98l-13 -91l-59 -124h-58z" />
    <glyph glyph-name="hyphen" unicode="-" 
d="M204 332h244l-11 -78h-244z" />
    <glyph glyph-name="period" unicode="." 
d="M345 0h-98l14 98h98z" />
    <glyph glyph-name="slash" unicode="/" 
d="M129 -180h-83l458 880h84z" />
    <glyph glyph-name="zero" unicode="0" 
d="M531 526l-50 -352c-7 -53 -30 -97 -67 -132s-82 -52 -137 -52c-47 0 -86 15 -116 44c-30 30 -45 67 -45 112c0 6 1 16 2 29l49 351c7 53 29 96 65 131c37 35 82 53 137 53c47 0 86 -15 117 -45s47 -67 47 -112c0 -6 -1 -15 -2 -27zM398 173l50 352c1 7 1 14 1 22
c0 47 -37 84 -86 84c-59 0 -106 -46 -114 -106l-50 -351c0 -1 -1 -12 -1 -23c0 -45 36 -82 87 -82c59 0 105 44 113 104z" />
    <glyph glyph-name="one" unicode="1" 
d="M476 0h-383l11 77h149l76 544l-139 -21l11 79l134 21h89l-87 -623h150z" />
    <glyph glyph-name="two" unicode="2" 
d="M246 510h-82c7 59 30 107 69 144s88 56 147 56c48 0 87 -15 118 -46c31 -30 46 -69 46 -118c0 -35 -9 -68 -26 -99c-33 -63 -86 -101 -147 -149l-87 -65c-53 -40 -98 -97 -106 -154h300l-11 -79h-384l10 73c5 37 18 73 38 106c41 68 97 108 157 155
c87 68 170 124 170 212c0 48 -39 85 -90 85c-64 0 -111 -52 -122 -121z" />
    <glyph glyph-name="three" unicode="3" 
d="M429 621h-219l11 79h326l-11 -74l-143 -157c67 -8 118 -62 118 -134c0 -7 -1 -15 -2 -26l-18 -134c-7 -53 -31 -98 -70 -133s-87 -52 -144 -52c-50 0 -91 15 -122 44c-31 30 -46 68 -46 113c0 6 1 15 2 27l3 20h82c-3 -18 -4 -30 -4 -37c0 -52 36 -89 93 -89
c30 0 57 11 80 32c24 21 38 48 42 79l16 121c2 16 3 25 3 27c0 40 -25 66 -69 66h-75l11 75z" />
    <glyph glyph-name="four" unicode="4" 
d="M354 148h-259l11 78l290 474h90l-284 -471h163l25 180h84l-25 -180h58l-11 -81h-58l-21 -148h-84z" />
    <glyph glyph-name="five" unicode="5" 
d="M330 393c-43 0 -78 -23 -90 -40l-8 -13l-74 23l77 337h305l-12 -79h-224l-42 -173c23 16 52 24 89 24c93 0 156 -60 156 -153c0 -14 -1 -26 -2 -37l-15 -111c-7 -52 -31 -95 -70 -130c-39 -34 -88 -51 -145 -51c-49 0 -89 15 -120 45c-30 31 -45 69 -45 115l5 44h82
c-3 -12 -4 -24 -4 -36c0 -53 38 -90 93 -90c59 0 111 42 120 106l13 94c3 21 4 34 4 39c0 52 -36 86 -93 86z" />
    <glyph glyph-name="six" unicode="6" 
d="M368 710c49 0 88 -15 118 -45c31 -30 46 -68 46 -114l-2 -27h-84c1 5 1 11 1 18c0 49 -32 88 -89 88c-63 0 -108 -45 -116 -106l-14 -96l15 12c7 5 22 12 43 20c22 8 44 12 67 12c45 0 81 -14 110 -43c29 -28 44 -65 44 -110l-3 -43l-14 -101c-7 -53 -30 -97 -69 -132
c-38 -35 -86 -53 -143 -53c-51 0 -92 15 -123 44c-31 30 -47 68 -47 114c0 14 2 26 2 31v2l49 344c8 53 31 97 69 132s85 53 140 53zM330 393c-61 0 -113 -42 -122 -105l-16 -115c-1 -7 -1 -11 -1 -14c0 -52 41 -91 94 -91c64 0 112 46 120 106l16 114c1 9 1 15 1 20
c0 51 -39 85 -92 85z" />
    <glyph glyph-name="seven" unicode="7" 
d="M295 0h-86c7 54 24 115 49 183c26 68 52 128 79 179c27 52 52 103 75 153c24 50 38 85 42 106h-266l11 79h350l-10 -73c-3 -25 -17 -63 -41 -116c-23 -52 -49 -104 -76 -157s-53 -112 -79 -179c-25 -67 -41 -125 -48 -175z" />
    <glyph glyph-name="eight" unicode="8" 
d="M532 563c0 -23 -2 -46 -6 -70c-9 -55 -41 -104 -82 -129c35 -29 53 -68 53 -116c0 -11 -1 -23 -2 -35l-6 -39c-17 -108 -91 -184 -211 -184c-50 0 -91 15 -122 45s-47 68 -47 113c0 23 2 46 6 69c10 61 41 110 94 147c-31 26 -47 63 -47 110c0 15 2 36 6 62
c7 49 30 91 68 124c39 33 85 50 138 50c47 0 85 -14 114 -43s44 -63 44 -104zM405 173l6 43l1 15v1c0 51 -39 90 -92 90c-29 0 -56 -10 -80 -31c-23 -21 -37 -46 -41 -75l-6 -42c-1 -7 -1 -11 -1 -14c0 -52 40 -91 95 -91c63 0 110 44 118 104zM442 497l5 34c1 6 1 11 1 14
c0 49 -35 86 -86 86c-57 0 -102 -43 -110 -100l-5 -33c-1 -7 -1 -11 -1 -14c0 -47 32 -83 84 -83c60 0 104 40 112 96z" />
    <glyph glyph-name="nine" unicode="9" 
d="M282 -10c-49 0 -88 15 -119 45c-30 30 -45 68 -45 114l2 27h84c-1 -5 -1 -11 -1 -18c0 -49 32 -88 89 -88c63 0 108 45 116 106l14 96c-3 -3 -9 -8 -16 -13c-13 -9 -64 -31 -109 -31s-82 14 -111 42c-29 29 -43 66 -43 111l3 43l14 101c7 53 30 97 68 132
c39 35 87 53 144 53c51 0 92 -15 123 -45c31 -29 47 -67 47 -113c0 -14 -2 -26 -2 -31v-2l-49 -344c-8 -53 -31 -97 -69 -132s-85 -53 -140 -53zM320 307c61 0 113 42 122 105l16 115c1 7 1 11 1 14c0 52 -41 91 -94 91c-64 0 -112 -46 -120 -106l-16 -114
c-1 -9 -1 -15 -1 -20c0 -51 39 -85 92 -85z" />
    <glyph glyph-name="colon" unicode=":" 
d="M314 0h-98l14 98h98zM370 402h-98l14 98h98z" />
    <glyph glyph-name="semicolon" unicode=";" 
d="M380 402h-98l13 98h98zM257 0h-32l14 98h98l-13 -91l-59 -124h-58z" />
    <glyph glyph-name="less" unicode="&#x3c;" 
d="M480 67l-387 188l10 73l440 187l-12 -86l-333 -138l295 -137z" />
    <glyph glyph-name="equal" unicode="=" 
d="M91 245h443l-11 -78h-443zM116 417h443l-11 -78h-443z" />
    <glyph glyph-name="greater" unicode="&#x3e;" 
d="M144 515l388 -187l-10 -73l-441 -188l13 87l333 137l-295 138z" />
    <glyph glyph-name="question" unicode="?" 
d="M218 520h-81c7 57 30 103 70 137c40 35 87 52 142 52c49 0 89 -15 121 -45s48 -69 48 -116c0 -32 -5 -60 -15 -85c-19 -48 -48 -71 -84 -103l-50 -46c-32 -29 -60 -82 -68 -149h-83c9 91 46 159 85 195c59 55 125 91 125 181c0 52 -37 87 -90 87
c-63 0 -111 -41 -120 -108zM287 0h-101l14 99h101z" />
    <glyph glyph-name="at" unicode="@" 
d="M325 356l-28 -201c-1 -8 -2 -17 -2 -26c0 -36 26 -66 66 -66c49 0 88 36 95 80l26 180c0 1 1 7 2 19c2 12 3 20 3 24c0 39 -32 68 -73 68s-82 -35 -89 -78zM414 506c36 0 67 -16 78 -28l9 -10c2 14 3 27 3 40c0 72 -44 128 -127 128c-48 0 -90 -17 -126 -51
c-36 -33 -57 -73 -64 -119l-56 -396c-1 -11 -2 -20 -2 -28c0 -79 49 -140 124 -140h18l-11 -75h-15c-57 0 -102 20 -137 59c-34 39 -51 87 -51 145c0 13 1 26 3 39l54 396c9 72 39 131 89 176c51 45 111 68 181 68c58 0 105 -18 140 -54c36 -36 54 -83 54 -140
c0 -17 -1 -32 -3 -45l-66 -471h-70l3 27c-29 -23 -60 -35 -95 -35c-72 0 -127 50 -127 123c0 9 1 22 3 40l28 203c5 42 23 77 54 105c31 29 67 43 109 43z" />
    <glyph glyph-name="A" unicode="A" 
d="M124 299l177 401h143l65 -403l-42 -297h-85l31 223h-216l-31 -223h-84zM212 301h210l-51 320h-19z" />
    <glyph glyph-name="B" unicode="B" 
d="M374 621h-101l-30 -215h101c45 0 86 35 93 79l8 58l1 2v13c0 37 -29 63 -72 63zM328 330h-96l-35 -251h96c56 0 96 40 104 89l9 63v4c0 5 1 14 1 18c0 37 -26 77 -79 77zM102 0l98 700h178c93 0 149 -53 149 -130c0 -13 0 -21 -1 -26l-7 -55c-5 -47 -37 -92 -74 -119
c32 -30 48 -65 48 -104c0 -5 -1 -16 -1 -23l-1 -5l-9 -70c-13 -100 -88 -168 -192 -168h-188z" />
    <glyph glyph-name="C" unicode="C" 
d="M418 194h83c0 -55 -20 -102 -60 -143c-39 -41 -89 -61 -149 -61c-52 0 -95 15 -128 45c-33 31 -49 69 -49 114c0 9 1 19 2 31l48 346c7 53 31 96 70 131c40 35 89 53 146 53c55 0 97 -16 126 -49c30 -33 45 -69 45 -108l-2 -28h-83c1 8 1 13 1 16c0 49 -39 90 -94 90
c-61 0 -115 -45 -123 -104l-48 -338c-1 -9 -2 -20 -2 -31c0 -52 39 -89 95 -89c72 0 121 54 122 125z" />
    <glyph glyph-name="D" unicode="D" 
d="M283 0h-194l98 700h184c48 0 87 -15 118 -46c31 -30 47 -68 47 -113c0 -5 -1 -13 -2 -25l-46 -332c-7 -53 -30 -97 -68 -132c-37 -35 -83 -52 -137 -52zM403 183l47 334c1 7 1 12 1 15c0 52 -39 89 -94 89h-98l-76 -542h98c60 0 113 45 122 104z" />
    <glyph glyph-name="E" unicode="E" 
d="M110 0l98 700h342l-11 -79h-258l-30 -213h234l-11 -78h-234l-35 -251h266l-11 -79h-350z" />
    <glyph glyph-name="F" unicode="F" 
d="M114 0l98 700h342l-11 -79h-258l-30 -213h234l-11 -78h-234l-46 -330h-84z" />
    <glyph glyph-name="G" unicode="G" 
d="M379 631c-71 0 -123 -44 -131 -104l-48 -338c-1 -9 -2 -20 -2 -31c0 -52 39 -89 102 -89c68 0 115 45 123 104l16 109h-101l11 78h186l-26 -186c-7 -51 -30 -95 -68 -131c-37 -35 -86 -53 -146 -53c-55 0 -100 15 -133 46s-50 70 -50 115c0 9 1 21 3 37l47 338
c7 51 30 95 71 130c41 36 93 54 157 54c49 0 90 -16 122 -47s48 -69 48 -115l-2 -23h-84c1 3 1 8 1 14c0 52 -40 92 -96 92z" />
    <glyph glyph-name="H" unicode="H" 
d="M439 408l41 292h85l-98 -700h-85l46 330h-216l-46 -330h-84l98 700h84l-41 -292h216z" />
    <glyph glyph-name="I" unicode="I" 
d="M320 622h-151l11 78h386l-11 -78h-151l-76 -544h151l-11 -78h-386l11 78h151z" />
    <glyph glyph-name="J" unicode="J" 
d="M103 227h82c-5 -33 -8 -57 -8 -73c0 -48 38 -86 94 -86c64 0 115 46 123 105l63 449h-258l10 78h344l-74 -526c-7 -53 -30 -97 -69 -132s-86 -52 -142 -52c-53 0 -95 15 -127 44c-31 29 -47 67 -47 112c0 13 3 40 9 81z" />
    <glyph glyph-name="K" unicode="K" 
d="M189 700h83l-46 -324l270 324h97l-275 -330l187 -370h-94l-186 367l-51 -367h-83z" />
    <glyph glyph-name="L" unicode="L" 
d="M130 0l98 700h85l-87 -621h270l-11 -79h-355z" />
    <glyph glyph-name="M" unicode="M" 
d="M479 582l-27 -71l-92 -180h-75l-43 179l-7 72l-6 -1l-9 -117l-66 -464h-83l98 700h109l53 -284h4l133 284h109l-98 -700h-84l65 464l25 117z" />
    <glyph glyph-name="N" unicode="N" 
d="M417 244l64 456h84l-98 -700h-94l-122 488l-11 79h-6l-5 -114l-63 -453h-84l98 700h94l122 -491l12 -76h6z" />
    <glyph glyph-name="O" unicode="O" 
d="M547 525l-49 -351c-7 -50 -30 -93 -69 -130c-39 -36 -89 -54 -151 -54c-55 0 -99 15 -131 46c-31 31 -47 69 -47 113c0 11 1 22 3 32l48 345c7 50 30 93 69 129c39 37 90 55 153 55c55 0 98 -16 129 -47s47 -68 47 -112c0 -7 -1 -15 -2 -26zM413 173l50 354
c0 1 1 12 1 16c0 49 -36 88 -99 88c-72 0 -121 -48 -129 -104l-50 -353v-6c-1 -5 -1 -9 -1 -12c0 -48 37 -87 101 -87c69 0 119 48 127 104z" />
    <glyph glyph-name="P" unicode="P" 
d="M354 243h-110l-34 -243h-84l98 700h191c81 0 139 -56 139 -133c0 -11 -1 -22 -1 -23l-20 -144c-6 -45 -26 -82 -59 -112s-73 -45 -120 -45zM448 397l20 142v3c0 4 1 11 1 16c0 37 -29 63 -69 63h-103l-42 -299h103c48 0 83 32 90 75z" />
    <glyph glyph-name="Q" unicode="Q" 
d="M459 79l38 -49l-64 -54l-37 45c-34 -21 -75 -31 -122 -31c-54 0 -97 16 -128 47s-46 68 -46 111c0 7 1 16 2 27l48 351c7 50 30 93 69 129c39 37 91 55 154 55c55 0 98 -16 129 -47s47 -68 47 -112c0 -6 -1 -14 -2 -25l-49 -352c-5 -36 -18 -68 -39 -95zM412 173l50 351
c1 3 1 11 1 23c0 48 -36 84 -99 84c-71 0 -120 -48 -128 -104l-50 -353l-1 -20c33 35 71 53 113 53c43 0 78 -21 106 -62c4 7 7 17 8 28zM212 93c20 -17 44 -26 73 -26c20 0 41 5 62 16c-23 33 -44 49 -65 49c-24 0 -47 -13 -70 -39z" />
    <glyph glyph-name="R" unicode="R" 
d="M407 269l77 -269h-91l-71 255h-93l-36 -255h-84l98 700h191c40 0 73 -13 100 -38s40 -57 40 -94c0 -7 -1 -15 -2 -24l-18 -133c-9 -67 -50 -122 -111 -142zM432 408l19 131c0 1 2 17 2 20c0 36 -29 62 -69 62h-104l-40 -288h104c43 0 81 34 88 75z" />
    <glyph glyph-name="S" unicode="S" 
d="M280 -10c-113 0 -181 68 -181 161l5 50h85c-3 -21 -5 -33 -5 -38c0 -55 36 -94 101 -94c76 0 126 54 126 118c0 56 -39 98 -90 126c-72 41 -163 86 -163 195c0 57 20 104 61 143s92 59 151 59c55 0 98 -16 127 -49c29 -32 44 -69 44 -111l-2 -26h-83c1 4 1 9 1 16
c0 44 -36 89 -93 89c-32 0 -60 -11 -84 -33c-23 -21 -35 -47 -35 -78c0 -45 41 -80 90 -108c73 -38 167 -93 166 -211c0 -32 -7 -63 -22 -94c-29 -61 -103 -115 -199 -115z" />
    <glyph glyph-name="T" unicode="T" 
d="M321 621h-150l11 79h384l-11 -79h-151l-87 -621h-83z" />
    <glyph glyph-name="U" unicode="U" 
d="M486 700h84l-74 -526c-7 -53 -30 -97 -67 -132s-86 -52 -149 -52c-55 0 -98 15 -131 45s-49 67 -49 110c0 8 1 18 2 30l74 525h84l-74 -526v-8c-1 -5 -1 -11 -1 -16c0 -43 36 -81 100 -81c77 0 120 43 129 110z" />
    <glyph glyph-name="V" unicode="V" 
d="M181 700h83l-40 -289l53 -332h19l145 332l39 289h85l-41 -297l-177 -403h-140l-67 406z" />
    <glyph glyph-name="W" unicode="W" 
d="M388 78l71 328l41 294h84l-42 -298l-96 -402h-136l6 273h-8l-70 -273h-136l17 402l42 298h84l-41 -291l-23 -331h10l75 265h112v-265h10z" />
    <glyph glyph-name="X" unicode="X" 
d="M163 700h92l83 -257l150 257h94l-210 -342l124 -358h-91l-92 275l-170 -275h-92l228 364z" />
    <glyph glyph-name="Y" unicode="Y" 
d="M144 700h92l96 -275l169 275h94l-235 -369l-46 -331h-85l47 331z" />
    <glyph glyph-name="Z" unicode="Z" 
d="M566 700l-12 -84l-363 -537h287l-11 -79h-386l12 84l362 537h-272l11 79h372z" />
    <glyph glyph-name="bracketleft" unicode="[" 
d="M251 -100h114l-11 -79h-197l124 879h197l-12 -81h-114z" />
    <glyph glyph-name="backslash" unicode="\" 
d="M167 700h81l218 -880h-82z" />
    <glyph glyph-name="bracketright" unicode="]" 
d="M354 -179h-197l11 79h114l101 719h-114l12 81h197z" />
    <glyph glyph-name="asciicircum" unicode="^" 
d="M135 330l193 369h68l89 -369h-74l-66 264l-136 -264h-74z" />
    <glyph glyph-name="underscore" unicode="_" 
d="M-32 -142l10 67h601l-10 -67h-601z" />
    <glyph glyph-name="grave" unicode="`" 
d="M344 694l106 -148h-85l-131 148h110z" />
    <glyph glyph-name="a" unicode="a" 
d="M469 102c0 -19 15 -29 46 -29l-8 -74c-5 -1 -12 -2 -20 -2c-39 0 -68 18 -87 53c-33 -39 -94 -60 -139 -60c-49 0 -88 15 -119 45s-46 68 -46 113c0 8 1 19 2 34l20 144c7 54 31 98 71 132c40 35 88 52 145 52c55 0 117 -14 187 -41l-50 -348l-1 -7c-1 -5 -1 -9 -1 -12z
M279 61c27 0 53 10 76 29c24 20 38 43 41 68l37 261c-30 13 -64 20 -101 20c-69 0 -123 -45 -132 -110l-22 -160v-3c0 -4 -1 -10 -1 -14c0 -53 41 -91 102 -91z" />
    <glyph glyph-name="b" unicode="b" 
d="M425 174l21 155v7c1 4 1 7 1 9c0 53 -40 92 -101 92c-68 0 -126 -48 -134 -108l-34 -249c30 -13 65 -20 104 -20c83 0 134 45 143 114zM110 24l-17 11l92 665h80l-34 -237c3 3 8 8 15 13c13 11 66 34 118 34c47 0 87 -15 118 -45c31 -29 47 -65 47 -107
c0 -16 -1 -27 -2 -32l-20 -152c-15 -112 -99 -184 -230 -184c-76 0 -143 18 -167 34z" />
    <glyph glyph-name="c" unicode="c" 
d="M343 437c-73 0 -124 -48 -132 -108l-21 -152c-1 -9 -2 -18 -2 -27c0 -53 40 -89 104 -89c32 0 60 11 83 32c23 22 37 46 41 73h81c0 -27 -17 -66 -49 -106c-31 -39 -91 -70 -162 -70c-56 0 -100 15 -132 44c-31 30 -47 66 -47 109c0 9 1 20 2 32l21 151
c7 52 31 96 70 131s89 53 150 53c58 0 101 -15 128 -46c27 -30 41 -63 41 -98l-2 -33h-82c1 7 1 12 1 16c0 23 -10 88 -93 88z" />
    <glyph glyph-name="d" unicode="d" 
d="M467 0h-72l4 41c-3 -4 -8 -9 -15 -15c-7 -5 -22 -13 -46 -22c-23 -9 -49 -14 -77 -14c-49 0 -88 15 -119 45s-46 68 -46 113c0 8 1 19 2 34l20 144c7 54 31 98 71 132c40 35 88 52 145 52c69 0 105 -30 116 -44l5 -4l34 238h77zM200 329l-22 -160v-3c0 -4 -1 -10 -1 -14
c0 -53 41 -91 102 -91c68 0 125 48 133 109l22 158c1 6 1 12 1 18c0 53 -40 91 -103 91c-69 0 -123 -43 -132 -108z" />
    <glyph glyph-name="e" unicode="e" 
d="M212 342l-14 -104l180 54c44 14 66 36 66 66c0 49 -39 81 -96 81c-36 0 -67 -10 -93 -29c-25 -19 -40 -42 -43 -68zM107 174l24 164c7 45 30 85 71 120s91 52 151 52c49 0 89 -14 121 -41s48 -60 48 -101c0 -88 -49 -126 -137 -151l-198 -57c-1 -7 -1 -11 -1 -13
c0 -48 44 -86 108 -86c48 0 104 12 129 23l19 7l-10 -78c-39 -15 -88 -23 -147 -23c-54 0 -98 15 -131 44s-49 65 -49 108c0 9 1 20 2 32z" />
    <glyph glyph-name="f" unicode="f" 
d="M343 428l-84 -608h-82l85 608h-119l10 72h119l6 41c15 100 83 169 195 169c52 0 98 -14 113 -26l12 -8l-53 -60c-15 14 -40 21 -76 21c-60 0 -101 -34 -109 -90l-7 -47h187l-10 -72h-187z" />
    <glyph glyph-name="g" unicode="g" 
d="M331 510c67 0 135 -17 163 -30l22 -9l-71 -500c-7 -46 -30 -84 -69 -115s-86 -46 -141 -46c-87 0 -149 43 -149 115c0 42 24 76 71 102l62 30c-83 16 -120 76 -120 147c0 11 1 22 2 31l14 101c7 49 30 90 71 123c41 34 90 51 145 51zM195 330l-13 -92c0 -1 0 -6 -1 -16
s-1 -17 -1 -20c0 -51 44 -84 97 -84c28 0 54 10 79 29s40 41 43 66l29 206c-29 13 -64 19 -107 19c-33 0 -61 -11 -85 -32s-38 -47 -41 -76zM366 -23l15 110c-9 -11 -21 -20 -37 -28l-140 -73c-25 -13 -37 -32 -37 -57c0 -29 26 -51 73 -51c31 0 59 10 84 30s39 43 42 69z
" />
    <glyph glyph-name="h" unicode="h" 
d="M522 327l-47 -327h-79l46 330c1 5 1 11 1 18c0 53 -37 90 -97 90c-32 0 -62 -11 -90 -33c-28 -21 -44 -45 -47 -70l-47 -335h-80l99 700h79l-34 -244l17 15c8 6 24 14 48 24c25 10 50 15 75 15c99 0 158 -63 158 -154c0 -7 -1 -17 -2 -29z" />
    <glyph glyph-name="i" unicode="i" 
d="M318 428h-170l11 72h250l-61 -428h153l-10 -72h-403l10 72h170zM422 583h-92l13 89h92z" />
    <glyph glyph-name="j" unicode="j" 
d="M338 -23l17 116c-12 -11 -29 -23 -50 -34l-130 -68c-25 -13 -43 -38 -43 -58c0 -31 30 -52 78 -52c30 0 58 10 84 29s41 42 44 67zM239 500h251l-73 -529c-6 -45 -29 -83 -70 -114c-40 -31 -88 -47 -143 -47c-43 0 -80 10 -110 31c-29 20 -44 47 -44 82
c0 55 30 98 91 130l172 91c23 12 42 27 49 34l5 6l34 244h-172zM504 583h-92l13 89h92z" />
    <glyph glyph-name="k" unicode="k" 
d="M513 0h-102l-188 258l-36 -258h-80l98 700h80l-61 -431l246 231h102l-260 -237z" />
    <glyph glyph-name="l" unicode="l" 
d="M335 628h-126l10 72h206l-88 -628h160l-10 -72h-394l10 72h154z" />
    <glyph glyph-name="m" unicode="m" 
d="M568 375l-53 -375h-81l55 378c1 5 1 10 1 13c0 27 -15 47 -42 47c-41 0 -68 -35 -75 -83l-51 -355h-78l55 383c1 5 1 8 1 10c0 25 -19 45 -46 45c-40 0 -69 -36 -76 -83l-51 -355h-80l70 500h78l-5 -37c25 30 56 45 93 45c39 0 66 -23 71 -42l5 -14l12 15
c11 13 54 41 98 41c65 0 101 -42 101 -106c0 -6 -1 -15 -2 -27z" />
    <glyph glyph-name="n" unicode="n" 
d="M524 361l-3 -37l-45 -324h-81l47 330c1 5 1 12 1 19c0 52 -33 89 -96 89c-32 0 -62 -11 -91 -33c-28 -21 -44 -45 -47 -70l-48 -335h-80l70 500h78l-7 -45c43 37 91 55 143 55c101 0 159 -62 159 -149z" />
    <glyph glyph-name="o" unicode="o" 
d="M528 352l-2 -27l-22 -151c-8 -53 -31 -97 -70 -132c-38 -35 -88 -52 -150 -52c-54 0 -97 15 -130 44c-32 30 -48 67 -48 111l2 30l21 151c7 52 31 96 70 131s90 53 152 53c53 0 95 -15 128 -45s49 -68 49 -113zM422 169l22 162c1 5 1 11 1 16c0 52 -38 92 -102 92
c-71 0 -125 -48 -133 -108l-22 -161c-1 -7 -1 -12 -1 -17c0 -52 40 -92 105 -92c71 0 122 48 130 108z" />
    <glyph glyph-name="p" unicode="p" 
d="M161 500h72l-4 -41c3 4 8 9 15 14c7 6 22 14 45 23c24 9 50 14 78 14c49 0 88 -15 119 -45s46 -68 46 -113c0 -8 -1 -19 -2 -34l-20 -144c-7 -54 -31 -98 -71 -133c-40 -34 -88 -51 -145 -51c-69 0 -105 30 -116 44l-5 4l-31 -218h-77zM428 171l22 160v3c0 4 1 10 1 14
c0 53 -41 91 -102 91c-68 0 -125 -48 -133 -109l-22 -158c-1 -6 -1 -12 -1 -18c0 -53 40 -91 103 -91c69 0 123 43 132 108z" />
    <glyph glyph-name="q" unicode="q" 
d="M183 326l-21 -155v-7c-1 -4 -1 -7 -1 -9c0 -53 40 -92 101 -92c68 0 126 48 134 108l34 249c-30 13 -65 20 -104 20c-83 0 -134 -45 -143 -114zM498 476l17 -11l-89 -645h-80l31 217c-3 -3 -8 -8 -15 -13c-13 -11 -66 -34 -118 -34c-47 0 -87 15 -118 44
c-31 30 -47 66 -47 108c0 16 1 27 2 32l20 152c15 112 99 184 230 184c76 0 143 -18 167 -34z" />
    <glyph glyph-name="r" unicode="r" 
d="M424 510c91 0 133 -63 133 -135c0 -8 0 -14 -1 -18h-81c1 5 1 9 1 12c0 39 -27 69 -67 69c-27 0 -53 -11 -78 -33c-25 -21 -39 -45 -42 -72l-37 -261h209l-10 -72h-394l10 72h105l60 428h75l-4 -47c33 38 74 57 121 57z" />
    <glyph glyph-name="s" unicode="s" 
d="M292 -10c-107 0 -170 59 -170 146l2 22h77c-1 -7 -1 -13 -1 -17c0 -51 36 -79 92 -79c57 0 103 31 103 79c0 94 -224 73 -224 216c0 47 18 84 54 111c36 28 79 42 128 42c53 0 92 -14 119 -43s40 -59 40 -92l-1 -18h-83c1 5 1 9 1 12c0 40 -37 69 -85 69
c-44 0 -88 -27 -88 -68c0 -86 224 -63 224 -217c0 -47 -18 -86 -55 -117c-36 -31 -80 -46 -133 -46z" />
    <glyph glyph-name="t" unicode="t" 
d="M169 171l36 257h-92l10 72h92l19 128h81l-19 -128h254l-10 -72h-254l-35 -247c-3 -13 -4 -28 -4 -45c0 -49 29 -74 87 -74c63 0 100 40 108 95h82c-13 -99 -88 -168 -199 -168c-104 0 -160 55 -160 136c0 7 1 22 4 46z" />
    <glyph glyph-name="u" unicode="u" 
d="M105 139l3 37l45 324h81l-47 -330c-1 -5 -1 -12 -1 -19c0 -52 33 -89 96 -89c32 0 62 11 90 32c29 22 45 46 48 71l48 335h80l-70 -500h-77l6 45c-43 -37 -91 -55 -143 -55c-101 0 -159 62 -159 149z" />
    <glyph glyph-name="v" unicode="v" 
d="M399 438l10 72c68 0 121 -39 121 -119c0 -23 -5 -69 -14 -139c-18 -131 -85 -262 -244 -262c-104 0 -165 70 -165 163c0 9 1 22 3 40l45 307h80l-46 -303c-2 -14 -3 -28 -3 -42c0 -63 35 -94 86 -94c95 0 148 74 164 198c9 73 14 116 14 128c0 29 -17 46 -51 51z" />
    <glyph glyph-name="w" unicode="w" 
d="M570 239c-7 -44 -17 -83 -30 -118s-34 -65 -63 -92c-29 -26 -63 -39 -104 -39c-63 0 -94 41 -102 56l-3 7c-3 -5 -7 -11 -13 -18c-5 -7 -19 -16 -40 -28c-21 -11 -44 -17 -69 -17c-67 0 -112 51 -112 127c0 29 2 55 6 79l45 304h80l-47 -310c-4 -26 -6 -47 -6 -64
c0 -37 17 -63 48 -63c57 0 91 49 104 147l40 290h78l-47 -327c-3 -23 -5 -42 -5 -57c0 -28 19 -53 47 -53c63 0 101 81 114 189c10 79 15 124 15 135c0 29 -17 46 -51 51l10 72c68 0 121 -39 121 -119c0 -29 -5 -79 -16 -152z" />
    <glyph glyph-name="x" unicode="x" 
d="M152 500h92l84 -174l131 174h93l-187 -244l122 -256h-91l-88 185l-140 -185h-91l193 256z" />
    <glyph glyph-name="y" unicode="y" 
d="M378 -23l15 110c-9 -11 -21 -20 -37 -28l-145 -77c-21 -11 -32 -28 -32 -50c0 -31 29 -52 73 -52c32 0 60 10 84 29c25 19 39 42 42 68zM451 500h81l-75 -529c-7 -46 -29 -84 -68 -115s-86 -46 -142 -46c-85 0 -149 41 -149 108c0 49 22 86 66 110l69 30
c-37 3 -67 19 -89 48s-33 61 -33 98c0 11 1 22 2 31l39 265h80l-38 -262c0 -1 0 -6 -1 -16s-1 -17 -1 -20c0 -51 44 -84 97 -84c28 0 54 10 79 29s40 41 43 66z" />
    <glyph glyph-name="z" unicode="z" 
d="M161 36l200 103c-15 12 -37 18 -66 18h-109l11 71l209 200h-245l10 72h339l-11 -77l-210 -198h15c99 -1 167 -58 167 -137c0 -12 -1 -25 -3 -40l-11 -77c-7 -46 -30 -84 -70 -115c-39 -31 -87 -46 -144 -46c-87 0 -153 44 -153 115c0 47 24 84 71 111zM377 -23l16 113
c-9 -11 -22 -20 -38 -28l-144 -74c-28 -15 -42 -33 -42 -55c0 -35 30 -56 78 -56c73 0 122 45 130 100z" />
    <glyph glyph-name="braceleft" unicode="{" 
d="M391 -111l-11 -79c-49 0 -90 15 -123 45c-32 30 -48 66 -48 108c0 13 1 27 3 43l21 146c2 12 3 24 3 36c0 21 -20 40 -48 40l11 75c31 0 56 18 61 50l24 174c15 111 99 184 222 184l-11 -81c-71 0 -119 -43 -127 -104l-24 -170c-6 -44 -30 -75 -71 -92
c31 -19 46 -45 46 -77c0 -9 -1 -21 -3 -35l-20 -136c-2 -18 -3 -32 -3 -43c0 -49 38 -84 98 -84z" />
    <glyph glyph-name="bar" unicode="|" 
d="M295 -180h-78l124 880h78z" />
    <glyph glyph-name="braceright" unicode="}" 
d="M245 632l11 79c49 0 90 -15 122 -45c33 -30 49 -66 49 -108c0 -13 -1 -27 -3 -43l-21 -146c-2 -12 -3 -24 -3 -36c0 -21 20 -40 48 -40l-11 -75c-31 0 -56 -18 -61 -50l-24 -174c-15 -111 -99 -184 -222 -184l11 81c71 0 119 43 127 104l24 170c6 44 30 75 71 92
c-31 19 -46 45 -46 77c0 9 1 21 3 35l20 136c2 18 3 32 3 43c0 49 -38 84 -98 84z" />
    <glyph glyph-name="asciitilde" unicode="~" 
d="M153 234h-76c9 33 27 61 56 86s62 38 98 38c24 0 57 -9 99 -28s72 -28 91 -28c29 0 54 24 65 48h77c-10 -33 -29 -62 -57 -87s-60 -37 -95 -37c-26 0 -61 9 -104 28s-72 28 -86 28c-29 0 -55 -23 -68 -48z" />
    <glyph glyph-name="exclamdown" unicode="&#xa1;" 
d="M394 402h-98l14 98h98zM295 335h81l-74 -527h-81z" />
    <glyph glyph-name="cent" unicode="&#xa2;" 
d="M320 -75h-80l11 74c-85 13 -132 76 -132 155c0 6 1 15 2 27l20 139c13 92 79 165 180 181l11 73h79l-10 -74c84 -16 120 -79 120 -139l-3 -24h-80c1 5 1 8 1 11c0 43 -22 83 -89 83c-69 0 -120 -48 -128 -108l-20 -147c-1 -4 -1 -10 -1 -19c0 -53 35 -90 98 -90
c77 0 113 47 122 102h78c0 -35 -15 -70 -44 -105c-29 -34 -70 -56 -124 -65z" />
    <glyph glyph-name="sterling" unicode="&#xa3;" 
d="M550 568l-4 -49h-86l4 33c0 1 1 8 1 15c0 33 -30 63 -69 63c-53 0 -88 -36 -95 -83l-26 -186h132l-12 -79h-131l-28 -203h247l-11 -79h-394l10 79h61l28 203h-61l11 79h61l27 186c7 46 27 84 60 115s74 47 121 47c92 0 154 -60 154 -141z" />
    <glyph glyph-name="currency" unicode="&#xa4;" 
d="M544 126l-57 -57l-48 47c-36 -24 -75 -36 -118 -36s-83 12 -119 36l-48 -47l-56 57l47 48c-24 37 -36 76 -36 117c0 42 12 82 37 120l-48 48l56 56l48 -48c37 24 77 36 119 36c41 0 81 -12 118 -36l48 48l57 -56l-48 -48c24 -37 36 -77 36 -120s-12 -82 -35 -117z
M321 159c36 0 67 13 93 39c26 27 39 58 39 94s-13 67 -39 93c-26 27 -57 40 -93 40s-67 -13 -94 -40c-27 -26 -40 -57 -40 -93c0 -37 13 -68 39 -94s58 -39 95 -39z" />
    <glyph glyph-name="yen" unicode="&#xa5;" 
d="M355 272h156l-11 -78h-156l-27 -194h-85l27 194h-156l11 78h156l8 55l-3 12h-151l11 78h116l-90 283h92l81 -280l161 280h90l-170 -283h117l-11 -78h-151l-6 -10z" />
    <glyph glyph-name="brokenbar" unicode="&#xa6;" 
d="M368 337h-78l51 364h78zM295 -180h-78l51 362h78z" />
    <glyph glyph-name="section" unicode="&#xa7;" 
d="M271 -10c-103 0 -143 51 -143 114l3 41h83c-1 -7 -1 -13 -1 -20c0 -36 23 -54 69 -54c56 0 84 31 84 60c0 31 -36 57 -81 78c-64 31 -147 73 -147 158c0 55 23 100 69 135c-8 14 -12 30 -12 47c0 45 16 82 47 113c32 31 77 47 136 47c101 0 142 -54 142 -119l-3 -36h-83
c1 6 1 12 1 18c0 37 -23 56 -69 56c-59 0 -85 -30 -85 -61c0 -81 230 -91 229 -235c0 -51 -23 -96 -69 -135c8 -17 12 -35 12 -52c0 -43 -16 -79 -49 -110c-33 -30 -77 -45 -133 -45zM390 252c23 16 35 36 35 60c0 19 -8 36 -25 50c-17 15 -42 30 -75 47s-55 30 -68 39
c-23 -17 -34 -37 -34 -62c0 -20 8 -37 25 -52c17 -14 42 -29 74 -45c33 -15 55 -28 68 -37z" />
    <glyph glyph-name="dieresis" unicode="&#xa8;" 
d="M297 581h-89l13 89h89zM466 581h-89l13 89h89z" />
    <glyph glyph-name="copyright" unicode="&#xa9;" 
d="M518 259v181c0 56 -21 104 -62 144s-90 60 -147 60c-58 0 -108 -20 -149 -60s-62 -88 -62 -144v-181c0 -56 21 -104 62 -145c41 -40 91 -60 149 -60c57 0 106 20 147 60c41 41 62 89 62 145zM586 432v-166c0 -76 -27 -141 -81 -195s-119 -81 -196 -81s-143 27 -197 81
s-81 119 -81 195v166c0 76 27 141 81 195s120 81 197 81s142 -27 196 -81s81 -119 81 -195zM374 276v13h69v-13c0 -80 -53 -133 -130 -133c-80 0 -133 55 -133 128v163c0 71 53 127 133 127c73 0 125 -57 125 -138v-14h-69v14c0 39 -24 66 -56 66c-36 0 -65 -31 -65 -67
v-140c0 -35 29 -66 65 -66c33 0 61 23 61 60z" />
    <glyph glyph-name="ordfeminine" unicode="&#xaa;" 
d="M453 458c0 -11 9 -16 26 -16l-6 -61c-7 -1 -15 -2 -25 -2c-19 0 -42 13 -51 28c-25 -21 -56 -32 -91 -32c-57 0 -101 45 -101 104c0 5 1 14 2 29l11 81c9 71 68 120 141 120c41 0 88 -12 109 -21l16 -7l-28 -193c-2 -11 -3 -21 -3 -30zM325 435c29 0 60 25 64 52l22 153
c-15 6 -33 9 -53 9c-39 0 -70 -25 -74 -60l-10 -84c-1 -9 -2 -18 -2 -26c0 -27 21 -44 53 -44zM197 340h269l-8 -58h-269z" />
    <glyph glyph-name="guillemotleft" unicode="&#xab;" 
d="M214 291l102 -158h-94l-100 158l144 159h93zM393 291l102 -158h-94l-100 158l144 159h93z" />
    <glyph glyph-name="logicalnot" unicode="&#xac;" 
d="M117 417h443l-40 -280h-80l28 200h-363z" />
    <glyph glyph-name="uni00AD" unicode="&#xad;" 
 />
    <glyph glyph-name="registered" unicode="&#xae;" 
d="M388 380l53 -121h-61l-47 109h-41v-109h-56v321h111c41 0 77 -36 77 -79v-50c0 -27 -16 -56 -36 -71zM367 444v57c0 12 -11 23 -22 23h-55v-102h55c12 0 22 10 22 22zM499 341v149c0 45 -17 84 -51 117c-33 33 -73 50 -120 50s-88 -17 -122 -50s-51 -72 -51 -117v-149
c0 -45 17 -85 51 -118s75 -50 122 -50s87 17 120 50c34 33 51 73 51 118zM555 483v-136c0 -63 -22 -116 -67 -160c-44 -44 -97 -66 -160 -66s-117 22 -162 66c-44 44 -66 97 -66 160v136c0 63 22 116 66 160c45 44 99 66 162 66s116 -22 160 -66c45 -44 67 -97 67 -160z" />
    <glyph glyph-name="overscore" unicode="&#xaf;" 
d="M490 582h-302l10 74h302z" />
    <glyph glyph-name="degree" unicode="&#xb0;" 
d="M241 462c-29 29 -43 63 -43 103s14 74 43 103s63 43 103 43s74 -14 103 -43s43 -63 43 -103s-14 -74 -43 -103s-63 -43 -103 -43s-74 14 -103 43zM343 484c45 0 81 37 81 81s-36 81 -81 81c-44 0 -80 -37 -80 -81s36 -81 80 -81z" />
    <glyph glyph-name="plusminus" unicode="&#xb1;" 
d="M292 379l17 122h78l-17 -122h177l-10 -75h-178l-17 -120h-78l17 120h-177l10 75h178zM83 145h434l-10 -75h-435z" />
    <glyph glyph-name="twosuperior" unicode="&#xb2;" 
d="M303 590h-67c11 73 67 120 131 120c56 0 97 -38 97 -98c0 -51 -41 -97 -85 -124c-43 -27 -91 -65 -102 -101h156l-9 -64h-230l7 49c4 27 16 53 37 78s42 44 65 59c45 31 89 67 89 98c0 26 -12 39 -36 39c-27 0 -48 -21 -53 -56z" />
    <glyph glyph-name="threesuperior" unicode="&#xb3;" 
d="M371 637h-113l10 63h197l-7 -52l-67 -73c32 -5 55 -36 55 -65c0 -21 -3 -49 -9 -86c-9 -61 -55 -106 -127 -106c-55 0 -101 39 -101 91c0 7 1 15 3 26h68c-1 -7 -2 -14 -2 -21c0 -19 16 -32 39 -32c27 0 47 18 50 42l5 41c2 12 3 22 3 31c0 16 -11 24 -32 24h-45l7 46z
" />
    <glyph glyph-name="acute" unicode="&#xb4;" 
d="M475 695l-173 -148h-86l142 148h117z" />
    <glyph glyph-name="mu" unicode="&#xb5;" 
d="M131 -180h-77l96 680h78l-37 -273c-5 -37 -7 -64 -7 -79c0 -45 27 -87 94 -87c36 0 67 12 93 35s41 49 46 77l49 327h78l-52 -368c-3 -16 -4 -28 -4 -35c0 -15 10 -23 30 -23h10l-11 -74h-13c-45 0 -77 23 -84 42l-6 14c-4 -5 -10 -11 -18 -18c-7 -7 -23 -17 -48 -30
c-25 -12 -50 -18 -75 -18c-48 0 -86 21 -98 40l-9 13z" />
    <glyph glyph-name="paragraph" unicode="&#xb6;" 
d="M312 -180h-78l69 492c-88 15 -150 82 -150 179c0 57 22 106 67 147s102 62 172 62h184l-124 -880h-78l113 805h-62z" />
    <glyph glyph-name="middot" unicode="&#xb7;" 
d="M362 242h-98l14 98h98z" />
    <glyph glyph-name="cedilla" unicode="&#xb8;" 
d="M265 -180h-58l9 52h52c19 0 30 12 30 27c0 13 -8 20 -24 20h-44l14 81h56l-4 -28c40 0 70 -30 70 -71c0 -45 -41 -81 -101 -81z" />
    <glyph glyph-name="onesuperior" unicode="&#xb9;" 
d="M272 624l9 63l73 13h74l-53 -377h-72l45 313z" />
    <glyph glyph-name="ordmasculine" unicode="&#xba;" 
d="M464 598l-15 -109c-8 -63 -54 -105 -127 -105c-63 0 -105 39 -105 91c0 7 1 15 2 24l15 106c9 61 58 105 130 105c60 0 102 -38 102 -89c0 -6 -1 -14 -2 -23zM386 489l15 103c1 9 2 15 2 18c0 23 -20 41 -47 41c-32 0 -54 -21 -57 -46l-14 -97c-1 -9 -2 -17 -2 -24
c0 -23 18 -43 45 -43c32 0 54 20 58 48zM203 340h224l-8 -58h-224z" />
    <glyph glyph-name="guillemotright" unicode="&#xbb;" 
d="M517 291l-144 -158h-94l146 158l-101 159h93zM338 291l-144 -158h-94l146 158l-101 159h93z" />
    <glyph glyph-name="onequarter" unicode="&#xbc;" 
d="M429 76h-153l7 52l152 245h71l-143 -232h75l11 83h70l-11 -83h33l-9 -65h-33l-11 -75h-70zM100 0h-54l453 700h53zM106 624l9 63l73 13h74l-53 -377h-72l45 313z" />
    <glyph glyph-name="onehalf" unicode="&#xbd;" 
d="M406 267h-67c11 73 67 120 131 120c56 0 97 -38 97 -98c0 -51 -41 -97 -85 -124c-43 -27 -91 -65 -102 -101h156l-9 -64h-230l7 49c4 27 16 53 37 78s42 44 65 59c45 31 89 67 89 98c0 26 -12 39 -36 39c-27 0 -48 -21 -53 -56zM97 624l9 63l73 13h74l-53 -377h-72
l45 313zM91 0h-54l453 700h53z" />
    <glyph glyph-name="threequarters" unicode="&#xbe;" 
d="M231 637h-113l10 63h197l-7 -52l-67 -73c32 -5 55 -36 55 -65c0 -21 -3 -49 -9 -86c-9 -61 -55 -106 -127 -106c-55 0 -101 39 -101 91c0 7 1 15 3 26h68c-1 -7 -2 -14 -2 -21c0 -19 16 -32 39 -32c27 0 47 18 50 42l5 41c2 12 3 22 3 31c0 16 -11 24 -32 24h-45l7 46z
M447 76h-153l7 52l152 245h71l-143 -232h75l11 83h70l-11 -83h33l-9 -65h-33l-11 -75h-70zM141 0h-54l453 700h53z" />
    <glyph glyph-name="questiondown" unicode="&#xbf;" 
d="M394 -20h81c-7 -57 -30 -103 -70 -137c-40 -35 -87 -52 -142 -52c-49 0 -89 15 -121 45s-48 69 -48 116c0 32 5 60 14 84c20 49 49 72 84 104l51 46c32 29 60 82 68 149h83c-9 -91 -46 -159 -86 -196c-57 -53 -124 -91 -124 -180c0 -52 37 -87 90 -87
c63 0 111 41 120 108zM325 500h101l-14 -99h-101z" />
    <glyph glyph-name="Agrave" unicode="&#xc0;" 
d="M124 299l177 401h143l65 -403l-42 -297h-85l31 223h-216l-31 -223h-84zM212 301h210l-51 320h-19zM327 894l106 -148h-85l-131 148h110z" />
    <glyph glyph-name="Aacute" unicode="&#xc1;" 
d="M124 299l177 401h143l65 -403l-42 -297h-85l31 223h-216l-31 -223h-84zM212 301h210l-51 320h-19zM542 895l-173 -148h-86l142 148h117z" />
    <glyph glyph-name="Acircumflex" unicode="&#xc2;" 
d="M124 299l177 401h143l65 -403l-42 -297h-85l31 223h-216l-31 -223h-84zM212 301h210l-51 320h-19zM439 898l85 -147h-72l-60 80l-85 -80h-73l129 147h76z" />
    <glyph glyph-name="Atilde" unicode="&#xc3;" 
d="M124 299l177 401h143l65 -403l-42 -297h-85l31 223h-216l-31 -223h-84zM212 301h210l-51 320h-19zM295 763h-70c5 63 48 107 108 107c17 0 39 -7 64 -22s41 -22 47 -22c21 0 33 13 36 38h71c-4 -59 -46 -107 -106 -107c-19 0 -41 7 -66 22s-41 22 -48 22
c-19 0 -31 -13 -36 -38z" />
    <glyph glyph-name="Adieresis" unicode="&#xc4;" 
d="M124 299l177 401h143l65 -403l-42 -297h-85l31 223h-216l-31 -223h-84zM212 301h210l-51 320h-19zM342 781h-89l13 89h89zM511 781h-89l13 89h89z" />
    <glyph glyph-name="Aring" unicode="&#xc5;" 
d="M124 299l177 401h143l65 -403l-42 -297h-85l31 223h-216l-31 -223h-84zM212 301h210l-51 320h-19zM392 846c-17 0 -33 -14 -33 -34c0 -17 8 -25 25 -25c19 0 34 16 34 33c0 15 -10 26 -26 26zM300 802c0 25 10 48 29 68s43 30 71 30c43 0 76 -33 76 -74
c0 -26 -10 -49 -30 -68s-43 -28 -70 -28c-43 0 -76 31 -76 72z" />
    <glyph glyph-name="AE" unicode="&#xc6;" 
d="M69 299l178 401h335l-11 -79h-161l-30 -213h137l-11 -78h-137l-35 -251h164l-11 -79h-250l31 223h-125l-31 -223h-85zM324 621h-27l-139 -320h121z" />
    <glyph glyph-name="Ccedilla" unicode="&#xc7;" 
d="M418 194h83c0 -51 -18 -96 -53 -136s-80 -62 -135 -67l-2 -19c40 0 70 -30 70 -71c0 -45 -41 -81 -101 -81h-58l9 52h52c19 0 30 12 30 27c0 13 -8 20 -24 20h-44l12 74c-85 13 -142 76 -142 156c0 9 1 19 2 31l48 346c7 53 31 96 70 131c40 35 89 53 146 53
c55 0 97 -16 126 -49c30 -33 45 -69 45 -108l-2 -28h-83c1 8 1 13 1 16c0 49 -39 90 -94 90c-61 0 -115 -45 -123 -104l-48 -338c-1 -9 -2 -20 -2 -31c0 -52 39 -89 95 -89c72 0 121 54 122 125z" />
    <glyph glyph-name="Egrave" unicode="&#xc8;" 
d="M110 0l98 700h342l-11 -79h-258l-30 -213h234l-11 -78h-234l-35 -251h266l-11 -79h-350zM379 894l106 -148h-85l-131 148h110z" />
    <glyph glyph-name="Eacute" unicode="&#xc9;" 
d="M110 0l98 700h342l-11 -79h-258l-30 -213h234l-11 -78h-234l-35 -251h266l-11 -79h-350zM565 895l-173 -148h-86l142 148h117z" />
    <glyph glyph-name="Ecircumflex" unicode="&#xca;" 
d="M110 0l98 700h342l-11 -79h-258l-30 -213h234l-11 -78h-234l-35 -251h266l-11 -79h-350zM464 905l85 -147h-72l-60 80l-85 -80h-73l129 147h76z" />
    <glyph glyph-name="Edieresis" unicode="&#xcb;" 
d="M110 0l98 700h342l-11 -79h-258l-30 -213h234l-11 -78h-234l-35 -251h266l-11 -79h-350zM357 781h-89l13 89h89zM526 781h-89l13 89h89z" />
    <glyph glyph-name="Igrave" unicode="&#xcc;" 
d="M320 622h-151l11 78h386l-11 -78h-151l-76 -544h151l-11 -78h-386l11 78h151zM357 894l106 -148h-85l-131 148h110z" />
    <glyph glyph-name="Iacute" unicode="&#xcd;" 
d="M320 622h-151l11 78h386l-11 -78h-151l-76 -544h151l-11 -78h-386l11 78h151zM545 893l-173 -148h-86l142 148h117z" />
    <glyph glyph-name="Icircumflex" unicode="&#xce;" 
d="M320 622h-151l11 78h386l-11 -78h-151l-76 -544h151l-11 -78h-386l11 78h151zM444 894l85 -147h-72l-60 80l-85 -80h-73l129 147h76z" />
    <glyph glyph-name="Idieresis" unicode="&#xcf;" 
d="M320 622h-151l11 78h386l-11 -78h-151l-76 -544h151l-11 -78h-386l11 78h151zM346 781h-89l13 89h89zM515 781h-89l13 89h89z" />
    <glyph glyph-name="Eth" unicode="&#xd0;" 
d="M155 332h-67l10 74h68l41 294h184c48 0 87 -15 118 -46c31 -30 47 -68 47 -113c0 -5 -1 -13 -2 -25l-46 -332c-7 -53 -30 -97 -68 -132c-37 -35 -83 -52 -137 -52h-194zM423 183l47 334c1 7 1 12 1 15c0 52 -39 89 -94 89h-98l-30 -215h101l-10 -74h-102l-35 -253h98
c60 0 113 45 122 104z" />
    <glyph glyph-name="Ntilde" unicode="&#xd1;" 
d="M417 244l64 456h84l-98 -700h-94l-122 488l-11 79h-6l-5 -114l-63 -453h-84l98 700h94l122 -491l12 -76h6zM296 763h-70c5 63 48 107 108 107c17 0 39 -7 64 -22s41 -22 47 -22c21 0 33 13 36 38h71c-4 -59 -46 -107 -106 -107c-19 0 -41 7 -66 22s-41 22 -48 22
c-19 0 -31 -13 -36 -38z" />
    <glyph glyph-name="Ograve" unicode="&#xd2;" 
d="M547 525l-49 -351c-7 -50 -30 -93 -69 -130c-39 -36 -89 -54 -151 -54c-55 0 -99 15 -131 46c-31 31 -47 69 -47 113c0 11 1 22 3 32l48 345c7 50 30 93 69 129c39 37 90 55 153 55c55 0 98 -16 129 -47s47 -68 47 -112c0 -7 -1 -15 -2 -26zM413 173l50 354
c0 1 1 12 1 16c0 49 -36 88 -99 88c-72 0 -121 -48 -129 -104l-50 -353v-6c-1 -5 -1 -9 -1 -12c0 -48 37 -87 101 -87c69 0 119 48 127 104zM361 894l106 -148h-85l-131 148h110z" />
    <glyph glyph-name="Oacute" unicode="&#xd3;" 
d="M547 525l-49 -351c-7 -50 -30 -93 -69 -130c-39 -36 -89 -54 -151 -54c-55 0 -99 15 -131 46c-31 31 -47 69 -47 113c0 11 1 22 3 32l48 345c7 50 30 93 69 129c39 37 90 55 153 55c55 0 98 -16 129 -47s47 -68 47 -112c0 -7 -1 -15 -2 -26zM413 173l50 354
c0 1 1 12 1 16c0 49 -36 88 -99 88c-72 0 -121 -48 -129 -104l-50 -353v-6c-1 -5 -1 -9 -1 -12c0 -48 37 -87 101 -87c69 0 119 48 127 104zM556 898l-173 -148h-86l142 148h117z" />
    <glyph glyph-name="Ocircumflex" unicode="&#xd4;" 
d="M547 525l-49 -351c-7 -50 -30 -93 -69 -130c-39 -36 -89 -54 -151 -54c-55 0 -99 15 -131 46c-31 31 -47 69 -47 113c0 11 1 22 3 32l48 345c7 50 30 93 69 129c39 37 90 55 153 55c55 0 98 -16 129 -47s47 -68 47 -112c0 -7 -1 -15 -2 -26zM413 173l50 354
c0 1 1 12 1 16c0 49 -36 88 -99 88c-72 0 -121 -48 -129 -104l-50 -353v-6c-1 -5 -1 -9 -1 -12c0 -48 37 -87 101 -87c69 0 119 48 127 104zM447 894l85 -147h-72l-60 80l-85 -80h-73l129 147h76z" />
    <glyph glyph-name="Otilde" unicode="&#xd5;" 
d="M547 525l-49 -351c-7 -50 -30 -93 -69 -130c-39 -36 -89 -54 -151 -54c-55 0 -99 15 -131 46c-31 31 -47 69 -47 113c0 11 1 22 3 32l48 345c7 50 30 93 69 129c39 37 90 55 153 55c55 0 98 -16 129 -47s47 -68 47 -112c0 -7 -1 -15 -2 -26zM413 173l50 354
c0 1 1 12 1 16c0 49 -36 88 -99 88c-72 0 -121 -48 -129 -104l-50 -353v-6c-1 -5 -1 -9 -1 -12c0 -48 37 -87 101 -87c69 0 119 48 127 104zM299 763h-70c5 63 48 107 108 107c17 0 39 -7 64 -22s41 -22 47 -22c21 0 33 13 36 38h71c-4 -59 -46 -107 -106 -107
c-19 0 -41 7 -66 22s-41 22 -48 22c-19 0 -31 -13 -36 -38z" />
    <glyph glyph-name="Odieresis" unicode="&#xd6;" 
d="M547 525l-49 -351c-7 -50 -30 -93 -69 -130c-39 -36 -89 -54 -151 -54c-55 0 -99 15 -131 46c-31 31 -47 69 -47 113c0 11 1 22 3 32l48 345c7 50 30 93 69 129c39 37 90 55 153 55c55 0 98 -16 129 -47s47 -68 47 -112c0 -7 -1 -15 -2 -26zM413 173l50 354
c0 1 1 12 1 16c0 49 -36 88 -99 88c-72 0 -121 -48 -129 -104l-50 -353v-6c-1 -5 -1 -9 -1 -12c0 -48 37 -87 101 -87c69 0 119 48 127 104zM345 781h-89l13 89h89zM514 781h-89l13 89h89z" />
    <glyph glyph-name="multiply" unicode="&#xd7;" 
d="M263 291l-118 139l64 56l119 -138l157 138l48 -56l-157 -139l119 -137l-64 -57l-119 139l-156 -138l-49 56z" />
    <glyph glyph-name="Oslash" unicode="&#xd8;" 
d="M547 525l-49 -351c-7 -50 -30 -93 -69 -130c-39 -36 -89 -54 -151 -54c-56 0 -101 17 -134 50l-47 -66l-58 39l67 92c-4 14 -6 29 -6 44c0 11 1 22 3 32l48 345c7 50 30 93 69 129c39 37 90 55 153 55c55 0 98 -16 131 -49l44 60l56 -39l-62 -86c5 -17 7 -32 7 -45
c0 -7 -1 -15 -2 -26zM413 173l44 310l-25 -41l-236 -329c17 -29 47 -44 90 -44c69 0 119 48 127 104zM191 214l29 50l232 324c-17 29 -46 43 -87 43c-72 0 -121 -48 -129 -104z" />
    <glyph glyph-name="Ugrave" unicode="&#xd9;" 
d="M486 700h84l-74 -526c-7 -53 -30 -97 -67 -132s-86 -52 -149 -52c-55 0 -98 15 -131 45s-49 67 -49 110c0 8 1 18 2 30l74 525h84l-74 -526v-8c-1 -5 -1 -11 -1 -16c0 -43 36 -81 100 -81c77 0 120 43 129 110zM360 894l106 -148h-85l-131 148h110z" />
    <glyph glyph-name="Uacute" unicode="&#xda;" 
d="M486 700h84l-74 -526c-7 -53 -30 -97 -67 -132s-86 -52 -149 -52c-55 0 -98 15 -131 45s-49 67 -49 110c0 8 1 18 2 30l74 525h84l-74 -526v-8c-1 -5 -1 -11 -1 -16c0 -43 36 -81 100 -81c77 0 120 43 129 110zM557 895l-173 -148h-86l142 148h117z" />
    <glyph glyph-name="Ucircumflex" unicode="&#xdb;" 
d="M486 700h84l-74 -526c-7 -53 -30 -97 -67 -132s-86 -52 -149 -52c-55 0 -98 15 -131 45s-49 67 -49 110c0 8 1 18 2 30l74 525h84l-74 -526v-8c-1 -5 -1 -11 -1 -16c0 -43 36 -81 100 -81c77 0 120 43 129 110zM440 894l85 -147h-72l-60 80l-85 -80h-73l129 147h76z" />
    <glyph glyph-name="Udieresis" unicode="&#xdc;" 
d="M486 700h84l-74 -526c-7 -53 -30 -97 -67 -132s-86 -52 -149 -52c-55 0 -98 15 -131 45s-49 67 -49 110c0 8 1 18 2 30l74 525h84l-74 -526v-8c-1 -5 -1 -11 -1 -16c0 -43 36 -81 100 -81c77 0 120 43 129 110zM344 781h-89l13 89h89zM513 781h-89l13 89h89z" />
    <glyph glyph-name="Yacute" unicode="&#xdd;" 
d="M144 700h92l96 -275l169 275h94l-235 -369l-46 -331h-85l47 331zM547 894l-173 -148h-86l142 148h117z" />
    <glyph glyph-name="Thorn" unicode="&#xde;" 
d="M327 143h-110l-20 -143h-84l97 700h84l-14 -100h108c81 0 139 -56 139 -133c0 -11 -1 -22 -1 -23l-20 -144c-6 -45 -26 -82 -59 -112s-73 -45 -120 -45zM421 297l20 142l1 3v16c0 37 -29 63 -69 63h-103l-42 -299h103c48 0 83 32 90 75z" />
    <glyph glyph-name="germandbls" unicode="&#xdf;" 
d="M517 518l-8 -57c-26 -1 -52 -8 -78 -21s-39 -31 -39 -54c0 -32 33 -71 65 -100c33 -29 66 -82 66 -134c0 -45 -16 -84 -49 -115s-73 -47 -120 -47c-79 0 -134 54 -134 126l4 36h77c-1 -13 -2 -23 -2 -29c0 -36 26 -61 61 -61c45 0 80 38 80 82c0 37 -34 76 -67 103
c-32 27 -66 74 -66 126c0 75 53 127 132 144l1 7c1 4 1 10 1 19c0 57 -29 95 -85 95c-63 0 -111 -47 -120 -114l-99 -704h-78l99 705c7 53 29 97 66 132s85 52 142 52c95 0 154 -64 154 -151c0 -9 -2 -24 -2 -33z" />
    <glyph glyph-name="agrave" unicode="&#xe0;" 
d="M469 102c0 -19 15 -29 46 -29l-8 -74c-5 -1 -12 -2 -20 -2c-39 0 -68 18 -87 53c-33 -39 -94 -60 -139 -60c-49 0 -88 15 -119 45s-46 68 -46 113c0 8 1 19 2 34l20 144c7 54 31 98 71 132c40 35 88 52 145 52c55 0 117 -14 187 -41l-50 -348l-1 -7c-1 -5 -1 -9 -1 -12z
M279 61c27 0 53 10 76 29c24 20 38 43 41 68l37 261c-30 13 -64 20 -101 20c-69 0 -123 -45 -132 -110l-22 -160v-3c0 -4 -1 -10 -1 -14c0 -53 41 -91 102 -91zM336 694l106 -148h-85l-131 148h110z" />
    <glyph glyph-name="aacute" unicode="&#xe1;" 
d="M469 102c0 -19 15 -29 46 -29l-8 -74c-5 -1 -12 -2 -20 -2c-39 0 -68 18 -87 53c-33 -39 -94 -60 -139 -60c-49 0 -88 15 -119 45s-46 68 -46 113c0 8 1 19 2 34l20 144c7 54 31 98 71 132c40 35 88 52 145 52c55 0 117 -14 187 -41l-50 -348l-1 -7c-1 -5 -1 -9 -1 -12z
M279 61c27 0 53 10 76 29c24 20 38 43 41 68l37 261c-30 13 -64 20 -101 20c-69 0 -123 -45 -132 -110l-22 -160v-3c0 -4 -1 -10 -1 -14c0 -53 41 -91 102 -91zM535 695l-173 -148h-86l142 148h117z" />
    <glyph glyph-name="acircumflex" unicode="&#xe2;" 
d="M469 102c0 -19 15 -29 46 -29l-8 -74c-5 -1 -12 -2 -20 -2c-39 0 -68 18 -87 53c-33 -39 -94 -60 -139 -60c-49 0 -88 15 -119 45s-46 68 -46 113c0 8 1 19 2 34l20 144c7 54 31 98 71 132c40 35 88 52 145 52c55 0 117 -14 187 -41l-50 -348l-1 -7c-1 -5 -1 -9 -1 -12z
M279 61c27 0 53 10 76 29c24 20 38 43 41 68l37 261c-30 13 -64 20 -101 20c-69 0 -123 -45 -132 -110l-22 -160v-3c0 -4 -1 -10 -1 -14c0 -53 41 -91 102 -91zM420 694l85 -147h-72l-60 80l-85 -80h-73l129 147h76z" />
    <glyph glyph-name="atilde" unicode="&#xe3;" 
d="M469 102c0 -19 15 -29 46 -29l-8 -74c-5 -1 -12 -2 -20 -2c-39 0 -68 18 -87 53c-33 -39 -94 -60 -139 -60c-49 0 -88 15 -119 45s-46 68 -46 113c0 8 1 19 2 34l20 144c7 54 31 98 71 132c40 35 88 52 145 52c55 0 117 -14 187 -41l-50 -348l-1 -7c-1 -5 -1 -9 -1 -12z
M279 61c27 0 53 10 76 29c24 20 38 43 41 68l37 261c-30 13 -64 20 -101 20c-69 0 -123 -45 -132 -110l-22 -160v-3c0 -4 -1 -10 -1 -14c0 -53 41 -91 102 -91zM271 563h-70c5 63 48 107 108 107c17 0 39 -7 64 -22s41 -22 47 -22c21 0 33 13 36 38h71
c-4 -59 -46 -107 -106 -107c-19 0 -41 7 -66 22s-41 22 -48 22c-19 0 -31 -13 -36 -38z" />
    <glyph glyph-name="adieresis" unicode="&#xe4;" 
d="M469 102c0 -19 15 -29 46 -29l-8 -74c-5 -1 -12 -2 -20 -2c-39 0 -68 18 -87 53c-33 -39 -94 -60 -139 -60c-49 0 -88 15 -119 45s-46 68 -46 113c0 8 1 19 2 34l20 144c7 54 31 98 71 132c40 35 88 52 145 52c55 0 117 -14 187 -41l-50 -348l-1 -7c-1 -5 -1 -9 -1 -12z
M279 61c27 0 53 10 76 29c24 20 38 43 41 68l37 261c-30 13 -64 20 -101 20c-69 0 -123 -45 -132 -110l-22 -160v-3c0 -4 -1 -10 -1 -14c0 -53 41 -91 102 -91zM318 581h-89l13 89h89zM487 581h-89l13 89h89z" />
    <glyph glyph-name="aring" unicode="&#xe5;" 
d="M469 102c0 -19 15 -29 46 -29l-8 -74c-5 -1 -12 -2 -20 -2c-39 0 -68 18 -87 53c-33 -39 -94 -60 -139 -60c-49 0 -88 15 -119 45s-46 68 -46 113c0 8 1 19 2 34l20 144c7 54 31 98 71 132c40 35 88 52 145 52c55 0 117 -14 187 -41l-50 -348l-1 -7c-1 -5 -1 -9 -1 -12z
M279 61c27 0 53 10 76 29c24 20 38 43 41 68l37 261c-30 13 -64 20 -101 20c-69 0 -123 -45 -132 -110l-22 -160v-3c0 -4 -1 -10 -1 -14c0 -53 41 -91 102 -91zM365 646c-17 0 -33 -14 -33 -34c0 -17 8 -25 25 -25c19 0 34 16 34 33c0 15 -10 26 -26 26zM273 602
c0 25 10 48 29 68s43 30 71 30c43 0 76 -33 76 -74c0 -26 -10 -49 -30 -68s-43 -28 -70 -28c-43 0 -76 31 -76 72z" />
    <glyph glyph-name="ae" unicode="&#xe6;" 
d="M512 79l11 6l-9 -75c-25 -13 -58 -20 -100 -20c-53 0 -92 19 -115 56c-37 -37 -80 -56 -128 -56c-79 0 -137 60 -137 149c0 14 1 28 2 43l17 144c12 111 83 184 186 184c45 0 87 -14 127 -42c30 28 66 42 107 42c73 0 126 -54 126 -133c0 -78 -37 -132 -110 -161
l-142 -57c-1 -14 -2 -24 -2 -29c0 -44 32 -69 76 -69c39 0 76 10 91 18zM268 135l36 284c-25 13 -49 20 -73 20c-55 0 -95 -45 -102 -110l-19 -160v-5c0 -7 -1 -16 -1 -20c0 -55 28 -85 71 -85s83 29 88 76zM366 342l-12 -108l119 49c31 12 54 48 54 85c0 39 -25 69 -64 69
c-45 0 -92 -42 -97 -95z" />
    <glyph glyph-name="ccedilla" unicode="&#xe7;" 
d="M343 437c-73 0 -124 -48 -132 -108l-21 -152c-1 -9 -2 -18 -2 -27c0 -53 40 -89 104 -89c32 0 60 11 83 32c23 22 37 46 41 73h81c0 -27 -16 -64 -47 -103c-29 -39 -87 -70 -154 -73l-2 -18c40 0 70 -30 70 -71c0 -45 -41 -81 -101 -81h-58l9 52h52c19 0 30 12 30 27
c0 13 -8 20 -24 20h-44l13 75c-85 16 -134 76 -134 149c0 9 1 20 2 32l21 151c7 52 31 96 70 131s89 53 150 53c58 0 101 -15 128 -46c27 -30 41 -63 41 -98l-2 -33h-82c1 7 1 12 1 16c0 23 -10 88 -93 88z" />
    <glyph glyph-name="egrave" unicode="&#xe8;" 
d="M212 342l-14 -104l180 54c44 14 66 36 66 66c0 49 -39 81 -96 81c-36 0 -67 -10 -93 -29c-25 -19 -40 -42 -43 -68zM107 174l24 164c7 45 30 85 71 120s91 52 151 52c49 0 89 -14 121 -41s48 -60 48 -101c0 -88 -49 -126 -137 -151l-198 -57c-1 -7 -1 -11 -1 -13
c0 -48 44 -86 108 -86c48 0 104 12 129 23l19 7l-10 -78c-39 -15 -88 -23 -147 -23c-54 0 -98 15 -131 44s-49 65 -49 108c0 9 1 20 2 32zM333 694l106 -148h-85l-131 148h110z" />
    <glyph glyph-name="eacute" unicode="&#xe9;" 
d="M212 342l-14 -104l180 54c44 14 66 36 66 66c0 49 -39 81 -96 81c-36 0 -67 -10 -93 -29c-25 -19 -40 -42 -43 -68zM107 174l24 164c7 45 30 85 71 120s91 52 151 52c49 0 89 -14 121 -41s48 -60 48 -101c0 -88 -49 -126 -137 -151l-198 -57c-1 -7 -1 -11 -1 -13
c0 -48 44 -86 108 -86c48 0 104 12 129 23l19 7l-10 -78c-39 -15 -88 -23 -147 -23c-54 0 -98 15 -131 44s-49 65 -49 108c0 9 1 20 2 32zM549 695l-173 -148h-86l142 148h117z" />
    <glyph glyph-name="ecircumflex" unicode="&#xea;" 
d="M212 342l-14 -104l180 54c44 14 66 36 66 66c0 49 -39 81 -96 81c-36 0 -67 -10 -93 -29c-25 -19 -40 -42 -43 -68zM107 174l24 164c7 45 30 85 71 120s91 52 151 52c49 0 89 -14 121 -41s48 -60 48 -101c0 -88 -49 -126 -137 -151l-198 -57c-1 -7 -1 -11 -1 -13
c0 -48 44 -86 108 -86c48 0 104 12 129 23l19 7l-10 -78c-39 -15 -88 -23 -147 -23c-54 0 -98 15 -131 44s-49 65 -49 108c0 9 1 20 2 32zM421 694l85 -147h-72l-60 80l-85 -80h-73l129 147h76z" />
    <glyph glyph-name="edieresis" unicode="&#xeb;" 
d="M212 342l-14 -104l180 54c44 14 66 36 66 66c0 49 -39 81 -96 81c-36 0 -67 -10 -93 -29c-25 -19 -40 -42 -43 -68zM107 174l24 164c7 45 30 85 71 120s91 52 151 52c49 0 89 -14 121 -41s48 -60 48 -101c0 -88 -49 -126 -137 -151l-198 -57c-1 -7 -1 -11 -1 -13
c0 -48 44 -86 108 -86c48 0 104 12 129 23l19 7l-10 -78c-39 -15 -88 -23 -147 -23c-54 0 -98 15 -131 44s-49 65 -49 108c0 9 1 20 2 32zM317 581h-89l13 89h89zM486 581h-89l13 89h89z" />
    <glyph glyph-name="igrave" unicode="&#xec;" 
d="M318 428h-170l10 72h250l-60 -428h153l-10 -72h-403l10 72h170zM345 694l106 -148h-85l-131 148h110z" />
    <glyph glyph-name="iacute" unicode="&#xed;" 
d="M318 428h-170l10 72h250l-60 -428h153l-10 -72h-403l10 72h170zM541 695l-173 -148h-86l142 148h117z" />
    <glyph glyph-name="icircumflex" unicode="&#xee;" 
d="M318 428h-170l10 72h250l-60 -428h153l-10 -72h-403l10 72h170zM431 694l85 -147h-72l-60 80l-85 -80h-73l129 147h76z" />
    <glyph glyph-name="idieresis" unicode="&#xef;" 
d="M318 428h-170l10 72h250l-60 -428h153l-10 -72h-403l10 72h170zM337 581h-89l13 89h89zM506 581h-89l13 89h89z" />
    <glyph glyph-name="eth" unicode="&#xf0;" 
d="M370 164l20 140c1 5 1 12 1 19c0 43 -42 76 -95 76c-59 0 -106 -43 -113 -95l-19 -128v-4c-1 -7 -2 -17 -2 -25c0 -49 37 -84 92 -84c63 0 108 44 116 101zM582 647l-10 -70l-67 -21c0 -13 -1 -27 -3 -40l-51 -364c-7 -47 -28 -85 -65 -116s-82 -46 -137 -46
c-107 0 -170 58 -170 142c0 11 1 27 3 47l19 131c15 96 91 162 198 162c44 0 84 -17 99 -30l10 -9l12 83l1 13l-83 -26l10 69l62 20c-8 24 -34 36 -77 36h-60l11 72h59c69 0 129 -30 150 -81z" />
    <glyph glyph-name="ntilde" unicode="&#xf1;" 
d="M524 361l-3 -37l-45 -324h-81l47 330c1 5 1 12 1 19c0 52 -33 89 -96 89c-32 0 -62 -11 -91 -33c-28 -21 -44 -45 -47 -70l-48 -335h-80l70 500h78l-7 -45c43 37 91 55 143 55c101 0 159 -62 159 -149zM269 563h-70c5 63 48 107 108 107c17 0 39 -7 64 -22s41 -22 47 -22
c21 0 33 13 36 38h71c-4 -59 -46 -107 -106 -107c-19 0 -41 7 -66 22s-41 22 -48 22c-19 0 -31 -13 -36 -38z" />
    <glyph glyph-name="ograve" unicode="&#xf2;" 
d="M528 352l-2 -27l-22 -151c-8 -53 -31 -97 -70 -132c-38 -35 -88 -52 -150 -52c-54 0 -97 15 -130 44c-32 30 -48 67 -48 111l2 30l21 151c7 52 31 96 70 131s90 53 152 53c53 0 95 -15 128 -45s49 -68 49 -113zM422 169l22 162c1 5 1 11 1 16c0 52 -38 92 -102 92
c-71 0 -125 -48 -133 -108l-22 -161c-1 -7 -1 -12 -1 -17c0 -52 40 -92 105 -92c71 0 122 48 130 108zM344 694l106 -148h-85l-131 148h110z" />
    <glyph glyph-name="oacute" unicode="&#xf3;" 
d="M528 352l-2 -27l-22 -151c-8 -53 -31 -97 -70 -132c-38 -35 -88 -52 -150 -52c-54 0 -97 15 -130 44c-32 30 -48 67 -48 111l2 30l21 151c7 52 31 96 70 131s90 53 152 53c53 0 95 -15 128 -45s49 -68 49 -113zM422 169l22 162c1 5 1 11 1 16c0 52 -38 92 -102 92
c-71 0 -125 -48 -133 -108l-22 -161c-1 -7 -1 -12 -1 -17c0 -52 40 -92 105 -92c71 0 122 48 130 108zM527 695l-173 -148h-86l142 148h117z" />
    <glyph glyph-name="ocircumflex" unicode="&#xf4;" 
d="M528 352l-2 -27l-22 -151c-8 -53 -31 -97 -70 -132c-38 -35 -88 -52 -150 -52c-54 0 -97 15 -130 44c-32 30 -48 67 -48 111l2 30l21 151c7 52 31 96 70 131s90 53 152 53c53 0 95 -15 128 -45s49 -68 49 -113zM422 169l22 162c1 5 1 11 1 16c0 52 -38 92 -102 92
c-71 0 -125 -48 -133 -108l-22 -161c-1 -7 -1 -12 -1 -17c0 -52 40 -92 105 -92c71 0 122 48 130 108zM431 694l85 -147h-72l-60 80l-85 -80h-73l129 147h76z" />
    <glyph glyph-name="otilde" unicode="&#xf5;" 
d="M528 352l-2 -27l-22 -151c-8 -53 -31 -97 -70 -132c-38 -35 -88 -52 -150 -52c-54 0 -97 15 -130 44c-32 30 -48 67 -48 111l2 30l21 151c7 52 31 96 70 131s90 53 152 53c53 0 95 -15 128 -45s49 -68 49 -113zM422 169l22 162c1 5 1 11 1 16c0 52 -38 92 -102 92
c-71 0 -125 -48 -133 -108l-22 -161c-1 -7 -1 -12 -1 -17c0 -52 40 -92 105 -92c71 0 122 48 130 108zM277 563h-70c5 63 48 107 108 107c17 0 39 -7 64 -22s41 -22 47 -22c21 0 33 13 36 38h71c-4 -59 -46 -107 -106 -107c-19 0 -41 7 -66 22s-41 22 -48 22
c-19 0 -31 -13 -36 -38z" />
    <glyph glyph-name="odieresis" unicode="&#xf6;" 
d="M528 352l-2 -27l-22 -151c-8 -53 -31 -97 -70 -132c-38 -35 -88 -52 -150 -52c-54 0 -97 15 -130 44c-32 30 -48 67 -48 111l2 30l21 151c7 52 31 96 70 131s90 53 152 53c53 0 95 -15 128 -45s49 -68 49 -113zM422 169l22 162c1 5 1 11 1 16c0 52 -38 92 -102 92
c-71 0 -125 -48 -133 -108l-22 -161c-1 -7 -1 -12 -1 -17c0 -52 40 -92 105 -92c71 0 122 48 130 108zM323 581h-89l13 89h89zM492 581h-89l13 89h89z" />
    <glyph glyph-name="divide" unicode="&#xf7;" 
d="M86 254l12 80h455l-12 -80h-455zM342 86h-101l14 99h101zM387 405h-101l14 99h101z" />
    <glyph glyph-name="oslash" unicode="&#xf8;" 
d="M108 174l21 152c7 53 31 96 71 131s91 53 153 53c35 0 67 -8 96 -23l38 48l46 -34l-38 -52c22 -28 33 -60 33 -97c0 -7 -1 -16 -2 -27l-22 -151c-8 -53 -31 -97 -70 -132c-38 -35 -88 -52 -150 -52c-37 0 -70 8 -100 24l-35 -48l-49 32l38 53c-21 26 -32 58 -32 95
c0 7 1 16 2 28zM425 169l22 161l1 6v10c0 13 -2 23 -6 31l-214 -300c17 -11 38 -16 62 -16c71 0 127 49 135 108zM209 331l-22 -162l-1 -7v-9c0 -12 2 -22 5 -29l213 299c-17 11 -38 16 -61 16c-71 0 -126 -49 -134 -108z" />
    <glyph glyph-name="ugrave" unicode="&#xf9;" 
d="M105 139l3 37l45 324h81l-47 -330c-1 -5 -1 -12 -1 -19c0 -52 33 -89 96 -89c32 0 62 11 90 32c29 22 45 46 48 71l48 335h80l-70 -500h-77l6 45c-43 -37 -91 -55 -143 -55c-101 0 -159 62 -159 149zM320 694l106 -148h-85l-131 148h110z" />
    <glyph glyph-name="uacute" unicode="&#xfa;" 
d="M105 139l3 37l45 324h81l-47 -330c-1 -5 -1 -12 -1 -19c0 -52 33 -89 96 -89c32 0 62 11 90 32c29 22 45 46 48 71l48 335h80l-70 -500h-77l6 45c-43 -37 -91 -55 -143 -55c-101 0 -159 62 -159 149zM535 695l-173 -148h-86l142 148h117z" />
    <glyph glyph-name="ucircumflex" unicode="&#xfb;" 
d="M105 139l3 37l45 324h81l-47 -330c-1 -5 -1 -12 -1 -19c0 -52 33 -89 96 -89c32 0 62 11 90 32c29 22 45 46 48 71l48 335h80l-70 -500h-77l6 45c-43 -37 -91 -55 -143 -55c-101 0 -159 62 -159 149zM416 694l85 -147h-72l-60 80l-85 -80h-73l129 147h76z" />
    <glyph glyph-name="udieresis" unicode="&#xfc;" 
d="M105 139l3 37l45 324h81l-47 -330c-1 -5 -1 -12 -1 -19c0 -52 33 -89 96 -89c32 0 62 11 90 32c29 22 45 46 48 71l48 335h80l-70 -500h-77l6 45c-43 -37 -91 -55 -143 -55c-101 0 -159 62 -159 149zM320 581h-89l13 89h89zM489 581h-89l13 89h89z" />
    <glyph glyph-name="yacute" unicode="&#xfd;" 
d="M371 -23l15 110c-9 -11 -21 -20 -37 -28l-145 -77c-21 -11 -32 -28 -32 -50c0 -31 29 -52 73 -52c32 0 60 10 84 29c25 19 39 42 42 68zM444 500h81l-75 -529c-7 -46 -29 -84 -68 -115s-86 -46 -142 -46c-85 0 -149 41 -149 108c0 49 22 86 66 110l69 30
c-37 3 -67 19 -89 48s-33 61 -33 98c0 11 1 22 2 31l39 265h80l-38 -262c0 -1 0 -6 -1 -16s-1 -17 -1 -20c0 -51 44 -84 97 -84c28 0 54 10 79 29s40 41 43 66zM514 695l-173 -148h-86l142 148h117z" />
    <glyph glyph-name="thorn" unicode="&#xfe;" 
d="M189 700h77l-34 -241s41 51 135 51c49 0 88 -15 119 -45s46 -68 46 -113c0 -8 -1 -19 -2 -34l-20 -144c-7 -54 -31 -98 -71 -133c-40 -34 -88 -51 -145 -51c-69 0 -105 30 -116 44l-5 4l-31 -218h-77zM428 171l22 160v3c0 4 1 10 1 14c0 53 -41 91 -102 91
c-68 0 -125 -48 -133 -109l-22 -158c-1 -6 -1 -12 -1 -18c0 -53 40 -91 103 -91c69 0 123 43 132 108z" />
    <glyph glyph-name="ydieresis" unicode="&#xff;" 
d="M372 -23l15 110c-9 -11 -21 -20 -37 -28l-145 -77c-21 -11 -32 -28 -32 -50c0 -31 29 -52 73 -52c32 0 60 10 84 29c25 19 39 42 42 68zM445 500h81l-75 -529c-7 -46 -29 -84 -68 -115s-86 -46 -142 -46c-85 0 -149 41 -149 108c0 49 22 86 66 110l69 30
c-37 3 -67 19 -89 48s-33 61 -33 98c0 11 1 22 2 31l39 265h80l-38 -262c0 -1 0 -6 -1 -16s-1 -17 -1 -20c0 -51 44 -84 97 -84c28 0 54 10 79 29s40 41 43 66zM312 581h-89l13 89h89zM481 581h-89l13 89h89z" />
    <glyph glyph-name="Amacron" unicode="&#x100;" 
d="M124 299l177 401h143l65 -403l-42 -297h-85l31 223h-216l-31 -223h-84zM212 301h210l-51 320h-19zM535 782h-302l10 74h302z" />
    <glyph glyph-name="amacron" unicode="&#x101;" 
d="M469 102c0 -19 15 -29 46 -29l-8 -74c-5 -1 -12 -2 -20 -2c-39 0 -68 18 -87 53c-33 -39 -94 -60 -139 -60c-49 0 -88 15 -119 45s-46 68 -46 113c0 8 1 19 2 34l20 144c7 54 31 98 71 132c40 35 88 52 145 52c55 0 117 -14 187 -41l-50 -348l-1 -7c-1 -5 -1 -9 -1 -12z
M279 61c27 0 53 10 76 29c24 20 38 43 41 68l37 261c-30 13 -64 20 -101 20c-69 0 -123 -45 -132 -110l-22 -160v-3c0 -4 -1 -10 -1 -14c0 -53 41 -91 102 -91zM507 582h-302l10 74h302z" />
    <glyph glyph-name="Abreve" unicode="&#x102;" 
d="M124 299l177 401h143l65 -403l-42 -297h-85l31 223h-216l-31 -223h-84zM212 301h210l-51 320h-19zM256 889h75c-1 -2 -1 -5 -1 -9c0 -27 17 -51 44 -51h16c35 0 56 28 60 60h75c-8 -76 -64 -127 -133 -127h-31c-60 0 -106 47 -106 108c0 8 0 14 1 19z" />
    <glyph glyph-name="abreve" unicode="&#x103;" 
d="M469 102c0 -19 15 -29 46 -29l-8 -74c-5 -1 -12 -2 -20 -2c-39 0 -68 18 -87 53c-33 -39 -94 -60 -139 -60c-49 0 -88 15 -119 45s-46 68 -46 113c0 8 1 19 2 34l20 144c7 54 31 98 71 132c40 35 88 52 145 52c55 0 117 -14 187 -41l-50 -348l-1 -7c-1 -5 -1 -9 -1 -12z
M279 61c27 0 53 10 76 29c24 20 38 43 41 68l37 261c-30 13 -64 20 -101 20c-69 0 -123 -45 -132 -110l-22 -160v-3c0 -4 -1 -10 -1 -14c0 -53 41 -91 102 -91zM231 685h75c-1 -2 -1 -5 -1 -9c0 -27 17 -51 44 -51h16c35 0 56 28 60 60h75c-8 -76 -64 -127 -133 -127h-31
c-60 0 -106 47 -106 108c0 8 0 14 1 19z" />
    <glyph glyph-name="Aogonek" unicode="&#x104;" 
d="M124 299l177 401h143l65 -403l-41 -297c-7 -5 -15 -11 -24 -19s-22 -21 -38 -38s-24 -31 -24 -41c0 -13 8 -20 24 -20h60l-11 -62h-58c-53 0 -85 24 -85 68c0 19 8 38 23 57c16 19 32 32 47 41l24 14h-24l31 223h-216l-31 -223h-84zM212 301h210l-51 320h-19z" />
    <glyph glyph-name="aogonek" unicode="&#x105;" 
d="M469 102c0 -19 15 -29 46 -29l-8 -73c-7 -5 -15 -11 -24 -19s-22 -21 -38 -38s-24 -31 -24 -41c0 -13 8 -20 24 -20h60l-11 -62h-58c-53 0 -85 24 -85 68c0 19 8 38 25 57c33 37 57 50 74 58c-21 8 -38 24 -50 47c-33 -39 -94 -60 -139 -60c-49 0 -88 15 -119 45
s-46 68 -46 113c0 8 1 19 2 34l20 144c7 54 31 98 71 132c40 35 88 52 145 52c55 0 117 -14 187 -41l-50 -348l-1 -7c-1 -5 -1 -9 -1 -12zM279 61c27 0 53 10 76 29c24 20 38 43 41 68l37 261c-30 13 -64 20 -101 20c-69 0 -123 -45 -132 -110l-22 -160v-3
c0 -4 -1 -10 -1 -14c0 -53 41 -91 102 -91z" />
    <glyph glyph-name="Cacute" unicode="&#x106;" 
d="M418 194h83c0 -55 -20 -102 -60 -143c-39 -41 -89 -61 -149 -61c-52 0 -95 15 -128 45c-33 31 -49 69 -49 114c0 9 1 19 2 31l48 346c7 53 31 96 70 131c40 35 89 53 146 53c55 0 97 -16 126 -49c30 -33 45 -69 45 -108l-2 -28h-83c1 8 1 13 1 16c0 49 -39 90 -94 90
c-61 0 -115 -45 -123 -104l-48 -338c-1 -9 -2 -20 -2 -31c0 -52 39 -89 95 -89c72 0 121 54 122 125zM561 895l-173 -148h-86l142 148h117z" />
    <glyph glyph-name="cacute" unicode="&#x107;" 
d="M343 437c-73 0 -124 -48 -132 -108l-21 -152c-1 -9 -2 -18 -2 -27c0 -53 40 -89 104 -89c32 0 60 11 83 32c23 22 37 46 41 73h81c0 -27 -17 -66 -49 -106c-31 -39 -91 -70 -162 -70c-56 0 -100 15 -132 44c-31 30 -47 66 -47 109c0 9 1 20 2 32l21 151
c7 52 31 96 70 131s89 53 150 53c58 0 101 -15 128 -46c27 -30 41 -63 41 -98l-2 -33h-82c1 7 1 12 1 16c0 23 -10 88 -93 88zM524 695l-173 -148h-86l142 148h117z" />
    <glyph glyph-name="Ccircumflex" unicode="&#x108;" 
d="M418 194h83c0 -55 -20 -102 -60 -143c-39 -41 -89 -61 -149 -61c-52 0 -95 15 -128 45c-33 31 -49 69 -49 114c0 9 1 19 2 31l48 346c7 53 31 96 70 131c40 35 89 53 146 53c55 0 97 -16 126 -49c30 -33 45 -69 45 -108l-2 -28h-83c1 8 1 13 1 16c0 49 -39 90 -94 90
c-61 0 -115 -45 -123 -104l-48 -338c-1 -9 -2 -20 -2 -31c0 -52 39 -89 95 -89c72 0 121 54 122 125zM448 894l85 -147h-72l-60 80l-85 -80h-73l129 147h76z" />
    <glyph glyph-name="ccircumflex" unicode="&#x109;" 
d="M343 437c-73 0 -124 -48 -132 -108l-21 -152c-1 -9 -2 -18 -2 -27c0 -53 40 -89 104 -89c32 0 60 11 83 32c23 22 37 46 41 73h81c0 -27 -17 -66 -49 -106c-31 -39 -91 -70 -162 -70c-56 0 -100 15 -132 44c-31 30 -47 66 -47 109c0 9 1 20 2 32l21 151
c7 52 31 96 70 131s89 53 150 53c58 0 101 -15 128 -46c27 -30 41 -63 41 -98l-2 -33h-82c1 7 1 12 1 16c0 23 -10 88 -93 88zM410 694l85 -147h-72l-60 80l-85 -80h-73l129 147h76z" />
    <glyph glyph-name="Cdotaccent" unicode="&#x10a;" 
d="M418 194h83c0 -55 -20 -102 -60 -143c-39 -41 -89 -61 -149 -61c-52 0 -95 15 -128 45c-33 31 -49 69 -49 114c0 9 1 19 2 31l48 346c7 53 31 96 70 131c40 35 89 53 146 53c55 0 97 -16 126 -49c30 -33 45 -69 45 -108l-2 -28h-83c1 8 1 13 1 16c0 49 -39 90 -94 90
c-61 0 -115 -45 -123 -104l-48 -338c-1 -9 -2 -20 -2 -31c0 -52 39 -89 95 -89c72 0 121 54 122 125zM436 782h-89l13 89h89z" />
    <glyph glyph-name="cdotaccent" unicode="&#x10b;" 
d="M343 437c-73 0 -124 -48 -132 -108l-21 -152c-1 -9 -2 -18 -2 -27c0 -53 40 -89 104 -89c32 0 60 11 83 32c23 22 37 46 41 73h81c0 -27 -17 -66 -49 -106c-31 -39 -91 -70 -162 -70c-56 0 -100 15 -132 44c-31 30 -47 66 -47 109c0 9 1 20 2 32l21 151
c7 52 31 96 70 131s89 53 150 53c58 0 101 -15 128 -46c27 -30 41 -63 41 -98l-2 -33h-82c1 7 1 12 1 16c0 23 -10 88 -93 88zM401 582h-89l13 89h89z" />
    <glyph glyph-name="Ccaron" unicode="&#x10c;" 
d="M418 194h83c0 -55 -20 -102 -60 -143c-39 -41 -89 -61 -149 -61c-52 0 -95 15 -128 45c-33 31 -49 69 -49 114c0 9 1 19 2 31l48 346c7 53 31 96 70 131c40 35 89 53 146 53c55 0 97 -16 126 -49c30 -33 45 -69 45 -108l-2 -28h-83c1 8 1 13 1 16c0 49 -39 90 -94 90
c-61 0 -115 -45 -123 -104l-48 -338c-1 -9 -2 -20 -2 -31c0 -52 39 -89 95 -89c72 0 121 54 122 125zM343 747l-85 147h72l60 -80l85 80h73l-129 -147h-76z" />
    <glyph glyph-name="ccaron" unicode="&#x10d;" 
d="M343 437c-73 0 -124 -48 -132 -108l-21 -152c-1 -9 -2 -18 -2 -27c0 -53 40 -89 104 -89c32 0 60 11 83 32c23 22 37 46 41 73h81c0 -27 -17 -66 -49 -106c-31 -39 -91 -70 -162 -70c-56 0 -100 15 -132 44c-31 30 -47 66 -47 109c0 9 1 20 2 32l21 151
c7 52 31 96 70 131s89 53 150 53c58 0 101 -15 128 -46c27 -30 41 -63 41 -98l-2 -33h-82c1 7 1 12 1 16c0 23 -10 88 -93 88zM310 547l-85 147h72l60 -80l85 80h73l-129 -147h-76z" />
    <glyph glyph-name="Dcaron" unicode="&#x10e;" 
d="M283 0h-194l98 700h184c48 0 87 -15 118 -46c31 -30 47 -68 47 -113c0 -5 -1 -13 -2 -25l-46 -332c-7 -53 -30 -97 -68 -132c-37 -35 -83 -52 -137 -52zM403 183l47 334c1 7 1 12 1 15c0 52 -39 89 -94 89h-98l-76 -542h98c60 0 113 45 122 104zM313 747l-85 147h72
l60 -80l85 80h73l-129 -147h-76z" />
    <glyph glyph-name="dcaron" unicode="&#x10f;" horiz-adv-x="599" 
d="M429 0h-72l4 41c-3 -4 -8 -9 -15 -15c-7 -5 -22 -13 -46 -22c-23 -9 -49 -14 -77 -14c-49 0 -88 15 -119 45s-46 68 -46 113c0 8 1 19 2 34l20 144c7 54 31 98 71 132c40 35 88 52 145 52c69 0 105 -30 116 -44l5 -4l34 238h77zM162 329l-22 -160v-3c0 -4 -1 -10 -1 -14
c0 -53 41 -91 102 -91c68 0 125 48 133 109l22 158c1 6 1 12 1 18c0 53 -40 91 -103 91c-69 0 -123 -43 -132 -108zM611 549h-67l86 151h101z" />
    <glyph glyph-name="Dcroat" unicode="&#x110;" 
d="M155 332h-67l10 74h68l41 294h184c48 0 87 -15 118 -46c31 -30 47 -68 47 -113c0 -5 -1 -13 -2 -25l-46 -332c-7 -53 -30 -97 -68 -132c-37 -35 -83 -52 -137 -52h-194zM423 183l47 334c1 7 1 12 1 15c0 52 -39 89 -94 89h-98l-30 -215h101l-10 -74h-102l-35 -253h98
c60 0 113 45 122 104z" />
    <glyph glyph-name="dslash" unicode="&#x111;" 
d="M467 0h-72l4 41c-3 -4 -8 -9 -15 -15c-7 -5 -22 -13 -46 -22c-23 -9 -49 -14 -77 -14c-49 0 -88 15 -119 45s-46 68 -46 113c0 8 1 19 2 34l18 132c7 54 31 98 71 132c40 35 88 52 145 52c69 0 105 -30 116 -44l5 -4l16 110h-124l11 72h123l10 68h77l-10 -68h51l-11 -72
h-50zM198 317l-20 -148v-3c0 -4 -1 -10 -1 -14c0 -53 41 -91 102 -91c68 0 125 48 133 109l20 146c1 6 1 12 1 18c0 53 -40 91 -103 91c-69 0 -123 -43 -132 -108z" />
    <glyph glyph-name="Emacron" unicode="&#x112;" 
d="M110 0l98 700h342l-11 -79h-258l-30 -213h234l-11 -78h-234l-35 -251h266l-11 -79h-350zM547 782h-302l10 74h302z" />
    <glyph glyph-name="emacron" unicode="&#x113;" 
d="M212 342l-14 -104l180 54c44 14 66 36 66 66c0 49 -39 81 -96 81c-36 0 -67 -10 -93 -29c-25 -19 -40 -42 -43 -68zM107 174l24 164c7 45 30 85 71 120s91 52 151 52c49 0 89 -14 121 -41s48 -60 48 -101c0 -88 -49 -126 -137 -151l-198 -57c-1 -7 -1 -11 -1 -13
c0 -48 44 -86 108 -86c48 0 104 12 129 23l19 7l-10 -78c-39 -15 -88 -23 -147 -23c-54 0 -98 15 -131 44s-49 65 -49 108c0 9 1 20 2 32zM507 582h-302l10 74h302z" />
    <glyph glyph-name="Ebreve" unicode="&#x114;" 
d="M110 0l98 700h342l-11 -79h-258l-30 -213h234l-11 -78h-234l-35 -251h266l-11 -79h-350zM269 885h75c-1 -2 -1 -5 -1 -9c0 -27 17 -51 44 -51h16c35 0 56 28 60 60h75c-8 -76 -64 -127 -133 -127h-31c-60 0 -106 47 -106 108c0 8 0 14 1 19z" />
    <glyph glyph-name="ebreve" unicode="&#x115;" 
d="M212 342l-14 -104l180 54c44 14 66 36 66 66c0 49 -39 81 -96 81c-36 0 -67 -10 -93 -29c-25 -19 -40 -42 -43 -68zM107 174l24 164c7 45 30 85 71 120s91 52 151 52c49 0 89 -14 121 -41s48 -60 48 -101c0 -88 -49 -126 -137 -151l-198 -57c-1 -7 -1 -11 -1 -13
c0 -48 44 -86 108 -86c48 0 104 12 129 23l19 7l-10 -78c-39 -15 -88 -23 -147 -23c-54 0 -98 15 -131 44s-49 65 -49 108c0 9 1 20 2 32zM226 685h75c-1 -2 -1 -5 -1 -9c0 -27 17 -51 44 -51h16c35 0 56 28 60 60h75c-8 -76 -64 -127 -133 -127h-31c-60 0 -106 47 -106 108
c0 8 0 14 1 19z" />
    <glyph glyph-name="Edotaccent" unicode="&#x116;" 
d="M110 0l98 700h342l-11 -79h-258l-30 -213h234l-11 -78h-234l-35 -251h266l-11 -79h-350zM441 784h-89l13 89h89z" />
    <glyph glyph-name="edotaccent" unicode="&#x117;" 
d="M212 342l-14 -104l180 54c44 14 66 36 66 66c0 49 -39 81 -96 81c-36 0 -67 -10 -93 -29c-25 -19 -40 -42 -43 -68zM107 174l24 164c7 45 30 85 71 120s91 52 151 52c49 0 89 -14 121 -41s48 -60 48 -101c0 -88 -49 -126 -137 -151l-198 -57c-1 -7 -1 -11 -1 -13
c0 -48 44 -86 108 -86c48 0 104 12 129 23l19 7l-10 -78c-39 -15 -88 -23 -147 -23c-54 0 -98 15 -131 44s-49 65 -49 108c0 9 1 20 2 32zM398 582h-89l13 89h89z" />
    <glyph glyph-name="Eogonek" unicode="&#x118;" 
d="M110 0l98 700h342l-11 -79h-258l-30 -213h234l-11 -78h-234l-35 -251h266l-10 -79c-7 -5 -15 -11 -24 -19s-22 -21 -38 -38s-24 -31 -24 -41c0 -13 8 -20 24 -20h60l-11 -62h-58c-53 0 -85 24 -85 68c0 19 8 38 23 57c16 19 32 32 48 41l23 14h-289z" />
    <glyph glyph-name="eogonek" unicode="&#x119;" 
d="M107 174l24 164c7 45 30 85 71 120s91 52 151 52c49 0 89 -14 121 -41s48 -60 48 -101c0 -88 -49 -126 -137 -151l-198 -57c-1 -7 -1 -11 -1 -13c0 -48 44 -86 108 -86c48 0 104 12 129 23l19 7l-10 -79l-26 -22c-10 -9 -24 -24 -41 -43c-17 -20 -26 -35 -26 -45
c0 -13 8 -20 24 -20h60l-11 -62h-58c-53 0 -85 24 -85 68c0 39 28 74 84 107c-22 -3 -45 -5 -68 -5c-54 0 -98 15 -131 44s-49 65 -49 108c0 9 1 20 2 32zM212 342l-14 -104l180 54c44 14 66 36 66 66c0 49 -39 81 -96 81c-36 0 -67 -10 -93 -29c-25 -19 -40 -42 -43 -68z
" />
    <glyph glyph-name="Ecaron" unicode="&#x11a;" 
d="M110 0l98 700h342l-11 -79h-258l-30 -213h234l-11 -78h-234l-35 -251h266l-11 -79h-350zM351 747l-85 147h72l60 -80l85 80h73l-129 -147h-76z" />
    <glyph glyph-name="ecaron" unicode="&#x11b;" horiz-adv-x="598" 
d="M212 342l-14 -104l180 54c44 14 66 36 66 66c0 49 -39 81 -96 81c-36 0 -67 -10 -93 -29c-25 -19 -40 -42 -43 -68zM107 174l24 164c7 45 30 85 71 120s91 52 151 52c49 0 89 -14 121 -41s48 -60 48 -101c0 -88 -49 -126 -137 -151l-198 -57c-1 -7 -1 -11 -1 -13
c0 -48 44 -86 108 -86c48 0 104 12 129 23l19 7l-10 -78c-39 -15 -88 -23 -147 -23c-54 0 -98 15 -131 44s-49 65 -49 108c0 9 1 20 2 32zM312 547l-85 147h72l60 -80l85 80h73l-129 -147h-76z" />
    <glyph glyph-name="Gcircumflex" unicode="&#x11c;" 
d="M379 631c-71 0 -123 -44 -131 -104l-48 -338c-1 -9 -2 -20 -2 -31c0 -52 39 -89 102 -89c68 0 115 45 123 104l16 109h-101l11 78h186l-26 -186c-7 -51 -30 -95 -68 -131c-37 -35 -86 -53 -146 -53c-55 0 -100 15 -133 46s-50 70 -50 115c0 9 1 21 3 37l47 338
c7 51 30 95 71 130c41 36 93 54 157 54c49 0 90 -16 122 -47s48 -69 48 -115l-2 -23h-84c1 3 1 8 1 14c0 52 -40 92 -96 92zM456 890l85 -147h-72l-60 80l-85 -80h-73l129 147h76z" />
    <glyph glyph-name="gcircumflex" unicode="&#x11d;" 
d="M331 510c67 0 135 -17 163 -30l22 -9l-71 -500c-7 -46 -30 -84 -69 -115s-86 -46 -141 -46c-87 0 -149 43 -149 115c0 42 24 76 71 102l62 30c-83 16 -120 76 -120 147c0 11 1 22 2 31l14 101c7 49 30 90 71 123c41 34 90 51 145 51zM195 330l-13 -92c0 -1 0 -6 -1 -16
s-1 -17 -1 -20c0 -51 44 -84 97 -84c28 0 54 10 79 29s40 41 43 66l29 206c-29 13 -64 19 -107 19c-33 0 -61 -11 -85 -32s-38 -47 -41 -76zM366 -23l15 110c-9 -11 -21 -20 -37 -28l-140 -73c-25 -13 -37 -32 -37 -57c0 -29 26 -51 73 -51c31 0 59 10 84 30s39 43 42 69z
M411 694l85 -147h-72l-60 80l-85 -80h-73l129 147h76z" />
    <glyph glyph-name="Gbreve" unicode="&#x11e;" 
d="M379 631c-71 0 -123 -44 -131 -104l-48 -338c-1 -9 -2 -20 -2 -31c0 -52 39 -89 102 -89c68 0 115 45 123 104l16 109h-101l11 78h186l-26 -186c-7 -51 -30 -95 -68 -131c-37 -35 -86 -53 -146 -53c-55 0 -100 15 -133 46s-50 70 -50 115c0 9 1 21 3 37l47 338
c7 51 30 95 71 130c41 36 93 54 157 54c49 0 90 -16 122 -47s48 -69 48 -115l-2 -23h-84c1 3 1 8 1 14c0 52 -40 92 -96 92zM273 887h75c-1 -2 -1 -5 -1 -9c0 -27 17 -51 44 -51h16c35 0 56 28 60 60h75c-8 -76 -64 -127 -133 -127h-31c-60 0 -106 47 -106 108
c0 8 0 14 1 19z" />
    <glyph glyph-name="gbreve" unicode="&#x11f;" 
d="M331 510c67 0 135 -17 163 -30l22 -9l-71 -500c-7 -46 -30 -84 -69 -115s-86 -46 -141 -46c-87 0 -149 43 -149 115c0 42 24 76 71 102l62 30c-83 16 -120 76 -120 147c0 11 1 22 2 31l14 101c7 49 30 90 71 123c41 34 90 51 145 51zM195 330l-13 -92c0 -1 0 -6 -1 -16
s-1 -17 -1 -20c0 -51 44 -84 97 -84c28 0 54 10 79 29s40 41 43 66l29 206c-29 13 -64 19 -107 19c-33 0 -61 -11 -85 -32s-38 -47 -41 -76zM366 -23l15 110c-9 -11 -21 -20 -37 -28l-140 -73c-25 -13 -37 -32 -37 -57c0 -29 26 -51 73 -51c31 0 59 10 84 30s39 43 42 69z
M226 685h75c-1 -2 -1 -5 -1 -9c0 -27 17 -51 44 -51h16c35 0 56 28 60 60h75c-8 -76 -64 -127 -133 -127h-31c-60 0 -106 47 -106 108c0 8 0 14 1 19z" />
    <glyph glyph-name="Gdotaccent" unicode="&#x120;" 
d="M379 631c-71 0 -123 -44 -131 -104l-48 -338c-1 -9 -2 -20 -2 -31c0 -52 39 -89 102 -89c68 0 115 45 123 104l16 109h-101l11 78h186l-26 -186c-7 -51 -30 -95 -68 -131c-37 -35 -86 -53 -146 -53c-55 0 -100 15 -133 46s-50 70 -50 115c0 9 1 21 3 37l47 338
c7 51 30 95 71 130c41 36 93 54 157 54c49 0 90 -16 122 -47s48 -69 48 -115l-2 -23h-84c1 3 1 8 1 14c0 52 -40 92 -96 92zM444 782h-89l13 89h89z" />
    <glyph glyph-name="gdotaccent" unicode="&#x121;" 
d="M331 510c67 0 135 -17 163 -30l22 -9l-71 -500c-7 -46 -30 -84 -69 -115s-86 -46 -141 -46c-87 0 -149 43 -149 115c0 42 24 76 71 102l62 30c-83 16 -120 76 -120 147c0 11 1 22 2 31l14 101c7 49 30 90 71 123c41 34 90 51 145 51zM195 330l-13 -92c0 -1 0 -6 -1 -16
s-1 -17 -1 -20c0 -51 44 -84 97 -84c28 0 54 10 79 29s40 41 43 66l29 206c-29 13 -64 19 -107 19c-33 0 -61 -11 -85 -32s-38 -47 -41 -76zM366 -23l15 110c-9 -11 -21 -20 -37 -28l-140 -73c-25 -13 -37 -32 -37 -57c0 -29 26 -51 73 -51c31 0 59 10 84 30s39 43 42 69z
M398 582h-89l13 89h89z" />
    <glyph glyph-name="Gcommaaccent" unicode="&#x122;" 
d="M379 631c-71 0 -123 -44 -131 -104l-48 -338c-1 -9 -2 -20 -2 -31c0 -52 39 -89 102 -89c68 0 115 45 123 104l16 109h-101l11 78h186l-26 -186c-7 -51 -30 -95 -68 -131c-37 -35 -86 -53 -146 -53c-55 0 -100 15 -133 46s-50 70 -50 115c0 9 1 21 3 37l47 338
c7 51 30 95 71 130c41 36 93 54 157 54c49 0 90 -16 122 -47s48 -69 48 -115l-2 -23h-84c1 3 1 8 1 14c0 52 -40 92 -96 92zM240 -205h-67l86 151h101z" />
    <glyph glyph-name="gcommaaccent" unicode="&#x123;" 
d="M331 510c67 0 135 -17 163 -30l22 -9l-71 -500c-7 -46 -30 -84 -69 -115s-86 -46 -141 -46c-87 0 -149 43 -149 115c0 42 24 76 71 102l62 30c-83 16 -120 76 -120 147c0 11 1 22 2 31l14 101c7 49 30 90 71 123c41 34 90 51 145 51zM195 330l-13 -92c0 -1 0 -6 -1 -16
s-1 -17 -1 -20c0 -51 44 -84 97 -84c28 0 54 10 79 29s40 41 43 66l29 206c-29 13 -64 19 -107 19c-33 0 -61 -11 -85 -32s-38 -47 -41 -76zM366 -23l15 110c-9 -11 -21 -20 -37 -28l-140 -73c-25 -13 -37 -32 -37 -57c0 -29 26 -51 73 -51c31 0 59 10 84 30s39 43 42 69z
M397 700h67l-86 -151h-101z" />
    <glyph glyph-name="Hcircumflex" unicode="&#x124;" 
d="M439 408l41 292h85l-98 -700h-85l46 330h-216l-46 -330h-84l98 700h84l-41 -292h216zM442 894l85 -147h-72l-60 80l-85 -80h-73l129 147h76z" />
    <glyph glyph-name="hcircumflex" unicode="&#x125;" 
d="M522 327l-47 -327h-79l46 330c1 5 1 11 1 18c0 53 -37 90 -97 90c-32 0 -62 -11 -90 -33c-28 -21 -44 -45 -47 -70l-47 -335h-80l99 700h79l-34 -244l17 15c8 6 24 14 48 24c25 10 50 15 75 15c99 0 158 -63 158 -154c0 -7 -1 -17 -2 -29zM428 894l85 -147h-72l-60 80
l-85 -80h-73l129 147h76z" />
    <glyph glyph-name="Hbar" unicode="&#x126;" 
d="M463 582l17 118h85l-17 -118h53l-10 -71h-53l-71 -511h-85l46 330h-216l-46 -330h-84l71 511h-53l10 71h53l17 118h84l-17 -118h216zM237 511l-14 -103h216l14 103h-216z" />
    <glyph glyph-name="hbar" unicode="&#x127;" 
d="M161 560h-62l10 73h62l10 67h79l-10 -67h126l-10 -73h-126l-15 -114l17 15c8 6 24 14 48 24c25 10 50 15 75 15c99 0 158 -60 158 -151c0 -9 -1 -20 -2 -32l-46 -317h-79l45 320c1 5 1 12 1 21c0 53 -36 87 -97 87c-32 0 -62 -11 -90 -33c-28 -21 -44 -45 -47 -70
l-46 -325h-80z" />
    <glyph glyph-name="Itilde" unicode="&#x128;" 
d="M297 763h-70c5 63 48 107 108 107c17 0 39 -7 64 -22s41 -22 47 -22c21 0 33 13 36 38h71c-4 -59 -46 -107 -106 -107c-19 0 -41 7 -66 22s-41 22 -48 22c-19 0 -31 -13 -36 -38zM320 622h-151l11 78h386l-11 -78h-151l-76 -544h151l-11 -78h-386l11 78h151z" />
    <glyph glyph-name="itilde" unicode="&#x129;" 
d="M288 563h-70c5 63 48 107 108 107c17 0 39 -7 64 -22s41 -22 47 -22c21 0 33 13 36 38h71c-4 -59 -46 -107 -106 -107c-19 0 -41 7 -66 22s-41 22 -48 22c-19 0 -31 -13 -36 -38zM318 428h-170l10 72h250l-60 -428h153l-10 -72h-403l10 72h170z" />
    <glyph glyph-name="Imacron" unicode="&#x12a;" 
d="M320 622h-151l11 78h386l-11 -78h-151l-76 -544h151l-11 -78h-386l11 78h151zM535 782h-302l10 74h302z" />
    <glyph glyph-name="imacron" unicode="&#x12b;" 
d="M318 428h-170l10 72h250l-60 -428h153l-10 -72h-403l10 72h170zM530 582h-302l10 74h302z" />
    <glyph glyph-name="Ibreve" unicode="&#x12c;" 
d="M320 622h-151l11 78h386l-11 -78h-151l-76 -544h151l-11 -78h-386l11 78h151zM257 885h75c-1 -2 -1 -5 -1 -9c0 -27 17 -51 44 -51h16c35 0 56 28 60 60h75c-8 -76 -64 -127 -133 -127h-31c-60 0 -106 47 -106 108c0 8 0 14 1 19z" />
    <glyph glyph-name="ibreve" unicode="&#x12d;" 
d="M318 428h-170l10 72h250l-60 -428h153l-10 -72h-403l10 72h170zM248 685h75c-1 -2 -1 -5 -1 -9c0 -27 17 -51 44 -51h16c35 0 56 28 60 60h75c-8 -76 -64 -127 -133 -127h-31c-60 0 -106 47 -106 108c0 8 0 14 1 19z" />
    <glyph glyph-name="Iogonek" unicode="&#x12e;" 
d="M320 622h-151l11 78h386l-11 -78h-151l-76 -544h151l-11 -78c-7 -5 -15 -11 -24 -19s-22 -21 -38 -38s-24 -31 -24 -41c0 -13 8 -20 24 -20h60l-11 -62h-58c-53 0 -85 24 -85 68c0 19 8 38 23 57c16 19 32 32 47 41l24 14h-324l11 78h151z" />
    <glyph glyph-name="iogonek" unicode="&#x12f;" 
d="M318 428h-170l10 72h250l-60 -428h153l-10 -72c-7 -5 -15 -11 -24 -19s-22 -21 -38 -38s-24 -31 -24 -41c0 -13 8 -20 24 -20h60l-11 -62h-58c-53 0 -85 24 -85 68c0 19 8 38 23 57c16 19 32 32 48 41l23 14h-341l10 72h170zM422 583h-92l13 89h92z" />
    <glyph glyph-name="Idot" unicode="&#x130;" 
d="M320 622h-151l11 78h386l-11 -78h-151l-76 -544h151l-11 -78h-386l11 78h151zM430 782h-89l13 89h89z" />
    <glyph glyph-name="dotlessi" unicode="&#x131;" 
d="M318 428h-170l10 72h250l-60 -428h153l-10 -72h-403l10 72h170z" />
    <glyph glyph-name="IJ" unicode="&#x132;" 
d="M151 622h-63l11 78h211l-11 -78h-64l-76 -544h64l-11 -78h-211l11 78h63zM422 700h178l-80 -569c-12 -81 -71 -141 -156 -141c-75 0 -127 52 -127 121c0 5 1 19 1 20l12 87h83l-11 -87c0 -1 -1 -10 -1 -14c0 -27 18 -48 49 -48c35 0 61 25 65 57l70 496h-93z" />
    <glyph glyph-name="ij" unicode="&#x133;" 
d="M178 428h-80l10 72h160l-60 -428h83l-10 -72h-243l10 72h80zM180 -73l2 25h75c-1 -7 -1 -11 -1 -14c0 -35 20 -56 57 -56c44 0 74 30 79 70l67 476h-79l10 72h161l-76 -543c-12 -89 -76 -147 -168 -147c-79 0 -127 48 -127 117zM283 583h-92l12 89h92zM562 583h-92l12 89
h92z" />
    <glyph glyph-name="Jcircumflex" unicode="&#x134;" 
d="M103 227h82c-5 -33 -8 -57 -8 -73c0 -48 38 -86 94 -86c64 0 115 46 123 105l63 449h-258l10 78h344l-74 -526c-7 -53 -30 -97 -69 -132s-86 -52 -142 -52c-53 0 -95 15 -127 44c-31 29 -47 67 -47 112c0 13 3 40 9 81zM444 894l85 -147h-72l-60 80l-85 -80h-73l129 147
h76z" />
    <glyph glyph-name="jcircumflex" unicode="&#x135;" 
d="M338 -23l17 116c-12 -11 -29 -23 -50 -34l-130 -68c-25 -13 -43 -38 -43 -58c0 -31 30 -52 78 -52c30 0 58 10 84 29s41 42 44 67zM239 500h251l-73 -529c-6 -45 -29 -83 -70 -114c-40 -31 -88 -47 -143 -47c-43 0 -80 10 -110 31c-29 20 -44 47 -44 82
c0 55 30 98 91 130l172 91c23 12 42 27 49 34l5 6l34 244h-172zM485 694l85 -147h-72l-60 80l-85 -80h-73l129 147h76z" />
    <glyph glyph-name="Kcommaaccent" unicode="&#x136;" 
d="M189 700h83l-46 -324l270 324h97l-275 -330l187 -370h-94l-186 367l-51 -367h-83zM216 -205h-67l86 151h101z" />
    <glyph glyph-name="kcommaaccent" unicode="&#x137;" 
d="M513 0h-102l-188 258l-36 -258h-80l98 700h80l-61 -431l246 231h102l-260 -237zM226 -205h-67l86 151h101z" />
    <glyph glyph-name="kgreenlandic" unicode="&#x138;" 
d="M513 0h-102l-188 258l-36 -258h-80l70 500h80l-33 -231l246 231h102l-260 -237z" />
    <glyph glyph-name="Lacute" unicode="&#x139;" 
d="M130 0l98 700h85l-87 -621h270l-11 -79h-355zM539 895l-173 -148h-86l142 148h117z" />
    <glyph glyph-name="lacute" unicode="&#x13a;" 
d="M335 628h-126l10 72h206l-88 -628h160l-10 -72h-394l10 72h154zM578 895l-173 -148h-86l142 148h117z" />
    <glyph glyph-name="Lcommaaccent" unicode="&#x13b;" 
d="M130 0l98 700h85l-87 -621h270l-11 -79h-355zM273 -205h-67l86 151h101z" />
    <glyph glyph-name="lcommaaccent" unicode="&#x13c;" 
d="M335 628h-126l10 72h206l-88 -628h160l-10 -72h-394l10 72h154zM214 -205h-67l86 151h101z" />
    <glyph glyph-name="Lcaron" unicode="&#x13d;" 
d="M130 0l98 700h85l-87 -621h270l-11 -79h-355zM482 549h-67l86 151h101z" />
    <glyph glyph-name="lcaron" unicode="&#x13e;" 
d="M335 628h-126l10 72h206l-88 -628h160l-10 -72h-394l10 72h154zM549 549h-67l86 151h101z" />
    <glyph glyph-name="Ldot" unicode="&#x13f;" 
d="M130 0l98 700h85l-87 -621h270l-11 -79h-355zM508 235h-98l14 98h98z" />
    <glyph glyph-name="ldot" unicode="&#x140;" 
d="M335 628h-126l10 72h206l-88 -628h160l-10 -72h-394l10 72h154zM603 242h-98l14 98h98z" />
    <glyph glyph-name="Lslash" unicode="&#x141;" 
d="M290 396l159 83l-15 -91l-158 -83l-31 -226h262l-11 -79h-347l36 258l-65 -33l13 90l65 33l49 352h85z" />
    <glyph glyph-name="lslash" unicode="&#x142;" 
d="M286 306l-63 -32l12 85l63 32l33 237h-127l10 72h207l-37 -265l94 50l-12 -84l-94 -50l-39 -279h160l-10 -72h-394l10 72h154z" />
    <glyph glyph-name="Nacute" unicode="&#x143;" 
d="M417 244l64 456h84l-98 -700h-94l-122 488l-11 79h-6l-5 -114l-63 -453h-84l98 700h94l122 -491l12 -76h6zM555 895l-173 -148h-86l142 148h117z" />
    <glyph glyph-name="nacute" unicode="&#x144;" 
d="M524 361l-3 -37l-45 -324h-81l47 330c1 5 1 12 1 19c0 52 -33 89 -96 89c-32 0 -62 -11 -91 -33c-28 -21 -44 -45 -47 -70l-48 -335h-80l70 500h78l-7 -45c43 37 91 55 143 55c101 0 159 -62 159 -149zM555 695l-173 -148h-86l142 148h117z" />
    <glyph glyph-name="Ncommaaccent" unicode="&#x145;" 
d="M417 244l64 456h84l-98 -700h-94l-122 488l-11 79h-6l-5 -114l-63 -453h-84l98 700h94l122 -491l12 -76h6zM229 -203h-67l86 151h101z" />
    <glyph glyph-name="ncommaaccent" unicode="&#x146;" 
d="M524 361l-3 -37l-45 -324h-81l47 330c1 5 1 12 1 19c0 52 -33 89 -96 89c-32 0 -62 -11 -91 -33c-28 -21 -44 -45 -47 -70l-48 -335h-80l70 500h78l-7 -45c43 37 91 55 143 55c101 0 159 -62 159 -149zM222 -205h-67l86 151h101z" />
    <glyph glyph-name="Ncaron" unicode="&#x147;" 
d="M417 244l64 456h84l-98 -700h-94l-122 488l-11 79h-6l-5 -114l-63 -453h-84l98 700h94l122 -491l12 -76h6zM335 747l-85 147h72l60 -80l85 80h73l-129 -147h-76z" />
    <glyph glyph-name="ncaron" unicode="&#x148;" 
d="M524 361l-3 -37l-45 -324h-81l47 330c1 5 1 12 1 19c0 52 -33 89 -96 89c-32 0 -62 -11 -91 -33c-28 -21 -44 -45 -47 -70l-48 -335h-80l70 500h78l-7 -45c43 37 91 55 143 55c101 0 159 -62 159 -149zM316 547l-85 147h72l60 -80l85 80h73l-129 -147h-76z" />
    <glyph glyph-name="napostrophe" unicode="&#x149;" 
d="M535 361l-3 -37l-45 -324h-81l47 330c1 5 1 12 1 19c0 52 -33 89 -96 89c-32 0 -62 -11 -91 -33c-28 -21 -44 -45 -47 -70l-48 -335h-80l70 500h78l-7 -45c43 37 91 55 143 55c101 0 159 -62 159 -149zM124 549h-67l86 151h101z" />
    <glyph glyph-name="Eng" unicode="&#x14a;" 
d="M378 -43l5 36l-131 495l-12 79h-6l-4 -116l-64 -451h-84l99 700h95l124 -469l11 -76h6l4 111l61 434h84l-105 -745c-5 -41 -25 -76 -58 -103s-72 -41 -118 -41h-15l8 76h15c44 0 78 30 85 70z" />
    <glyph glyph-name="eng" unicode="&#x14b;" 
d="M396 0l46 330c1 5 1 12 1 19c0 52 -33 89 -96 89c-32 0 -62 -11 -91 -33c-28 -21 -44 -45 -47 -70l-48 -335h-80l71 500h76l-4 -45c43 37 90 55 141 55c101 0 159 -62 159 -149l-3 -37l-46 -326c-5 -40 -26 -74 -61 -102s-73 -42 -114 -42h-17l10 76h18c43 0 80 31 85 70
z" />
    <glyph glyph-name="Omacron" unicode="&#x14c;" 
d="M547 525l-49 -351c-7 -50 -30 -93 -69 -130c-39 -36 -89 -54 -151 -54c-55 0 -99 15 -131 46c-31 31 -47 69 -47 113c0 11 1 22 3 32l48 345c7 50 30 93 69 129c39 37 90 55 153 55c55 0 98 -16 129 -47s47 -68 47 -112c0 -7 -1 -15 -2 -26zM413 173l50 354
c0 1 1 12 1 16c0 49 -36 88 -99 88c-72 0 -121 -48 -129 -104l-50 -353v-6c-1 -5 -1 -9 -1 -12c0 -48 37 -87 101 -87c69 0 119 48 127 104zM537 782h-302l10 74h302z" />
    <glyph glyph-name="omacron" unicode="&#x14d;" 
d="M528 352l-2 -27l-22 -151c-8 -53 -31 -97 -70 -132c-38 -35 -88 -52 -150 -52c-54 0 -97 15 -130 44c-32 30 -48 67 -48 111l2 30l21 151c7 52 31 96 70 131s90 53 152 53c53 0 95 -15 128 -45s49 -68 49 -113zM422 169l22 162c1 5 1 11 1 16c0 52 -38 92 -102 92
c-71 0 -125 -48 -133 -108l-22 -161c-1 -7 -1 -12 -1 -17c0 -52 40 -92 105 -92c71 0 122 48 130 108zM502 582h-302l10 74h302z" />
    <glyph glyph-name="Obreve" unicode="&#x14e;" 
d="M547 525l-49 -351c-7 -50 -30 -93 -69 -130c-39 -36 -89 -54 -151 -54c-55 0 -99 15 -131 46c-31 31 -47 69 -47 113c0 11 1 22 3 32l48 345c7 50 30 93 69 129c39 37 90 55 153 55c55 0 98 -16 129 -47s47 -68 47 -112c0 -7 -1 -15 -2 -26zM413 173l50 354
c0 1 1 12 1 16c0 49 -36 88 -99 88c-72 0 -121 -48 -129 -104l-50 -353v-6c-1 -5 -1 -9 -1 -12c0 -48 37 -87 101 -87c69 0 119 48 127 104zM260 885h75c-1 -2 -1 -5 -1 -9c0 -27 17 -51 44 -51h16c35 0 56 28 60 60h75c-8 -76 -64 -127 -133 -127h-31
c-60 0 -106 47 -106 108c0 8 0 14 1 19z" />
    <glyph glyph-name="obreve" unicode="&#x14f;" 
d="M528 352l-2 -27l-22 -151c-8 -53 -31 -97 -70 -132c-38 -35 -88 -52 -150 -52c-54 0 -97 15 -130 44c-32 30 -48 67 -48 111l2 30l21 151c7 52 31 96 70 131s90 53 152 53c53 0 95 -15 128 -45s49 -68 49 -113zM422 169l22 162c1 5 1 11 1 16c0 52 -38 92 -102 92
c-71 0 -125 -48 -133 -108l-22 -161c-1 -7 -1 -12 -1 -17c0 -52 40 -92 105 -92c71 0 122 48 130 108zM227 685h75c-1 -2 -1 -5 -1 -9c0 -27 17 -51 44 -51h16c35 0 56 28 60 60h75c-8 -76 -64 -127 -133 -127h-31c-60 0 -106 47 -106 108c0 8 0 14 1 19z" />
    <glyph glyph-name="Ohungarumlaut" unicode="&#x150;" 
d="M547 525l-49 -351c-7 -50 -30 -93 -69 -130c-39 -36 -89 -54 -151 -54c-55 0 -99 15 -131 46c-31 31 -47 69 -47 113c0 11 1 22 3 32l48 345c7 50 30 93 69 129c39 37 90 55 153 55c55 0 98 -16 129 -47s47 -68 47 -112c0 -7 -1 -15 -2 -26zM413 173l50 354
c0 1 1 12 1 16c0 49 -36 88 -99 88c-72 0 -121 -48 -129 -104l-50 -353v-6c-1 -5 -1 -9 -1 -12c0 -48 37 -87 101 -87c69 0 119 48 127 104zM484 889l-157 -140h-83l127 140h113zM652 889l-157 -140h-83l127 140h113z" />
    <glyph glyph-name="ohungarumlaut" unicode="&#x151;" 
d="M528 352l-2 -27l-22 -151c-8 -53 -31 -97 -70 -132c-38 -35 -88 -52 -150 -52c-54 0 -97 15 -130 44c-32 30 -48 67 -48 111l2 30l21 151c7 52 31 96 70 131s90 53 152 53c53 0 95 -15 128 -45s49 -68 49 -113zM422 169l22 162c1 5 1 11 1 16c0 52 -38 92 -102 92
c-71 0 -125 -48 -133 -108l-22 -161c-1 -7 -1 -12 -1 -17c0 -52 40 -92 105 -92c71 0 122 48 130 108zM452 695l-157 -140h-83l127 140h113zM620 695l-157 -140h-83l127 140h113z" />
    <glyph glyph-name="OE" unicode="&#x152;" 
d="M200 513l-44 -311c-2 -13 -3 -24 -3 -32c0 -53 34 -91 91 -91h28l76 542h-28c-64 0 -112 -47 -120 -108zM517 79l-11 -79h-276c-49 0 -89 15 -119 45c-29 30 -44 67 -44 112c0 8 1 18 2 30l46 327c7 53 30 97 69 132c39 36 87 54 144 54h268l-11 -79h-151l-30 -213h128
l-11 -78h-128l-35 -251h159z" />
    <glyph glyph-name="oe" unicode="&#x153;" 
d="M512 79l11 6l-9 -75c-25 -13 -58 -20 -100 -20c-53 0 -92 19 -115 56c-37 -37 -80 -56 -128 -56c-79 0 -137 60 -137 149c0 14 1 28 2 43l17 144c6 55 25 99 58 133s74 51 123 51s86 -19 109 -56c31 37 74 56 130 56c73 0 125 -54 125 -133c0 -80 -42 -134 -109 -161
l-142 -57c-1 -14 -2 -24 -2 -29c0 -44 32 -69 76 -69c39 0 76 10 91 18zM268 135l26 215c1 6 1 14 1 24c0 37 -32 65 -68 65c-55 0 -91 -43 -98 -110l-19 -160v-5c0 -7 -1 -16 -1 -20c0 -55 28 -85 71 -85s83 29 88 76zM367 342l-13 -108l119 49c35 15 53 43 53 85
c0 41 -24 71 -63 71c-49 0 -91 -40 -96 -97z" />
    <glyph glyph-name="Racute" unicode="&#x154;" 
d="M407 269l77 -269h-91l-71 255h-93l-36 -255h-84l98 700h191c40 0 73 -13 100 -38s40 -57 40 -94c0 -7 -1 -15 -2 -24l-18 -133c-9 -67 -50 -122 -111 -142zM432 408l19 131c0 1 2 17 2 20c0 36 -29 62 -69 62h-104l-40 -288h104c43 0 81 34 88 75zM551 893l-173 -148h-86
l142 148h117z" />
    <glyph glyph-name="racute" unicode="&#x155;" 
d="M424 510c91 0 133 -63 133 -135c0 -8 0 -14 -1 -18h-81c1 5 1 9 1 12c0 39 -27 69 -67 69c-27 0 -53 -11 -78 -33c-25 -21 -39 -45 -42 -72l-37 -261h209l-10 -72h-394l10 72h105l60 428h75l-4 -47c33 38 74 57 121 57zM547 695l-173 -148h-86l142 148h117z" />
    <glyph glyph-name="Rcommaaccent" unicode="&#x156;" 
d="M407 269l77 -269h-91l-71 255h-93l-36 -255h-84l98 700h191c40 0 73 -13 100 -38s40 -57 40 -94c0 -7 -1 -15 -2 -24l-18 -133c-9 -67 -50 -122 -111 -142zM432 408l19 131c0 1 2 17 2 20c0 36 -29 62 -69 62h-104l-40 -288h104c43 0 81 34 88 75zM214 -205h-67l86 151
h101z" />
    <glyph glyph-name="rcommaaccent" unicode="&#x157;" 
d="M424 510c91 0 133 -63 133 -135c0 -8 0 -14 -1 -18h-81c1 5 1 9 1 12c0 39 -27 69 -67 69c-27 0 -53 -11 -78 -33c-25 -21 -39 -45 -42 -72l-37 -261h209l-10 -72h-394l10 72h105l60 428h75l-4 -47c33 38 74 57 121 57zM153 -205h-67l86 151h101z" />
    <glyph glyph-name="Rcaron" unicode="&#x158;" 
d="M407 269l77 -269h-91l-71 255h-93l-36 -255h-84l98 700h191c40 0 73 -13 100 -38s40 -57 40 -94c0 -7 -1 -15 -2 -24l-18 -133c-9 -67 -50 -122 -111 -142zM432 408l19 131c0 1 2 17 2 20c0 36 -29 62 -69 62h-104l-40 -288h104c43 0 81 34 88 75zM332 747l-85 147h72
l60 -80l85 80h73l-129 -147h-76z" />
    <glyph glyph-name="rcaron" unicode="&#x159;" 
d="M424 510c91 0 133 -63 133 -135c0 -8 0 -14 -1 -18h-81c1 5 1 9 1 12c0 39 -27 69 -67 69c-27 0 -53 -11 -78 -33c-25 -21 -39 -45 -42 -72l-37 -261h209l-10 -72h-394l10 72h105l60 428h75l-4 -47c33 38 74 57 121 57zM357 547l-85 147h72l60 -80l85 80h73l-129 -147
h-76z" />
    <glyph glyph-name="Sacute" unicode="&#x15a;" 
d="M280 -10c-113 0 -181 68 -181 161l5 50h85c-3 -21 -5 -33 -5 -38c0 -55 36 -94 101 -94c76 0 126 54 126 118c0 56 -39 98 -90 126c-72 41 -163 86 -163 195c0 57 20 104 61 143s92 59 151 59c55 0 98 -16 127 -49c29 -32 44 -69 44 -111l-2 -26h-83c1 4 1 9 1 16
c0 44 -36 89 -93 89c-32 0 -60 -11 -84 -33c-23 -21 -35 -47 -35 -78c0 -45 41 -80 90 -108c73 -38 167 -93 166 -211c0 -32 -7 -63 -22 -94c-29 -61 -103 -115 -199 -115zM549 895l-173 -148h-86l142 148h117z" />
    <glyph glyph-name="sacute" unicode="&#x15b;" 
d="M292 -10c-107 0 -170 59 -170 146l2 22h77c-1 -7 -1 -13 -1 -17c0 -51 36 -79 92 -79c57 0 103 31 103 79c0 94 -224 73 -224 216c0 47 18 84 54 111c36 28 79 42 128 42c53 0 92 -14 119 -43s40 -59 40 -92l-1 -18h-83c1 5 1 9 1 12c0 40 -37 69 -85 69
c-44 0 -88 -27 -88 -68c0 -86 224 -63 224 -217c0 -47 -18 -86 -55 -117c-36 -31 -80 -46 -133 -46zM527 695l-173 -148h-86l142 148h117z" />
    <glyph glyph-name="Scircumflex" unicode="&#x15c;" 
d="M280 -10c-113 0 -181 68 -181 161l5 50h85c-3 -21 -5 -33 -5 -38c0 -55 36 -94 101 -94c76 0 126 54 126 118c0 56 -39 98 -90 126c-72 41 -163 86 -163 195c0 57 20 104 61 143s92 59 151 59c55 0 98 -16 127 -49c29 -32 44 -69 44 -111l-2 -26h-83c1 4 1 9 1 16
c0 44 -36 89 -93 89c-32 0 -60 -11 -84 -33c-23 -21 -35 -47 -35 -78c0 -45 41 -80 90 -108c73 -38 167 -93 166 -211c0 -32 -7 -63 -22 -94c-29 -61 -103 -115 -199 -115zM442 894l85 -147h-72l-60 80l-85 -80h-73l129 147h76z" />
    <glyph glyph-name="scircumflex" unicode="&#x15d;" 
d="M292 -10c-107 0 -170 59 -170 146l2 22h77c-1 -7 -1 -13 -1 -17c0 -51 36 -79 92 -79c57 0 103 31 103 79c0 94 -224 73 -224 216c0 47 18 84 54 111c36 28 79 42 128 42c53 0 92 -14 119 -43s40 -59 40 -92l-1 -18h-83c1 5 1 9 1 12c0 40 -37 69 -85 69
c-44 0 -88 -27 -88 -68c0 -86 224 -63 224 -217c0 -47 -18 -86 -55 -117c-36 -31 -80 -46 -133 -46zM421 694l85 -147h-72l-60 80l-85 -80h-73l129 147h76z" />
    <glyph glyph-name="Scedilla" unicode="&#x15e;" 
d="M262 -180h-58l9 52h52c19 0 30 12 30 27c0 13 -8 20 -24 20h-44l13 74c-89 13 -141 77 -141 158l5 50h85c-3 -21 -5 -33 -5 -38c0 -55 36 -94 101 -94c76 0 126 54 126 118c0 56 -39 98 -90 126c-72 41 -163 86 -163 195c0 57 20 104 61 143s92 59 151 59
c55 0 98 -16 127 -49c29 -32 44 -69 44 -111l-2 -26h-83c1 4 1 9 1 16c0 44 -36 89 -93 89c-32 0 -60 -11 -84 -33c-23 -21 -35 -47 -35 -78c0 -45 41 -80 90 -108c73 -38 167 -93 166 -211c0 -49 -18 -96 -54 -139c-35 -43 -86 -66 -152 -69l-2 -19c40 0 70 -30 70 -71
c0 -45 -41 -81 -101 -81z" />
    <glyph glyph-name="scedilla" unicode="&#x15f;" 
d="M271 -180h-58l9 52h52c19 0 30 12 30 27c0 13 -8 20 -24 20h-44l13 75c-80 13 -127 67 -127 142l2 22h77c-1 -7 -1 -13 -1 -17c0 -51 36 -79 92 -79c57 0 103 31 103 79c0 94 -224 73 -224 216c0 47 18 84 54 111c36 28 79 42 128 42c53 0 92 -14 119 -43s40 -59 40 -92
l-1 -18h-83c1 5 1 9 1 12c0 40 -37 69 -85 69c-44 0 -88 -27 -88 -68c0 -86 224 -63 224 -217c0 -45 -17 -83 -51 -113c-33 -30 -75 -46 -125 -49l-2 -19c40 0 70 -30 70 -71c0 -45 -41 -81 -101 -81z" />
    <glyph glyph-name="Scaron" unicode="&#x160;" 
d="M280 -10c-113 0 -181 68 -181 161l5 50h85c-3 -21 -5 -33 -5 -38c0 -55 36 -94 101 -94c76 0 126 54 126 118c0 56 -39 98 -90 126c-72 41 -163 86 -163 195c0 57 20 104 61 143s92 59 151 59c55 0 98 -16 127 -49c29 -32 44 -69 44 -111l-2 -26h-83c1 4 1 9 1 16
c0 44 -36 89 -93 89c-32 0 -60 -11 -84 -33c-23 -21 -35 -47 -35 -78c0 -45 41 -80 90 -108c73 -38 167 -93 166 -211c0 -32 -7 -63 -22 -94c-29 -61 -103 -115 -199 -115zM333 747l-85 147h72l60 -80l85 80h73l-129 -147h-76z" />
    <glyph glyph-name="scaron" unicode="&#x161;" 
d="M292 -10c-107 0 -170 59 -170 146l2 22h77c-1 -7 -1 -13 -1 -17c0 -51 36 -79 92 -79c57 0 103 31 103 79c0 94 -224 73 -224 216c0 47 18 84 54 111c36 28 79 42 128 42c53 0 92 -14 119 -43s40 -59 40 -92l-1 -18h-83c1 5 1 9 1 12c0 40 -37 69 -85 69
c-44 0 -88 -27 -88 -68c0 -86 224 -63 224 -217c0 -47 -18 -86 -55 -117c-36 -31 -80 -46 -133 -46zM313 547l-85 147h72l60 -80l85 80h73l-129 -147h-76z" />
    <glyph glyph-name="Tcommaaccent" unicode="&#x162;" 
d="M321 621h-150l11 79h384l-11 -79h-151l-87 -621h-83zM211 -205h-67l86 151h101z" />
    <glyph glyph-name="tcommaaccent" unicode="&#x163;" 
d="M169 171l36 257h-92l10 72h92l19 128h81l-19 -128h254l-10 -72h-254l-35 -247c-3 -13 -4 -28 -4 -45c0 -49 29 -74 87 -74c63 0 100 40 108 95h82c-13 -99 -88 -168 -199 -168c-104 0 -160 55 -160 136c0 7 1 22 4 46zM235 -205h-67l86 151h101z" />
    <glyph glyph-name="Tcaron" unicode="&#x164;" 
d="M321 621h-150l11 79h384l-11 -79h-151l-87 -621h-83zM338 747l-85 147h72l60 -80l85 80h73l-129 -147h-76z" />
    <glyph glyph-name="tcaron" unicode="&#x165;" 
d="M169 171l36 257h-92l10 72h92l19 128h81l-19 -128h254l-10 -72h-254l-35 -247c-3 -13 -4 -28 -4 -45c0 -49 29 -74 87 -74c63 0 100 40 108 95h82c-13 -99 -88 -168 -199 -168c-104 0 -160 55 -160 136c0 7 1 22 4 46zM556 549h-67l86 151h101z" />
    <glyph glyph-name="Tbar" unicode="&#x166;" 
d="M321 621h-150l11 79h384l-11 -79h-151l-30 -215h110l-10 -74h-111l-46 -332h-83l46 332h-108l10 74h109z" />
    <glyph glyph-name="tbar" unicode="&#x167;" 
d="M179 243h-85l10 72h85l16 113h-92l10 72h92l19 128h81l-19 -128h254l-10 -72h-254l-16 -113h134l-10 -72h-134l-9 -62c-3 -13 -4 -28 -4 -45c0 -49 29 -74 87 -74c63 0 100 40 108 95h82c-13 -99 -88 -168 -199 -168c-104 0 -160 55 -160 136c0 7 1 22 4 46z" />
    <glyph glyph-name="Utilde" unicode="&#x168;" 
d="M486 700h84l-74 -526c-7 -53 -30 -97 -67 -132s-86 -52 -149 -52c-55 0 -98 15 -131 45s-49 67 -49 110c0 8 1 18 2 30l74 525h84l-74 -526v-8c-1 -5 -1 -11 -1 -16c0 -43 36 -81 100 -81c77 0 120 43 129 110zM295 763h-70c5 63 48 107 108 107c17 0 39 -7 64 -22
s41 -22 47 -22c21 0 33 13 36 38h71c-4 -59 -46 -107 -106 -107c-19 0 -41 7 -66 22s-41 22 -48 22c-19 0 -31 -13 -36 -38z" />
    <glyph glyph-name="utilde" unicode="&#x169;" 
d="M105 139l3 37l45 324h81l-47 -330c-1 -5 -1 -12 -1 -19c0 -52 33 -89 96 -89c32 0 62 11 90 32c29 22 45 46 48 71l48 335h80l-70 -500h-77l6 45c-43 -37 -91 -55 -143 -55c-101 0 -159 62 -159 149zM275 563h-70c5 63 48 107 108 107c17 0 39 -7 64 -22s41 -22 47 -22
c21 0 33 13 36 38h71c-4 -59 -46 -107 -106 -107c-19 0 -41 7 -66 22s-41 22 -48 22c-19 0 -31 -13 -36 -38z" />
    <glyph glyph-name="Umacron" unicode="&#x16a;" 
d="M486 700h84l-74 -526c-7 -53 -30 -97 -67 -132s-86 -52 -149 -52c-55 0 -98 15 -131 45s-49 67 -49 110c0 8 1 18 2 30l74 525h84l-74 -526v-8c-1 -5 -1 -11 -1 -16c0 -43 36 -81 100 -81c77 0 120 43 129 110zM535 782h-302l10 74h302z" />
    <glyph glyph-name="umacron" unicode="&#x16b;" 
d="M105 139l3 37l45 324h81l-47 -330c-1 -5 -1 -12 -1 -19c0 -52 33 -89 96 -89c32 0 62 11 90 32c29 22 45 46 48 71l48 335h80l-70 -500h-77l6 45c-43 -37 -91 -55 -143 -55c-101 0 -159 62 -159 149zM511 582h-302l10 74h302z" />
    <glyph glyph-name="Ubreve" unicode="&#x16c;" 
d="M486 700h84l-74 -526c-7 -53 -30 -97 -67 -132s-86 -52 -149 -52c-55 0 -98 15 -131 45s-49 67 -49 110c0 8 1 18 2 30l74 525h84l-74 -526v-8c-1 -5 -1 -11 -1 -16c0 -43 36 -81 100 -81c77 0 120 43 129 110zM256 885h75c-1 -2 -1 -5 -1 -9c0 -27 17 -51 44 -51h16
c35 0 56 28 60 60h75c-8 -76 -64 -127 -133 -127h-31c-60 0 -106 47 -106 108c0 8 0 14 1 19z" />
    <glyph glyph-name="ubreve" unicode="&#x16d;" 
d="M105 139l3 37l45 324h81l-47 -330c-1 -5 -1 -12 -1 -19c0 -52 33 -89 96 -89c32 0 62 11 90 32c29 22 45 46 48 71l48 335h80l-70 -500h-77l6 45c-43 -37 -91 -55 -143 -55c-101 0 -159 62 -159 149zM235 685h75c-1 -2 -1 -5 -1 -9c0 -27 17 -51 44 -51h16
c35 0 56 28 60 60h75c-8 -76 -64 -127 -133 -127h-31c-60 0 -106 47 -106 108c0 8 0 14 1 19z" />
    <glyph glyph-name="Uring" unicode="&#x16e;" 
d="M486 700h84l-74 -526c-7 -53 -30 -97 -67 -132s-86 -52 -149 -52c-55 0 -98 15 -131 45s-49 67 -49 110c0 8 1 18 2 30l74 525h84l-74 -526v-8c-1 -5 -1 -11 -1 -16c0 -43 36 -81 100 -81c77 0 120 43 129 110zM392 846c-17 0 -33 -14 -33 -34c0 -17 8 -25 25 -25
c19 0 34 16 34 33c0 15 -10 26 -26 26zM300 802c0 25 10 48 29 68s43 30 71 30c43 0 76 -33 76 -74c0 -26 -10 -49 -30 -68s-43 -28 -70 -28c-43 0 -76 31 -76 72z" />
    <glyph glyph-name="uring" unicode="&#x16f;" 
d="M105 139l3 37l45 324h81l-47 -330c-1 -5 -1 -12 -1 -19c0 -52 33 -89 96 -89c32 0 62 11 90 32c29 22 45 46 48 71l48 335h80l-70 -500h-77l6 45c-43 -37 -91 -55 -143 -55c-101 0 -159 62 -159 149zM367 646c-17 0 -33 -14 -33 -34c0 -17 8 -25 25 -25c19 0 34 16 34 33
c0 15 -10 26 -26 26zM275 602c0 25 10 48 29 68s43 30 71 30c43 0 76 -33 76 -74c0 -26 -10 -49 -30 -68s-43 -28 -70 -28c-43 0 -76 31 -76 72z" />
    <glyph glyph-name="Uhungarumlaut" unicode="&#x170;" 
d="M486 700h84l-74 -526c-7 -53 -30 -97 -67 -132s-86 -52 -149 -52c-55 0 -98 15 -131 45s-49 67 -49 110c0 8 1 18 2 30l74 525h84l-74 -526v-8c-1 -5 -1 -11 -1 -16c0 -43 36 -81 100 -81c77 0 120 43 129 110zM484 895l-157 -140h-83l127 140h113zM652 895l-157 -140
h-83l127 140h113z" />
    <glyph glyph-name="uhungarumlaut" unicode="&#x171;" 
d="M105 139l3 37l45 324h81l-47 -330c-1 -5 -1 -12 -1 -19c0 -52 33 -89 96 -89c32 0 62 11 90 32c29 22 45 46 48 71l48 335h80l-70 -500h-77l6 45c-43 -37 -91 -55 -143 -55c-101 0 -159 62 -159 149zM458 695l-157 -140h-83l127 140h113zM626 695l-157 -140h-83l127 140
h113z" />
    <glyph glyph-name="Uogonek" unicode="&#x172;" 
d="M486 700h84l-74 -526c-11 -75 -48 -129 -112 -163c-18 -9 -38 -26 -59 -50s-31 -44 -31 -59c0 -13 8 -20 24 -20h60l-11 -62h-58c-53 0 -85 24 -85 68c0 37 26 71 77 103c-5 -1 -12 -1 -21 -1c-55 0 -98 15 -131 45s-49 67 -49 110c0 8 1 18 2 30l74 525h84l-74 -526v-8
c-1 -5 -1 -11 -1 -16c0 -43 36 -81 100 -81c77 0 120 43 129 110z" />
    <glyph glyph-name="uogonek" unicode="&#x173;" 
d="M390 -118h60l-11 -62h-58c-53 0 -85 24 -85 68c0 19 8 38 23 57c16 19 32 32 47 41l24 14h-15l6 45c-43 -37 -91 -55 -143 -55c-101 0 -159 62 -159 149l3 37l45 324h81l-47 -330c-1 -5 -1 -12 -1 -19c0 -52 33 -89 96 -89c32 0 62 11 90 32c29 22 45 46 48 71l48 335h80
l-70 -500c-7 -5 -15 -11 -24 -19s-22 -21 -38 -38s-24 -31 -24 -41c0 -13 8 -20 24 -20z" />
    <glyph glyph-name="Wcircumflex" unicode="&#x174;" 
d="M388 78l71 328l41 294h84l-42 -298l-96 -402h-136l6 273h-8l-70 -273h-136l17 402l42 298h84l-41 -291l-23 -331h10l75 265h112v-265h10zM441 894l85 -147h-72l-60 80l-85 -80h-73l129 147h76z" />
    <glyph glyph-name="wcircumflex" unicode="&#x175;" 
d="M570 239c-7 -44 -17 -83 -30 -118s-34 -65 -63 -92c-29 -26 -63 -39 -104 -39c-63 0 -94 41 -102 56l-3 7c-3 -5 -7 -11 -13 -18c-5 -7 -19 -16 -40 -28c-21 -11 -44 -17 -69 -17c-67 0 -112 51 -112 127c0 29 2 55 6 79l45 304h80l-47 -310c-4 -26 -6 -47 -6 -64
c0 -37 17 -63 48 -63c57 0 91 49 104 147l40 290h78l-47 -327c-3 -23 -5 -42 -5 -57c0 -28 19 -53 47 -53c63 0 101 81 114 189c10 79 15 124 15 135c0 29 -17 46 -51 51l10 72c68 0 121 -39 121 -119c0 -29 -5 -79 -16 -152zM406 694l85 -147h-72l-60 80l-85 -80h-73
l129 147h76z" />
    <glyph glyph-name="Ycircumflex" unicode="&#x176;" 
d="M144 700h92l96 -275l169 275h94l-235 -369l-46 -331h-85l47 331zM436 894l85 -147h-72l-60 80l-85 -80h-73l129 147h76z" />
    <glyph glyph-name="ycircumflex" unicode="&#x177;" 
d="M378 -23l15 110c-9 -11 -21 -20 -37 -28l-145 -77c-21 -11 -32 -28 -32 -50c0 -31 29 -52 73 -52c32 0 60 10 84 29c25 19 39 42 42 68zM451 500h81l-75 -529c-7 -46 -29 -84 -68 -115s-86 -46 -142 -46c-85 0 -149 41 -149 108c0 49 22 86 66 110l69 30
c-37 3 -67 19 -89 48s-33 61 -33 98c0 11 1 22 2 31l39 265h80l-38 -262c0 -1 0 -6 -1 -16s-1 -17 -1 -20c0 -51 44 -84 97 -84c28 0 54 10 79 29s40 41 43 66zM414 694l85 -147h-72l-60 80l-85 -80h-73l129 147h76z" />
    <glyph glyph-name="Ydieresis" unicode="&#x178;" 
d="M144 700h92l96 -275l169 275h94l-235 -369l-46 -331h-85l47 331zM339 781h-89l13 89h89zM508 781h-89l13 89h89z" />
    <glyph glyph-name="Zacute" unicode="&#x179;" 
d="M566 700l-12 -84l-363 -537h287l-11 -79h-386l12 84l362 537h-272l11 79h372zM545 895l-173 -148h-86l142 148h117z" />
    <glyph glyph-name="zacute" unicode="&#x17a;" 
d="M161 36l200 103c-15 12 -37 18 -66 18h-109l11 71l209 200h-245l10 72h339l-11 -77l-210 -198h15c99 -1 167 -58 167 -137c0 -12 -1 -25 -3 -40l-11 -77c-7 -46 -30 -84 -70 -115c-39 -31 -87 -46 -144 -46c-87 0 -153 44 -153 115c0 47 24 84 71 111zM377 -23l16 113
c-9 -11 -22 -20 -38 -28l-144 -74c-28 -15 -42 -33 -42 -55c0 -35 30 -56 78 -56c73 0 122 45 130 100zM525 698l-173 -148h-86l142 148h117z" />
    <glyph glyph-name="Zdotaccent" unicode="&#x17b;" 
d="M566 700l-12 -84l-363 -537h287l-11 -79h-386l12 84l362 537h-272l11 79h372zM426 782h-89l13 89h89z" />
    <glyph glyph-name="zdotaccent" unicode="&#x17c;" 
d="M161 36l200 103c-15 12 -37 18 -66 18h-109l11 71l209 200h-245l10 72h339l-11 -77l-210 -198h15c99 -1 167 -58 167 -137c0 -12 -1 -25 -3 -40l-11 -77c-7 -46 -30 -84 -70 -115c-39 -31 -87 -46 -144 -46c-87 0 -153 44 -153 115c0 47 24 84 71 111zM377 -23l16 113
c-9 -11 -22 -20 -38 -28l-144 -74c-28 -15 -42 -33 -42 -55c0 -35 30 -56 78 -56c73 0 122 45 130 100zM399 582h-89l13 89h89z" />
    <glyph glyph-name="Zcaron" unicode="&#x17d;" 
d="M566 700l-12 -84l-363 -537h287l-11 -79h-386l12 84l362 537h-272l11 79h372zM333 747l-85 147h72l60 -80l85 80h73l-129 -147h-76z" />
    <glyph glyph-name="zcaron" unicode="&#x17e;" 
d="M161 36l200 103c-15 12 -37 18 -66 18h-109l11 71l209 200h-245l10 72h339l-11 -77l-210 -198h15c99 -1 167 -58 167 -137c0 -12 -1 -25 -3 -40l-11 -77c-7 -46 -30 -84 -70 -115c-39 -31 -87 -46 -144 -46c-87 0 -153 44 -153 115c0 47 24 84 71 111zM377 -23l16 113
c-9 -11 -22 -20 -38 -28l-144 -74c-28 -15 -42 -33 -42 -55c0 -35 30 -56 78 -56c73 0 122 45 130 100zM316 547l-85 147h72l60 -80l85 80h73l-129 -147h-76z" />
    <glyph glyph-name="florin" unicode="&#x192;" 
d="M367 530l-17 -122h203l-11 -76h-203l-72 -511h-78l72 511h-162l11 76h162l18 133c15 104 80 169 193 169c48 0 93 -14 110 -26l13 -8l-52 -60c-20 14 -47 21 -82 21c-61 0 -96 -36 -105 -107z" />
    <glyph glyph-name="AEacute" unicode="&#x1fc;" 
d="M69 299l178 401h335l-11 -79h-161l-30 -213h137l-11 -78h-137l-35 -251h164l-11 -79h-250l31 223h-125l-31 -223h-85zM324 621h-27l-139 -320h121zM574 895l-173 -148h-86l142 148h117z" />
    <glyph glyph-name="aeacute" unicode="&#x1fd;" 
d="M512 79l11 6l-9 -75c-25 -13 -58 -20 -100 -20c-53 0 -92 19 -115 56c-37 -37 -80 -56 -128 -56c-79 0 -137 60 -137 149c0 14 1 28 2 43l17 144c12 111 83 184 186 184c45 0 87 -14 127 -42c30 28 66 42 107 42c73 0 126 -54 126 -133c0 -78 -37 -132 -110 -161
l-142 -57c-1 -14 -2 -24 -2 -29c0 -44 32 -69 76 -69c39 0 76 10 91 18zM268 135l36 284c-25 13 -49 20 -73 20c-55 0 -95 -45 -102 -110l-19 -160v-5c0 -7 -1 -16 -1 -20c0 -55 28 -85 71 -85s83 29 88 76zM366 342l-12 -108l119 49c31 12 54 48 54 85c0 39 -25 69 -64 69
c-45 0 -92 -42 -97 -95zM556 695l-173 -148h-86l142 148h117z" />
    <glyph glyph-name="Oslashacute" unicode="&#x1fe;" 
d="M547 525l-49 -351c-7 -50 -30 -93 -69 -130c-39 -36 -89 -54 -151 -54c-56 0 -101 17 -134 50l-47 -66l-58 39l67 92c-4 14 -6 29 -6 44c0 11 1 22 3 32l48 345c7 50 30 93 69 129c39 37 90 55 153 55c55 0 98 -16 131 -49l44 60l56 -39l-62 -86c5 -17 7 -32 7 -45
c0 -7 -1 -15 -2 -26zM413 173l44 310l-25 -41l-236 -329c17 -29 47 -44 90 -44c69 0 119 48 127 104zM191 214l29 50l232 324c-17 29 -46 43 -87 43c-72 0 -121 -48 -129 -104zM544 895l-173 -148h-86l142 148h117z" />
    <glyph glyph-name="oslashacute" unicode="&#x1ff;" 
d="M108 174l21 152c7 53 31 96 71 131s91 53 153 53c35 0 67 -8 96 -23l38 48l46 -34l-38 -52c22 -28 33 -60 33 -97c0 -7 -1 -16 -2 -27l-22 -151c-8 -53 -31 -97 -70 -132c-38 -35 -88 -52 -150 -52c-37 0 -70 8 -100 24l-35 -48l-49 32l38 53c-21 26 -32 58 -32 95
c0 7 1 16 2 28zM425 169l22 161l1 6v10c0 13 -2 23 -6 31l-214 -300c17 -11 38 -16 62 -16c71 0 127 49 135 108zM209 331l-22 -162l-1 -7v-9c0 -12 2 -22 5 -29l213 299c-17 11 -38 16 -61 16c-71 0 -126 -49 -134 -108zM566 693l-173 -148h-86l142 148h117z" />
    <glyph glyph-name="Scommaaccent" unicode="&#x218;" 
d="M280 -10c-113 0 -181 68 -181 161l5 50h85c-3 -21 -5 -33 -5 -38c0 -55 36 -94 101 -94c76 0 126 54 126 118c0 56 -39 98 -90 126c-72 41 -163 86 -163 195c0 57 20 104 61 143s92 59 151 59c55 0 98 -16 127 -49c29 -32 44 -69 44 -111l-2 -26h-83c1 4 1 9 1 16
c0 44 -36 89 -93 89c-32 0 -60 -11 -84 -33c-23 -21 -35 -47 -35 -78c0 -45 41 -80 90 -108c73 -38 167 -93 166 -211c0 -32 -7 -63 -22 -94c-29 -61 -103 -115 -199 -115zM214 -205h-67l86 151h101z" />
    <glyph glyph-name="scommaaccent" unicode="&#x219;" 
d="M292 -10c-107 0 -170 59 -170 146l2 22h77c-1 -7 -1 -13 -1 -17c0 -51 36 -79 92 -79c57 0 103 31 103 79c0 94 -224 73 -224 216c0 47 18 84 54 111c36 28 79 42 128 42c53 0 92 -14 119 -43s40 -59 40 -92l-1 -18h-83c1 5 1 9 1 12c0 40 -37 69 -85 69
c-44 0 -88 -27 -88 -68c0 -86 224 -63 224 -217c0 -47 -18 -86 -55 -117c-36 -31 -80 -46 -133 -46zM237 -205h-67l86 151h101z" />
    <glyph glyph-name="circumflex" unicode="&#x2c6;" 
d="M389 694l85 -147h-72l-60 80l-85 -80h-73l129 147h76z" />
    <glyph glyph-name="caron" unicode="&#x2c7;" 
d="M295 547l-85 147h72l60 -80l85 80h73l-129 -147h-76z" />
    <glyph glyph-name="breve" unicode="&#x2d8;" 
d="M218 685h75c-1 -2 -1 -5 -1 -9c0 -27 17 -51 44 -51h16c35 0 56 28 60 60h75c-8 -76 -64 -127 -133 -127h-31c-60 0 -106 47 -106 108c0 8 0 14 1 19z" />
    <glyph glyph-name="dotaccent" unicode="&#x2d9;" 
d="M381 582h-89l13 89h89z" />
    <glyph glyph-name="ring" unicode="&#x2da;" 
d="M346 646c-17 0 -33 -14 -33 -34c0 -17 8 -25 25 -25c19 0 34 16 34 33c0 15 -10 26 -26 26zM254 602c0 25 10 48 29 68s43 30 71 30c43 0 76 -33 76 -74c0 -26 -10 -49 -30 -68s-43 -28 -70 -28c-43 0 -76 31 -76 72z" />
    <glyph glyph-name="ogonek" unicode="&#x2db;" 
d="M304 -118h60l-11 -62h-58c-53 0 -85 24 -85 68c0 19 8 38 23 57c16 19 32 32 47 41l24 14h62c-7 -5 -15 -11 -24 -19s-22 -21 -38 -38s-24 -31 -24 -41c0 -13 8 -20 24 -20z" />
    <glyph glyph-name="tilde" unicode="&#x2dc;" 
d="M250 563h-70c5 63 48 107 108 107c17 0 39 -7 64 -22s41 -22 47 -22c21 0 33 13 36 38h71c-4 -59 -46 -107 -106 -107c-19 0 -41 7 -66 22s-41 22 -48 22c-19 0 -31 -13 -36 -38z" />
    <glyph glyph-name="hungarumlaut" unicode="&#x2dd;" 
d="M384 695l-157 -140h-83l127 140h113zM552 695l-157 -140h-83l127 140h113z" />
    <glyph glyph-name="afii10023" unicode="&#x401;" 
d="M110 0l98 700h342l-11 -79h-258l-30 -213h234l-11 -78h-234l-35 -251h266l-11 -79h-350zM354 781h-89l13 89h89zM523 781h-89l13 89h89z" />
    <glyph glyph-name="afii10051" unicode="&#x402;" 
d="M536 292v-2l-17 -136c-6 -46 -26 -84 -61 -115c-35 -30 -79 -45 -132 -45l-16 1l10 78h12c61 0 96 29 103 87l17 126c1 5 1 10 1 17c0 47 -30 75 -79 75c-37 0 -73 -12 -86 -21l-10 -7l-49 -350h-84l87 623h-124l11 77h359l-11 -77h-151l-26 -187c25 14 62 21 110 21
c83 0 138 -52 138 -136c0 -14 -2 -26 -2 -29z" />
    <glyph glyph-name="afii10052" unicode="&#x403;" 
d="M422 0h-383l11 79h126l87 621h346l-11 -79h-261l-76 -542h172zM624 895l-173 -148h-86l142 148h117z" />
    <glyph glyph-name="afii10053" unicode="&#x404;" 
d="M231 408h172l-11 -78h-172l-21 -141c-1 -7 -2 -18 -2 -34c0 -51 36 -86 91 -86c67 0 117 47 125 104l3 21h84l-3 -20c-8 -53 -32 -97 -71 -132s-88 -52 -145 -52c-101 0 -168 67 -168 159c0 14 2 34 5 59l44 318c7 52 31 96 70 131s87 53 143 53c49 0 89 -15 120 -45
c31 -29 47 -67 47 -112l-2 -28h-84c1 7 1 12 1 15c0 52 -37 91 -90 91c-65 0 -112 -46 -120 -106z" />
    <glyph glyph-name="afii10054" unicode="&#x405;" 
d="M280 -10c-113 0 -181 68 -181 161l5 50h85c-3 -21 -5 -33 -5 -38c0 -55 36 -94 101 -94c76 0 126 54 126 118c0 56 -39 98 -90 126c-72 41 -163 86 -163 195c0 57 20 104 61 143s92 59 151 59c55 0 98 -16 127 -49c29 -32 44 -69 44 -111l-2 -26h-83c1 4 1 9 1 16
c0 44 -36 89 -93 89c-32 0 -60 -11 -84 -33c-23 -21 -35 -47 -35 -78c0 -45 41 -80 90 -108c73 -38 167 -93 166 -211c0 -32 -7 -63 -22 -94c-29 -61 -103 -115 -199 -115z" />
    <glyph glyph-name="afii10055" unicode="&#x406;" 
d="M320 622h-151l11 78h386l-11 -78h-151l-76 -544h151l-11 -78h-386l11 78h151z" />
    <glyph glyph-name="afii10056" unicode="&#x407;" 
d="M320 622h-151l11 78h386l-11 -78h-151l-76 -544h151l-11 -78h-386l11 78h151zM344 781h-89l13 89h89zM513 781h-89l13 89h89z" />
    <glyph glyph-name="afii10057" unicode="&#x408;" 
d="M103 227h82c-5 -33 -8 -57 -8 -73c0 -48 38 -86 94 -86c64 0 115 46 123 105l63 449h-258l10 78h344l-74 -526c-7 -53 -30 -97 -69 -132s-86 -52 -142 -52c-53 0 -95 15 -127 44c-31 29 -47 67 -47 112c0 13 3 40 9 81z" />
    <glyph glyph-name="afii10058" unicode="&#x409;" 
d="M199 700h245l-42 -292h50c80 0 134 -54 134 -130c0 -10 -1 -20 -2 -31l-13 -91c-12 -91 -79 -156 -176 -156h-134l87 621h-86c-46 -243 -78 -405 -95 -486c-9 -41 -28 -74 -59 -101c-30 -27 -65 -40 -105 -40h-16l10 74c7 0 14 1 23 3c35 7 63 43 72 88zM486 155l14 100
c1 5 1 9 1 12c0 36 -25 63 -64 63h-46l-35 -251h46c47 0 77 32 84 76z" />
    <glyph glyph-name="afii10059" unicode="&#x40a;" 
d="M354 700h84l-41 -292h50c80 0 133 -54 133 -130l-2 -28l-12 -94c-5 -45 -24 -82 -57 -112c-33 -29 -72 -44 -119 -44h-134l46 330h-139l-46 -330h-84l98 700h84l-41 -292h139zM481 155l14 100c1 5 1 9 1 12c0 39 -24 63 -64 63h-46l-35 -251h46c45 0 77 32 84 76z" />
    <glyph glyph-name="afii10060" unicode="&#x40b;" 
d="M99 623l11 77h349l-11 -77h-141l-26 -186c26 13 64 20 113 20c79 0 136 -53 136 -136c0 -8 -1 -19 -2 -24v-4l-41 -293h-84l40 286c1 7 1 13 1 17c0 48 -27 75 -75 75c-37 0 -74 -12 -89 -21l-11 -7l-49 -350h-84l87 623h-124z" />
    <glyph glyph-name="afii10061" unicode="&#x40c;" 
d="M189 700h83l-46 -324l270 324h97l-275 -330l187 -370h-94l-186 367l-51 -367h-83zM581 900l-173 -148h-86l142 148h117z" />
    <glyph glyph-name="afii10062" unicode="&#x40e;" 
d="M513 700h88l-383 -700h-87l145 264l-119 436h94l81 -343zM264 860l2 26h75c-1 -9 -2 -15 -2 -20c0 -33 13 -49 39 -49h26c31 0 49 23 56 69h75c-11 -77 -61 -127 -134 -127h-31c-65 0 -106 40 -106 101z" />
    <glyph glyph-name="afii10145" unicode="&#x40f;" 
d="M216 -150l22 150h-151l98 700h84l-88 -623h217l88 623h84l-98 -700h-152l-22 -150h-82z" />
    <glyph glyph-name="afii10017" unicode="&#x410;" 
d="M124 299l177 401h143l65 -403l-42 -297h-85l31 223h-216l-31 -223h-84zM212 301h210l-51 320h-19z" />
    <glyph glyph-name="afii10018" unicode="&#x411;" 
d="M301 0h-191l98 700h308l-11 -79h-224l-28 -204h107c81 0 138 -53 138 -133c0 -13 -2 -24 -2 -28v-2l-13 -98c-6 -44 -26 -81 -61 -111c-34 -30 -74 -45 -121 -45zM398 155l15 108l1 5v8c0 39 -29 62 -70 62h-103l-36 -259h103c47 0 83 33 90 76z" />
    <glyph glyph-name="afii10019" unicode="&#x412;" 
d="M374 621h-101l-30 -215h101c45 0 86 35 93 79l8 58l1 2v13c0 37 -29 63 -72 63zM328 330h-96l-35 -251h96c56 0 96 40 104 89l9 63v4c0 5 1 14 1 18c0 37 -26 77 -79 77zM102 0l98 700h178c93 0 149 -53 149 -130c0 -13 0 -21 -1 -26l-7 -55c-5 -47 -37 -92 -74 -119
c32 -30 48 -65 48 -104c0 -5 -1 -16 -1 -23l-1 -5l-9 -70c-13 -100 -88 -168 -192 -168h-188z" />
    <glyph glyph-name="afii10020" unicode="&#x413;" 
d="M422 0h-383l11 79h126l87 621h346l-11 -79h-261l-76 -542h172z" />
    <glyph glyph-name="afii10021" unicode="&#x414;" horiz-adv-x="601" 
d="M16 -150l33 229h43c20 0 37 25 44 60l110 561h305l-87 -621h60l-33 -229h-84l22 150h-307l-22 -150h-84zM311 621l-96 -486c-3 -16 -11 -37 -16 -48l-4 -8h185l76 542h-145z" />
    <glyph glyph-name="afii10022" unicode="&#x415;" 
d="M110 0l98 700h342l-11 -79h-258l-30 -213h234l-11 -78h-234l-35 -251h266l-11 -79h-350z" />
    <glyph glyph-name="afii10024" unicode="&#x416;" 
d="M7 0l201 370l-89 330h85l82 -324l46 324h80l-46 -324l174 324h85l-181 -330l97 -370h-87l-89 365l-51 -365h-80l51 365l-191 -365h-87z" />
    <glyph glyph-name="afii10025" unicode="&#x417;" 
d="M331 330h-83l11 78h74c53 0 88 40 95 84l5 34l1 4v14c0 52 -33 88 -89 88c-35 0 -63 -13 -83 -38s-31 -48 -32 -69h-81c0 42 19 83 57 124c39 41 90 61 154 61c48 0 87 -15 116 -45c29 -29 44 -67 44 -112c0 -5 -1 -15 -2 -23v-5l-4 -30c-5 -47 -38 -98 -75 -121
c31 -25 47 -59 47 -102c0 -8 -1 -17 -2 -26l-9 -71c-7 -51 -30 -95 -71 -131c-40 -36 -87 -54 -141 -54c-51 0 -92 15 -125 46s-49 68 -49 113l3 45h83c-1 -11 -2 -22 -2 -34c0 -53 40 -91 95 -91c64 0 112 45 121 105l11 76v2c0 3 1 6 1 10c0 39 -30 68 -70 68z" />
    <glyph glyph-name="afii10026" unicode="&#x418;" 
d="M470 700h97l-98 -700h-83l63 455l28 116h-6l-34 -81l-258 -490h-95l98 700h82l-64 -451l-29 -126h6l35 89z" />
    <glyph glyph-name="afii10027" unicode="&#x419;" 
d="M264 860l2 26h75c-1 -9 -2 -15 -2 -20c0 -33 13 -49 39 -49h26c31 0 49 23 56 69h75c-11 -77 -61 -127 -134 -127h-31c-65 0 -106 40 -106 101zM468 700h97l-98 -700h-83l63 455l28 116h-6l-34 -81l-258 -490h-95l98 700h82l-64 -451l-29 -126h6l35 89z" />
    <glyph glyph-name="afii10028" unicode="&#x41a;" 
d="M189 700h83l-46 -324l270 324h97l-275 -330l187 -370h-94l-186 367l-51 -367h-83z" />
    <glyph glyph-name="afii10029" unicode="&#x41b;" 
d="M51 -6h-20l10 77c7 0 15 1 24 2c38 7 62 36 73 86c31 147 65 327 104 541h305l-98 -700h-84l87 621h-145c-54 -283 -86 -445 -96 -486c-20 -87 -81 -141 -160 -141z" />
    <glyph glyph-name="afii10030" unicode="&#x41c;" 
d="M479 582l-27 -71l-92 -180h-75l-43 179l-7 72l-6 -1l-9 -117l-66 -464h-83l98 700h109l53 -284h4l133 284h109l-98 -700h-84l65 464l25 117z" />
    <glyph glyph-name="afii10031" unicode="&#x41d;" 
d="M439 408l41 292h85l-98 -700h-85l46 330h-216l-46 -330h-84l98 700h84l-41 -292h216z" />
    <glyph glyph-name="afii10032" unicode="&#x41e;" 
d="M547 525l-49 -351c-7 -50 -30 -93 -69 -130c-39 -36 -89 -54 -151 -54c-55 0 -99 15 -131 46c-31 31 -47 69 -47 113c0 11 1 22 3 32l48 345c7 50 30 93 69 129c39 37 90 55 153 55c55 0 98 -16 129 -47s47 -68 47 -112c0 -7 -1 -15 -2 -26zM413 173l50 354
c0 1 1 12 1 16c0 49 -36 88 -99 88c-72 0 -121 -48 -129 -104l-50 -353v-6c-1 -5 -1 -9 -1 -12c0 -48 37 -87 101 -87c69 0 119 48 127 104z" />
    <glyph glyph-name="afii10033" unicode="&#x41f;" 
d="M180 700h385l-98 -700h-84l87 623h-217l-87 -623h-84z" />
    <glyph glyph-name="afii10034" unicode="&#x420;" 
d="M354 243h-110l-34 -243h-84l98 700h191c81 0 139 -56 139 -133c0 -11 -1 -22 -1 -23l-20 -144c-6 -45 -26 -82 -59 -112s-73 -45 -120 -45zM448 397l20 142v3c0 4 1 11 1 16c0 37 -29 63 -69 63h-103l-42 -299h103c48 0 83 32 90 75z" />
    <glyph glyph-name="afii10035" unicode="&#x421;" 
d="M418 194h83c0 -55 -20 -102 -60 -143c-39 -41 -89 -61 -149 -61c-52 0 -95 15 -128 45c-33 31 -49 69 -49 114c0 9 1 19 2 31l48 346c7 53 31 96 70 131c40 35 89 53 146 53c55 0 97 -16 126 -49c30 -33 45 -69 45 -108l-2 -28h-83c1 8 1 13 1 16c0 49 -39 90 -94 90
c-61 0 -115 -45 -123 -104l-48 -338c-1 -9 -2 -20 -2 -31c0 -52 39 -89 95 -89c72 0 121 54 122 125z" />
    <glyph glyph-name="afii10036" unicode="&#x422;" 
d="M321 621h-150l11 79h384l-11 -79h-151l-87 -621h-83z" />
    <glyph glyph-name="afii10037" unicode="&#x423;" 
d="M513 700h88l-383 -700h-87l145 264l-119 436h94l81 -343z" />
    <glyph glyph-name="afii10038" unicode="&#x424;" 
d="M331 710h84l-8 -65c103 -5 161 -74 161 -159c0 -13 -1 -24 -1 -25l-29 -206c-7 -49 -29 -92 -66 -128c-37 -35 -85 -54 -146 -57l-11 -80h-84l11 80c-103 5 -161 73 -161 158c0 7 1 16 2 27l29 206c7 47 29 89 67 125c38 37 86 56 144 59zM454 251l30 214v5c1 4 1 7 1 9
c0 47 -33 84 -89 89l-60 -422c68 5 110 49 118 105zM195 465l-30 -214l-1 -3v-12c0 -48 32 -85 88 -90l60 422c-65 -5 -109 -50 -117 -103z" />
    <glyph glyph-name="afii10039" unicode="&#x425;" 
d="M163 700h92l83 -257l150 257h94l-210 -342l124 -358h-91l-92 275l-170 -275h-92l228 364z" />
    <glyph glyph-name="afii10040" unicode="&#x426;" 
d="M411 -150l22 150h-344l98 700h84l-88 -623h200l88 623h84l-88 -623h60l-32 -227h-84z" />
    <glyph glyph-name="afii10041" unicode="&#x427;" 
d="M135 413l40 287h84l-39 -286v-6c-1 -5 -1 -9 -1 -12c0 -47 29 -74 78 -74c37 0 80 12 100 21l15 7l49 350h84l-98 -700h-84l36 263c-35 -13 -74 -20 -117 -20c-92 0 -149 51 -149 136c0 13 1 25 2 34z" />
    <glyph glyph-name="afii10042" unicode="&#x428;" 
d="M332 700h84l-88 -623h93l88 623h84l-98 -700h-439l98 700h84l-88 -623h94z" />
    <glyph glyph-name="afii10043" unicode="&#x429;" 
d="M337 699h84l-88 -622h93l88 622h84l-88 -622h60l-32 -227h-84l22 150h-415l98 699h84l-88 -622h94z" />
    <glyph glyph-name="afii10044" unicode="&#x42a;" 
d="M453 155l14 100l1 2v13c0 32 -29 60 -70 60h-132l-35 -251h132c47 0 83 33 90 76zM116 621l11 79h191l-41 -292h136c41 0 74 -13 100 -38s39 -56 39 -93l-2 -31l-12 -90c-12 -91 -82 -156 -182 -156h-220l87 621h-107z" />
    <glyph glyph-name="afii10045" unicode="&#x42b;" 
d="M540 700h84l-98 -700h-84zM134 700h84l-41 -292h82c81 0 139 -56 139 -133l-2 -31l-12 -88c-6 -44 -26 -81 -60 -111s-75 -45 -122 -45h-166zM299 155l14 100c1 7 1 11 1 13c0 36 -30 62 -70 62h-78l-35 -251h78c47 0 83 33 90 76z" />
    <glyph glyph-name="afii10046" unicode="&#x42c;" 
d="M209 700h84l-41 -292h129c89 0 146 -53 146 -132c0 -8 -1 -18 -2 -30l-12 -90c-12 -91 -82 -156 -182 -156h-220zM428 155l13 91c1 9 2 17 2 24c0 35 -30 60 -70 60h-132l-35 -251h132c48 0 83 33 90 76z" />
    <glyph glyph-name="afii10047" unicode="&#x42d;" 
d="M241 330l11 78h171l17 119c1 6 1 12 1 19c0 49 -35 85 -91 85c-31 0 -57 -11 -80 -32s-36 -46 -39 -74h-83c6 51 29 94 68 130c40 37 88 55 145 55c49 0 89 -15 120 -45s46 -68 46 -113c0 -4 -1 -13 -2 -26l-49 -351c-7 -52 -31 -96 -70 -132c-39 -35 -86 -53 -141 -53
c-51 0 -94 15 -127 46s-49 68 -49 113l5 45h85c-3 -16 -4 -28 -4 -37c0 -49 40 -88 93 -88c63 0 114 46 122 105l22 156h-171z" />
    <glyph glyph-name="afii10048" unicode="&#x42e;" 
d="M130 700h83l-41 -292h83l20 138c7 47 27 86 61 117s75 47 124 47c84 0 142 -58 142 -146l-2 -25l-54 -385c-7 -48 -27 -87 -61 -118c-33 -31 -75 -46 -124 -46c-85 0 -142 58 -142 139c0 13 1 25 2 36l23 165h-83l-46 -330h-83zM462 150l56 400v6c1 3 1 6 1 7
c0 40 -29 68 -70 68c-47 0 -85 -36 -92 -81l-55 -392c0 -1 -1 -10 -1 -20c0 -40 26 -69 69 -69c49 0 85 34 92 81z" />
    <glyph glyph-name="afii10049" unicode="&#x42f;" 
d="M160 0h-93l154 269c-48 23 -72 62 -72 118c0 11 1 21 2 32l17 125c6 45 26 82 59 111c34 30 75 45 123 45h191l-97 -700h-85l36 255h-93zM254 545l-19 -129c-1 -5 -1 -11 -1 -18c0 -36 29 -65 68 -65h104l40 288h-104c-51 0 -83 -32 -88 -76z" />
    <glyph glyph-name="afii10065" unicode="&#x430;" 
d="M469 102c0 -19 15 -29 46 -29l-8 -74c-5 -1 -12 -2 -20 -2c-39 0 -68 18 -87 53c-33 -39 -94 -60 -139 -60c-49 0 -88 15 -119 45s-46 68 -46 113c0 8 1 19 2 34l20 144c7 54 31 98 71 132c40 35 88 52 145 52c55 0 117 -14 187 -41l-50 -348l-1 -7c-1 -5 -1 -9 -1 -12z
M279 61c27 0 53 10 76 29c24 20 38 43 41 68l37 261c-30 13 -64 20 -101 20c-69 0 -123 -45 -132 -110l-22 -160v-3c0 -4 -1 -10 -1 -14c0 -53 41 -91 102 -91z" />
    <glyph glyph-name="afii10066" unicode="&#x431;" 
d="M420 169l20 146c1 11 2 18 2 23c0 55 -37 85 -102 85c-35 0 -65 -11 -91 -32c-25 -21 -40 -47 -43 -76l-17 -136c-1 -13 -2 -23 -2 -28c0 -51 38 -90 102 -90c71 0 123 48 131 108zM522 318l-19 -144c-7 -53 -31 -97 -70 -132s-91 -52 -154 -52c-107 0 -174 67 -174 159
c0 14 1 26 2 35l33 238c12 85 46 151 102 198c57 48 120 73 189 76l95 11l-10 -67c-28 -8 -57 -13 -88 -14c-50 -2 -95 -19 -134 -51s-62 -77 -70 -135c3 4 8 9 15 15s23 14 47 24s50 15 77 15c47 0 86 -14 116 -42s45 -64 45 -108c0 -5 -1 -14 -2 -26z" />
    <glyph glyph-name="afii10067" unicode="&#x432;" 
d="M288 -11c-71 0 -135 17 -193 50l69 501c7 48 29 88 67 121s87 50 147 50c97 0 154 -43 154 -114c0 -47 -22 -92 -65 -115l-61 -31c75 -15 114 -75 114 -144c0 -11 -1 -22 -2 -31l-15 -113c-13 -101 -91 -174 -215 -174zM422 169l15 104c0 1 0 6 1 16s1 17 1 20
c0 49 -48 84 -103 84c-29 0 -56 -10 -82 -29s-41 -41 -44 -66l-28 -213c33 -16 68 -24 105 -24c75 0 127 48 135 108zM243 534l-15 -110c9 11 21 20 37 28l150 75c24 12 36 31 36 56c0 29 -26 57 -78 57c-73 0 -122 -50 -130 -106z" />
    <glyph glyph-name="afii10068" unicode="&#x433;" 
d="M268 -10c-46 0 -85 12 -116 37s-46 56 -46 93c0 71 47 121 106 145c85 35 193 58 193 119c0 32 -33 54 -80 54c-51 0 -98 -32 -103 -81h-82c0 33 18 67 53 101c35 35 83 52 142 52c93 0 155 -49 155 -122c-1 -125 -134 -145 -224 -182c-44 -15 -78 -42 -78 -79
s38 -65 90 -65c40 0 70 11 90 34s30 43 30 62h80c0 -55 -53 -168 -210 -168z" />
    <glyph glyph-name="afii10069" unicode="&#x434;" 
d="M331 510c71 0 132 -17 183 -50l-69 -489c-7 -46 -30 -84 -69 -115s-86 -46 -141 -46c-85 0 -149 43 -149 108c0 51 22 88 65 111l68 28c-83 16 -120 76 -120 147c0 11 1 22 2 31l14 101c7 51 31 93 70 125c39 33 88 49 146 49zM195 330l-13 -92c0 -1 0 -6 -1 -16
s-1 -17 -1 -20c0 -51 44 -84 97 -84c28 0 54 10 79 29s40 41 43 66l29 206c-29 13 -64 19 -107 19c-68 0 -117 -44 -126 -108zM366 -23l15 110c-9 -11 -21 -20 -37 -28l-147 -77c-20 -10 -30 -27 -30 -50c0 -27 32 -51 73 -51c32 0 60 10 84 29c25 19 39 42 42 67z" />
    <glyph glyph-name="afii10070" unicode="&#x435;" 
d="M212 342l-14 -104l180 54c44 14 66 36 66 66c0 49 -39 81 -96 81c-36 0 -67 -10 -93 -29c-25 -19 -40 -42 -43 -68zM107 174l24 164c7 45 30 85 71 120s91 52 151 52c49 0 89 -14 121 -41s48 -60 48 -101c0 -88 -49 -126 -137 -151l-198 -57c-1 -7 -1 -11 -1 -13
c0 -48 44 -86 108 -86c48 0 104 12 129 23l19 7l-10 -78c-39 -15 -88 -23 -147 -23c-54 0 -98 15 -131 44s-49 65 -49 108c0 9 1 20 2 32z" />
    <glyph glyph-name="afii10072" unicode="&#x436;" 
d="M518 500h90l-169 -237l105 -263h-89l-98 260l-36 -260h-78l36 260l-170 -260h-89l177 263l-101 237h90l94 -233l33 233h78l-33 -233z" />
    <glyph glyph-name="afii10073" unicode="&#x437;" 
d="M167 39l228 122s2 33 -63 33h-60l10 71h51c23 0 45 9 64 27s29 39 29 64c0 43 -29 81 -84 81c-51 0 -96 -26 -105 -73h-75c0 33 17 66 50 98c34 32 81 48 141 48c47 0 84 -14 112 -43c28 -28 42 -60 42 -97c0 -57 -24 -102 -72 -134c25 -17 44 -52 44 -87
c0 -13 -1 -25 -3 -37l-19 -141c-6 -45 -29 -83 -70 -114s-89 -47 -144 -47c-88 0 -154 44 -154 115c0 48 26 86 78 114zM377 -23l16 108c-7 -7 -19 -16 -38 -25l-147 -76c-21 -11 -37 -32 -37 -53c0 -27 32 -50 79 -50c31 0 59 10 84 29s40 42 43 67z" />
    <glyph glyph-name="afii10074" unicode="&#x438;" 
d="M105 139l3 37l45 324h81l-47 -330c-1 -5 -1 -12 -1 -19c0 -52 33 -89 96 -89c32 0 62 11 90 32c29 22 45 46 48 71l48 335h80l-70 -500h-77l6 45c-43 -37 -91 -55 -143 -55c-101 0 -159 62 -159 149z" />
    <glyph glyph-name="afii10075" unicode="&#x439;" 
d="M232 659l2 26h75c-1 -9 -2 -15 -2 -20c0 -33 13 -49 39 -49h26c31 0 49 23 56 69h75c-11 -77 -61 -127 -134 -127h-31c-65 0 -106 40 -106 101zM105 139l3 37l45 324h81l-47 -330c-1 -5 -1 -12 -1 -19c0 -52 33 -89 96 -89c32 0 62 11 90 32c29 22 45 46 48 71l48 335h80
l-70 -500h-77l6 45c-43 -37 -91 -55 -143 -55c-101 0 -159 62 -159 149z" />
    <glyph glyph-name="afii10076" unicode="&#x43a;" 
d="M513 0h-102l-189 259l-36 -259h-80l70 500h80l-33 -232l247 232h102l-261 -238z" />
    <glyph glyph-name="afii10077" unicode="&#x43b;" 
d="M52 -6h-17l9 67c43 0 69 22 79 65l79 374h338l-70 -500h-80l60 428h-186c-37 -173 -61 -284 -73 -333c-16 -63 -67 -101 -139 -101z" />
    <glyph glyph-name="afii10078" unicode="&#x43c;" 
d="M469 415l-24 -51l-87 -136h-91l-47 135l-10 52l-4 -1l-6 -84l-46 -330h-78l70 500h109l64 -213h4l124 213h110l-70 -500h-78l46 330l18 84z" />
    <glyph glyph-name="afii10079" unicode="&#x43d;" 
d="M468 500h80l-70 -500h-80l32 228h-231l-32 -228h-80l70 500h80l-28 -200h231z" />
    <glyph glyph-name="afii10080" unicode="&#x43e;" 
d="M528 352l-2 -27l-22 -151c-8 -53 -31 -97 -70 -132c-38 -35 -88 -52 -150 -52c-54 0 -97 15 -130 44c-32 30 -48 67 -48 111l2 30l21 151c7 52 31 96 70 131s90 53 152 53c53 0 95 -15 128 -45s49 -68 49 -113zM422 169l22 162c1 5 1 11 1 16c0 52 -38 92 -102 92
c-71 0 -125 -48 -133 -108l-22 -161c-1 -7 -1 -12 -1 -17c0 -52 40 -92 105 -92c71 0 122 48 130 108z" />
    <glyph glyph-name="afii10081" unicode="&#x43f;" 
d="M524 361l-3 -37l-45 -324h-81l47 330c1 5 1 12 1 19c0 52 -33 89 -96 89c-32 0 -62 -11 -91 -33c-28 -21 -44 -45 -47 -70l-48 -335h-80l70 500h77l-6 -45c43 37 91 55 143 55c101 0 159 -62 159 -149z" />
    <glyph glyph-name="afii10082" unicode="&#x440;" 
d="M161 500h72l-4 -41c3 4 8 9 15 14c7 6 22 14 45 23c24 9 50 14 78 14c49 0 88 -15 119 -45s46 -68 46 -113c0 -8 -1 -19 -2 -34l-20 -144c-7 -54 -31 -98 -71 -133c-40 -34 -88 -51 -145 -51c-69 0 -105 30 -116 44l-5 4l-31 -218h-77zM428 171l22 160v3c0 4 1 10 1 14
c0 53 -41 91 -102 91c-68 0 -125 -48 -133 -109l-22 -158c-1 -6 -1 -12 -1 -18c0 -53 40 -91 103 -91c69 0 123 43 132 108z" />
    <glyph glyph-name="afii10083" unicode="&#x441;" 
d="M343 437c-73 0 -124 -48 -132 -108l-21 -152c-1 -9 -2 -18 -2 -27c0 -53 40 -89 104 -89c32 0 60 11 83 32c23 22 37 46 41 73h81c0 -27 -17 -66 -49 -106c-31 -39 -91 -70 -162 -70c-56 0 -100 15 -132 44c-31 30 -47 66 -47 109c0 9 1 20 2 32l21 151
c7 52 31 96 70 131s89 53 150 53c58 0 101 -15 128 -46c27 -30 41 -63 41 -98l-2 -33h-82c1 7 1 12 1 16c0 23 -10 88 -93 88z" />
    <glyph glyph-name="afii10084" unicode="&#x442;" 
d="M567 375l-53 -375h-80l54 378c1 8 1 14 1 17c0 25 -19 43 -42 43c-41 0 -68 -35 -75 -83l-51 -355h-78l55 383c1 7 1 12 1 15c0 27 -15 40 -46 40c-40 0 -69 -36 -76 -83l-51 -355h-80l71 500h73l-2 -37c25 30 55 45 92 45c17 0 32 -3 43 -10c23 -12 26 -22 35 -46
c33 37 69 56 110 56c65 0 101 -42 101 -106c0 -6 -1 -15 -2 -27z" />
    <glyph glyph-name="afii10085" unicode="&#x443;" 
d="M378 -23l15 110c-9 -11 -21 -20 -37 -28l-139 -74c-25 -13 -38 -31 -38 -53c0 -31 30 -51 73 -51c32 0 60 10 84 29c25 19 39 42 42 67zM451 500h81l-75 -529c-7 -46 -30 -84 -69 -115s-86 -46 -141 -46c-85 0 -149 43 -149 108c0 47 21 82 64 105l71 35
c-37 3 -67 19 -89 48s-33 61 -33 98c0 11 1 22 2 31l39 265h80l-38 -265c-1 -11 -2 -22 -2 -33c0 -51 44 -84 97 -84c28 0 54 10 79 29s40 41 43 66z" />
    <glyph glyph-name="afii10086" unicode="&#x444;" 
d="M345 700h79l-27 -200c107 -1 175 -62 175 -149l-2 -29l-20 -147c-7 -51 -31 -93 -72 -126c-40 -33 -91 -49 -152 -49l-26 -180h-80l26 180c-108 0 -176 61 -176 149c0 6 1 15 2 27l21 150c15 101 100 174 224 174zM175 331l-22 -153c0 -1 -2 -19 -2 -29
c0 -45 40 -78 105 -78l51 358c-75 0 -124 -39 -132 -98zM468 170l22 152c1 11 2 20 2 25c0 49 -40 81 -105 82l-51 -358c75 0 124 39 132 99z" />
    <glyph glyph-name="afii10087" unicode="&#x445;" 
d="M152 500h92l84 -174l131 174h93l-187 -244l122 -256h-91l-88 185l-140 -185h-91l193 256z" />
    <glyph glyph-name="afii10088" unicode="&#x446;" 
d="M438 -105l16 105h-50l2 45c-43 -37 -90 -55 -141 -55c-101 0 -159 62 -159 149l3 37l46 324h80l-47 -330c-1 -5 -1 -12 -1 -19c0 -52 33 -89 96 -89c32 0 62 11 90 32c29 22 45 46 48 71l48 335h80l-61 -428h55l-26 -177h-79z" />
    <glyph glyph-name="afii10089" unicode="&#x447;" 
d="M157 500h80l-30 -207l-1 -7v-11c0 -42 22 -63 65 -63c44 0 96 17 120 30l18 11l35 247h80l-70 -500h-80l24 176c-45 -24 -92 -36 -141 -36c-81 0 -132 48 -132 127c0 9 1 19 2 28z" />
    <glyph glyph-name="afii10090" unicode="&#x448;" 
d="M59 125l53 375h80l-54 -378c-1 -8 -1 -14 -1 -17c0 -25 19 -43 42 -43c41 0 68 35 75 83l51 355h78l-55 -383c-1 -7 -1 -12 -1 -15c0 -27 15 -40 46 -40c40 0 69 36 76 83l51 355h80l-71 -500h-73l2 37c-25 -30 -55 -45 -92 -45c-17 0 -32 3 -43 9c-23 13 -26 23 -35 47
c-33 -37 -69 -56 -110 -56c-65 0 -101 42 -101 106c0 6 1 15 2 27z" />
    <glyph glyph-name="afii10091" unicode="&#x449;" 
d="M485 0h-48l1 37c-25 -30 -55 -45 -92 -45c-17 0 -32 3 -43 9c-23 13 -26 23 -35 47c-33 -37 -69 -56 -110 -56c-65 0 -101 42 -101 106c0 6 1 15 2 27l53 375h80l-54 -378c-1 -8 -1 -14 -1 -17c0 -25 19 -43 42 -43c41 0 68 35 75 83l51 355h78l-55 -383
c-1 -7 -1 -12 -1 -15c0 -27 15 -40 46 -40c40 0 69 36 76 83l51 355h80l-61 -428h55l-26 -177h-79z" />
    <glyph glyph-name="afii10092" unicode="&#x44a;" 
d="M112 500h186l-29 -200h108c89 0 139 -55 139 -128c0 -52 -19 -95 -57 -130s-85 -52 -141 -52c-93 0 -154 49 -154 122c0 12 1 26 4 42l40 274h-106zM325 62c61 0 112 40 112 99c0 37 -25 67 -73 67h-105l-12 -80c-2 -14 -3 -25 -3 -32c0 -35 32 -54 81 -54z" />
    <glyph glyph-name="afii10093" unicode="&#x44b;" 
d="M507 500h80l-70 -500h-80zM117 500h80l-29 -200h103c89 0 139 -55 139 -128c0 -52 -19 -95 -57 -130s-85 -52 -141 -52c-92 0 -149 47 -149 122c0 12 1 26 4 42zM219 62c61 0 112 40 112 99c0 37 -25 67 -73 67h-100l-12 -80c-2 -14 -3 -25 -3 -32c0 -36 25 -54 76 -54z
" />
    <glyph glyph-name="afii10094" unicode="&#x44c;" 
d="M202 500h80l-29 -200h108c89 0 139 -55 139 -128c0 -52 -19 -95 -57 -130s-85 -52 -141 -52c-93 0 -154 49 -154 122c0 12 1 26 4 42zM309 62c61 0 112 40 112 99c0 37 -25 67 -73 67h-105l-12 -80c-2 -14 -3 -25 -3 -32c0 -35 32 -54 81 -54z" />
    <glyph glyph-name="afii10095" unicode="&#x44d;" 
d="M258 223l10 72h159l6 37c1 7 1 12 1 15c0 51 -38 90 -95 90s-99 -30 -110 -83h-81c0 27 17 62 48 95c31 35 87 61 151 61c104 0 168 -65 168 -154l-2 -27l-21 -154c-7 -51 -29 -95 -68 -131s-88 -54 -148 -54c-97 0 -165 52 -165 139l1 28h81c-1 -7 -1 -13 -1 -19
c0 -44 25 -77 85 -77c72 0 124 46 133 109l7 53h-159z" />
    <glyph glyph-name="afii10096" unicode="&#x44e;" 
d="M565 348l-29 -204c-7 -45 -26 -82 -58 -111c-31 -29 -70 -43 -115 -43c-81 0 -138 55 -138 135l2 26l11 77h-79l-32 -228h-79l70 500h80l-29 -200h79l8 55c6 44 25 81 57 110s70 44 115 44c83 0 139 -55 139 -132c0 -9 -1 -18 -2 -29zM456 140l30 219c1 7 1 11 1 14
c0 40 -27 66 -64 66c-44 0 -80 -32 -87 -80l-30 -219c-1 -7 -1 -11 -1 -14c0 -40 27 -66 64 -66c45 0 80 32 87 80z" />
    <glyph glyph-name="afii10097" unicode="&#x44f;" 
d="M169 0h-94l148 194c-50 26 -75 66 -75 120c0 52 18 96 55 132s85 54 145 54h182l-71 -500h-80l25 180h-103zM439 428h-100c-64 0 -112 -39 -112 -103c0 -44 30 -75 87 -75h100z" />
    <glyph glyph-name="afii10071" unicode="&#x451;" 
d="M212 342l-14 -104l180 54c44 14 66 36 66 66c0 49 -39 81 -96 81c-36 0 -67 -10 -93 -29c-25 -19 -40 -42 -43 -68zM107 174l24 164c7 45 30 85 71 120s91 52 151 52c49 0 89 -14 121 -41s48 -60 48 -101c0 -88 -49 -126 -137 -151l-198 -57c-1 -7 -1 -11 -1 -13
c0 -48 44 -86 108 -86c48 0 104 12 129 23l19 7l-10 -78c-39 -15 -88 -23 -147 -23c-54 0 -98 15 -131 44s-49 65 -49 108c0 9 1 20 2 32zM320 581h-89l13 89h89zM489 581h-89l13 89h89z" />
    <glyph glyph-name="afii10099" unicode="&#x452;" 
d="M523 347l-2 -23l-46 -326c-5 -40 -26 -74 -61 -102s-73 -42 -114 -42h-18l10 73h18c43 0 81 33 86 73l45 325c1 6 1 11 1 14c0 53 -37 90 -97 90c-32 0 -62 -11 -91 -33c-28 -22 -44 -46 -47 -71l-45 -325h-80l78 560h-58l10 72h58l10 68h80l-10 -68h126l-10 -72h-126
l-17 -119c4 5 10 10 18 17s24 15 49 26s50 17 75 17c99 0 158 -63 158 -154z" />
    <glyph glyph-name="afii10100" unicode="&#x453;" 
d="M268 -10c-46 0 -85 12 -116 37s-46 56 -46 93c0 71 47 121 106 145c85 35 193 58 193 119c0 32 -33 54 -80 54c-51 0 -98 -32 -103 -81h-82c0 33 18 67 53 101c35 35 83 52 142 52c93 0 155 -49 155 -122c-1 -125 -134 -145 -224 -182c-44 -15 -78 -42 -78 -79
s38 -65 90 -65c40 0 70 11 90 34s30 43 30 62h80c0 -55 -53 -168 -210 -168zM560 695l-173 -148h-86l142 148h117z" />
    <glyph glyph-name="afii10101" unicode="&#x454;" 
d="M222 332l-5 -37h160l-10 -72h-160l-6 -47c-1 -7 -2 -15 -2 -25c0 -55 36 -90 97 -90c76 0 111 48 118 96h81c-8 -57 -32 -100 -71 -127s-83 -40 -132 -40c-52 0 -94 16 -126 47c-31 31 -47 69 -47 113c0 9 1 22 3 40l19 139c7 52 30 95 68 129c38 35 86 52 145 52
c96 0 161 -55 161 -134c0 -5 -1 -13 -2 -22h-81c1 3 1 7 1 13c0 39 -28 70 -88 70c-31 0 -59 -10 -82 -31s-37 -45 -41 -74z" />
    <glyph glyph-name="afii10102" unicode="&#x455;" 
d="M292 -10c-107 0 -170 59 -170 146l2 22h77c-1 -7 -1 -13 -1 -17c0 -51 36 -79 92 -79c57 0 103 31 103 79c0 94 -224 73 -224 216c0 47 18 84 54 111c36 28 79 42 128 42c53 0 92 -14 119 -43s40 -59 40 -92l-1 -18h-83c1 5 1 9 1 12c0 40 -37 69 -85 69
c-44 0 -88 -27 -88 -68c0 -86 224 -63 224 -217c0 -47 -18 -86 -55 -117c-36 -31 -80 -46 -133 -46z" />
    <glyph glyph-name="afii10103" unicode="&#x456;" 
d="M388 583h-92l13 89h92zM127 500h247l-51 -361c-1 -6 -1 -12 -1 -18c0 -29 17 -49 50 -49h94l-9 -72h-103c-67 0 -114 48 -114 117c0 10 1 20 2 29l40 282h-167z" />
    <glyph glyph-name="afii10104" unicode="&#x457;" 
d="M301 581h-89l13 89h89zM470 581h-89l13 89h89zM127 500h247l-51 -361c-1 -6 -1 -12 -1 -18c0 -29 17 -49 50 -49h94l-9 -72h-103c-67 0 -114 48 -114 117c0 10 1 20 2 29l40 282h-167z" />
    <glyph glyph-name="afii10105" unicode="&#x458;" 
d="M338 -23l17 116c-12 -11 -29 -23 -50 -34l-130 -68c-25 -13 -43 -38 -43 -58c0 -31 30 -52 78 -52c30 0 58 10 84 29s41 42 44 67zM239 500h251l-73 -529c-6 -45 -29 -83 -70 -114c-40 -31 -88 -47 -143 -47c-43 0 -80 10 -110 31c-29 20 -44 47 -44 82
c0 55 30 98 91 130l172 91c23 12 42 27 49 34l5 6l34 244h-172zM504 583h-92l13 89h92z" />
    <glyph glyph-name="afii10106" unicode="&#x459;" 
d="M183 500h236l-29 -200h48c91 0 139 -56 139 -135c0 -103 -63 -175 -166 -175c-83 0 -125 38 -125 113c0 14 1 29 4 45l39 280h-84c-34 -165 -58 -276 -73 -333c-15 -61 -66 -101 -133 -101h-23l9 69c17 0 26 1 42 8c17 8 30 27 37 58c25 107 51 231 79 371zM418 62
c51 0 80 38 80 94c0 43 -22 72 -73 72h-45l-12 -80c-2 -14 -3 -25 -3 -32c0 -36 18 -54 53 -54z" />
    <glyph glyph-name="afii10107" unicode="&#x45a;" 
d="M283 148l11 80h-131l-32 -228h-80l70 500h80l-28 -200h131l28 200h79l-28 -200h48c91 0 139 -56 139 -135c0 -103 -63 -175 -166 -175c-83 0 -125 38 -125 113c0 14 1 29 4 45zM411 62c51 0 80 38 80 94c0 43 -22 72 -73 72h-45l-12 -80c-2 -14 -3 -25 -3 -32
c0 -36 18 -54 53 -54z" />
    <glyph glyph-name="afii10108" unicode="&#x45b;" 
d="M161 560h-62l10 73h62l10 67h79l-10 -67h126l-10 -73h-126l-15 -114l17 15c8 6 24 14 48 24c25 10 50 15 75 15c99 0 158 -60 158 -151c0 -9 -1 -20 -2 -32l-46 -317h-79l45 320c1 5 1 12 1 21c0 53 -36 87 -97 87c-32 0 -62 -11 -90 -33c-28 -21 -44 -45 -47 -70
l-46 -325h-80z" />
    <glyph glyph-name="afii10109" unicode="&#x45c;" 
d="M513 0h-102l-189 259l-36 -259h-80l70 500h80l-33 -232l247 232h102l-261 -238zM570 695l-173 -148h-86l142 148h117z" />
    <glyph glyph-name="afii10110" unicode="&#x45e;" 
d="M232 659l2 26h75c-1 -9 -2 -15 -2 -20c0 -33 13 -49 39 -49h26c31 0 49 23 56 69h75c-11 -77 -61 -127 -134 -127h-31c-65 0 -106 40 -106 101zM378 -23l15 110c-9 -11 -21 -20 -37 -28l-139 -74c-25 -13 -38 -31 -38 -53c0 -31 30 -51 73 -51c32 0 60 10 84 29
c25 19 39 42 42 67zM451 500h81l-75 -529c-7 -46 -30 -84 -69 -115s-86 -46 -141 -46c-85 0 -149 43 -149 108c0 47 21 82 64 105l71 35c-37 3 -67 19 -89 48s-33 61 -33 98c0 11 1 22 2 31l39 265h80l-38 -265c-1 -11 -2 -22 -2 -33c0 -51 44 -84 97 -84c28 0 54 10 79 29
s40 41 43 66z" />
    <glyph glyph-name="afii10193" unicode="&#x45f;" 
d="M302 -105h-75l14 96c-87 9 -136 68 -136 148l3 37l45 324h81l-47 -330c-1 -5 -1 -12 -1 -19c0 -52 33 -89 96 -89c32 0 62 11 90 32c29 22 45 46 48 71l48 335h80l-70 -500h-77l6 45c-27 -23 -58 -38 -91 -47z" />
    <glyph glyph-name="afii10146" unicode="&#x462;" 
d="M98 623l11 77h347l-12 -77h-138l-30 -215h105c89 0 146 -53 146 -132c0 -8 -1 -18 -2 -30l-12 -90c-12 -91 -82 -156 -182 -156h-196l87 623h-124zM428 155l13 91c1 9 2 17 2 24c0 35 -30 60 -70 60h-108l-35 -251h108c48 0 83 33 90 76z" />
    <glyph glyph-name="afii10194" unicode="&#x463;" 
d="M409 580l-10 -70h-115l-31 -210h108c89 0 139 -55 139 -128c0 -52 -19 -95 -57 -130s-85 -52 -141 -52c-93 0 -154 49 -154 122c0 12 1 26 4 42l53 356h-102l10 70h100l17 120h80l-17 -120h116zM309 62c61 0 112 40 112 99c0 37 -25 67 -73 67h-105l-12 -80
c-2 -14 -3 -25 -3 -32c0 -35 32 -54 81 -54z" />
    <glyph glyph-name="afii10147" unicode="&#x472;" 
d="M547 525l-49 -351c-7 -50 -30 -93 -69 -130c-39 -36 -89 -54 -151 -54c-55 0 -99 15 -131 46c-31 31 -47 69 -47 113c0 11 1 22 3 32l48 345c7 50 30 93 69 129c39 37 90 55 153 55c55 0 98 -16 129 -47s47 -68 47 -112c0 -7 -1 -15 -2 -26zM413 173l20 145
c-16 -12 -34 -18 -53 -18c-17 0 -39 7 -64 22s-41 22 -50 22c-24 0 -44 -11 -61 -33l-19 -137v-6c-1 -5 -1 -9 -1 -12c0 -48 37 -87 101 -87c69 0 119 48 127 104zM236 527l-17 -122c18 12 37 18 58 18c17 0 37 -7 61 -22s41 -22 52 -22c21 0 40 12 57 35l16 113
c0 1 1 12 1 16c0 49 -36 88 -99 88c-72 0 -121 -48 -129 -104z" />
    <glyph glyph-name="afii10195" unicode="&#x473;" 
d="M528 352l-2 -27l-22 -151c-8 -53 -31 -97 -70 -132c-38 -35 -88 -52 -150 -52c-54 0 -97 15 -130 44c-32 30 -48 67 -48 111l2 30l21 151c7 52 31 96 70 131s90 53 152 53c53 0 95 -15 128 -45s49 -68 49 -113zM424 169l6 41c-7 -5 -40 -17 -61 -17c-17 0 -38 6 -63 19
c-24 13 -40 19 -49 19c-23 0 -44 -10 -65 -31l-4 -30c-1 -7 -1 -12 -1 -17c0 -52 40 -92 105 -92c71 0 124 48 132 108zM210 331l-6 -41c23 11 44 17 63 17c17 0 37 -6 62 -19s42 -19 53 -19c19 0 39 10 59 30l5 32c1 5 1 11 1 16c0 52 -40 92 -104 92
c-71 0 -125 -48 -133 -108z" />
    <glyph glyph-name="afii10148" unicode="&#x474;" 
d="M515 554l-178 -554h-139l-28 700h84l19 -621h11l155 497c27 86 77 129 151 129h17l-11 -74c-43 0 -64 -28 -81 -77z" />
    <glyph glyph-name="afii10196" unicode="&#x475;" 
d="M478 399l-152 -399h-129l-49 500h80l34 -437h15l128 352c23 62 66 93 131 93h16l-9 -63c-35 0 -50 -10 -65 -46z" />
    <glyph glyph-name="afii10050" unicode="&#x490;" 
d="M418 0h-383l11 79h126l87 621h267l15 107h79l-26 -186h-261l-76 -542h172z" />
    <glyph glyph-name="afii10098" unicode="&#x491;" 
d="M193 72l60 428h223c14 0 22 6 23 19l10 76h71l-15 -109c-5 -39 -28 -58 -69 -58h-173l-50 -356h170l-10 -72h-403l10 72h153z" />
    <glyph glyph-name="afii10846" unicode="&#x4d9;" 
d="M224 350h-83c3 35 22 71 58 106c37 36 87 54 150 54c109 0 177 -69 177 -161l-3 -37l-20 -139c-7 -51 -30 -95 -69 -130s-89 -53 -150 -53c-55 0 -98 15 -129 45c-31 31 -47 68 -47 112c0 15 1 26 2 34l15 94h312l7 55c1 7 1 12 1 15c0 53 -39 94 -103 94
c-31 0 -59 -9 -82 -28s-35 -39 -36 -61zM422 170l4 33h-234l-4 -33c-1 -7 -1 -13 -1 -16c0 -52 38 -92 102 -92c71 0 125 48 133 108z" />
    <glyph glyph-name="Wgrave" unicode="&#x1e80;" 
d="M388 78l71 328l41 294h84l-42 -298l-96 -402h-136l6 273h-8l-70 -273h-136l17 402l42 298h84l-41 -291l-23 -331h10l75 265h112v-265h10zM352 894l106 -148h-85l-131 148h110z" />
    <glyph glyph-name="wgrave" unicode="&#x1e81;" 
d="M570 239c-7 -44 -17 -83 -30 -118s-34 -65 -63 -92c-29 -26 -63 -39 -104 -39c-63 0 -94 41 -102 56l-3 7c-3 -5 -7 -11 -13 -18c-5 -7 -19 -16 -40 -28c-21 -11 -44 -17 -69 -17c-67 0 -112 51 -112 127c0 29 2 55 6 79l45 304h80l-47 -310c-4 -26 -6 -47 -6 -64
c0 -37 17 -63 48 -63c57 0 91 49 104 147l40 290h78l-47 -327c-3 -23 -5 -42 -5 -57c0 -28 19 -53 47 -53c63 0 101 81 114 189c10 79 15 124 15 135c0 29 -17 46 -51 51l10 72c68 0 121 -39 121 -119c0 -29 -5 -79 -16 -152zM326 694l106 -148h-85l-131 148h110z" />
    <glyph glyph-name="Wacute" unicode="&#x1e82;" 
d="M388 78l71 328l41 294h84l-42 -298l-96 -402h-136l6 273h-8l-70 -273h-136l17 402l42 298h84l-41 -291l-23 -331h10l75 265h112v-265h10zM543 895l-173 -148h-86l142 148h117z" />
    <glyph glyph-name="wacute" unicode="&#x1e83;" 
d="M570 239c-7 -44 -17 -83 -30 -118s-34 -65 -63 -92c-29 -26 -63 -39 -104 -39c-63 0 -94 41 -102 56l-3 7c-3 -5 -7 -11 -13 -18c-5 -7 -19 -16 -40 -28c-21 -11 -44 -17 -69 -17c-67 0 -112 51 -112 127c0 29 2 55 6 79l45 304h80l-47 -310c-4 -26 -6 -47 -6 -64
c0 -37 17 -63 48 -63c57 0 91 49 104 147l40 290h78l-47 -327c-3 -23 -5 -42 -5 -57c0 -28 19 -53 47 -53c63 0 101 81 114 189c10 79 15 124 15 135c0 29 -17 46 -51 51l10 72c68 0 121 -39 121 -119c0 -29 -5 -79 -16 -152zM506 695l-173 -148h-86l142 148h117z" />
    <glyph glyph-name="Wdieresis" unicode="&#x1e84;" 
d="M388 78l71 328l41 294h84l-42 -298l-96 -402h-136l6 273h-8l-70 -273h-136l17 402l42 298h84l-41 -291l-23 -331h10l75 265h112v-265h10zM342 781h-89l13 89h89zM511 781h-89l13 89h89z" />
    <glyph glyph-name="wdieresis" unicode="&#x1e85;" 
d="M570 239c-7 -44 -17 -83 -30 -118s-34 -65 -63 -92c-29 -26 -63 -39 -104 -39c-63 0 -94 41 -102 56l-3 7c-3 -5 -7 -11 -13 -18c-5 -7 -19 -16 -40 -28c-21 -11 -44 -17 -69 -17c-67 0 -112 51 -112 127c0 29 2 55 6 79l45 304h80l-47 -310c-4 -26 -6 -47 -6 -64
c0 -37 17 -63 48 -63c57 0 91 49 104 147l40 290h78l-47 -327c-3 -23 -5 -42 -5 -57c0 -28 19 -53 47 -53c63 0 101 81 114 189c10 79 15 124 15 135c0 29 -17 46 -51 51l10 72c68 0 121 -39 121 -119c0 -29 -5 -79 -16 -152zM308 581h-89l13 89h89zM477 581h-89l13 89h89z
" />
    <glyph glyph-name="Ygrave" unicode="&#x1ef2;" 
d="M144 700h92l96 -275l169 275h94l-235 -369l-46 -331h-85l47 331zM328 894l106 -148h-85l-131 148h110z" />
    <glyph glyph-name="ygrave" unicode="&#x1ef3;" 
d="M378 -23l15 110c-9 -11 -21 -20 -37 -28l-145 -77c-21 -11 -32 -28 -32 -50c0 -31 29 -52 73 -52c32 0 60 10 84 29c25 19 39 42 42 68zM451 500h81l-75 -529c-7 -46 -29 -84 -68 -115s-86 -46 -142 -46c-85 0 -149 41 -149 108c0 49 22 86 66 110l69 30
c-37 3 -67 19 -89 48s-33 61 -33 98c0 11 1 22 2 31l39 265h80l-38 -262c0 -1 0 -6 -1 -16s-1 -17 -1 -20c0 -51 44 -84 97 -84c28 0 54 10 79 29s40 41 43 66zM324 694l106 -148h-85l-131 148h110z" />
    <glyph glyph-name="endash" unicode="&#x2013;" 
d="M136 332h380l-11 -78h-380z" />
    <glyph glyph-name="emdash" unicode="&#x2014;" 
d="M30 332h596l-11 -78h-596z" />
    <glyph glyph-name="quoteleft" unicode="&#x2018;" 
d="M364 700h56l-66 -214h-92z" />
    <glyph glyph-name="quoteright" unicode="&#x2019;" 
d="M318 486h-56l66 214h92z" />
    <glyph glyph-name="quotesinglbase" unicode="&#x201a;" 
d="M276 -116h-56l66 214h92z" />
    <glyph glyph-name="quotedblleft" unicode="&#x201c;" 
d="M440 701h56l-66 -214h-92zM288 701h56l-66 -214h-92z" />
    <glyph glyph-name="quotedblright" unicode="&#x201d;" 
d="M242 487h-56l66 214h92zM394 487h-56l66 214h92z" />
    <glyph glyph-name="quotedblbase" unicode="&#x201e;" 
d="M200 -116h-56l66 214h92zM352 -116h-56l66 214h92z" />
    <glyph glyph-name="dagger" unicode="&#x2020;" 
d="M392 500h117l-11 -77h-117l-85 -603h-83l85 603h-114l11 77h114l28 200h83z" />
    <glyph glyph-name="daggerdbl" unicode="&#x2021;" 
d="M332 78h117l-11 -78h-117l-25 -180h-83l25 180h-114l11 78h114l49 345h-114l11 77h114l28 200h83l-28 -200h117l-11 -77h-117z" />
    <glyph glyph-name="bullet" unicode="&#x2022;" 
d="M169 359c0 41 15 77 44 106c29 30 65 45 107 45c41 0 77 -15 106 -45c30 -29 45 -65 45 -106c0 -42 -15 -78 -45 -107c-29 -29 -65 -44 -106 -44c-42 0 -78 15 -107 44s-44 65 -44 107z" />
    <glyph glyph-name="ellipsis" unicode="&#x2026;" 
d="M146 0h-98l14 98h98zM345 0h-98l14 98h98zM544 0h-98l14 98h98z" />
    <glyph glyph-name="perthousand" unicode="&#x2030;" 
d="M39 101l12 84c8 60 60 105 131 105c57 0 101 -39 101 -90c0 -3 -1 -11 -2 -23l-12 -83c-9 -60 -60 -104 -129 -104c-59 0 -103 39 -103 88c0 7 1 15 2 23zM114 185l-11 -77c-1 -9 -2 -17 -2 -23c0 -23 19 -41 46 -41c32 0 55 21 59 50l11 76c1 9 2 17 2 22
c0 24 -20 43 -45 43c-32 0 -56 -21 -60 -50zM308 101l12 84c8 60 60 105 131 105c57 0 101 -39 101 -90c0 -3 -1 -11 -2 -23l-12 -83c-9 -60 -60 -104 -129 -104c-59 0 -103 39 -103 88c0 7 1 15 2 23zM383 185l-11 -77c-1 -9 -2 -17 -2 -23c0 -23 19 -41 46 -41
c32 0 55 21 59 50l11 76c1 9 2 17 2 22c0 24 -20 43 -45 43c-32 0 -56 -21 -60 -50zM98 521l12 84c8 60 60 105 131 105c57 0 101 -39 101 -90c0 -3 -1 -11 -2 -23l-12 -83c-9 -60 -60 -104 -129 -104c-59 0 -103 39 -103 88c0 7 1 15 2 23zM173 605l-11 -77
c-1 -9 -2 -17 -2 -23c0 -23 19 -41 46 -41c32 0 55 21 59 50l11 76c1 9 2 17 2 22c0 24 -20 43 -45 43c-32 0 -56 -21 -60 -50zM65 286l8 57l522 157l-8 -55z" />
    <glyph glyph-name="guilsinglleft" unicode="&#x2039;" 
d="M304 291l102 -158h-94l-100 158l144 159h93z" />
    <glyph glyph-name="guilsinglright" unicode="&#x203a;" 
d="M428 291l-144 -158h-93l145 158l-102 159h94z" />
    <glyph glyph-name="fraction" unicode="&#x2044;" 
d="M125 0h-54l453 700h53z" />
    <glyph glyph-name="Euro" unicode="&#x20ac;" 
d="M160 377h-58l12 77h57l10 72c7 53 31 96 70 131c40 35 89 53 146 53c55 0 97 -16 126 -49c30 -33 45 -69 45 -108l-2 -28h-83c1 8 1 13 1 16c0 49 -39 90 -94 90c-61 0 -115 -45 -123 -104l-10 -73h211l-12 -77h-210l-9 -59h183l-12 -77h-182l-7 -52c-1 -9 -2 -20 -2 -31
c0 -52 39 -89 95 -89c72 0 121 54 122 125h83c0 -55 -20 -102 -60 -143c-39 -41 -89 -61 -149 -61c-52 0 -95 15 -128 45c-33 31 -49 69 -49 114c0 9 1 19 2 31l8 61h-59l12 77h58z" />
    <glyph glyph-name="trademark" unicode="&#x2122;" 
d="M170 649h-69l8 51h195l-8 -51h-70l-40 -285h-56zM447 563l82 137h58l-48 -336h-56l29 201l10 41l-4 1l-17 -37l-40 -67h-44l-24 67l-9 35l-4 -1l2 -40l-28 -200h-55l48 336h57z" />
    <glyph glyph-name="partialdiff" unicode="&#x2202;" 
d="M393 158l21 146c1 5 1 9 1 11c0 47 -39 84 -91 84c-64 0 -109 -43 -117 -95l-19 -132v-4c-1 -7 -2 -16 -2 -21c0 -47 39 -84 92 -84c61 0 108 43 115 95zM326 700h41c101 0 161 -57 161 -152c0 -9 -1 -20 -2 -32l-51 -364c-13 -96 -82 -162 -198 -162
c-103 0 -173 59 -173 143l2 35l20 142c7 45 29 84 66 116c38 32 83 48 134 48c43 0 78 -14 106 -42l11 77c1 9 2 19 2 30c0 48 -28 89 -88 89h-41z" />
    <glyph glyph-name="uni2206" unicode="&#x2206;" 
d="M481 0h-413l231 700h147zM371 621h-19l-174 -543h215z" />
    <glyph glyph-name="product" unicode="&#x220f;" 
d="M183 700h385l-110 -789h-84l100 712h-217l-100 -712h-84z" />
    <glyph glyph-name="summation" unicode="&#x2211;" 
d="M556 621h-275l99 -284l-6 -45l-193 -302h296l-11 -79h-392l9 67l213 336l-111 319l9 67h373z" />
    <glyph glyph-name="minus" unicode="&#x2212;" 
d="M104 331h443l-12 -80h-443z" />
    <glyph glyph-name="radical" unicode="&#x221a;" 
d="M289 -88h-127l-35 399c-7 44 -22 46 -56 45l9 63c3 1 9 1 20 1c66 0 101 -31 105 -93l25 -352h11l344 817h79z" />
    <glyph glyph-name="infinity" unicode="&#x221e;" 
d="M419 175c-42 0 -78 19 -107 58c-39 -39 -78 -58 -118 -58c-57 0 -102 43 -102 98c0 36 12 66 37 91s56 38 92 38c45 0 80 -19 107 -58c39 39 78 58 118 58c57 0 101 -42 101 -97c0 -37 -13 -68 -38 -93s-55 -37 -90 -37zM435 332c-19 0 -42 -14 -71 -43
c21 -29 41 -44 60 -44c25 0 52 24 52 49c0 21 -18 38 -41 38zM204 245c21 0 44 15 70 44c-18 29 -38 43 -61 43c-27 0 -50 -23 -50 -47c0 -23 17 -40 41 -40z" />
    <glyph glyph-name="integral" unicode="&#x222b;" 
d="M95 -180l10 73h58c37 0 69 28 74 67l84 602c5 39 24 71 55 98s67 40 108 40h57l-11 -73h-58c-37 0 -68 -28 -73 -67l-85 -602c-5 -39 -24 -72 -55 -98c-31 -27 -66 -40 -107 -40h-57z" />
    <glyph glyph-name="approxequal" unicode="&#x2248;" 
d="M180 319h-76c5 33 20 61 46 86s57 38 93 38c26 0 60 -9 101 -28s71 -28 89 -28c29 0 47 25 50 48h77c-9 -71 -64 -124 -137 -124c-28 0 -63 9 -106 28s-71 28 -84 28c-31 0 -50 -21 -53 -48zM156 148h-76c5 33 20 61 46 86s57 38 93 38c26 0 60 -9 101 -28s71 -28 89 -28
c29 0 46 24 50 48h77c-9 -71 -64 -124 -137 -124c-28 0 -63 9 -106 28s-71 28 -84 28c-31 0 -50 -21 -53 -48z" />
    <glyph glyph-name="notequal" unicode="&#x2260;" 
d="M96 167l10 78h162l49 94h-197l11 78h227l71 137h54l-71 -137h133l-11 -78h-163l-49 -94h198l-10 -78h-228l-72 -138h-54l72 138h-132z" />
    <glyph glyph-name="lessequal" unicode="&#x2264;" 
d="M74 0l11 78h414l-11 -78h-414zM504 119l-389 174l10 73l438 173l-12 -86l-331 -124l297 -123z" />
    <glyph glyph-name="greaterequal" unicode="&#x2265;" 
d="M74 0l11 78h414l-11 -78h-414zM149 539l390 -173l-10 -73l-439 -174l13 87l331 123l-297 124z" />
    <glyph glyph-name="lozenge" unicode="&#x25ca;" 
d="M409 700l106 -350l-204 -350h-73l-105 350l204 350h72zM364 605h-7l-142 -255l70 -259h7l141 259z" />
    <glyph glyph-name="zero.slash" unicode="&#xf638;" 
d="M531 526l-50 -352c-7 -53 -30 -97 -67 -132s-82 -52 -137 -52c-47 0 -86 15 -116 44c-30 30 -45 67 -45 112c0 6 1 16 2 29l49 351c7 53 29 96 65 131c37 35 82 53 137 53c47 0 86 -15 117 -45s47 -67 47 -112c0 -6 -1 -15 -2 -27zM443 493l-28 -53l-201 -338
c17 -22 41 -33 71 -33c59 0 105 44 113 104zM249 525l-45 -319l28 53l199 340c-17 21 -39 32 -68 32c-59 0 -106 -46 -114 -106z" />
    <glyph glyph-name="commaaccent" unicode="&#xf6c3;" 
d="M261 -205h-67l86 151h101z" />
    <glyph glyph-name="cyrbreve" unicode="&#xf6d4;" 
d="M216 656l1 29h75c0 -46 14 -69 42 -69h23c33 0 51 23 55 69h72c0 -33 -12 -63 -36 -89c-23 -25 -54 -38 -93 -38h-31c-64 0 -108 45 -108 98z" />
  </font>
</defs>
</svg>
